<svg width="313" height="580" viewBox="0 0 313 580" fill="none" xmlns="http://www.w3.org/2000/svg">
<rect x="1.5" y="1.5" width="310" height="577" rx="18.5" fill="#FCECDD"/>
<g clip-path="url(#clip0_3999_909)">
<mask id="mask0_3999_909" style="mask-type:luminance" maskUnits="userSpaceOnUse" x="133" y="66" width="53" height="53">
<path d="M186 92.5C186 77.8645 174.136 66 159.5 66C144.864 66 133 77.8645 133 92.5C133 107.136 144.864 119 159.5 119C174.136 119 186 107.136 186 92.5Z" fill="white"/>
</mask>
<g mask="url(#mask0_3999_909)">
<path d="M186 66H133V119H186V66Z" fill="#144272"/>
<path d="M146.25 72.625H172.75V75.9375H176.062V85.875H179.375V92.5H176.062V102.438H172.75V105.75H162.812V109.062H176.062V112.375H179.375V119H139.625V112.375H142.938V109.062H156.188V105.75H146.25V102.438H142.938V92.5H139.625V85.875H142.938V75.9375H146.25V72.625Z" fill="#F5CFA0"/>
<path d="M146.25 72.625H172.75V75.9375H176.062V85.875H179.375V92.5H176.062V102.438H172.75V105.75H146.25V102.438H142.938V92.5H139.625V85.875H142.938V75.9375H146.25V72.625Z" fill="white" fill-opacity="0.1"/>
<path d="M149.562 109.062H146.25V119H156.188V115.688H152.875V112.375H149.562V109.062ZM172.75 109.062H169.438V112.375H166.125V115.688H162.812V119H172.75V109.062Z" fill="#44C585"/>
<path d="M146.25 82.5625H156.188V92.5H146.25V82.5625ZM162.812 82.5625H172.75V92.5H162.812V82.5625Z" fill="white"/>
<path d="M146.25 85.875H152.875V89.1875H146.25V85.875ZM162.812 85.875H169.438V89.1875H162.812V85.875Z" fill="#588387"/>
<path d="M146.25 85.875H149.562V89.1875H146.25V85.875ZM162.812 85.875H166.125V89.1875H162.812V85.875Z" fill="white" fill-opacity="0.7"/>
<path d="M152.875 95.8125V99.125H162.812V102.438H166.125V99.125H162.812V95.8125H152.875Z" fill="#E35D6A"/>
<path d="M142.938 79.25H146.25V89.1875H142.938V79.25ZM172.75 79.25H176.062V89.1875H172.75V79.25ZM142.938 72.625H176.062V79.25H142.938V72.625Z" fill="#83623B"/>
</g>
</g>
<path d="M32.262 151.246H34.704V158.858C34.704 162.51 34.308 167.614 31.668 170.738C31.228 170.298 30.172 169.638 29.578 169.352C32.064 166.448 32.262 162.136 32.262 158.858V151.246ZM35.694 158.594H38.18V167.46C38.18 168.318 38.29 168.428 39.038 168.428C39.39 168.428 40.886 168.428 41.304 168.428C42.03 168.428 42.14 167.966 42.25 165.37C42.778 165.788 43.834 166.184 44.494 166.36C44.23 169.748 43.592 170.738 41.546 170.738C41.04 170.738 39.17 170.738 38.708 170.738C36.31 170.738 35.694 169.99 35.694 167.46V158.594ZM42.162 159.892L44.076 161.74C42.162 163.06 39.632 164.204 37.366 165.062C37.212 164.556 36.816 163.72 36.508 163.236C38.576 162.378 40.82 161.058 42.162 159.892ZM33.692 151.246H43.592V157.89H33.692V155.58H41.128V153.578H33.692V151.246ZM25.706 151.884H30.876V166.888H25.706V164.578H28.544V154.194H25.706V151.884ZM25.926 158.22H29.556V160.486H25.926V158.22ZM24.408 151.884H26.696V168.67H24.408V151.884ZM48.548 152.368H51.122V170.958H48.548V152.368ZM45.38 156.504H53.454V158.968H45.38V156.504ZM48.702 157.494L50.242 158.176C49.406 161.322 47.844 165.238 46.15 167.416C45.908 166.646 45.336 165.546 44.918 164.886C46.458 163.126 47.998 159.936 48.702 157.494ZM51.98 150.542L53.74 152.588C51.496 153.446 48.438 154.04 45.864 154.37C45.754 153.798 45.424 152.918 45.116 152.368C47.558 151.95 50.286 151.312 51.98 150.542ZM51.056 159.562C51.606 160.024 53.52 162.004 53.938 162.51L52.442 164.578C51.914 163.522 50.594 161.52 49.912 160.596L51.056 159.562ZM55.698 150.388L58.272 150.894C57.458 154.26 56.072 157.494 54.488 159.562C54.004 159.166 52.86 158.44 52.244 158.132C53.85 156.306 55.082 153.358 55.698 150.388ZM55.324 159.144L57.81 159.628C57.238 162.554 56.204 165.502 54.95 167.35C54.466 166.954 53.366 166.294 52.772 165.986C53.982 164.358 54.862 161.718 55.324 159.144ZM56.116 153.93H65.554V156.372H55.346L56.116 153.93ZM58.536 155.008H61.132V167.988C61.132 169.242 60.89 169.99 60.12 170.43C59.35 170.848 58.294 170.958 56.886 170.958C56.754 170.21 56.358 169.022 55.984 168.318C56.908 168.34 57.832 168.34 58.14 168.34C58.426 168.34 58.536 168.274 58.536 167.966V155.008ZM61.66 159.672L63.948 158.968C64.872 161.366 65.708 164.38 65.994 166.426L63.552 167.196C63.332 165.172 62.496 162.026 61.66 159.672ZM77 157.67C75.834 157.67 74.888 156.79 74.888 155.602C74.888 154.392 75.834 153.512 77 153.512C78.144 153.512 79.09 154.392 79.09 155.602C79.09 156.79 78.144 157.67 77 157.67ZM77 168.164C75.834 168.164 74.888 167.284 74.888 166.096C74.888 164.886 75.834 164.006 77 164.006C78.144 164.006 79.09 164.886 79.09 166.096C79.09 167.284 78.144 168.164 77 168.164Z" fill="#FFC288"/>
<path d="M25.926 300.092H30.414V302.468H25.926V300.092ZM25.772 305.108H29.864V307.506H25.772V305.108ZM25.772 310.234H29.886V312.676H25.772V310.234ZM24.672 300.092H27.026V308.078C27.026 311.598 26.828 316.724 25.508 319.98C25.068 319.606 23.968 319.012 23.374 318.814C24.584 315.778 24.672 311.334 24.672 308.1V300.092ZM29.05 300.092H31.47V317.054C31.47 318.176 31.294 318.924 30.634 319.342C29.974 319.782 29.116 319.848 27.818 319.848C27.752 319.166 27.466 318 27.136 317.34C27.818 317.362 28.5 317.362 28.72 317.362C28.962 317.34 29.05 317.252 29.05 316.988V300.092ZM33.472 300.466L35.936 300.906C35.408 304.162 34.44 307.418 33.23 309.508C32.768 309.134 31.646 308.474 31.052 308.188C32.262 306.34 33.032 303.37 33.472 300.466ZM36.904 299.608H39.478V318.55H36.904V299.608ZM32.9 310.366H43.438V312.808H32.9V310.366ZM31.998 316.944H44.318V319.452H31.998V316.944ZM34.264 304.03H43.768V306.516H33.274L34.264 304.03ZM54.07 299.344H56.776V302.424H54.07V299.344ZM54.07 312.192H56.776V320.002H54.07V312.192ZM45.556 313.622H65.444V316.042H45.556V313.622ZM46.304 301.456H64.762V303.854H46.304V301.456ZM62.54 304.118L64.916 305.262C63.794 306.296 62.496 307.286 61.506 307.968L59.592 306.934C60.56 306.186 61.836 305.02 62.54 304.118ZM53.85 303.194L56.094 304.008C55.192 305.174 54.224 306.384 53.454 307.198L51.804 306.472C52.508 305.57 53.366 304.162 53.85 303.194ZM57.172 304.8L59.218 305.724C57.37 307.88 54.95 310.344 53.036 311.862L51.496 311.026C53.41 309.398 55.764 306.78 57.172 304.8ZM50.726 306.714L51.936 305.218C53.19 305.966 54.928 307.11 55.764 307.902L54.466 309.596C53.696 308.782 52.002 307.55 50.726 306.714ZM50.528 310.212C52.706 310.146 55.984 310.014 59.218 309.86L59.196 311.708C56.226 311.972 53.212 312.192 50.88 312.368L50.528 310.212ZM56.578 308.738L58.426 307.946C59.394 309.178 60.45 310.85 60.846 311.972L58.844 312.896C58.492 311.774 57.502 310.014 56.578 308.738ZM45.314 310.63C46.722 310.168 48.856 309.354 50.902 308.562L51.364 310.52C49.736 311.312 47.998 312.126 46.568 312.742L45.314 310.63ZM45.996 305.768L47.734 304.36C48.878 304.976 50.418 305.944 51.166 306.648L49.318 308.232C48.636 307.506 47.162 306.45 45.996 305.768ZM59.108 309.838L60.89 308.408C62.408 309.178 64.476 310.388 65.532 311.246L63.618 312.83C62.672 311.972 60.648 310.674 59.108 309.838ZM77 306.67C75.834 306.67 74.888 305.79 74.888 304.602C74.888 303.392 75.834 302.512 77 302.512C78.144 302.512 79.09 303.392 79.09 304.602C79.09 305.79 78.144 306.67 77 306.67ZM77 317.164C75.834 317.164 74.888 316.284 74.888 315.096C74.888 313.886 75.834 313.006 77 313.006C78.144 313.006 79.09 313.886 79.09 315.096C79.09 316.284 78.144 317.164 77 317.164Z" fill="#FFC288"/>
<path d="M26.176 200.092H30.664V202.468H26.176V200.092ZM26.022 205.108H30.114V207.506H26.022V205.108ZM26.022 210.234H30.136V212.676H26.022V210.234ZM24.922 200.092H27.276V208.078C27.276 211.598 27.078 216.724 25.758 219.98C25.318 219.606 24.218 219.012 23.624 218.814C24.834 215.778 24.922 211.334 24.922 208.1V200.092ZM29.3 200.092H31.72V217.054C31.72 218.176 31.544 218.924 30.884 219.342C30.224 219.782 29.366 219.848 28.068 219.848C28.002 219.166 27.716 218 27.386 217.34C28.068 217.362 28.75 217.362 28.97 217.362C29.212 217.34 29.3 217.252 29.3 216.988V200.092ZM33.722 200.466L36.186 200.906C35.658 204.162 34.69 207.418 33.48 209.508C33.018 209.134 31.896 208.474 31.302 208.188C32.512 206.34 33.282 203.37 33.722 200.466ZM37.154 199.608H39.728V218.55H37.154V199.608ZM33.15 210.366H43.688V212.808H33.15V210.366ZM32.248 216.944H44.568V219.452H32.248V216.944ZM34.514 204.03H44.018V206.516H33.524L34.514 204.03ZM45.63 204.58H52.67V207.066H45.63V204.58ZM48.028 199.63H50.492V214.37H48.028V199.63ZM45.322 214.7C47.126 214.15 49.92 213.16 52.538 212.214L53.044 214.612C50.734 215.58 48.182 216.614 46.18 217.384L45.322 214.7ZM52.978 200.312H62.262V202.798H52.978V200.312ZM63.186 206.208H65.826C65.826 206.208 65.804 207.022 65.76 207.352C65.342 214.942 64.902 217.802 64.11 218.77C63.582 219.452 63.054 219.672 62.328 219.782C61.69 219.892 60.766 219.892 59.732 219.87C59.688 219.144 59.402 218.088 59.006 217.384C59.842 217.472 60.612 217.494 61.03 217.494C61.382 217.494 61.58 217.428 61.822 217.12C62.372 216.504 62.834 213.776 63.186 206.714V206.208ZM54.012 209.024C53.814 208.474 53.264 207.22 52.912 206.582C53.572 206.472 54.408 205.988 55.244 205.438C56.102 204.91 59.05 202.908 60.986 200.708V200.554L62.218 200.114L64.088 201.588C61.294 204.162 58.258 206.34 55.684 207.748V207.814C55.684 207.814 54.012 208.562 54.012 209.024ZM54.012 209.024V206.912L55.244 206.208H64.088L64.066 208.694H55.992C55.112 208.694 54.21 208.804 54.012 209.024ZM60.15 207.77L62.438 208.188C61.118 213.336 58.698 217.34 55.354 219.826C54.936 219.43 53.924 218.704 53.352 218.396C56.828 216.196 59.05 212.434 60.15 207.77ZM56.498 207.77L58.786 208.21C57.906 211.18 56.212 213.644 54.166 215.206C53.748 214.81 52.78 214.084 52.252 213.776C54.276 212.456 55.794 210.3 56.498 207.77ZM66.888 210.806H78.02V212.918H66.888V210.806ZM67.152 203.04H77.954V205.108H67.152V203.04ZM70.848 209.222L73.29 209.75C72.212 212.016 70.782 214.7 69.726 216.46L67.416 215.756C68.45 214.062 69.902 211.312 70.848 209.222ZM73.972 212.28L76.392 212.478C75.6 217.098 73.29 218.946 68.054 220.002C67.9 219.276 67.416 218.352 66.976 217.824C71.354 217.274 73.268 215.888 73.972 212.28ZM75.534 199.586L77.756 200.466C77.03 201.456 76.326 202.468 75.754 203.15L74.06 202.38C74.566 201.61 75.182 200.422 75.534 199.586ZM71.332 199.3H73.752V209.53H71.332V199.3ZM67.68 200.466L69.572 199.674C70.166 200.51 70.716 201.632 70.914 202.424L68.89 203.304C68.736 202.534 68.23 201.368 67.68 200.466ZM71.398 204.074L73.114 205.108C72.014 206.846 69.902 208.76 68.054 209.794C67.746 209.222 67.174 208.342 66.69 207.858C68.472 207.132 70.452 205.57 71.398 204.074ZM73.532 204.712C74.324 205.086 76.832 206.56 77.448 206.978L76.04 208.804C75.226 207.99 73.268 206.428 72.3 205.746L73.532 204.712ZM79.472 203.304H87.546V205.746H79.472V203.304ZM79.714 199.3L82.376 199.674C81.694 204.228 80.374 208.452 78.35 211.136C77.932 210.652 76.854 209.706 76.26 209.266C78.108 207.022 79.186 203.238 79.714 199.3ZM83.696 204.8L86.402 205.042C85.456 212.566 83.19 217.274 77.624 220.068C77.36 219.43 76.59 218.22 76.106 217.648C81.122 215.448 83.036 211.312 83.696 204.8ZM80.968 205.262C81.848 210.828 83.784 215.58 87.832 217.648C87.216 218.176 86.38 219.232 85.984 219.958C81.562 217.318 79.648 212.214 78.57 205.636L80.968 205.262ZM69.352 215.778L70.76 213.974C73.356 214.964 76.106 216.504 77.602 217.692L75.776 219.562C74.368 218.33 71.816 216.79 69.352 215.778ZM98.75 206.67C97.584 206.67 96.638 205.79 96.638 204.602C96.638 203.392 97.584 202.512 98.75 202.512C99.894 202.512 100.84 203.392 100.84 204.602C100.84 205.79 99.894 206.67 98.75 206.67ZM98.75 217.164C97.584 217.164 96.638 216.284 96.638 215.096C96.638 213.886 97.584 213.006 98.75 213.006C99.894 213.006 100.84 213.886 100.84 215.096C100.84 216.284 99.894 217.164 98.75 217.164Z" fill="#FFC288"/>
<path d="M30.818 251.478H37.594V253.59H29.124L30.818 251.478ZM30.29 249.322L33.128 249.828C31.5 252.974 29.234 256.098 25.934 258.65C25.494 258.078 24.592 257.198 23.954 256.824C27.034 254.668 29.146 251.786 30.29 249.322ZM36.582 251.478H37.198L37.616 251.346L39.442 252.512C38.584 254.162 37.066 256.34 35.834 257.726C35.328 257.33 34.404 256.758 33.81 256.45C34.91 255.174 36.098 253.194 36.582 251.984V251.478ZM34.58 266.394L36.186 264.7C38.958 265.822 42.126 267.252 43.974 268.198L41.95 270.002C40.234 269.012 37.33 267.538 34.58 266.394ZM33.128 259.354H35.878C35.46 265.272 34.338 268.55 25.362 269.958C25.186 269.298 24.592 268.286 24.108 267.736C32.226 266.658 32.798 264.26 33.128 259.354ZM27.166 255.658H41.906V265.36H39.112V257.946H29.828V265.36H27.166V255.658ZM45.63 254.58H52.67V257.066H45.63V254.58ZM48.028 249.63H50.492V264.37H48.028V249.63ZM45.322 264.7C47.126 264.15 49.92 263.16 52.538 262.214L53.044 264.612C50.734 265.58 48.182 266.614 46.18 267.384L45.322 264.7ZM52.978 250.312H62.262V252.798H52.978V250.312ZM63.186 256.208H65.826C65.826 256.208 65.804 257.022 65.76 257.352C65.342 264.942 64.902 267.802 64.11 268.77C63.582 269.452 63.054 269.672 62.328 269.782C61.69 269.892 60.766 269.892 59.732 269.87C59.688 269.144 59.402 268.088 59.006 267.384C59.842 267.472 60.612 267.494 61.03 267.494C61.382 267.494 61.58 267.428 61.822 267.12C62.372 266.504 62.834 263.776 63.186 256.714V256.208ZM54.012 259.024C53.814 258.474 53.264 257.22 52.912 256.582C53.572 256.472 54.408 255.988 55.244 255.438C56.102 254.91 59.05 252.908 60.986 250.708V250.554L62.218 250.114L64.088 251.588C61.294 254.162 58.258 256.34 55.684 257.748V257.814C55.684 257.814 54.012 258.562 54.012 259.024ZM54.012 259.024V256.912L55.244 256.208H64.088L64.066 258.694H55.992C55.112 258.694 54.21 258.804 54.012 259.024ZM60.15 257.77L62.438 258.188C61.118 263.336 58.698 267.34 55.354 269.826C54.936 269.43 53.924 268.704 53.352 268.396C56.828 266.196 59.05 262.434 60.15 257.77ZM56.498 257.77L58.786 258.21C57.906 261.18 56.212 263.644 54.166 265.206C53.748 264.81 52.78 264.084 52.252 263.776C54.276 262.456 55.794 260.3 56.498 257.77ZM66.888 260.806H78.02V262.918H66.888V260.806ZM67.152 253.04H77.954V255.108H67.152V253.04ZM70.848 259.222L73.29 259.75C72.212 262.016 70.782 264.7 69.726 266.46L67.416 265.756C68.45 264.062 69.902 261.312 70.848 259.222ZM73.972 262.28L76.392 262.478C75.6 267.098 73.29 268.946 68.054 270.002C67.9 269.276 67.416 268.352 66.976 267.824C71.354 267.274 73.268 265.888 73.972 262.28ZM75.534 249.586L77.756 250.466C77.03 251.456 76.326 252.468 75.754 253.15L74.06 252.38C74.566 251.61 75.182 250.422 75.534 249.586ZM71.332 249.3H73.752V259.53H71.332V249.3ZM67.68 250.466L69.572 249.674C70.166 250.51 70.716 251.632 70.914 252.424L68.89 253.304C68.736 252.534 68.23 251.368 67.68 250.466ZM71.398 254.074L73.114 255.108C72.014 256.846 69.902 258.76 68.054 259.794C67.746 259.222 67.174 258.342 66.69 257.858C68.472 257.132 70.452 255.57 71.398 254.074ZM73.532 254.712C74.324 255.086 76.832 256.56 77.448 256.978L76.04 258.804C75.226 257.99 73.268 256.428 72.3 255.746L73.532 254.712ZM79.472 253.304H87.546V255.746H79.472V253.304ZM79.714 249.3L82.376 249.674C81.694 254.228 80.374 258.452 78.35 261.136C77.932 260.652 76.854 259.706 76.26 259.266C78.108 257.022 79.186 253.238 79.714 249.3ZM83.696 254.8L86.402 255.042C85.456 262.566 83.19 267.274 77.624 270.068C77.36 269.43 76.59 268.22 76.106 267.648C81.122 265.448 83.036 261.312 83.696 254.8ZM80.968 255.262C81.848 260.828 83.784 265.58 87.832 267.648C87.216 268.176 86.38 269.232 85.984 269.958C81.562 267.318 79.648 262.214 78.57 255.636L80.968 255.262ZM69.352 265.778L70.76 263.974C73.356 264.964 76.106 266.504 77.602 267.692L75.776 269.562C74.368 268.33 71.816 266.79 69.352 265.778ZM98.75 256.67C97.584 256.67 96.638 255.79 96.638 254.602C96.638 253.392 97.584 252.512 98.75 252.512C99.894 252.512 100.84 253.392 100.84 254.602C100.84 255.79 99.894 256.67 98.75 256.67ZM98.75 267.164C97.584 267.164 96.638 266.284 96.638 265.096C96.638 263.886 97.584 263.006 98.75 263.006C99.894 263.006 100.84 263.886 100.84 265.096C100.84 266.284 99.894 267.164 98.75 267.164Z" fill="#FFC288"/>
<path d="M33.912 352.116C32.13 354.844 28.698 357.968 24.98 360.08C24.606 359.442 23.836 358.452 23.242 357.902C27.158 355.856 30.744 352.226 32.35 349.366H35.21C37.586 352.996 41.194 356.032 44.824 357.616C44.12 358.298 43.526 359.2 43.02 360.036C39.478 358.078 35.76 354.844 33.912 352.116ZM32.504 356.824H35.32V369.98H32.504V356.824ZM47.756 349.322H50.418V369.98H47.756V349.322ZM45.908 353.546L47.8 353.81C47.69 355.724 47.316 358.342 46.788 360.014L44.83 359.332C45.38 357.836 45.754 355.372 45.908 353.546ZM49.89 353.722L51.672 352.952C52.288 354.096 52.926 355.592 53.146 356.516L51.254 357.418C51.056 356.45 50.462 354.91 49.89 353.722ZM54.07 350.334L56.622 350.73C56.182 354.008 55.324 357.264 54.18 359.332C53.652 358.958 52.464 358.386 51.826 358.122C52.992 356.274 53.718 353.282 54.07 350.334ZM54.84 353.766H65.004V356.274H54.092L54.84 353.766ZM57.854 349.454H60.494V368.22H57.854V349.454ZM53.586 359.882H64.542V362.346H53.586V359.882ZM51.936 366.768H65.686V369.276H51.936V366.768ZM72.314 358.826H81.378V360.982H72.314V358.826ZM69.74 351.082H76.56V353.172H69.74V351.082ZM78.584 351.082H86.68V353.172H78.584V351.082ZM69.85 349.146L72.314 349.784C71.456 352.182 70.048 354.646 68.706 356.208C68.222 355.79 67.144 355.13 66.55 354.8C67.936 353.436 69.168 351.258 69.85 349.146ZM78.782 349.146L81.246 349.74C80.564 351.61 79.398 353.458 78.232 354.624C77.748 354.184 76.714 353.524 76.098 353.194C77.264 352.204 78.232 350.664 78.782 349.146ZM70.796 352.798L73.04 352.182C73.612 353.062 74.272 354.272 74.514 355.086L72.182 355.768C71.94 354.976 71.346 353.722 70.796 352.798ZM80.388 352.754L82.742 352.27C83.49 353.15 84.326 354.382 84.7 355.24L82.17 355.746C81.862 354.976 81.092 353.678 80.388 352.754ZM78.188 354.976C80.102 356.78 83.842 358.364 87.362 359.068C86.812 359.552 86.108 360.52 85.756 361.18C82.192 360.234 78.496 358.232 76.296 355.834L78.188 354.976ZM76.692 353.722L78.804 354.778C76.186 357.77 72.072 359.992 68.068 361.334C67.738 360.696 67.144 359.838 66.55 359.288C70.356 358.232 74.514 356.274 76.692 353.722ZM67.386 367.12H86.592V369.43H67.386V367.12ZM82.148 361.444L84.524 362.104C83.622 364.48 82.28 367.252 81.18 368.99C80.652 368.594 79.618 368 79.002 367.692C80.168 366.13 81.378 363.622 82.148 361.444ZM75.042 362.104L77.132 361.334C77.858 362.588 78.694 364.304 79.024 365.382L76.824 366.284C76.516 365.206 75.746 363.446 75.042 362.104ZM69.542 362.588L71.676 361.642C72.512 362.808 73.502 364.37 73.898 365.404L71.654 366.482C71.302 365.448 70.378 363.82 69.542 362.588ZM95.882 366.724H105.738V369.122H95.882V366.724ZM94.782 351.478H102.57V353.81H94.782V351.478ZM95.354 349.19L98.324 349.784C96.454 352.996 93.814 355.944 89.854 358.32C89.48 357.66 88.6 356.692 88.006 356.23C91.636 354.316 94.078 351.632 95.354 349.19ZM101.734 351.478H102.24L102.68 351.346L104.506 352.314C101.932 359.156 96.058 363.644 89.502 365.844C89.172 365.118 88.512 364.04 87.962 363.49C94.034 361.73 99.71 357.462 101.734 351.918V351.478ZM91.9 356.318L93.858 354.602C95.376 355.68 97.378 357.242 98.346 358.386L96.212 360.3C95.376 359.156 93.418 357.462 91.9 356.318ZM104.506 360.014H107.256V370.002H104.506V360.014ZM97.004 360.014H105.826V362.412H97.004V369.958H94.364V361.972L96.366 360.014H97.004ZM120 356.67C118.834 356.67 117.888 355.79 117.888 354.602C117.888 353.392 118.834 352.512 120 352.512C121.144 352.512 122.09 353.392 122.09 354.602C122.09 355.79 121.144 356.67 120 356.67ZM120 367.164C118.834 367.164 117.888 366.284 117.888 365.096C117.888 363.886 118.834 363.006 120 363.006C121.144 363.006 122.09 363.886 122.09 365.096C122.09 366.284 121.144 367.164 120 367.164Z" fill="#FFC288"/>
<rect x="1.5" y="1.5" width="310" height="577" rx="18.5" stroke="#F9F9F9" stroke-width="3"/>
<defs>
<clipPath id="clip0_3999_909">
<rect width="53" height="53" fill="white" transform="translate(133 66)"/>
</clipPath>
</defs>
</svg>
