<svg width="86" height="26" viewBox="0 0 86 26" fill="none" xmlns="http://www.w3.org/2000/svg">
<rect x="7" y="3" width="72" height="20" rx="4" fill="url(#paint0_linear_3246_836)"/>
<rect x="7" y="3" width="72" height="20" rx="4" fill="url(#paint1_linear_3246_836)"/>
<path d="M35.5349 17.504L35.8229 9.464L36.3149 8.924L38.3789 8.708L38.0549 8.072L39.0629 7.568L39.5669 8.588L41.7749 8.348L42.4109 8.912L42.3149 11.408L41.7509 11.948H36.8549L36.6629 17.54L35.5349 17.504ZM33.0989 14.36L32.7629 13.508L34.0829 11.504L32.9549 10.772L32.8229 9.932L34.5149 7.94L35.3909 8.66L34.1189 10.172L35.1749 10.868L35.3549 11.648L34.1429 13.46L35.2229 13.724L34.9589 14.828L33.0989 14.36ZM41.2109 10.82L41.2589 9.524L36.9389 9.992L36.9029 10.82H41.2109ZM40.7549 16.748L41.5229 16.46L41.5349 15.236L41.1989 15.284L41.2109 16.544L40.0829 16.568L40.0709 15.44L39.5669 15.512L39.5549 16.712L38.4149 16.7L38.4269 15.68L38.1149 15.728L38.1749 17.504L37.0589 17.54L36.8909 13.148L37.4189 12.56L42.0989 12.224L42.7109 12.8L42.6629 16.868L42.2909 17.408L41.1389 17.804L40.7549 16.748ZM41.1989 14.144L41.5589 14.084L41.5709 13.4L41.1989 13.424V14.144ZM40.0589 14.312V13.508L39.5909 13.544L39.5789 14.384L40.0589 14.312ZM38.4389 14.552L38.4509 13.628L38.0429 13.652L38.0669 14.6L38.4389 14.552ZM32.8589 16.952L34.7189 15.32L35.4629 16.172L33.6029 17.804L32.8589 16.952ZM48.606 10.376L48.078 9.848L47.994 8.288L48.558 7.7L52.314 7.736L52.866 8.288L52.902 10.04L52.302 10.616L48.606 10.376ZM46.398 13.784V14.384L47.586 14.156L47.802 15.26L46.398 15.524L46.386 17.576H45.246L45.258 15.74L43.362 16.088L43.146 14.984L45.258 14.588L45.27 13.64L43.794 13.436L43.326 12.68L44.25 10.124H43.506V8.996H44.658L45.066 7.856L46.134 8.24L45.858 8.996H47.694V10.124H45.45L44.634 12.416L45.27 12.5L45.282 10.688L46.422 10.7L46.41 12.656L47.646 12.824L47.502 13.928L46.398 13.784ZM51.762 9.464L51.738 8.864L49.158 8.828L49.182 9.284L51.762 9.464ZM52.71 11.96L52.59 15.344L53.166 15.224L53.394 16.328L52.542 16.508L52.506 17.66L51.366 17.624L51.402 16.748L47.466 17.564L47.238 16.448L48.234 16.244V11.72L47.682 11.684L47.742 10.544L53.226 10.844L53.166 11.984L52.71 11.96ZM51.558 12.488L51.582 11.9L49.362 11.78V12.344L51.558 12.488ZM51.498 13.988L51.51 13.616L49.362 13.484V14.084L51.498 13.988ZM51.438 15.584L51.462 15.14L49.362 15.224V16.016L51.438 15.584Z" fill="black"/>
<defs>
<linearGradient id="paint0_linear_3246_836" x1="43" y1="3" x2="43" y2="23" gradientUnits="userSpaceOnUse">
<stop stop-color="#F59B1E" stop-opacity="0.885671"/>
<stop offset="1" stop-color="#F5DF1E" stop-opacity="0"/>
</linearGradient>
<linearGradient id="paint1_linear_3246_836" x1="43" y1="3" x2="43" y2="23" gradientUnits="userSpaceOnUse">
<stop stop-color="#F5DF1E" stop-opacity="0"/>
<stop offset="1" stop-color="#F5921E"/>
</linearGradient>
</defs>
</svg>
