<svg width="86" height="26" viewBox="0 0 86 26" fill="none" xmlns="http://www.w3.org/2000/svg">
<rect x="7" y="3" width="72" height="20" rx="4" fill="url(#paint0_linear_3999_939)"/>
<rect x="7" y="3" width="72" height="20" rx="4" fill="url(#paint1_linear_3999_939)"/>
<path d="M37.0349 14.18L35.4269 14.408L35.2589 13.292L38.6669 12.812L38.7029 12.02L37.0349 12.128L36.4349 11.612L36.0989 8.612L36.6269 7.988L41.6549 7.7L42.2549 8.3L42.0389 11.288L41.5229 11.816L39.8429 11.936L39.8069 12.644L42.9869 12.188L43.1549 13.316L39.7469 13.796L39.5549 17.672L38.4269 17.612L38.6069 13.964L38.4509 13.988L36.4829 17.36L35.4989 16.796L37.0349 14.18ZM34.0469 12.332L32.7269 12.32L32.3069 11.396L35.1989 7.868L36.0749 8.588L33.9269 11.216H34.6469L35.1989 11.816L34.9469 17.288L33.8069 17.24L34.0469 12.332ZM40.9469 10.712L41.0669 8.876L37.2869 9.08L37.5029 10.952L40.9469 10.712ZM40.7669 14.168L43.0469 15.908L42.3629 16.808L40.0829 15.068L40.7669 14.168ZM45.87 9.032L46.65 7.508L47.646 8.012L47.13 9.008L53.094 8.888L53.13 10.028L46.554 10.148L45.954 11.312L46.446 11.3L46.542 17.852L45.402 17.864L45.342 12.512L43.902 15.332L42.894 14.828L45.282 10.172L43.47 10.208L43.434 9.08L45.87 9.032ZM49.878 13.64L50.886 11.72L47.85 12.212L47.67 11.108L51.834 10.424L52.422 11.24L51.222 13.52L53.526 13.304L53.634 14.432L50.838 14.684L51.102 17.24L50.49 17.864L47.97 17.648L48.066 16.52L49.902 16.688L49.71 14.792L47.142 15.02L47.034 13.892L49.878 13.64Z" fill="black"/>
<path d="M37.0349 14.18L37.8973 14.6863L38.9468 12.8989L36.8946 13.1899L37.0349 14.18ZM35.4269 14.408L34.4381 14.5569L34.5857 15.5373L35.5673 15.3981L35.4269 14.408ZM35.2589 13.292L35.1195 12.3018L34.1198 12.4426L34.2701 13.4409L35.2589 13.292ZM38.6669 12.812L38.8064 13.8022L39.6282 13.6865L39.6659 12.8574L38.6669 12.812ZM38.7029 12.02L39.7019 12.0654L39.7526 10.9499L38.6383 11.0221L38.7029 12.02ZM37.0349 12.128L36.3829 12.8862L36.6923 13.1523L37.0996 13.1259L37.0349 12.128ZM36.4349 11.612L35.4412 11.7233L35.4849 12.1139L35.7829 12.3702L36.4349 11.612ZM36.0989 8.612L35.3356 7.96606L35.0572 8.29503L35.1052 8.7233L36.0989 8.612ZM36.6269 7.988L36.5698 6.98964L36.141 7.0142L35.8636 7.34206L36.6269 7.988ZM41.6549 7.7L42.362 6.99289L42.0452 6.67601L41.5978 6.70164L41.6549 7.7ZM42.2549 8.3L43.2523 8.3721L43.2853 7.91614L42.962 7.59289L42.2549 8.3ZM42.0389 11.288L42.7541 11.9869L43.0099 11.7252L43.0363 11.3601L42.0389 11.288ZM41.5229 11.816L41.5942 12.8135L41.9728 12.7864L42.2381 12.5149L41.5229 11.816ZM39.8429 11.936L39.7717 10.9385L38.8892 11.0016L38.8442 11.8852L39.8429 11.936ZM39.8069 12.644L38.8082 12.5932L38.7465 13.8063L39.9489 13.6339L39.8069 12.644ZM42.9869 12.188L43.976 12.0407L43.8295 11.0569L42.845 11.1981L42.9869 12.188ZM43.1549 13.316L43.2944 14.3062L44.2925 14.1656L44.144 13.1687L43.1549 13.316ZM39.7469 13.796L39.6075 12.8058L38.7891 12.921L38.7482 13.7465L39.7469 13.796ZM39.5549 17.672L39.5018 18.6706L40.5041 18.7239L40.5537 17.7215L39.5549 17.672ZM38.4269 17.612L37.4282 17.5627L37.3791 18.5577L38.3738 18.6106L38.4269 17.612ZM38.6069 13.964L39.6057 14.0133L39.6661 12.7893L38.4549 12.9756L38.6069 13.964ZM38.4509 13.988L38.2989 12.9996L37.8276 13.0721L37.5873 13.4839L38.4509 13.988ZM36.4829 17.36L35.9857 18.2276L36.8465 18.721L37.3466 17.8641L36.4829 17.36ZM35.4989 16.796L34.6366 16.2897L34.1249 17.1611L35.0017 17.6636L35.4989 16.796ZM34.0469 12.332L35.0457 12.3808L35.0966 11.3415L34.056 11.332L34.0469 12.332ZM32.7269 12.32L31.8166 12.7338L32.0804 13.3142L32.7178 13.32L32.7269 12.32ZM32.3069 11.396L31.5336 10.762L31.1391 11.2433L31.3966 11.8098L32.3069 11.396ZM35.1989 7.868L35.8339 7.09546L35.0604 6.45966L34.4256 7.23405L35.1989 7.868ZM36.0749 8.588L36.8492 9.22085L37.4803 8.44869L36.7099 7.81546L36.0749 8.588ZM33.9269 11.216L33.1527 10.5831L31.8181 12.216H33.9269V11.216ZM34.6469 11.216L35.3829 10.5389L35.0858 10.216H34.6469V11.216ZM35.1989 11.816L36.1979 11.862L36.2171 11.4457L35.9349 11.1389L35.1989 11.816ZM34.9469 17.288L34.9049 18.2871L35.9001 18.329L35.9459 17.334L34.9469 17.288ZM33.8069 17.24L32.8081 17.1912L32.759 18.1968L33.7649 18.2391L33.8069 17.24ZM40.9469 10.712L41.0165 11.7096L41.8878 11.6489L41.9448 10.7772L40.9469 10.712ZM41.0669 8.876L42.0648 8.94122L42.1383 7.81672L41.013 7.87745L41.0669 8.876ZM37.2869 9.08L37.233 8.08145L36.1717 8.13873L36.2935 9.19462L37.2869 9.08ZM37.5029 10.952L36.5095 11.0666L36.6191 12.016L37.5725 11.9496L37.5029 10.952ZM40.7669 14.168L41.3736 13.373L40.5771 12.7652L39.9708 13.5629L40.7669 14.168ZM43.0469 15.908L43.8431 16.5131L44.447 15.7185L43.6536 15.113L43.0469 15.908ZM42.3629 16.808L41.7563 17.603L42.5528 18.2108L43.1591 17.4131L42.3629 16.808ZM40.0829 15.068L39.2868 14.4629L38.6829 15.2575L39.4763 15.863L40.0829 15.068ZM36.8946 13.1899L35.2866 13.4179L35.5673 15.3981L37.1753 15.1701L36.8946 13.1899ZM36.4158 14.2591L36.2478 13.1431L34.2701 13.4409L34.4381 14.5569L36.4158 14.2591ZM35.3984 14.2822L38.8064 13.8022L38.5275 11.8218L35.1195 12.3018L35.3984 14.2822ZM39.6659 12.8574L39.7019 12.0654L37.704 11.9746L37.668 12.7666L39.6659 12.8574ZM38.6383 11.0221L36.9703 11.1301L37.0996 13.1259L38.7676 13.0179L38.6383 11.0221ZM37.687 11.3698L37.087 10.8538L35.7829 12.3702L36.3829 12.8862L37.687 11.3698ZM37.4287 11.5007L37.0927 8.5007L35.1052 8.7233L35.4412 11.7233L37.4287 11.5007ZM36.8623 9.25794L37.3903 8.63394L35.8636 7.34206L35.3356 7.96606L36.8623 9.25794ZM36.6841 8.98636L41.7121 8.69836L41.5978 6.70164L36.5698 6.98964L36.6841 8.98636ZM40.9478 8.40711L41.5478 9.00711L42.962 7.59289L42.362 6.99289L40.9478 8.40711ZM41.2575 8.2279L41.0415 11.2159L43.0363 11.3601L43.2523 8.3721L41.2575 8.2279ZM41.3238 10.5891L40.8078 11.1171L42.2381 12.5149L42.7541 11.9869L41.3238 10.5891ZM41.4517 10.8185L39.7717 10.9385L39.9142 12.9335L41.5942 12.8135L41.4517 10.8185ZM38.8442 11.8852L38.8082 12.5932L40.8056 12.6948L40.8416 11.9868L38.8442 11.8852ZM39.9489 13.6339L43.1289 13.1779L42.845 11.1981L39.665 11.6541L39.9489 13.6339ZM41.9978 12.3353L42.1658 13.4633L44.144 13.1687L43.976 12.0407L41.9978 12.3353ZM43.0155 12.3258L39.6075 12.8058L39.8864 14.7862L43.2944 14.3062L43.0155 12.3258ZM38.7482 13.7465L38.5562 17.6225L40.5537 17.7215L40.7457 13.8455L38.7482 13.7465ZM39.6081 16.6734L38.4801 16.6134L38.3738 18.6106L39.5018 18.6706L39.6081 16.6734ZM39.4257 17.6613L39.6057 14.0133L37.6082 13.9147L37.4282 17.5627L39.4257 17.6613ZM38.4549 12.9756L38.2989 12.9996L38.603 14.9764L38.759 14.9524L38.4549 12.9756ZM37.5873 13.4839L35.6193 16.8559L37.3466 17.8641L39.3146 14.4921L37.5873 13.4839ZM36.9802 16.4924L35.9962 15.9284L35.0017 17.6636L35.9857 18.2276L36.9802 16.4924ZM36.3613 17.3023L37.8973 14.6863L36.1726 13.6737L34.6366 16.2897L36.3613 17.3023ZM34.056 11.332L32.736 11.32L32.7178 13.32L34.0378 13.332L34.056 11.332ZM33.6373 11.9062L33.2173 10.9822L31.3966 11.8098L31.8166 12.7338L33.6373 11.9062ZM33.0803 12.03L35.9723 8.50195L34.4256 7.23405L31.5336 10.762L33.0803 12.03ZM34.564 8.64054L35.44 9.36054L36.7099 7.81546L35.8339 7.09546L34.564 8.64054ZM35.3007 7.95515L33.1527 10.5831L34.7012 11.8489L36.8492 9.22085L35.3007 7.95515ZM33.9269 12.216H34.6469V10.216H33.9269V12.216ZM33.911 11.8931L34.463 12.4931L35.9349 11.1389L35.3829 10.5389L33.911 11.8931ZM34.2 11.77L33.948 17.242L35.9459 17.334L36.1979 11.862L34.2 11.77ZM34.989 16.2889L33.849 16.2409L33.7649 18.2391L34.9049 18.2871L34.989 16.2889ZM34.8057 17.2888L35.0457 12.3808L33.0481 12.2832L32.8081 17.1912L34.8057 17.2888ZM41.9448 10.7772L42.0648 8.94122L40.0691 8.81078L39.9491 10.6468L41.9448 10.7772ZM41.013 7.87745L37.233 8.08145L37.3408 10.0785L41.1208 9.87455L41.013 7.87745ZM36.2935 9.19462L36.5095 11.0666L38.4963 10.8374L38.2803 8.96538L36.2935 9.19462ZM37.5725 11.9496L41.0165 11.7096L40.8774 9.71442L37.4334 9.95442L37.5725 11.9496ZM40.1603 14.963L42.4403 16.703L43.6536 15.113L41.3736 13.373L40.1603 14.963ZM42.2508 15.3029L41.5668 16.2029L43.1591 17.4131L43.8431 16.5131L42.2508 15.3029ZM42.9696 16.013L40.6896 14.273L39.4763 15.863L41.7563 17.603L42.9696 16.013ZM40.8791 15.6731L41.5631 14.7731L39.9708 13.5629L39.2868 14.4629L40.8791 15.6731ZM45.87 9.032L45.8897 10.0318L46.4877 10.02L46.7602 9.4876L45.87 9.032ZM46.65 7.508L47.1015 6.61573L46.2133 6.1663L45.7598 7.05239L46.65 7.508ZM47.646 8.012L48.5339 8.472L48.9983 7.57557L48.0975 7.11973L47.646 8.012ZM47.13 9.008L46.2421 8.54799L45.4683 10.0416L47.1501 10.0078L47.13 9.008ZM53.094 8.888L54.0935 8.85644L54.0623 7.86831L53.0739 7.8882L53.094 8.888ZM53.13 10.028L53.1482 11.0278L54.1615 11.0093L54.1295 9.99644L53.13 10.028ZM46.554 10.148L46.5358 9.14817L45.9387 9.15906L45.6651 9.68982L46.554 10.148ZM45.954 11.312L45.0651 10.8538L44.2925 12.3528L45.9784 12.3117L45.954 11.312ZM46.446 11.3L47.4459 11.2853L47.4311 10.2757L46.4216 10.3003L46.446 11.3ZM46.542 17.852L46.5525 18.8519L47.5566 18.8414L47.5419 17.8373L46.542 17.852ZM45.402 17.864L44.4021 17.8752L44.4133 18.8745L45.4125 18.8639L45.402 17.864ZM45.342 12.512L46.3419 12.5008L44.4514 12.0572L45.342 12.512ZM43.902 15.332L43.4548 16.2264L44.3417 16.6699L44.7926 15.7868L43.902 15.332ZM42.894 14.828L42.0042 14.3716L41.5431 15.2706L42.4468 15.7224L42.894 14.828ZM45.282 10.172L46.1718 10.6284L46.9357 9.13895L45.2621 9.1722L45.282 10.172ZM43.47 10.208L42.4705 10.2399L42.502 11.2274L43.4899 11.2078L43.47 10.208ZM43.434 9.08L43.4143 8.08019L42.4022 8.10014L42.4345 9.1119L43.434 9.08ZM49.878 13.64L49.9663 14.6361L50.5098 14.5879L50.7634 14.1048L49.878 13.64ZM50.886 11.72L51.7714 12.1848L52.7018 10.4127L50.726 10.7329L50.886 11.72ZM47.85 12.212L46.863 12.3729L47.0238 13.3589L48.01 13.1991L47.85 12.212ZM47.67 11.108L47.5079 10.1212L46.5223 10.2831L46.683 11.2689L47.67 11.108ZM51.834 10.424L52.6453 9.83938L52.2832 9.33682L51.6719 9.43722L51.834 10.424ZM52.422 11.24L53.3069 11.7057L53.5953 11.1578L53.2333 10.6554L52.422 11.24ZM51.222 13.52L50.3371 13.0543L49.4772 14.688L51.3153 14.5156L51.222 13.52ZM53.526 13.304L54.5214 13.2087L54.4263 12.2152L53.4327 12.3084L53.526 13.304ZM53.634 14.432L53.7238 15.428L54.7253 15.3377L54.6294 14.3367L53.634 14.432ZM50.838 14.684L50.7482 13.688L49.7392 13.779L49.8433 14.7867L50.838 14.684ZM51.102 17.24L51.8159 17.9402L52.145 17.6047L52.0967 17.1373L51.102 17.24ZM50.49 17.864L50.4046 18.8603L50.874 18.9006L51.2039 18.5642L50.49 17.864ZM47.97 17.648L46.9736 17.5632L46.8889 18.559L47.8846 18.6443L47.97 17.648ZM48.066 16.52L48.1571 15.5242L47.1549 15.4325L47.0696 16.4352L48.066 16.52ZM49.902 16.688L49.8109 17.6838L51.0192 17.7944L50.8969 16.5872L49.902 16.688ZM49.71 14.792L50.7049 14.6912L50.6054 13.7086L49.6216 13.7959L49.71 14.792ZM47.142 15.02L46.1466 15.1153L46.2412 16.1039L47.2304 16.0161L47.142 15.02ZM47.034 13.892L46.9457 12.8959L45.9426 12.9848L46.0386 13.9873L47.034 13.892ZM46.7602 9.4876L47.5402 7.9636L45.7598 7.05239L44.9798 8.57639L46.7602 9.4876ZM46.1985 8.40027L47.1945 8.90427L48.0975 7.11973L47.1015 6.61573L46.1985 8.40027ZM46.7581 7.55199L46.2421 8.54799L48.0179 9.468L48.5339 8.472L46.7581 7.55199ZM47.1501 10.0078L53.1141 9.8878L53.0739 7.8882L47.1099 8.0082L47.1501 10.0078ZM52.0945 8.91956L52.1305 10.0596L54.1295 9.99644L54.0935 8.85644L52.0945 8.91956ZM53.1118 9.02817L46.5358 9.14817L46.5722 11.1478L53.1482 11.0278L53.1118 9.02817ZM45.6651 9.68982L45.0651 10.8538L46.8429 11.7702L47.4429 10.6062L45.6651 9.68982ZM45.9784 12.3117L46.4704 12.2997L46.4216 10.3003L45.9296 10.3123L45.9784 12.3117ZM45.4461 11.3147L45.5421 17.8667L47.5419 17.8373L47.4459 11.2853L45.4461 11.3147ZM46.5315 16.8521L45.3915 16.8641L45.4125 18.8639L46.5525 18.8519L46.5315 16.8521ZM46.4019 17.8528L46.3419 12.5008L44.3421 12.5232L44.4021 17.8752L46.4019 17.8528ZM44.4514 12.0572L43.0114 14.8772L44.7926 15.7868L46.2326 12.9668L44.4514 12.0572ZM44.3492 14.4376L43.3412 13.9336L42.4468 15.7224L43.4548 16.2264L44.3492 14.4376ZM43.7838 15.2844L46.1718 10.6284L44.3922 9.71564L42.0042 14.3716L43.7838 15.2844ZM45.2621 9.1722L43.4501 9.2082L43.4899 11.2078L45.3019 11.1718L45.2621 9.1722ZM44.4695 10.1761L44.4335 9.0481L42.4345 9.1119L42.4705 10.2399L44.4695 10.1761ZM43.4537 10.0798L45.8897 10.0318L45.8503 8.03219L43.4143 8.08019L43.4537 10.0798ZM50.7634 14.1048L51.7714 12.1848L50.0006 11.2552L48.9926 13.1752L50.7634 14.1048ZM50.726 10.7329L47.69 11.2249L48.01 13.1991L51.046 12.7071L50.726 10.7329ZM48.837 12.0511L48.657 10.9471L46.683 11.2689L46.863 12.3729L48.837 12.0511ZM47.8321 12.0948L51.9961 11.4108L51.6719 9.43722L47.5079 10.1212L47.8321 12.0948ZM51.0227 11.0086L51.6107 11.8246L53.2333 10.6554L52.6453 9.83938L51.0227 11.0086ZM51.5371 10.7743L50.3371 13.0543L52.1069 13.9857L53.3069 11.7057L51.5371 10.7743ZM51.3153 14.5156L53.6193 14.2996L53.4327 12.3084L51.1287 12.5244L51.3153 14.5156ZM52.5306 13.3993L52.6386 14.5273L54.6294 14.3367L54.5214 13.2087L52.5306 13.3993ZM53.5442 13.436L50.7482 13.688L50.9278 15.68L53.7238 15.428L53.5442 13.436ZM49.8433 14.7867L50.1073 17.3427L52.0967 17.1373L51.8327 14.5813L49.8433 14.7867ZM50.3881 16.5398L49.7761 17.1638L51.2039 18.5642L51.8159 17.9402L50.3881 16.5398ZM50.5754 16.8677L48.0554 16.6517L47.8846 18.6443L50.4046 18.8603L50.5754 16.8677ZM48.9664 17.7328L49.0624 16.6048L47.0696 16.4352L46.9736 17.5632L48.9664 17.7328ZM47.9749 17.5158L49.8109 17.6838L49.9931 15.6922L48.1571 15.5242L47.9749 17.5158ZM50.8969 16.5872L50.7049 14.6912L48.7151 14.8928L48.9071 16.7888L50.8969 16.5872ZM49.6216 13.7959L47.0536 14.0239L47.2304 16.0161L49.7984 15.7881L49.6216 13.7959ZM48.1374 14.9247L48.0294 13.7967L46.0386 13.9873L46.1466 15.1153L48.1374 14.9247ZM47.1223 14.8881L49.9663 14.6361L49.7897 12.6439L46.9457 12.8959L47.1223 14.8881Z" fill="white"/>
<defs>
<linearGradient id="paint0_linear_3999_939" x1="43" y1="3" x2="43" y2="23" gradientUnits="userSpaceOnUse">
<stop stop-color="#F59B1E" stop-opacity="0.885671"/>
<stop offset="1" stop-color="#F5DF1E" stop-opacity="0"/>
</linearGradient>
<linearGradient id="paint1_linear_3999_939" x1="43" y1="3" x2="43" y2="23" gradientUnits="userSpaceOnUse">
<stop stop-color="#F5DF1E" stop-opacity="0"/>
<stop offset="1" stop-color="#F5921E"/>
</linearGradient>
</defs>
</svg>
