<svg width="93" height="93" viewBox="0 0 93 93" fill="none" xmlns="http://www.w3.org/2000/svg">
<g filter="url(#filter0_d_3999_802)">
<path d="M56.1656 5.47964C59.5023 4.11017 63.3173 5.70489 64.6868 9.04155L84.028 56.1656C85.3975 59.5023 83.8027 63.3173 80.4661 64.6868L33.342 84.028C30.0054 85.3975 26.1903 83.8027 24.8208 80.4661L5.47965 33.342C4.11018 30.0054 5.7049 26.1903 9.04155 24.8208L56.1656 5.47964Z" fill="#3676F2"/>
<path d="M85.8782 55.4062L66.537 8.28216C64.7482 3.92365 59.7647 1.84055 55.4062 3.62942L8.28216 22.9706C3.92366 24.7595 1.84055 29.7429 3.62942 34.1014L22.9706 81.2255C24.7595 85.584 29.7429 87.6671 34.1014 85.8782L81.2255 66.537C85.584 64.7481 87.6671 59.7647 85.8782 55.4062Z" stroke="black" stroke-width="4"/>
</g>
<path d="M56.6026 27.184C53.5996 28.4165 50.1661 26.9813 48.9336 23.9783C47.701 20.9753 49.1363 17.5417 52.1393 16.3092C55.1423 15.0767 58.5758 16.5119 59.8083 19.5149C61.0409 22.5179 59.6056 25.9515 56.6026 27.184Z" fill="black"/>
<path d="M23.9784 40.574C20.9753 41.8066 17.5418 40.3713 16.3093 37.3683C15.0768 34.3653 16.512 30.9318 19.515 29.6993C22.518 28.4667 25.9515 29.902 27.1841 32.905C28.4166 35.908 26.9814 39.3415 23.9784 40.574Z" fill="black"/>
<path d="M69.9928 59.8084C66.9897 61.0409 63.5562 59.6057 62.3237 56.6027C61.0912 53.5996 62.5264 50.1661 65.5294 48.9336C68.5324 47.7011 71.9659 49.1363 73.1985 52.1393C74.431 55.1423 72.9957 58.5758 69.9928 59.8084Z" fill="black"/>
<path d="M46.9488 49.7816C43.9458 51.0142 40.5123 49.5789 39.2797 46.5759C38.0472 43.5729 39.4824 40.1394 42.4855 38.9068C45.4884 37.6743 48.922 39.1096 50.1545 42.1126C51.3871 45.1156 49.9518 48.5491 46.9488 49.7816Z" fill="black"/>
<path d="M37.3684 73.1985C34.3654 74.431 30.9318 72.9958 29.6993 69.9928C28.4668 66.9898 29.902 63.5562 32.905 62.3237C35.908 61.0912 39.3416 62.5264 40.5741 65.5294C41.8066 68.5324 40.3714 71.966 37.3684 73.1985Z" fill="black"/>
<defs>
<filter id="filter0_d_3999_802" x="0.987793" y="0.987793" width="91.532" height="91.532" filterUnits="userSpaceOnUse" color-interpolation-filters="sRGB">
<feFlood flood-opacity="0" result="BackgroundImageFix"/>
<feColorMatrix in="SourceAlpha" type="matrix" values="0 0 0 0 0 0 0 0 0 0 0 0 0 0 0 0 0 0 127 0" result="hardAlpha"/>
<feOffset dx="4" dy="4"/>
<feColorMatrix type="matrix" values="0 0 0 0 0 0 0 0 0 0 0 0 0 0 0 0 0 0 1 0"/>
<feBlend mode="normal" in2="BackgroundImageFix" result="effect1_dropShadow_3999_802"/>
<feBlend mode="normal" in="SourceGraphic" in2="effect1_dropShadow_3999_802" result="shape"/>
</filter>
</defs>
</svg>
