<svg width="93" height="93" viewBox="0 0 93 93" fill="none" xmlns="http://www.w3.org/2000/svg">
<g filter="url(#filter0_d_4297_1309)">
<path d="M81.4591 59.1062C82.4681 62.5721 80.4763 66.1998 77.0103 67.2088L28.0602 81.459C24.5942 82.468 20.9666 80.4763 19.9576 77.0103L5.70731 28.0602C4.69831 24.5942 6.69007 20.9665 10.156 19.9575L59.1062 5.70729C62.5721 4.69829 66.1998 6.69005 67.2088 10.156L81.4591 59.1062Z" fill="#7952B3"/>
<path d="M28.8062 84.0216L77.7564 69.7714C82.6376 68.3503 85.4426 63.2414 84.0216 58.3602L69.7714 9.40999C68.3504 4.52878 63.2414 1.72372 58.3602 3.14472L9.41001 17.395C4.52879 18.816 1.72374 23.9249 3.14474 28.8062L17.395 77.7563C18.816 82.6376 23.925 85.4426 28.8062 84.0216Z" stroke="black" stroke-width="5.33788"/>
</g>
<path d="M37.1119 43.0911C37.2172 39.844 39.9348 37.297 43.182 37.4023C46.4292 37.5075 48.9761 40.2252 48.8709 43.4723C48.7656 46.7195 46.048 49.2665 42.8008 49.1612C39.5537 49.056 37.0067 46.3383 37.1119 43.0911Z" fill="black"/>
<path d="M23.9622 67.3414C24.0674 64.0942 26.7851 61.5472 30.0322 61.6525C33.2794 61.7578 35.8264 64.4754 35.7211 67.7226C35.6158 70.9697 32.8982 73.5167 29.651 73.4115C26.4039 73.3062 23.8569 70.5885 23.9622 67.3414Z" fill="black"/>
<path d="M50.5708 19.7916C50.6761 16.5444 53.3937 13.9974 56.6409 14.1027C59.888 14.208 62.435 16.9256 62.3298 20.1728C62.2245 23.4199 59.5069 25.9669 56.2597 25.8617C53.0125 25.7564 50.4655 23.0387 50.5708 19.7916Z" fill="black"/>
<defs>
<filter id="filter0_d_4297_1309" x="0.105835" y="0.105713" width="92.2926" height="92.2927" filterUnits="userSpaceOnUse" color-interpolation-filters="sRGB">
<feFlood flood-opacity="0" result="BackgroundImageFix"/>
<feColorMatrix in="SourceAlpha" type="matrix" values="0 0 0 0 0 0 0 0 0 0 0 0 0 0 0 0 0 0 127 0" result="hardAlpha"/>
<feOffset dx="5.33788" dy="5.33788"/>
<feColorMatrix type="matrix" values="0 0 0 0 0 0 0 0 0 0 0 0 0 0 0 0 0 0 1 0"/>
<feBlend mode="normal" in2="BackgroundImageFix" result="effect1_dropShadow_4297_1309"/>
<feBlend mode="normal" in="SourceGraphic" in2="effect1_dropShadow_4297_1309" result="shape"/>
</filter>
</defs>
</svg>
