<svg width="95" height="95" viewBox="0 0 95 95" fill="none" xmlns="http://www.w3.org/2000/svg">
<g filter="url(#filter0_d_864_1146)">
<path d="M28.8038 7.77681C30.486 4.58637 34.436 3.36369 37.6265 5.04588L82.6856 28.8038C85.876 30.486 87.0987 34.436 85.4165 37.6265L61.6586 82.6855C59.9764 85.876 56.0264 87.0987 52.8359 85.4165L7.77683 61.6586C4.58639 59.9764 3.36371 56.0263 5.04591 52.8359L28.8038 7.77681Z" fill="white"/>
<path d="M38.5593 3.27673C34.3918 1.07937 29.232 2.67649 27.0346 6.84401L3.27676 51.9031C1.07939 56.0706 2.67652 61.2304 6.84403 63.4277L51.9031 87.1856C56.0706 89.383 61.2304 87.7859 63.4278 83.6183L87.1856 38.5593C89.383 34.3917 87.7859 29.232 83.6184 27.0346L38.5593 3.27673Z" stroke="black" stroke-width="4"/>
</g>
<path d="M43.0569 24.1512C41.5429 27.0226 37.9879 28.123 35.1164 26.609C32.245 25.0951 31.1446 21.54 32.6586 18.6686C34.1726 15.7972 37.7276 14.6968 40.599 16.2108C43.4704 17.7248 44.5708 21.2798 43.0569 24.1512Z" fill="black"/>
<path d="M26.609 55.346C25.0951 58.2174 21.54 59.3178 18.6686 57.8038C15.7972 56.2898 14.6968 52.7348 16.2108 49.8634C17.7248 46.992 21.2798 45.8916 24.1512 47.4055C27.0226 48.9195 28.123 52.4745 26.609 55.346Z" fill="black"/>
<path d="M74.2516 40.599C72.7376 43.4704 69.1826 44.5708 66.3111 43.0568C63.4397 41.5428 62.3393 37.9878 63.8533 35.1164C65.3673 32.245 68.9223 31.1445 71.7937 32.6585C74.6652 34.1725 75.7655 37.7276 74.2516 40.599Z" fill="black"/>
<path d="M57.8038 71.7937C56.2898 74.6651 52.7348 75.7655 49.8634 74.2515C46.992 72.7376 45.8916 69.1825 47.4056 66.3111C48.9195 63.4397 52.4746 62.3393 55.346 63.8533C58.2174 65.3673 59.3178 68.9223 57.8038 71.7937Z" fill="black"/>
<defs>
<filter id="filter0_d_864_1146" x="0.289978" y="0.289978" width="93.8824" height="93.8824" filterUnits="userSpaceOnUse" color-interpolation-filters="sRGB">
<feFlood flood-opacity="0" result="BackgroundImageFix"/>
<feColorMatrix in="SourceAlpha" type="matrix" values="0 0 0 0 0 0 0 0 0 0 0 0 0 0 0 0 0 0 127 0" result="hardAlpha"/>
<feOffset dx="4" dy="4"/>
<feColorMatrix type="matrix" values="0 0 0 0 0 0 0 0 0 0 0 0 0 0 0 0 0 0 1 0"/>
<feBlend mode="normal" in2="BackgroundImageFix" result="effect1_dropShadow_864_1146"/>
<feBlend mode="normal" in="SourceGraphic" in2="effect1_dropShadow_864_1146" result="shape"/>
</filter>
</defs>
</svg>
