<svg width="93" height="93" viewBox="0 0 93 93" fill="none" xmlns="http://www.w3.org/2000/svg">
<g filter="url(#filter0_d_1395_736)">
<path d="M81.4591 59.1062C82.4681 62.5722 80.4763 66.1999 77.0103 67.2089L28.0602 81.4591C24.5942 82.4681 20.9666 80.4763 19.9576 77.0104L5.70731 28.0602C4.69831 24.5943 6.69006 20.9666 10.156 19.9576L59.1062 5.70735C62.5721 4.69835 66.1998 6.69011 67.2088 10.1561L81.4591 59.1062Z" fill="#62C848"/>
<path d="M77.7564 69.7714C82.6376 68.3504 85.4426 63.2414 84.0216 58.3602L69.7714 9.41005C68.3504 4.52884 63.2414 1.72378 58.3602 3.14479L9.41001 17.395C4.52879 18.816 1.72374 23.925 3.14474 28.8062L17.395 77.7564C18.816 82.6376 23.925 85.4427 28.8062 84.0217L77.7564 69.7714Z" stroke="black" stroke-width="5.33788"/>
</g>
<path d="M37.112 43.0911C37.2173 39.8439 39.9349 37.2969 43.1821 37.4022C46.4292 37.5075 48.9762 40.2251 48.8709 43.4723C48.7657 46.7194 46.0481 49.2664 42.8009 49.1612C39.5537 49.0559 37.0067 46.3382 37.112 43.0911Z" fill="black"/>
<path d="M23.9622 67.3415C24.0674 64.0943 26.7851 61.5473 30.0322 61.6526C33.2794 61.7578 35.8264 64.4755 35.7211 67.7226C35.6158 70.9698 32.8982 73.5168 29.651 73.4115C26.4039 73.3063 23.8569 70.5886 23.9622 67.3415Z" fill="black"/>
<path d="M50.5708 19.7917C50.6761 16.5445 53.3937 13.9976 56.6409 14.1028C59.888 14.2081 62.435 16.9257 62.3298 20.1729C62.2245 23.42 59.5069 25.967 56.2597 25.8618C53.0125 25.7565 50.4655 23.0389 50.5708 19.7917Z" fill="black"/>
<defs>
<filter id="filter0_d_1395_736" x="0.105835" y="0.105835" width="92.2926" height="92.2927" filterUnits="userSpaceOnUse" color-interpolation-filters="sRGB">
<feFlood flood-opacity="0" result="BackgroundImageFix"/>
<feColorMatrix in="SourceAlpha" type="matrix" values="0 0 0 0 0 0 0 0 0 0 0 0 0 0 0 0 0 0 127 0" result="hardAlpha"/>
<feOffset dx="5.33788" dy="5.33788"/>
<feColorMatrix type="matrix" values="0 0 0 0 0 0 0 0 0 0 0 0 0 0 0 0 0 0 1 0"/>
<feBlend mode="normal" in2="BackgroundImageFix" result="effect1_dropShadow_1395_736"/>
<feBlend mode="normal" in="SourceGraphic" in2="effect1_dropShadow_1395_736" result="shape"/>
</filter>
</defs>
</svg>
