<svg width="83" height="23" viewBox="0 0 83 23" fill="none" xmlns="http://www.w3.org/2000/svg">
<path fill-rule="evenodd" clip-rule="evenodd" d="M0.43934 12.1066L9.98528 21.6525C10.5711 22.2383 11.5208 22.2383 12.1066 21.6525C12.6924 21.0668 12.6924 20.117 12.1066 19.5312L5.12132 12.5459H29.5V9.54594H5.12132L12.1066 2.56066C12.6924 1.97487 12.6924 1.02513 12.1066 0.43934C11.5208 -0.146447 10.5711 -0.146447 9.98528 0.43934L0.43934 9.98528C-0.146447 10.5711 -0.146447 11.5208 0.43934 12.1066ZM46.484 15.8999V8.94794H41.446V11.3899H43.91V16.0366C42.9451 16.7802 41.895 17.4974 40.962 18.0779L42.26 20.8279C43.426 19.8599 44.394 19.0239 45.34 18.1659C46.77 19.8819 48.618 20.5199 51.368 20.6299C54.008 20.7399 58.452 20.6959 61.114 20.5639C61.246 19.7719 61.664 18.4959 61.95 17.8799C58.98 18.1219 53.986 18.1879 51.412 18.0779C49.08 17.9899 47.386 17.3739 46.484 15.8999ZM43.426 0.873941L41.468 2.45794C42.766 3.44794 44.306 4.94394 44.944 5.97794L47.056 4.26194C46.308 3.22794 44.724 1.81994 43.426 0.873941ZM60.982 1.24794H51.346H50.07H48.816V6.37394C48.816 9.16794 48.618 12.9739 46.55 15.6139C47.166 15.8999 48.31 16.6039 48.75 17.0439C50.5441 14.7221 51.1288 11.3456 51.2911 8.4547C51.9358 10.2472 52.7468 11.8183 53.7763 13.1531C52.6572 14.0856 51.3624 14.7976 49.938 15.2619C50.466 15.7899 51.126 16.8239 51.434 17.4839C52.9796 16.8702 54.371 16.0724 55.5833 15.0557C56.8507 16.1339 58.3618 16.9703 60.168 17.5499C60.542 16.8459 61.29 15.7899 61.862 15.2619C60.1263 14.8106 58.6541 14.0957 57.4281 13.1591C58.858 11.3539 59.898 9.06715 60.476 6.19794L58.804 5.66994L58.32 5.73594H57.836H51.346V3.68994H60.982V1.24794ZM53.6983 8.08994H57.2883C56.8515 9.28646 56.2601 10.3651 55.5382 11.3118C54.7742 10.3592 54.164 9.27789 53.6983 8.08994ZM71.388 12.5119V8.70594H75.282V12.5119H71.388ZM77.922 6.39594H68.902V14.7999H77.922V6.39594ZM82.938 1.11594H64.062V21.0259H66.79V19.8379H80.078V21.0259H82.938V1.11594ZM80.078 17.3739V3.79994H66.79V17.3739H80.078Z" fill="black"/>
</svg>
