<svg width="192" height="27" viewBox="0 0 192 27" fill="none" xmlns="http://www.w3.org/2000/svg">
<path d="M7.106 17.16V18.282H14.564V17.16H7.106ZM7.106 14.388V15.488H14.564V14.388H7.106ZM4.51 12.65H17.314V20.02H4.51V12.65ZM1.144 5.786H20.856V8.052H1.144V5.786ZM9.592 3.322H12.21V12.034H9.592V3.322ZM8.382 6.49L10.582 7.326C8.69 10.274 5.566 12.782 2.2 14.102C1.826 13.464 1.056 12.496 0.506 11.99C3.696 10.978 6.798 8.822 8.382 6.49ZM13.31 6.468C14.916 8.756 18.128 10.824 21.406 11.792C20.834 12.276 20.064 13.288 19.69 13.948C16.302 12.694 13.112 10.208 11.176 7.282L13.31 6.468ZM1.342 21.032H20.68V23.364H1.342V21.032ZM27.566 13.046H40.722V24.046H38.06V15.048H30.096V24.046H27.566V13.046ZM23.188 10.054H42.79V12.122H23.188V10.054ZM24.728 7.106H41.58V9.108H24.728V7.106ZM29.282 15.972H39.138V17.644H29.282V15.972ZM29.282 18.59H39.138V20.24H29.282V18.59ZM28.974 21.252H39.138V23.254H28.974V21.252ZM39.974 3.388L41.514 5.28C37.004 6.028 30.448 6.292 24.992 6.248C24.948 5.676 24.706 4.796 24.486 4.268C29.876 4.268 36.256 4.004 39.974 3.388ZM30.602 5.214L33.352 5.764C31.856 11.242 29.216 16.478 24.134 19.404C23.782 18.81 23.012 17.82 22.484 17.314C27.148 14.806 29.568 9.966 30.602 5.214ZM45.144 15.84H64.834V18.15H45.144V15.84ZM53.636 14.542H56.408C55.858 19.514 54.494 22.594 46.046 23.936C45.87 23.276 45.276 22.264 44.814 21.736C52.404 20.702 53.196 18.458 53.636 14.542ZM56.562 17.666C57.926 20.086 60.874 21.208 65.406 21.494C64.834 22.044 64.152 23.144 63.822 23.848C58.872 23.254 55.99 21.626 54.208 18.172L56.562 17.666ZM45.122 5.456L47.08 4.422C47.85 5.368 48.73 6.71 49.038 7.612L46.948 8.8C46.662 7.898 45.848 6.49 45.122 5.456ZM49.544 3.322H52.118V14.564H49.544V3.322ZM44.704 11.132C46.068 10.516 48.092 9.438 50.072 8.382L50.776 10.45C49.104 11.484 47.3 12.562 45.782 13.42L44.704 11.132ZM55.044 9.13L56.936 7.986C57.882 8.778 59.048 9.966 59.62 10.78L57.618 12.034C57.112 11.22 55.99 9.988 55.044 9.13ZM56.32 5.148H63.074V7.348H56.32V5.148ZM56.848 3.234L59.334 4.092C58.058 6.138 55.968 8.184 53.856 9.394C53.482 8.844 52.756 7.942 52.272 7.48C54.164 6.49 56.012 4.774 56.848 3.234ZM62.7 5.148H63.228L63.668 5.082L65.252 5.808C63.536 11.242 59.202 13.552 53.68 14.52C53.46 13.904 52.756 12.826 52.294 12.32C57.574 11.638 61.402 9.856 62.7 5.544V5.148ZM78.342 8.58H85.184V11H78.342V8.58ZM69.674 8.558H77.858V10.868H69.674V8.558ZM69.19 4.532H78.518V6.93H69.19V4.532ZM84.348 8.58H86.768C86.768 8.58 86.746 9.394 86.746 9.702C86.57 18.656 86.394 21.846 85.756 22.792C85.272 23.496 84.81 23.738 84.128 23.848C83.49 23.98 82.544 23.958 81.554 23.936C81.51 23.232 81.246 22.22 80.85 21.538C81.708 21.626 82.456 21.626 82.852 21.626C83.182 21.626 83.358 21.538 83.578 21.252C84.04 20.614 84.194 17.622 84.348 9.13V8.58ZM72.974 12.738H76.494V14.96H72.974V12.738ZM75.482 12.738H77.748C77.748 12.738 77.726 13.398 77.726 13.662C77.506 19.668 77.308 21.912 76.758 22.638C76.362 23.188 75.944 23.386 75.372 23.452C74.888 23.562 74.096 23.562 73.26 23.54C73.216 22.88 72.996 22 72.688 21.428C73.326 21.494 73.876 21.516 74.184 21.494C74.448 21.516 74.624 21.45 74.778 21.208C75.13 20.746 75.328 18.766 75.482 13.156V12.738ZM80.322 3.674H82.742C82.72 12.54 82.654 19.778 78.562 24.046C78.166 23.43 77.352 22.616 76.736 22.22C80.454 18.436 80.3 11.946 80.322 3.674ZM71.852 9.922H74.25C74.162 16.126 73.876 21.142 70.928 24.2C70.576 23.628 69.828 22.792 69.256 22.396C71.72 19.778 71.808 15.4 71.852 9.922ZM67.936 4.532H70.312V12.694C70.312 16.082 70.114 20.944 68.64 24.002C68.2 23.606 67.1 22.968 66.506 22.748C67.826 19.932 67.936 15.774 67.936 12.716V4.532ZM92.268 11.396H104.17V13.97H92.268V11.396ZM103.312 11.396H106.084C106.084 11.396 106.062 12.21 106.04 12.54C105.798 19.228 105.534 21.846 104.764 22.748C104.214 23.496 103.598 23.694 102.762 23.826C101.992 23.936 100.716 23.914 99.418 23.87C99.374 23.1 99.022 21.956 98.538 21.208C99.77 21.318 100.914 21.34 101.464 21.34C101.86 21.34 102.102 21.274 102.344 21.032C102.872 20.46 103.114 17.996 103.312 11.88V11.396ZM94.754 3.608L97.614 4.444C95.964 8.272 93.28 11.814 90.508 13.992C90.002 13.42 88.858 12.364 88.22 11.858C90.992 10.032 93.434 6.952 94.754 3.608ZM103.136 3.564C104.522 6.358 107.294 9.57 109.714 11.418C108.988 11.99 107.976 13.068 107.47 13.816C104.984 11.528 102.278 7.964 100.54 4.598L103.136 3.564ZM96.206 12.144H99.066C98.648 17.094 97.702 21.692 91.146 24.134C90.816 23.408 90.046 22.286 89.43 21.714C95.326 19.778 95.854 16.06 96.206 12.144ZM111.21 6.71H119.196V9.13H111.21V6.71ZM110.77 11.814H119.46V14.3H110.77V11.814ZM114.048 3.542H116.534V10.538C116.534 14.63 116.072 20.196 112.42 23.76C112.046 23.254 111.166 22.374 110.528 21.956C113.85 18.986 114.048 13.904 114.048 10.56V3.542ZM116.16 14.564C116.93 15.246 119.328 18.084 119.878 18.766L118.096 20.68C117.282 19.316 115.478 16.896 114.554 15.774L116.16 14.564ZM120.186 4.312H130.416V16.038H127.776V6.578H122.716V16.038H120.186V4.312ZM124.63 15.356H126.962V20.746C126.962 21.318 127.138 21.472 127.556 21.472H128.59C129.14 21.472 129.272 20.878 129.338 18.194C129.91 18.634 130.79 18.986 131.384 19.118C131.164 22.506 130.768 23.496 128.612 23.496H127.094C125.334 23.496 124.63 22.968 124.63 21.054V15.356ZM124.036 7.942H126.478V11.462C126.478 15.378 125.378 20.812 119.438 23.936C119.13 23.43 118.294 22.462 117.788 22.066C123.42 19.162 124.036 14.784 124.036 11.418V7.942ZM138.732 19.712L140.316 18.084C141.658 19.14 143.594 20.702 144.54 21.67L142.868 23.54C141.988 22.528 140.118 20.856 138.732 19.712ZM133.606 4.356H143.902V17.82H141.328V6.71H136.048V17.93H133.606V4.356ZM149.754 3.586H152.35V20.658C152.35 22.198 152.042 22.924 151.14 23.364C150.216 23.782 148.764 23.87 146.74 23.87C146.63 23.1 146.19 21.89 145.816 21.142C147.268 21.208 148.698 21.186 149.16 21.186C149.578 21.186 149.754 21.054 149.754 20.636V3.586ZM145.618 5.346H148.082V18.898H145.618V5.346ZM137.412 7.964H139.898V14.388C139.898 17.754 139.04 21.824 134.09 24.002C133.826 23.452 132.99 22.396 132.528 22C136.95 20.042 137.412 17.094 137.412 14.344V7.964Z" fill="black"/>
<path d="M191.061 15.0607C191.646 14.4749 191.646 13.5251 191.061 12.9393L181.515 3.3934C180.929 2.80761 179.979 2.80761 179.393 3.3934C178.808 3.97919 178.808 4.92893 179.393 5.51472L187.879 14L179.393 22.4853C178.808 23.0711 178.808 24.0208 179.393 24.6066C179.979 25.1924 180.929 25.1924 181.515 24.6066L191.061 15.0607ZM162 15.5H190V12.5H162V15.5Z" fill="black"/>
</svg>
