<svg width="106" height="27" viewBox="0 0 106 27" fill="none" xmlns="http://www.w3.org/2000/svg">
<path d="M1.122 4.928H20.878V7.59H1.122V4.928ZM9.108 7.326H11.946V23.936H9.108V7.326ZM10.604 12.65L12.408 10.56C14.806 11.748 18.26 13.662 19.954 15.026L17.996 17.446C16.434 16.06 13.09 13.992 10.604 12.65ZM22.836 11.99H43.208V14.872H22.836V11.99ZM45.452 4.356H64.724V6.798H45.452V4.356ZM53.328 5.566L56.364 5.962C55.792 7.392 55.066 8.8 54.538 9.768L52.25 9.306C52.668 8.228 53.13 6.688 53.328 5.566ZM53.68 12.122H56.43V16.126C56.43 19.294 54.692 22.286 46.508 24.002C46.2 23.452 45.452 22.418 44.858 21.89C52.448 20.482 53.68 18.216 53.68 16.06V12.122ZM55.77 19.932L57.266 18.128C59.708 19.096 63.228 20.768 64.966 21.934L63.338 24.024C61.732 22.814 58.3 21.032 55.77 19.932ZM47.256 8.8H63.074V18.964H60.236V11.22H49.962V19.03H47.256V8.8Z" fill="black"/>
<path d="M105.061 15.0607C105.646 14.4749 105.646 13.5251 105.061 12.9393L95.5147 3.3934C94.9289 2.80761 93.9792 2.80761 93.3934 3.3934C92.8076 3.97919 92.8076 4.92893 93.3934 5.51472L101.879 14L93.3934 22.4853C92.8076 23.0711 92.8076 24.0208 93.3934 24.6066C93.9792 25.1924 94.9289 25.1924 95.5147 24.6066L105.061 15.0607ZM76 15.5H104V12.5H76V15.5Z" fill="black"/>
</svg>
