<svg width="339" height="54" viewBox="0 0 339 54" fill="none" xmlns="http://www.w3.org/2000/svg">
<g filter="url(#filter0_d_1215_1491)">
<path d="M38.0204 3C40.2183 3 42 4.91878 42 7.28571V40.7143C42 43.0812 40.2183 45 38.0204 45H6.97959C4.78173 45 3 43.0812 3 40.7143V7.28571C3 4.91878 4.78173 3 6.97959 3L38.0204 3Z" fill="#F93838"/>
<path d="M38.0204 3C40.2183 3 42 4.91878 42 7.28571V40.7143C42 43.0812 40.2183 45 38.0204 45H6.97959C4.78173 45 3 43.0812 3 40.7143V7.28571C3 4.91878 4.78173 3 6.97959 3L38.0204 3Z" fill="#F93838"/>
<path d="M44.6689 7.28571C44.6689 3.63448 41.8751 0.331058 38.0204 0.331058L6.97959 0.331058C3.12489 0.331058 0.331059 3.63448 0.331059 7.28571V40.7143C0.331059 44.3655 3.12489 47.6689 6.97959 47.6689H38.0204C41.8751 47.6689 44.6689 44.3655 44.6689 40.7143V7.28571Z" stroke="white" stroke-width="5.33788"/>
</g>
<path d="M22.682 19.0001C25.2679 19.0001 27.3641 21.2575 27.3641 24.0423C27.3641 26.827 25.2679 29.0845 22.682 29.0845C20.0962 29.0845 18 26.827 18 24.0423C18 21.2575 20.0962 19.0001 22.682 19.0001Z" fill="white"/>
<g filter="url(#filter1_d_1215_1491)">
<path d="M110.02 3C112.218 3 114 4.91878 114 7.28571V40.7143C114 43.0812 112.218 45 110.02 45H78.9796C76.7817 45 75 43.0812 75 40.7143V7.28571C75 4.91878 76.7817 3 78.9796 3L110.02 3Z" fill="#F93838"/>
<path d="M110.02 3C112.218 3 114 4.91878 114 7.28571V40.7143C114 43.0812 112.218 45 110.02 45H78.9796C76.7817 45 75 43.0812 75 40.7143V7.28571C75 4.91878 76.7817 3 78.9796 3L110.02 3Z" fill="#F93838"/>
<path d="M116.669 7.28571C116.669 3.63448 113.875 0.331058 110.02 0.331058L78.9796 0.331058C75.1249 0.331058 72.3311 3.63448 72.3311 7.28571V40.7143C72.3311 44.3655 75.1249 47.6689 78.9796 47.6689H110.02C113.875 47.6689 116.669 44.3655 116.669 40.7143V7.28571Z" stroke="white" stroke-width="5.33788"/>
</g>
<path d="M106.682 32.0001C109.268 32.0001 111.364 34.2575 111.364 37.0423C111.364 39.827 109.268 42.0845 106.682 42.0845C104.096 42.0845 102 39.827 102 37.0423C102 34.2575 104.096 32.0001 106.682 32.0001Z" fill="white"/>
<path d="M82.682 6.00007C85.2679 6.00007 87.3641 8.25752 87.3641 11.0423C87.3641 13.827 85.2679 16.0845 82.682 16.0845C80.0962 16.0845 78 13.827 78 11.0423C78 8.25752 80.0962 6.00007 82.682 6.00007Z" fill="white"/>
<g filter="url(#filter2_d_1215_1491)">
<path d="M182.02 3C184.218 3 186 4.91878 186 7.28571V40.7143C186 43.0812 184.218 45 182.02 45H150.98C148.782 45 147 43.0812 147 40.7143V7.28571C147 4.91878 148.782 3 150.98 3L182.02 3Z" fill="#F93838"/>
<path d="M182.02 3C184.218 3 186 4.91878 186 7.28571V40.7143C186 43.0812 184.218 45 182.02 45H150.98C148.782 45 147 43.0812 147 40.7143V7.28571C147 4.91878 148.782 3 150.98 3L182.02 3Z" fill="#F93838"/>
<path d="M188.669 7.28571C188.669 3.63448 185.875 0.331058 182.02 0.331058L150.98 0.331058C147.125 0.331058 144.331 3.63448 144.331 7.28571V40.7143C144.331 44.3655 147.125 47.6689 150.98 47.6689H182.02C185.875 47.6689 188.669 44.3655 188.669 40.7143V7.28571Z" stroke="white" stroke-width="5.33788"/>
</g>
<path d="M176.682 32.0001C179.268 32.0001 181.364 34.2575 181.364 37.0423C181.364 39.827 179.268 42.0845 176.682 42.0845C174.096 42.0845 172 39.827 172 37.0423C172 34.2575 174.096 32.0001 176.682 32.0001Z" fill="white"/>
<path d="M166.009 18.63C168.595 18.63 170.691 20.8874 170.691 23.6722C170.691 26.4569 168.595 28.7144 166.009 28.7144C163.423 28.7144 161.327 26.4569 161.327 23.6722C161.327 20.8874 163.423 18.63 166.009 18.63Z" fill="white"/>
<path d="M155.682 6.00007C158.268 6.00007 160.364 8.25752 160.364 11.0423C160.364 13.827 158.268 16.0845 155.682 16.0845C153.096 16.0845 151 13.827 151 11.0423C151 8.25752 153.096 6.00007 155.682 6.00007Z" fill="white"/>
<g filter="url(#filter3_d_1215_1491)">
<path d="M254.02 3C256.218 3 258 4.91878 258 7.28571V40.7143C258 43.0812 256.218 45 254.02 45H222.98C220.782 45 219 43.0812 219 40.7143V7.28571C219 4.91878 220.782 3 222.98 3L254.02 3Z" fill="#F93838"/>
<path d="M254.02 3C256.218 3 258 4.91878 258 7.28571V40.7143C258 43.0812 256.218 45 254.02 45H222.98C220.782 45 219 43.0812 219 40.7143V7.28571C219 4.91878 220.782 3 222.98 3L254.02 3Z" fill="#F93838"/>
<path d="M260.669 7.28571C260.669 3.63448 257.875 0.331058 254.02 0.331058L222.98 0.331058C219.125 0.331058 216.331 3.63448 216.331 7.28571V40.7143C216.331 44.3655 219.125 47.6689 222.98 47.6689H254.02C257.875 47.6689 260.669 44.3655 260.669 40.7143V7.28571Z" stroke="white" stroke-width="5.33788"/>
</g>
<path d="M249.682 32.0001C252.268 32.0001 254.364 34.2575 254.364 37.0423C254.364 39.827 252.268 42.0845 249.682 42.0845C247.096 42.0845 245 39.827 245 37.0423C245 34.2575 247.096 32.0001 249.682 32.0001Z" fill="white"/>
<path d="M249.682 6.00007C252.268 6.00007 254.364 8.25752 254.364 11.0423C254.364 13.827 252.268 16.0845 249.682 16.0845C247.096 16.0845 245 13.827 245 11.0423C245 8.25752 247.096 6.00007 249.682 6.00007Z" fill="white"/>
<path d="M226.682 6.00007C229.268 6.00007 231.364 8.25752 231.364 11.0423C231.364 13.827 229.268 16.0845 226.682 16.0845C224.096 16.0845 222 13.827 222 11.0423C222 8.25752 224.096 6.00007 226.682 6.00007Z" fill="white"/>
<path d="M226.682 32.0001C229.268 32.0001 231.364 34.2575 231.364 37.0423C231.364 39.827 229.268 42.0845 226.682 42.0845C224.096 42.0845 222 39.827 222 37.0423C222 34.2575 224.096 32.0001 226.682 32.0001Z" fill="white"/>
<g filter="url(#filter4_d_1215_1491)">
<path d="M326.02 3C328.218 3 330 4.91878 330 7.28571V40.7143C330 43.0812 328.218 45 326.02 45H294.98C292.782 45 291 43.0812 291 40.7143V7.28571C291 4.91878 292.782 3 294.98 3L326.02 3Z" fill="#F93838"/>
<path d="M326.02 3C328.218 3 330 4.91878 330 7.28571V40.7143C330 43.0812 328.218 45 326.02 45H294.98C292.782 45 291 43.0812 291 40.7143V7.28571C291 4.91878 292.782 3 294.98 3L326.02 3Z" fill="#F93838"/>
<path d="M332.669 7.28571C332.669 3.63448 329.875 0.331058 326.02 0.331058L294.98 0.331058C291.125 0.331058 288.331 3.63448 288.331 7.28571V40.7143C288.331 44.3655 291.125 47.6689 294.98 47.6689H326.02C329.875 47.6689 332.669 44.3655 332.669 40.7143V7.28571Z" stroke="white" stroke-width="5.33788"/>
</g>
<path d="M321.682 19.0001C324.268 19.0001 326.364 21.2575 326.364 24.0423C326.364 26.827 324.268 29.0845 321.682 29.0845C319.096 29.0845 317 26.827 317 24.0423C317 21.2575 319.096 19.0001 321.682 19.0001Z" fill="white"/>
<path d="M321.682 32.0001C324.268 32.0001 326.364 34.2575 326.364 37.0423C326.364 39.827 324.268 42.0845 321.682 42.0845C319.096 42.0845 317 39.827 317 37.0423C317 34.2575 319.096 32.0001 321.682 32.0001Z" fill="white"/>
<path d="M321.682 6.00007C324.268 6.00007 326.364 8.25752 326.364 11.0423C326.364 13.827 324.268 16.0845 321.682 16.0845C319.096 16.0845 317 13.827 317 11.0423C317 8.25752 319.096 6.00007 321.682 6.00007Z" fill="white"/>
<path d="M298.682 6.00007C301.268 6.00007 303.364 8.25752 303.364 11.0423C303.364 13.827 301.268 16.0845 298.682 16.0845C296.096 16.0845 294 13.827 294 11.0423C294 8.25752 296.096 6.00007 298.682 6.00007Z" fill="white"/>
<path d="M298.682 19.0001C301.268 19.0001 303.364 21.2575 303.364 24.0423C303.364 26.827 301.268 29.0845 298.682 29.0845C296.096 29.0845 294 26.827 294 24.0423C294 21.2575 296.096 19.0001 298.682 19.0001Z" fill="white"/>
<path d="M298.682 32.0001C301.268 32.0001 303.364 34.2575 303.364 37.0423C303.364 39.827 301.268 42.0845 298.682 42.0845C296.096 42.0845 294 39.827 294 37.0423C294 34.2575 296.096 32.0001 298.682 32.0001Z" fill="white"/>
<defs>
<filter id="filter0_d_1215_1491" x="0.331055" y="0.331055" width="49.6758" height="52.6758" filterUnits="userSpaceOnUse" color-interpolation-filters="sRGB">
<feFlood flood-opacity="0" result="BackgroundImageFix"/>
<feColorMatrix in="SourceAlpha" type="matrix" values="0 0 0 0 0 0 0 0 0 0 0 0 0 0 0 0 0 0 127 0" result="hardAlpha"/>
<feOffset dx="5.33788" dy="5.33788"/>
<feColorMatrix type="matrix" values="0 0 0 0 0 0 0 0 0 0 0 0 0 0 0 0 0 0 1 0"/>
<feBlend mode="normal" in2="BackgroundImageFix" result="effect1_dropShadow_1215_1491"/>
<feBlend mode="normal" in="SourceGraphic" in2="effect1_dropShadow_1215_1491" result="shape"/>
</filter>
<filter id="filter1_d_1215_1491" x="72.3311" y="0.331055" width="49.6758" height="52.6758" filterUnits="userSpaceOnUse" color-interpolation-filters="sRGB">
<feFlood flood-opacity="0" result="BackgroundImageFix"/>
<feColorMatrix in="SourceAlpha" type="matrix" values="0 0 0 0 0 0 0 0 0 0 0 0 0 0 0 0 0 0 127 0" result="hardAlpha"/>
<feOffset dx="5.33788" dy="5.33788"/>
<feColorMatrix type="matrix" values="0 0 0 0 0 0 0 0 0 0 0 0 0 0 0 0 0 0 1 0"/>
<feBlend mode="normal" in2="BackgroundImageFix" result="effect1_dropShadow_1215_1491"/>
<feBlend mode="normal" in="SourceGraphic" in2="effect1_dropShadow_1215_1491" result="shape"/>
</filter>
<filter id="filter2_d_1215_1491" x="144.331" y="0.331055" width="49.6758" height="52.6758" filterUnits="userSpaceOnUse" color-interpolation-filters="sRGB">
<feFlood flood-opacity="0" result="BackgroundImageFix"/>
<feColorMatrix in="SourceAlpha" type="matrix" values="0 0 0 0 0 0 0 0 0 0 0 0 0 0 0 0 0 0 127 0" result="hardAlpha"/>
<feOffset dx="5.33788" dy="5.33788"/>
<feColorMatrix type="matrix" values="0 0 0 0 0 0 0 0 0 0 0 0 0 0 0 0 0 0 1 0"/>
<feBlend mode="normal" in2="BackgroundImageFix" result="effect1_dropShadow_1215_1491"/>
<feBlend mode="normal" in="SourceGraphic" in2="effect1_dropShadow_1215_1491" result="shape"/>
</filter>
<filter id="filter3_d_1215_1491" x="216.331" y="0.331055" width="49.6758" height="52.6758" filterUnits="userSpaceOnUse" color-interpolation-filters="sRGB">
<feFlood flood-opacity="0" result="BackgroundImageFix"/>
<feColorMatrix in="SourceAlpha" type="matrix" values="0 0 0 0 0 0 0 0 0 0 0 0 0 0 0 0 0 0 127 0" result="hardAlpha"/>
<feOffset dx="5.33788" dy="5.33788"/>
<feColorMatrix type="matrix" values="0 0 0 0 0 0 0 0 0 0 0 0 0 0 0 0 0 0 1 0"/>
<feBlend mode="normal" in2="BackgroundImageFix" result="effect1_dropShadow_1215_1491"/>
<feBlend mode="normal" in="SourceGraphic" in2="effect1_dropShadow_1215_1491" result="shape"/>
</filter>
<filter id="filter4_d_1215_1491" x="288.331" y="0.331055" width="49.6758" height="52.6758" filterUnits="userSpaceOnUse" color-interpolation-filters="sRGB">
<feFlood flood-opacity="0" result="BackgroundImageFix"/>
<feColorMatrix in="SourceAlpha" type="matrix" values="0 0 0 0 0 0 0 0 0 0 0 0 0 0 0 0 0 0 127 0" result="hardAlpha"/>
<feOffset dx="5.33788" dy="5.33788"/>
<feColorMatrix type="matrix" values="0 0 0 0 0 0 0 0 0 0 0 0 0 0 0 0 0 0 1 0"/>
<feBlend mode="normal" in2="BackgroundImageFix" result="effect1_dropShadow_1215_1491"/>
<feBlend mode="normal" in="SourceGraphic" in2="effect1_dropShadow_1215_1491" result="shape"/>
</filter>
</defs>
</svg>
