<svg width="60" height="48" viewBox="0 0 60 48" fill="none" xmlns="http://www.w3.org/2000/svg">
<g clip-path="url(#clip0_2560_775)">
<path d="M26.7888 41.1524H36.3339C34.6492 39.6432 31.7431 36.4648 36.2721 31.547C34.7055 31.814 33.0462 32.1945 31.3505 32.1945C29.5149 32.1945 27.752 31.7884 26.0654 31.4751C28.5917 33.5807 31.3923 36.8342 26.7888 41.1524Z" fill="#F2C336"/>
<path d="M32.279 32.3768C32.279 32.3768 30.1344 36.5911 32.2572 40.7623C35.3486 40.8487 36.2919 40.9382 36.2919 40.9382C36.2919 40.9382 30.9868 37.9773 35.7975 31.8316C34.2981 31.5854 32.2826 32.3768 32.2826 32.3768H32.279Z" fill="#E8A200"/>
<path d="M46.9261 5.81633H15.8044C15.468 5.81689 15.1348 5.75851 14.8243 5.64459C14.5138 5.53068 14.2323 5.36351 13.996 5.15284C13.7579 4.9418 13.5694 4.69156 13.4412 4.41642C13.313 4.14128 13.2477 3.84662 13.249 3.54927V3.14958C13.2496 2.54946 13.5194 1.97379 13.9996 1.54761C14.2364 1.33806 14.5178 1.17172 14.8279 1.05813C15.1379 0.944547 15.4703 0.885952 15.8062 0.885713H46.9261C47.2617 0.88537 47.5941 0.943707 47.904 1.05733C48.2138 1.17096 48.4948 1.33761 48.7308 1.54761C49.2119 1.97317 49.4813 2.54938 49.4796 3.14958V3.54927C49.4796 4.15041 49.2106 4.72597 48.7308 5.15124C48.4948 5.36139 48.2138 5.52835 47.904 5.6425C47.5943 5.75665 47.2619 5.81573 46.9261 5.81633Z" fill="#F2C336"/>
<path d="M44.7212 1.35734C44.7212 1.35734 46.5441 2.11356 46.5441 3.21672C46.5441 4.31827 46.2115 4.94499 44.3359 5.12885C46.5441 5.12885 48.865 5.50616 48.9195 3.31904C48.9758 1.13192 45.8371 1.35894 44.7267 1.35894L44.7231 1.35575L44.7212 1.35734Z" fill="#E8A200"/>
<path d="M32.6538 32.1881H30.7837C28.8856 32.1879 27.0065 31.8564 25.2551 31.2129C23.5002 30.5682 21.9073 29.625 20.5679 28.4374C19.2248 27.2455 18.1608 25.8332 17.4365 24.2806C16.7102 22.7253 16.3367 21.0601 16.3369 19.3787V6.65089C16.3369 6.55731 16.3789 6.46751 16.4538 6.40104C16.5287 6.33457 16.6304 6.29681 16.7367 6.29596H46.708C46.7609 6.29575 46.8133 6.3048 46.8622 6.3226C46.9111 6.3404 46.9554 6.36659 46.9926 6.39963C47.0298 6.43268 47.0592 6.47192 47.079 6.51506C47.0988 6.5582 47.1086 6.60437 47.1079 6.65089V19.3739C47.1006 26.4501 40.6378 32.1865 32.6538 32.1865V32.1881Z" fill="#F2C336"/>
<path d="M43.5148 5.79556V17.0765C43.5148 19.5786 42.279 30.2904 29.208 31.8284C35.0002 31.8284 44.2564 30.9491 47.0807 19.6681C47.3296 9.17697 46.8553 5.81635 46.8553 5.81635L43.5148 5.79556Z" fill="#E8A200"/>
<path d="M14.4394 23.4524C5.95924 22.5667 5.83929 18.3347 5.83929 16.6592V12.4289C5.84261 12.3019 5.90228 12.1812 6.00554 12.0924C6.10879 12.0037 6.24743 11.954 6.39179 11.954H12.4547V8.16174H7.73669C5.0069 8.16174 2.78418 10.0739 2.78418 12.4305V16.6624C2.78418 23.0096 7.5604 26.8322 16.2368 27.4366L16.4167 27.4414C17.0438 27.4414 16.9856 27.0321 16.7621 26.5716C15.8243 25.5852 15.0573 24.6307 14.4357 23.454L14.4394 23.4524Z" fill="#F2C336"/>
<path d="M10.1117 8.25287V11.3145C10.1117 11.3145 6.52958 11.0507 5.80442 11.0507C5.08108 11.0507 3.61623 11.0331 3.61623 12.6463V16.9934C3.61623 17.5353 3.56171 22.1286 9.20847 24.2838C10.2444 24.6355 11.324 24.8849 12.4217 25.024L13.7648 27.168L15.5222 26.9489L13.5649 24.0296C13.5649 24.0296 5.89529 22.4036 5.44639 18.3012C4.99748 14.1987 5.76625 12.0899 5.76625 12.0899L11.8783 12.002L12.1509 8.40155L10.1117 8.25287Z" fill="#E8A200"/>
<path d="M54.592 8.17772H49.5287V11.9668H55.9369C56.009 11.966 56.0805 11.9777 56.1474 12.0013C56.2143 12.0249 56.2751 12.06 56.3265 12.1044C56.3779 12.1489 56.4188 12.2019 56.4467 12.2603C56.4747 12.3187 56.4892 12.3814 56.4894 12.4448V16.6768C56.4894 18.3555 56.4894 22.709 47.9984 23.5915C47.381 24.7611 46.5908 25.854 45.6484 26.8418C45.8756 27.0542 46.154 27.219 46.4632 27.3242C46.7724 27.4293 47.1045 27.4721 47.435 27.4493C54.6011 26.6899 59.5427 23.0239 59.5427 16.6768V12.4448C59.5427 10.0914 57.3218 8.17612 54.5902 8.17612V8.17772H54.592Z" fill="#F2C336"/>
<path d="M55.7152 8.56782C54.0977 8.35518 53.1326 8.64775 53.1326 8.64775C53.1326 8.64775 57.2909 9.85163 57.2909 12.7134V17.652C57.2909 18.4083 56.7511 21.406 54.6175 22.7873C52.6347 24.0727 50.4428 25.1135 46.6935 25.6107C46.37 26.0376 46.021 26.4469 45.6484 26.8418C45.8429 27.0225 46.0755 27.168 46.3318 27.2735L50.5137 26.9058C50.7536 26.8434 50.999 26.7778 51.2334 26.7075C52.751 25.9001 59.3792 22.103 59.1429 17.3211C58.8848 11.9236 59.0702 9.14178 55.7079 8.56782H55.7152Z" fill="#E8A200"/>
<path d="M43.8057 47.1159H18.6016V43.5186C18.6016 42.9159 18.8724 42.3355 19.354 41.9087C19.5919 41.6975 19.875 41.5299 20.1869 41.4155C20.4989 41.3011 20.8335 41.2421 21.1714 41.242H41.2359C41.746 41.2413 42.2446 41.3749 42.6676 41.6257C43.0906 41.8764 43.4186 42.2328 43.6094 42.6489C43.7403 42.9239 43.8057 43.2197 43.8057 43.5202V47.1143V47.1159Z" fill="#F2C336"/>
<path d="M38.2461 41.6481C38.2461 41.6481 41.0995 42.0973 41.0995 43.5858V46.5835H43.5366V41.9838L38.2461 41.6481Z" fill="#E8A200"/>
<path d="M0.981419 16.9534C1.17664 16.9543 1.36765 16.9035 1.52968 16.8077C1.69171 16.7119 1.81729 16.5755 1.89014 16.4162C1.93877 16.3106 1.96346 16.1976 1.96283 16.0837V15.4553C1.96269 15.2839 1.90524 15.1162 1.79764 14.9732C1.69003 14.8302 1.53702 14.7182 1.35763 14.6512C1.17819 14.585 0.980319 14.5675 0.789528 14.6012C0.598736 14.6348 0.423764 14.7179 0.287159 14.8398C0.102485 15.0034 -0.00079982 15.2248 4.66459e-06 15.4553V16.0837C0.00141225 16.3128 0.105035 16.5324 0.288577 16.695C0.472119 16.8577 0.72091 16.9505 0.981419 16.9534Z" fill="white" fill-opacity="0.8"/>
<path d="M54.0415 7.308H48.084V6.82357C48.0818 6.7218 48.0715 6.62029 48.0531 6.51981C48.7546 6.30877 49.3616 5.90907 49.7924 5.37668C50.2249 4.84429 50.4576 4.20638 50.4594 3.55088V3.15119C50.4594 2.32134 50.0871 1.52503 49.4234 0.935289C49.0963 0.644704 48.7072 0.413886 48.2783 0.256117C47.8494 0.0983473 47.3893 0.0167411 46.9245 0.0159941H26.0912C25.8966 0.0155502 25.7062 0.0665127 25.5449 0.162285C25.3835 0.258058 25.2585 0.394232 25.1861 0.553182C25.1253 0.684872 25.1018 0.827634 25.1178 0.969102C25.1337 1.11057 25.1887 1.24648 25.2778 1.36506C25.367 1.48363 25.4876 1.58131 25.6294 1.64961C25.7711 1.71792 25.9296 1.7548 26.0912 1.75706H46.9208C47.1274 1.7571 47.3318 1.79315 47.5224 1.86313C47.713 1.93311 47.886 2.03562 48.0313 2.16475C48.3263 2.42679 48.4916 2.78079 48.4911 3.14959V3.55088C48.4911 3.9186 48.3257 4.27353 48.0313 4.53573C47.8861 4.66452 47.7134 4.76683 47.5232 4.83679C47.3329 4.90675 47.1288 4.94298 46.9226 4.94341H46.332C46.1986 4.91969 46.0628 4.90791 45.9267 4.90824H14.1761C14.0416 4.90824 13.9053 4.91943 13.7708 4.94341H12.8585C12.652 4.94328 12.4475 4.90719 12.2569 4.83722C12.0663 4.76725 11.8934 4.66478 11.748 4.53573C11.4532 4.27359 11.2879 3.91965 11.2882 3.55088V3.15119C11.2882 2.78027 11.4536 2.42694 11.748 2.16634C11.8934 2.03714 12.0663 1.93448 12.2568 1.86424C12.4474 1.794 12.6519 1.75758 12.8585 1.75706H21.1314C21.3267 1.75793 21.5177 1.70718 21.6797 1.61139C21.8417 1.5156 21.9673 1.3792 22.0402 1.21987C22.1016 1.08795 22.1254 0.944798 22.1094 0.802924C22.0935 0.661051 22.0383 0.524775 21.9486 0.406008C21.859 0.28724 21.7376 0.189596 21.5952 0.121608C21.4527 0.0536206 21.2935 0.0173595 21.1314 0.0159941H12.8585C12.3939 0.0169517 11.9342 0.0986601 11.5056 0.256423C11.0771 0.414187 10.6882 0.644895 10.3613 0.935289C9.69809 1.52463 9.32585 2.3203 9.32539 3.14959V3.55088C9.32539 4.25434 9.59618 4.93862 10.0887 5.4902C10.5794 6.04337 11.2682 6.43347 12.0406 6.59655C12.0303 6.67082 12.0249 6.74555 12.0243 6.82038V7.28722H5.93406C2.65904 7.28722 0.00195312 9.59265 0.00195312 12.4257C0.00287781 12.6544 0.105849 12.8737 0.28871 13.0364C0.471572 13.199 0.719709 13.2921 0.979732 13.2954C1.17474 13.2964 1.3656 13.2459 1.52761 13.1504C1.68962 13.0549 1.81532 12.9189 1.88845 12.7598C1.93856 12.6539 1.96449 12.5404 1.96478 12.4257C1.96478 10.5519 3.74587 9.02668 5.93406 9.02668H11.35V11.0731H5.93406C5.73322 11.0726 5.53426 11.1071 5.34866 11.1746C5.16306 11.2421 4.99449 11.3413 4.85268 11.4664C4.56407 11.7194 4.40077 12.0625 4.39833 12.4209V16.6544C4.39833 18.3044 4.39832 23.2606 13.2129 24.3685C13.5364 24.9377 13.8999 25.4877 14.3033 26.0153C14.4251 26.1975 14.5541 26.3798 14.6886 26.5572C14.6318 26.5614 14.5746 26.5614 14.5178 26.5572C9.4726 26.2023 3.22426 24.5316 2.1338 18.541C2.10255 18.3721 2.01564 18.2149 1.88383 18.089C1.75202 17.9631 1.58111 17.874 1.39229 17.8327C1.20276 17.7927 1.00394 17.8036 0.82153 17.864C0.639119 17.9244 0.481508 18.0316 0.369075 18.1717C0.216465 18.3589 0.154386 18.5917 0.196419 18.8192C1.20691 24.3669 6.2412 27.7323 14.3651 28.2951C14.9122 28.3335 15.461 28.2471 15.9572 28.0393C17.7918 29.9341 20.1566 31.3752 22.818 32.2201C22.8544 32.2553 22.8943 32.2872 22.938 32.316C24.57 33.4064 26.4529 34.8725 26.5074 36.5464C26.5474 37.7263 25.6696 39.0085 23.9121 40.361H18.8542C18.3873 40.3626 17.9254 40.4453 17.4949 40.6044C17.0645 40.7636 16.6741 40.996 16.3461 41.2883C15.6801 41.8809 15.3066 42.6805 15.3066 43.5138C15.3069 43.6853 15.3645 43.8528 15.4721 43.9958C15.5796 44.1387 15.7325 44.2508 15.9118 44.318C16.0312 44.3625 16.1595 44.3856 16.2892 44.3859C16.4188 44.3862 16.5473 44.3638 16.667 44.3198C16.7866 44.2759 16.8951 44.2114 16.9861 44.1301C17.0771 44.0488 17.1487 43.9523 17.1967 43.8464C17.2453 43.7407 17.27 43.6278 17.2694 43.5138C17.2694 43.1413 17.4384 42.7832 17.7347 42.5194C17.8815 42.3886 18.0564 42.2846 18.2492 42.2135C18.4419 42.1425 18.6488 42.1057 18.8578 42.1053H41.2377C41.6575 42.1053 42.061 42.2556 42.3591 42.5194C42.6569 42.7841 42.8241 43.1414 42.8243 43.5138V46.2381H17.2658V45.8976C17.2651 45.7262 17.2072 45.5588 17.0993 45.4161C16.9914 45.2734 16.8382 45.1618 16.6587 45.095C16.4797 45.0293 16.2823 45.0123 16.0921 45.0462C15.902 45.0801 15.7277 45.1634 15.5919 45.2853C15.4084 45.4483 15.3053 45.6682 15.3047 45.8976V47.1095C15.3049 47.2809 15.3623 47.4486 15.4699 47.5916C15.5775 47.7346 15.7306 47.8466 15.9099 47.9137C16.0292 47.9572 16.1571 47.9795 16.2862 47.9792H43.8021C43.9973 47.9799 44.1882 47.929 44.3502 47.8333C44.5121 47.7375 44.6378 47.6012 44.7108 47.442C44.7597 47.3359 44.7844 47.2224 44.7835 47.1079V43.5138C44.7835 42.6805 44.4099 41.8809 43.7439 41.2883C43.4157 40.9966 43.0251 40.7647 42.5947 40.6062C42.1643 40.4476 41.7025 40.3654 41.2359 40.3643H36.805C35.5582 39.4561 34.3187 38.337 34.2388 36.8629C34.1661 35.5136 35.0893 33.9963 36.9867 32.3544C37.0067 32.3368 37.0194 32.3192 37.0413 32.2984C39.78 31.475 42.2189 30.0228 44.1056 28.0921C44.5782 28.2711 45.0961 28.3479 45.6105 28.3127C54.7376 27.6796 59.97 23.4348 59.97 16.6704V12.4449C59.97 9.61183 57.3129 7.3064 54.0397 7.3064V7.308H54.0415ZM6.35752 16.6608V12.8222H12.0188V18.6897C12.0188 19.9863 12.2187 21.2781 12.6113 22.5267C6.36115 21.4747 6.36115 18.258 6.36115 16.664L6.35752 16.6608ZM32.2832 36.9541C32.3559 38.3242 33.0756 39.4386 33.8735 40.2843H26.7637C27.9359 39.0309 28.5048 37.7646 28.4648 36.5096C28.423 35.1602 27.6906 33.9931 26.7073 32.9955C27.2126 33.0387 27.7233 33.0626 28.2394 33.0626H31.8816C32.5335 33.0602 33.1846 33.0239 33.8317 32.9539C32.7321 34.3209 32.2141 35.6623 32.2832 36.9557V36.9541ZM31.8779 31.32H28.2285C26.1065 31.3197 24.0119 30.899 22.1001 30.0889C20.184 29.2762 18.4991 28.0962 17.1694 26.6356C17.1366 26.5012 17.0667 26.376 16.9659 26.2711C16.5884 25.873 16.2365 25.4566 15.9118 25.024C14.6467 23.0998 13.9821 20.9157 13.9853 18.6929V6.82197C13.9849 6.79524 13.9918 6.76881 14.0054 6.7449C14.019 6.72098 14.0389 6.70027 14.0634 6.68448H46.0375C46.0623 6.70019 46.0825 6.72084 46.0964 6.74475C46.1103 6.76865 46.1175 6.79512 46.1175 6.82197V18.6897C46.12 20.3762 45.7387 22.0462 44.9962 23.6011C44.4509 24.5604 43.7821 25.4605 43.0024 26.2822C42.8625 26.4307 42.782 26.6155 42.7734 26.8082C41.4421 28.2179 39.775 29.3531 37.89 30.1337C36.0088 30.9128 33.9553 31.3167 31.8761 31.3168H31.8779V31.32ZM58.0126 16.6784C58.0126 24.1463 51.1882 26.1863 45.4614 26.5844H45.4087C45.9067 25.9161 46.3392 25.2095 46.7045 24.4772L46.7536 24.3957C55.5754 23.2861 55.5754 18.3283 55.5754 16.6768V16.3523C55.5806 16.1776 55.5262 16.0055 55.4193 15.8583C55.3125 15.711 55.158 15.5952 54.9757 15.5257C54.8547 15.4803 54.7244 15.4569 54.5928 15.4568C54.4612 15.4568 54.331 15.4802 54.21 15.5256C54.0889 15.571 53.9796 15.6375 53.8885 15.721C53.7974 15.8046 53.7264 15.9034 53.6799 16.0117C53.632 16.1202 53.6091 16.236 53.6126 16.3523V16.6768C53.6126 18.2644 53.6126 21.4412 47.4933 22.5171C47.8827 21.2696 48.0807 19.9818 48.0822 18.6881V12.8382H53.6144V13.6216C53.6219 13.847 53.7283 14.0611 53.9112 14.219C54.0942 14.377 54.3395 14.4665 54.5958 14.4689C54.8533 14.4698 55.1007 14.3813 55.2845 14.2226C55.4682 14.064 55.5734 13.848 55.5773 13.6216V12.4449C55.5748 12.0864 55.4115 11.7434 55.1229 11.4904C54.9812 11.3658 54.8128 11.267 54.6276 11.1998C54.4423 11.1326 54.2438 11.0982 54.0433 11.0987H48.6165V9.05066H54.0415C56.2315 9.05066 58.0126 10.5743 58.0126 12.4497V16.6784Z" fill="white" fill-opacity="0.8"/>
<path d="M19.1848 19.529C19.0222 19.5299 18.8631 19.4876 18.7282 19.4078C18.5934 19.3279 18.489 19.2142 18.4287 19.0814C18.3871 18.9932 18.3655 18.8987 18.3651 18.8032V18.0358C18.3655 17.8927 18.4136 17.7528 18.5034 17.6334C18.5932 17.5141 18.7208 17.4205 18.8704 17.3643C19.0196 17.309 19.1842 17.2943 19.343 17.3223C19.5018 17.3502 19.6473 17.4194 19.7609 17.521C19.9154 17.6569 20.0026 17.8407 20.0026 18.0342V18.8016C20.0027 18.9448 19.9548 19.0848 19.8649 19.2043C19.7751 19.3237 19.6472 19.4172 19.4974 19.4731C19.3984 19.5097 19.2921 19.5287 19.1848 19.529ZM19.1848 16.1428C19.0223 16.1433 18.8634 16.1008 18.7287 16.021C18.5939 15.9412 18.4894 15.8277 18.4287 15.6952C18.387 15.607 18.3654 15.5125 18.3651 15.417V10.0227C18.3656 9.87982 18.4138 9.74021 18.5036 9.62114C18.5934 9.50208 18.7209 9.40879 18.8704 9.35282C19.0197 9.29796 19.1842 9.28356 19.3428 9.31147C19.5015 9.33939 19.6471 9.40834 19.7609 9.5095C19.9154 9.6454 20.0026 9.82926 20.0026 10.0211V15.4186C20.0027 15.5618 19.9548 15.7018 19.8649 15.8212C19.7751 15.9407 19.6472 16.0342 19.4974 16.0901C19.3983 16.1263 19.292 16.1448 19.1848 16.1444V16.1428ZM26.9597 44.9032H23.8047C23.6969 44.9034 23.5902 44.8848 23.4906 44.8485C23.391 44.8122 23.3006 44.759 23.2246 44.6918C23.1485 44.6246 23.0884 44.5448 23.0476 44.4571C23.0068 44.3693 22.9861 44.2753 22.9868 44.1805C22.9873 43.9892 23.0734 43.8058 23.2265 43.67C23.3795 43.5341 23.5873 43.4568 23.8047 43.4547H26.9597C27.0678 43.4544 27.1749 43.4731 27.2747 43.5096C27.3745 43.5461 27.4651 43.5996 27.5412 43.6672C27.6173 43.7347 27.6774 43.8148 27.7179 43.903C27.7585 43.9911 27.7788 44.0854 27.7776 44.1805C27.7788 44.2756 27.7585 44.3699 27.7179 44.458C27.6774 44.5462 27.6173 44.6263 27.5412 44.6939C27.4651 44.7614 27.3745 44.8149 27.2747 44.8514C27.1749 44.8879 27.0678 44.9066 26.9597 44.9064V44.9032ZM21.2494 44.9032H20.7768C20.6691 44.9034 20.5623 44.8848 20.4627 44.8485C20.3632 44.8122 20.2727 44.759 20.1967 44.6918C20.1207 44.6246 20.0605 44.5448 20.0197 44.4571C19.9789 44.3693 19.9583 44.2753 19.959 44.1805C19.9592 44.0374 20.0071 43.8974 20.097 43.778C20.1868 43.6586 20.3145 43.5651 20.4642 43.509C20.5639 43.4727 20.6708 43.4542 20.7787 43.4547H21.2494C21.3575 43.4542 21.4647 43.4728 21.5646 43.5092C21.6645 43.5456 21.7552 43.5991 21.8314 43.6667C21.9075 43.7343 21.9676 43.8145 22.0081 43.9027C22.0486 43.9909 22.0687 44.0854 22.0672 44.1805C22.0668 44.3718 21.9807 44.5552 21.8276 44.6911C21.6745 44.8269 21.4668 44.9043 21.2494 44.9064V44.9032ZM28.1629 4.07367H19.9735C19.8654 4.07411 19.7582 4.05558 19.6583 4.01918C19.5584 3.98277 19.4677 3.92922 19.3916 3.86165C19.3154 3.79408 19.2553 3.71384 19.2148 3.62562C19.1743 3.5374 19.1542 3.44296 19.1557 3.34783C19.1556 3.20462 19.2035 3.06457 19.2934 2.94515C19.3832 2.82574 19.5111 2.73225 19.6609 2.67634C19.76 2.64025 19.8663 2.62178 19.9735 2.62199H28.1647C28.2729 2.62155 28.38 2.64008 28.48 2.67648C28.5799 2.71289 28.6706 2.76644 28.7467 2.83401C28.8228 2.90158 28.8829 2.98182 28.9234 3.07004C28.9639 3.15826 28.984 3.2527 28.9826 3.34783C28.9816 3.53898 28.8954 3.72216 28.7424 3.85792C28.5894 3.99368 28.382 4.07116 28.1647 4.07367H28.1629ZM17.4164 4.07367H16.9439C16.8358 4.07389 16.7287 4.05522 16.6289 4.01874C16.5291 3.98226 16.4385 3.9287 16.3624 3.86117C16.2863 3.79364 16.2263 3.71349 16.1857 3.62537C16.1451 3.53724 16.1248 3.4429 16.126 3.34783C16.127 3.15668 16.2132 2.9735 16.3662 2.83774C16.5191 2.70198 16.7266 2.6245 16.9439 2.62199H17.4164C17.5246 2.62155 17.6317 2.64008 17.7316 2.67648C17.8316 2.71289 17.9223 2.76644 17.9984 2.83401C18.0745 2.90158 18.1346 2.98182 18.1751 3.07004C18.2156 3.15826 18.2357 3.2527 18.2342 3.34783C18.2333 3.53898 18.1471 3.72216 17.9941 3.85792C17.8411 3.99368 17.6337 4.07116 17.4164 4.07367ZM28.5736 28.1704V11.8837H24.9715V9.45355H34.0786V28.1704H28.5718H28.5736Z" fill="white" fill-opacity="0.8"/>
</g>
<defs>
<clipPath id="clip0_2560_775">
<rect width="60" height="48" fill="white"/>
</clipPath>
</defs>
</svg>
