<svg width="60" height="56" viewBox="0 0 60 56" fill="none" xmlns="http://www.w3.org/2000/svg">
<path d="M26.0801 34.1578H34.0312V44.0945H26.0801V34.1578ZM17.2441 11.8344V25.0797C13.043 24.5383 9.80273 21.1805 9.80273 17.1336V11.8289H17.2441M19.8574 9.41171H9.27539C8.11523 9.41171 7.18359 10.2812 7.18359 11.3531V17.1445C7.18359 22.9141 12.2227 27.5953 18.4453 27.5953H19.8633V9.41171H19.8574ZM50.2207 11.8344V16.8984C50.2207 20.9891 46.9922 24.4016 42.7793 25.0469V11.8344H50.2207ZM50.748 9.41171H40.166V27.5898H41.3262C47.6836 27.5898 52.8398 22.8047 52.8398 16.9039V11.3531C52.8398 10.2812 51.9023 9.41171 50.748 9.41171Z" fill="#BFBFBF"/>
<path d="M45.4922 3.49454H14.4961C13.7168 3.49454 13.084 4.08516 13.084 4.81251C13.084 5.53985 13.7168 6.13047 14.4961 6.13047H15.2461C15.2402 6.17969 15.2344 6.22891 15.2344 6.27813V21.4102C15.2344 29.0172 21.8437 35.1859 29.9941 35.1859C38.1445 35.1859 44.7539 29.0172 44.7539 21.4102V6.2836C44.7539 6.23438 44.748 6.18516 44.7422 6.13594H45.4922C46.2715 6.13594 46.9043 5.54532 46.9043 4.81797C46.9102 4.08516 46.2773 3.49454 45.4922 3.49454Z" fill="#DBDBDB"/>
<path d="M45.0937 48.7375H15.0234C13.5586 48.7375 12.375 47.6328 12.375 46.2656V44.5813C12.375 43.2141 13.5586 42.1094 15.0234 42.1094H45.0937C46.5586 42.1094 47.7422 43.2141 47.7422 44.5813V46.2656C47.7422 47.6328 46.5586 48.7375 45.0937 48.7375Z" fill="#424242"/>
<path d="M40.4941 46.5336H19.6172C19.1309 46.5336 18.7324 46.1617 18.7324 45.7078V45.1445C18.7324 44.6906 19.1309 44.3188 19.6172 44.3188H40.4941C40.9805 44.3188 41.3789 44.6906 41.3789 45.1445V45.7078C41.3848 46.1617 40.9863 46.5336 40.4941 46.5336Z" fill="#CFD8DC"/>
<path d="M44.7539 21.4266L39.0879 14.4758L22.2539 25.1453L30.3691 35.1859C38.3438 35.0055 44.7539 28.9188 44.7539 21.4266Z" fill="#BFBFBF"/>
<path d="M19.9629 19.2336C19.9629 20.4854 20.2271 21.7249 20.7403 22.8814C21.2535 24.0378 22.0058 25.0886 22.9542 25.9738C23.9025 26.8589 25.0284 27.561 26.2675 28.04C27.5066 28.5191 28.8346 28.7656 30.1758 28.7656C31.517 28.7656 32.845 28.5191 34.0841 28.04C35.3232 27.561 36.449 26.8589 37.3974 25.9738C38.3457 25.0886 39.098 24.0378 39.6113 22.8814C40.1245 21.7249 40.3887 20.4854 40.3887 19.2336C40.3887 17.9818 40.1245 16.7423 39.6113 15.5859C39.098 14.4294 38.3457 13.3786 37.3974 12.4934C36.449 11.6083 35.3232 10.9062 34.0841 10.4272C32.845 9.94812 31.517 9.70157 30.1758 9.70157C28.8346 9.70157 27.5066 9.94812 26.2675 10.4272C25.0284 10.9062 23.9025 11.6083 22.9542 12.4934C22.0058 13.3786 21.2535 14.4294 20.7403 15.5859C20.2271 16.7423 19.9629 17.9818 19.9629 19.2336Z" fill="#FFFCF5"/>
<path d="M34.0425 23.2203V24.5328H26.1616C26.1499 24.2047 26.2085 23.8875 26.3315 23.5867C26.5308 23.0836 26.853 22.5914 27.2925 22.1047C27.7319 21.618 28.3706 21.0547 29.2085 20.4203C30.5034 19.4305 31.3823 18.643 31.8335 18.0633C32.2905 17.4836 32.519 16.9367 32.519 16.4227C32.519 15.8812 32.314 15.4219 31.898 15.05C31.4819 14.6781 30.9429 14.4922 30.2749 14.4922C29.5718 14.4922 29.0034 14.6891 28.5815 15.0828C28.1597 15.4766 27.9429 16.0234 27.937 16.7234L26.4312 16.5812C26.5366 15.5312 26.9233 14.7383 27.5913 14.1859C28.2651 13.6391 29.1675 13.3602 30.2983 13.3602C31.4409 13.3602 32.3491 13.6555 33.0171 14.2461C33.6851 14.8367 34.019 15.5695 34.019 16.45C34.019 16.893 33.9194 17.3305 33.7261 17.7625C33.5327 18.1945 33.2046 18.643 32.7534 19.1187C32.3022 19.5945 31.5464 20.2453 30.4976 21.0766C29.6187 21.7656 29.0562 22.2305 28.8042 22.4766C28.5522 22.7227 28.3472 22.9687 28.189 23.2148H34.0425V23.2203Z" fill="#BFBFBF"/>
</svg>
