<svg width="43" height="48" viewBox="0 0 43 48" fill="none" xmlns="http://www.w3.org/2000/svg">
<path d="M14.2775 40.2625H28.6277V43.8813H14.2775V40.2625ZM11.6572 43.8813H31.2536V46.4937H11.6572V43.8813Z" fill="#CB8A45"/>
<path d="M19.8311 31.4813H23.5376V40.2688H19.8311V31.4813Z" fill="#EABE97"/>
<path d="M34.2156 29.0437H33.079C27.8216 29.0437 23.5384 24.2688 23.5384 18.3938V10.2938H38.8236C40.9176 10.2938 42.6141 12.1875 42.6141 14.525V19.6688C42.6141 24.8375 38.846 29.0437 34.2156 29.0437ZM27.3289 14.525V18.4C27.3345 21.9438 29.9044 24.8125 33.0734 24.8125H34.2156C36.7576 24.8062 38.8236 22.5063 38.8236 19.6688V14.525H27.3289ZM9.92734 29.0437H8.78516C4.15482 29.0437 0.386719 24.8375 0.386719 19.6688V14.525C0.386719 12.1875 2.0832 10.2938 4.17721 10.2938H19.4624V18.4C19.4624 24.2687 15.1848 29.0437 9.92734 29.0437ZM4.17721 14.525V19.6688C4.18281 22.5063 6.24323 24.8125 8.78516 24.8125H9.92734C13.102 24.8062 15.6719 21.9375 15.6719 18.4V14.525H4.17721Z" fill="#CB8A45"/>
<path d="M5.94629 3.05625H36.9645V16.2313C36.9645 25.7938 30.0218 33.5438 21.4554 33.5438C12.8946 33.5438 5.94629 25.7938 5.94629 16.2313V3.05625Z" fill="#E0A977"/>
<path d="M14.7422 18.0438C14.7422 20.8125 16.0635 23.375 18.2135 24.7563C20.3635 26.1438 23.0118 26.1438 25.1562 24.7563C27.3062 23.3688 28.6276 20.8125 28.6276 18.0438C28.6276 15.275 27.3062 12.7125 25.1562 11.3313C23.0062 9.94375 20.3579 9.94375 18.2135 11.3313C16.0635 12.7125 14.7422 15.275 14.7422 18.0438Z" fill="#CB8A45"/>
<path d="M3.62793 1.50625H39.2933V5.64375H3.62793V1.50625Z" fill="#EABE97"/>
<path d="M18.835 20.2625L19.8372 20.1125C19.9548 20.7437 20.1451 21.2 20.4251 21.4812C20.6994 21.7625 21.0633 21.9125 21.4329 21.9C21.8808 21.9125 22.3119 21.7125 22.6255 21.3562C22.9502 20.9937 23.1126 20.5437 23.1126 20.0062C23.1126 19.4937 22.9614 19.0687 22.6646 18.7375C22.3623 18.4062 21.9816 18.2375 21.5225 18.2375C21.2817 18.2437 21.0465 18.2875 20.817 18.3562L20.929 17.3812C20.985 17.3875 21.0354 17.3937 21.0913 17.3937C21.5001 17.4 21.8976 17.2687 22.2391 17.025C22.5807 16.7812 22.7486 16.3937 22.7486 15.8812C22.7598 15.5 22.6255 15.1312 22.3791 14.8625C22.1327 14.5937 21.808 14.4625 21.4161 14.4625C21.0242 14.4625 20.6994 14.6 20.4419 14.8687C20.1843 15.1437 20.0163 15.55 19.9436 16.0937L18.9413 15.8937C19.0645 15.1437 19.3389 14.5687 19.7756 14.1562C20.2067 13.7437 20.7498 13.5375 21.3937 13.5375C21.8192 13.5312 22.2391 13.6437 22.6199 13.8562C22.973 14.05 23.27 14.3511 23.4765 14.725C23.6725 15.075 23.7732 15.4812 23.7732 15.8937C23.7788 16.275 23.6781 16.65 23.4877 16.9687C23.2973 17.2937 23.0174 17.55 22.6479 17.7375C23.1294 17.8625 23.5045 18.1187 23.7676 18.5062C24.0364 18.9 24.1652 19.3875 24.1652 19.975C24.1652 20.7687 23.9076 21.4437 23.3869 21.9937C22.8662 22.5437 22.2111 22.8187 21.4217 22.8187C20.705 22.8187 20.1115 22.5812 19.6412 22.1062C19.1709 21.6375 18.9021 21.0187 18.835 20.2625Z" fill="white"/>
</svg>
