<svg width="227" height="227" viewBox="0 0 227 227" fill="none" xmlns="http://www.w3.org/2000/svg">
<path d="M178.116 92.4356C178.199 92.5784 178.282 92.7212 178.362 92.8655C185.867 106.187 191.184 114.827 194.315 118.786C199.638 125.514 207.527 129.942 217.98 132.07L184.88 151.27C185.095 151.589 185.301 151.916 185.495 152.255C189.808 159.761 187.248 169.358 179.778 173.691C172.308 178.024 162.755 175.453 158.442 167.948C158.248 167.609 158.067 167.266 157.901 166.919L124.299 186.411C126.291 175.582 126.418 166.504 124.681 159.178C123.632 154.753 118.972 145.614 110.7 131.761C99.6946 113.326 105.717 89.4598 124.15 78.454C124.291 78.3706 124.432 78.2872 124.573 78.206C143.288 67.3491 167.261 73.7209 178.116 92.4356Z" fill="#FACB62"/>
<path d="M185.565 152.235C186.591 154.02 187.256 155.989 187.523 158.03C187.657 159.056 166.383 170.781 158.57 167.923L185.565 152.235ZM178.152 92.3431C178.246 92.504 178.338 92.6664 178.43 92.8287C185.927 106.165 191.239 114.813 194.366 118.774C199.678 125.501 207.549 129.928 217.98 132.055L198.171 143.269C186.461 136.114 178.334 128.427 173.792 120.207C166.978 107.877 161.153 98.6255 156.316 92.4521C148.249 82.1545 137.735 77.4055 124.774 78.2037C143.418 67.3686 167.317 73.6991 178.152 92.3424V92.3431Z" fill="#E8A44E"/>
<path d="M179.525 91.9951L181.436 95.3528C187.906 106.667 192.579 114.159 195.419 117.784L195.81 118.272C200.914 124.522 208.417 128.673 218.382 130.715C219.741 130.993 220.039 132.805 218.841 133.496L186.649 152.082C191.048 160.238 188.214 170.448 180.173 175.091C172.132 179.734 161.873 177.083 157.009 169.195L125.158 187.585C124.048 188.226 122.694 187.266 122.925 186.002C124.863 175.383 124.97 166.521 123.271 159.427C122.31 155.418 118.056 147.015 110.558 134.392L109.438 132.515C97.977 113.399 104.111 88.6525 123.139 77.2409C123.329 77.1274 123.52 77.0146 123.711 76.9041C143.221 65.6398 168.209 72.3965 179.525 91.9944V91.9951ZM125.22 79.5162C125.042 79.6184 124.865 79.7221 124.689 79.8281C107.084 90.3866 101.409 113.284 112.013 130.971L112.885 132.43C120.518 145.251 124.911 153.854 126.111 158.405L126.193 158.735C127.825 165.545 127.893 173.756 126.417 183.375L214.056 132.777L213.54 132.633C204.812 130.157 198.016 125.885 193.195 119.811L192.787 119.289C189.814 115.404 185.174 107.939 178.833 96.8486L176.925 93.4962C166.442 75.34 143.294 69.0809 125.22 79.5154V79.5162ZM184.048 153.584L159.611 167.694C163.64 174.139 172.06 176.293 178.665 172.48C185.271 168.666 187.614 160.297 184.048 153.585V153.584Z" fill="#4C3030"/>
<path d="M120.081 81.7275C120.322 81.8613 120.562 81.9966 120.801 82.1349C143.319 95.1551 151.018 123.963 137.998 146.48L137.827 146.774C128.597 162.473 122.879 173.125 120.673 178.729C116.917 188.267 117.069 199.096 121.129 211.215L81.5175 188.311C81.3183 188.724 81.1018 189.133 80.8688 189.537C75.7072 198.49 64.276 201.558 55.3366 196.389C46.3964 191.22 43.3334 179.771 48.495 170.817C48.728 170.414 48.9738 170.021 49.2316 169.642L9.01953 146.391C21.3813 142 30.8213 136.717 37.3397 130.544C41.2708 126.82 47.8997 116.551 57.2247 99.7372C69.609 77.4062 97.751 69.3432 120.081 81.7275Z" fill="#FACB62"/>
<path d="M120.707 81.9305C143.267 94.9431 151.007 123.78 137.995 146.34L137.773 146.719C128.522 162.418 122.79 173.07 120.577 178.677C116.806 188.23 116.959 199.077 121.036 211.215L97.4902 197.28C97.8525 180.803 100.925 167.743 106.706 158.099C115.376 143.632 121.453 132.034 124.937 123.306C130.747 108.748 129.338 94.9559 120.707 81.9305ZM48.1064 170.754L80.6118 189.503C79.3818 191.637 77.7421 193.508 75.7869 195.007C74.8053 195.758 49.8488 180.601 48.1064 170.754Z" fill="#E8A44E"/>
<path d="M54.7299 99.6635C67.623 76.142 97.13 67.5182 120.635 80.4016C120.95 80.5745 121.263 80.7504 121.574 80.93C144.78 94.3275 152.722 124.015 139.315 147.237C139.247 147.356 139.178 147.475 139.108 147.593L137.877 149.69C129.926 163.269 124.786 172.815 122.474 178.273L122.214 178.9L122.06 179.283C118.439 188.463 118.583 198.922 122.534 210.71C122.973 212.022 121.557 213.18 120.361 212.489L82.4321 190.591C76.7985 200.104 64.5487 203.335 54.9569 197.797C45.2988 192.222 41.9931 179.866 47.5726 170.202L47.4599 170.4L8.24598 147.76C7.17337 147.14 7.2801 145.578 8.38278 145.09L8.49553 145.045C20.6791 140.718 29.9448 135.538 36.2978 129.528C37.5493 128.344 39.142 126.392 41.0512 123.689C41.1621 123.522 41.3055 123.378 41.473 123.266C41.6405 123.155 41.8286 123.079 42.0263 123.041C42.2239 123.004 42.4271 123.007 42.6236 123.05C42.8201 123.093 43.006 123.175 43.1702 123.291C43.3345 123.407 43.4737 123.555 43.5797 123.726C43.6857 123.897 43.7562 124.087 43.7871 124.286C43.818 124.485 43.8087 124.687 43.7596 124.883C43.7106 125.078 43.6229 125.261 43.5016 125.421C41.4887 128.272 39.7824 130.363 38.3596 131.709C32.2163 137.521 23.6031 142.531 12.5229 146.761L118.56 207.983L118.407 207.417C115.543 196.681 115.82 186.925 119.269 178.183C121.23 173.207 125.864 164.422 133.188 151.778L135.28 148.186L136.521 146.071L136.717 145.737C149.294 123.951 141.843 96.1007 120.072 83.5315C119.78 83.3629 119.487 83.1975 119.191 83.0354C97.1398 70.9488 69.4578 79.0396 57.3622 101.107L52.2562 110.399C52.1618 110.575 52.0334 110.73 51.8785 110.855C51.7237 110.98 51.5454 111.074 51.3542 111.129C51.163 111.185 50.9625 111.202 50.7646 111.18C50.5667 111.157 50.3752 111.095 50.2014 110.998C50.0276 110.901 49.8748 110.77 49.7521 110.613C49.6293 110.456 49.5391 110.276 49.4865 110.084C49.4339 109.892 49.4201 109.691 49.4459 109.494C49.4717 109.296 49.5365 109.106 49.6366 108.934L54.7299 99.6635ZM50.0598 171.901C45.4672 180.099 48.3025 190.487 56.4594 195.196C64.6818 199.943 75.1982 197.122 79.9487 188.893L79.8329 189.09L50.0598 171.901ZM45.374 118.38C45.7721 118.38 46.1539 118.538 46.4353 118.82C46.7167 119.101 46.8748 119.483 46.8747 119.881C46.8746 120.279 46.7164 120.661 46.4348 120.942C46.1532 121.224 45.7714 121.382 45.3733 121.382C45.1761 121.382 44.981 121.343 44.7989 121.267C44.6168 121.192 44.4513 121.081 44.312 120.942C44.0305 120.66 43.8725 120.279 43.8726 119.88C43.8727 119.482 44.0309 119.101 44.3125 118.819C44.5941 118.538 44.9759 118.38 45.374 118.38Z" fill="#4C3030"/>
<path d="M173.019 17.2933C175.454 17.9585 177.702 18.9274 179.62 20.1827C186.268 24.5318 188.057 40.7638 184.889 57.4039C181.72 74.0441 176.784 95.6241 158.971 92.0643C156.671 91.5981 154.422 90.9044 152.259 89.9935L125.526 79.8348V73.6457C153.008 67.1191 169.37 58.2578 174.613 47.0634C182.478 30.2722 171.9 16.9882 173.019 17.2933ZM52.4775 17.2933C50.0421 17.9585 47.7946 18.9274 45.8764 20.1827C39.2288 24.5318 37.4398 40.7638 40.6073 57.4039C43.7763 74.0441 48.7124 95.6241 66.5252 92.0643C68.8257 91.5981 71.0741 90.9044 73.2374 89.9935L99.9701 79.8348V73.6457C72.488 67.1191 56.126 58.2578 50.8832 47.0634C43.0186 30.2722 53.5959 16.9882 52.4775 17.2933Z" fill="#9E0000"/>
<path d="M163.109 16.5364C163.109 16.9351 163.268 17.3175 163.55 17.5994C163.832 17.8814 164.214 18.0397 164.613 18.0397C165.011 18.0397 165.394 17.8814 165.676 17.5994C165.958 17.3175 166.116 16.9351 166.116 16.5364C166.116 16.1377 165.958 15.7553 165.676 15.4734C165.394 15.1915 165.011 15.0331 164.613 15.0331C164.214 15.0331 163.832 15.1915 163.55 15.4734C163.268 15.7553 163.109 16.1377 163.109 16.5364Z" fill="#4C3030"/>
<path d="M175.106 85.8293C171.37 90.7594 166.241 93.5278 158.959 92.0613C156.909 91.6441 154.901 91.0436 152.959 90.2671C152.721 90.1731 152.485 90.0762 152.248 89.9762C144.272 86.9231 133.503 82.8008 125.526 79.7477V77.3664C140.677 72.6175 151.011 70.1385 156.525 69.928C173.768 69.2711 177.848 82.2116 175.106 85.8293Z" fill="#9E0000"/>
<path d="M100.322 77.531V79.886L73.3799 90.0032C71.1981 90.9111 68.9322 91.6019 66.615 92.0658C59.2728 93.5157 54.1015 90.7782 50.3349 85.9022C49.5186 84.8446 49.3021 82.9828 49.8501 80.9014C50.0606 80.1017 50.3845 79.2688 50.8303 78.4375C51.2692 77.6182 56.0257 85.125 64.3601 85.4354C69.9193 85.6436 81.9067 83.0091 100.322 77.531ZM125.882 77.531C144.296 83.0091 156.283 85.6436 161.843 85.4362C170.177 85.125 174.934 77.619 175.373 78.4375C175.794 79.2178 176.123 80.0447 176.352 80.9014C176.901 82.9835 176.684 84.8446 175.868 85.9015C172.102 90.7782 166.93 93.5157 159.587 92.0658C157.27 91.6019 155.004 90.9111 152.822 90.0032L125.882 79.886V77.531ZM173.337 17.4948L173.742 17.6L173.715 17.5962C172.829 17.5624 183.198 30.6946 175.353 47.2498C170.122 58.2864 153.908 67.0462 126.709 73.5277L125.882 73.7231V35.209C137.832 27.0423 146.813 21.6567 152.823 19.0545C159.236 16.2771 166.902 15.8599 173.337 17.4948ZM73.3799 19.0545C79.2962 21.6169 88.0906 26.8747 99.763 34.828L100.322 35.209V73.7231C72.6245 67.2228 56.1332 58.3984 50.8505 47.2498C43.004 30.6946 53.3731 17.5624 52.4877 17.597L52.4644 17.5993L52.85 17.4985C59.2886 15.8599 66.9615 16.2748 73.3799 19.0545ZM46.1565 20.2571L45.8047 20.4796L46.0978 20.2939L46.1565 20.2571ZM180.144 20.318L180.253 20.3856L180.354 20.451L180.144 20.318ZM179.734 20.0692L179.832 20.1271L179.969 20.2098L179.734 20.0692ZM46.3136 20.1624L46.1565 20.2571L46.1625 20.2534L46.3121 20.1632L46.4676 20.0692L46.5075 20.0451L46.5285 20.0339L46.3722 20.1271L46.3136 20.1624ZM179.418 19.8873L179.505 19.9354L179.55 19.961L179.418 19.8873ZM46.8758 19.8347L46.7014 19.9331L46.7646 19.8978L46.8758 19.8347ZM178.957 19.6332L179.178 19.752L179.2 19.764L178.957 19.6332ZM47.3366 19.5821L47.1291 19.6949L47.2426 19.6332L47.3366 19.5821ZM178.673 19.4829L178.543 19.4168L178.587 19.4386L178.57 19.4295L178.622 19.4566L178.673 19.4829ZM47.7297 19.3814L47.6342 19.4295L47.6605 19.416L47.7297 19.3814ZM178.309 19.2987L178.339 19.3138L178.325 19.3063L178.309 19.2987ZM178.337 19.313L178.16 19.2266L178.297 19.2927L178.304 19.2972L177.98 19.1401L178.337 19.313ZM48.1844 19.1589L47.9093 19.2912L48.0409 19.2281L48.1844 19.1589ZM48.6677 18.9372L48.3573 19.0778L48.5031 19.0116L48.6677 18.9372ZM177.535 18.9372L177.61 18.9703L177.647 18.9876L177.629 18.9785L177.678 19.0011L177.701 19.0116L177.729 19.0244L177.699 19.0109L177.795 19.0545L177.535 18.9372ZM177.647 18.9876L177.699 19.0109L177.678 19.0011L177.647 18.9876ZM177.341 18.8515L177.398 18.8763L177.406 18.8801L177.397 18.8763L177.341 18.8515ZM49.1383 18.7335L48.8045 18.8763L48.9594 18.8094L49.1375 18.7343L49.1383 18.7335ZM177.279 18.8245L177.341 18.8515L177.398 18.8763L177.313 18.8395L177.279 18.8245ZM177.406 18.8801L177.244 18.8094L177.313 18.8395L177.341 18.8515L177.066 18.7335L177.406 18.8801ZM177.015 18.7125L177.02 18.7147L177.03 18.7192L177.015 18.7125ZM176.97 18.6937L177.015 18.7125L176.996 18.7049L176.97 18.6937ZM49.5742 18.5554L49.2052 18.7049L49.3728 18.6365L49.5742 18.5554ZM176.969 18.6937L176.848 18.6441L176.97 18.6937L176.996 18.7049L176.969 18.6937ZM49.9854 18.396L49.6366 18.5313L49.8306 18.4554L49.9854 18.396ZM50.4349 18.2314L50.1635 18.3291L50.3109 18.2765L50.4349 18.2314ZM175.797 18.2419L175.892 18.2757L175.946 18.296L175.797 18.2419ZM175.264 18.0585L175.54 18.1517L175.625 18.1818L175.264 18.0585ZM51.409 17.9059L51.0009 18.0375L50.9377 18.0585L51.0084 18.0352L51.2189 17.9668L51.409 17.9059ZM174.793 17.9059L175.159 18.0232L175.192 18.0345L174.793 17.9059ZM174.577 17.8398L174.579 17.8405L174.602 17.8473L174.577 17.8398ZM51.7713 17.7954L51.639 17.8353L51.7337 17.8075L51.7713 17.7954ZM174.535 17.827L174.563 17.8353L174.532 17.8263L174.518 17.8217L174.535 17.827ZM51.8262 17.7789L51.7999 17.7872L51.7706 17.7954L51.8262 17.7789ZM52.4636 17.5993L52.4395 17.606L52.1276 17.6925L52.4568 17.6015L52.4636 17.5993ZM173.741 17.6L173.745 17.6015L173.935 17.6541L173.746 17.6015L173.741 17.6ZM174.495 17.815L174.472 17.8082L174.493 17.815L174.375 17.7789L174.473 17.809L174.505 17.818L174.495 17.815Z" fill="#C40000"/>
<path d="M72.9354 17.5136L73.315 17.6744L73.8967 17.9308C79.698 20.5337 87.9873 25.4962 98.7991 32.8293L99.3508 33.2044L100.468 33.9666C100.844 34.2236 101.08 34.6355 101.117 35.0843L101.122 35.2076V79.8815C101.122 80.4663 100.784 80.9939 100.262 81.2412L100.148 81.2893L73.2458 91.4058C70.9907 92.3435 68.6488 93.0571 66.2539 93.536C60.5406 94.6658 55.7849 93.4985 51.8845 90.3227L51.8319 90.2799L51.6989 90.1694C50.5616 89.2215 49.498 88.1008 48.5058 86.8147C48.4556 86.7494 48.4073 86.6828 48.3608 86.6148C47.5185 85.4893 46.756 84.3063 46.0787 83.0745C42.9338 77.4025 40.9825 70.7714 38.8628 60.173L38.7463 59.5913L38.4028 57.8286C35.0031 40.1595 37.1761 23.8688 44.3634 19.2161C51.8537 14.3672 63.6584 13.6463 72.9354 17.5128V17.5136ZM159.125 93.6518L158.911 93.6142C158.771 93.5892 158.63 93.5629 158.49 93.5353C157.158 93.2715 155.842 92.9319 154.548 92.5183C154.047 92.359 153.549 92.1893 153.054 92.0094L153.038 92.0034C153.009 91.9929 152.98 91.9824 152.951 91.9718C152.762 91.9063 152.588 91.8038 152.439 91.6703C152.29 91.5368 152.17 91.3751 152.084 91.1944C151.999 91.0138 151.95 90.8179 151.941 90.6183C151.932 90.4186 151.963 90.2192 152.032 90.0316C152.101 89.8439 152.206 89.6719 152.342 89.5256C152.478 89.3792 152.642 89.2614 152.824 89.1791C153.006 89.0968 153.203 89.0515 153.403 89.046C153.603 89.0406 153.802 89.0749 153.988 89.1471L154.405 89.2952L154.662 89.3869C154.867 89.4574 155.072 89.5261 155.278 89.5929L155.018 89.5079C155.215 89.5733 155.412 89.6365 155.608 89.6981L155.279 89.5929C155.496 89.6635 155.713 89.7312 155.93 89.7973L155.608 89.6981C155.794 89.756 155.981 89.8131 156.167 89.868L155.93 89.7973C156.138 89.8597 156.345 89.9206 156.553 89.9785L156.167 89.868C157.125 90.1499 158.095 90.3887 159.074 90.5835C159.289 90.6258 159.504 90.6646 159.72 90.7001L159.564 90.6737C159.816 90.7175 160.069 90.7563 160.322 90.7902L160.209 90.7752L160.429 90.8045L160.322 90.7902C160.424 90.8038 160.525 90.8166 160.627 90.8278L160.429 90.8045C160.548 90.8196 160.667 90.8331 160.786 90.8459L160.627 90.8286C160.73 90.8406 160.832 90.8511 160.934 90.8617L160.786 90.8466L161.028 90.8707L160.934 90.8617L161.258 90.891L161.028 90.8707C161.143 90.8812 161.256 90.891 161.37 90.8992L161.258 90.891L161.499 90.9083L161.37 90.8992L161.716 90.9218L161.499 90.9083C161.599 90.915 161.698 90.921 161.797 90.9255L161.716 90.921C161.806 90.9263 161.895 90.9301 161.984 90.9331L161.796 90.9255C161.904 90.9308 162.012 90.9346 162.119 90.9376L161.983 90.9331C162.073 90.9368 162.163 90.9391 162.252 90.9406L162.119 90.9376C162.215 90.9406 162.311 90.9428 162.406 90.9436L162.252 90.9413C162.453 90.9451 162.652 90.9451 162.85 90.9413L162.66 90.9443C162.76 90.9436 162.861 90.9421 162.96 90.9391L162.85 90.9421C162.95 90.9398 163.049 90.9368 163.148 90.9331L162.96 90.9391C163.054 90.9368 163.147 90.9338 163.239 90.9293L163.148 90.9331L163.396 90.9218L163.239 90.9293C163.354 90.924 163.469 90.918 163.583 90.9098L163.396 90.9218L163.666 90.9045L163.583 90.9098C163.669 90.9045 163.755 90.8977 163.84 90.8902L163.666 90.9045C163.765 90.897 163.864 90.8887 163.962 90.8789L163.84 90.8902C167.839 90.543 171.105 88.5315 173.847 84.9762C174.867 83.6548 174.323 80.222 172.055 77.386C169.038 73.6127 163.741 71.3968 156.389 71.6719C151.416 71.8583 142.225 73.9509 128.906 77.9482L128.332 78.1211L126.631 78.6375V78.8389L130.103 80.1445C130.467 80.2815 130.764 80.554 130.932 80.905C131.099 81.256 131.124 81.6582 131.001 82.0272C130.879 82.3963 130.618 82.7036 130.274 82.8847C129.93 83.0658 129.529 83.1066 129.155 82.9986L129.043 82.961L128.727 82.8422L128.724 82.8407L124.597 81.2886C124.331 81.1884 124.098 81.0145 123.926 80.7873C123.754 80.56 123.651 80.2886 123.627 80.0047L123.622 79.8807V35.2076C123.622 34.7115 123.867 34.2469 124.276 33.9666L125.945 32.8293C136.574 25.6209 144.764 20.7029 150.551 18.0653L150.847 17.9308L151.429 17.6744C153.692 16.6935 156.134 15.978 158.672 15.5397C158.867 15.5062 159.066 15.5113 159.259 15.5548C159.452 15.5983 159.634 15.6794 159.796 15.7934C159.957 15.9074 160.095 16.052 160.2 16.2191C160.306 16.3862 160.377 16.5724 160.411 16.7672C160.444 16.9619 160.439 17.1614 160.396 17.3542C160.352 17.5469 160.271 17.7293 160.157 17.8907C160.043 18.0521 159.899 18.1895 159.731 18.2951C159.564 18.4006 159.378 18.4722 159.183 18.5058C156.876 18.9034 154.664 19.5506 152.627 20.4353C147.302 22.7436 139.523 27.3295 129.323 34.18L128.259 34.8964L126.631 36.0021V75.4925C139.985 71.4389 149.449 69.1869 155.109 68.7352L155.357 68.7164L155.832 68.6863L156.277 68.666C164.547 68.3563 170.768 70.9586 174.405 75.5076C175.546 76.9335 176.368 78.5142 176.846 80.0679C179.447 74.8341 181.206 68.3969 183.163 58.4127L183.387 57.2604L183.481 56.7643C186.532 40.3932 184.488 25.4601 178.745 21.7416C176.179 20.0805 172.907 18.9214 169.292 18.3817C169.093 18.3572 168.901 18.293 168.727 18.1929C168.552 18.0928 168.4 17.9589 168.279 17.799C168.157 17.6392 168.069 17.4566 168.019 17.2621C167.969 17.0676 167.959 16.8651 167.988 16.6664C168.018 16.4678 168.087 16.2771 168.191 16.1056C168.296 15.9341 168.433 15.7852 168.596 15.6677C168.759 15.5503 168.944 15.4666 169.14 15.4216C169.335 15.3767 169.538 15.3713 169.736 15.4059C173.757 16.0058 177.434 17.3084 180.38 19.2161C187.496 23.823 189.698 39.8348 186.442 57.2995L186.111 59.0117C183.901 70.2918 181.925 77.1981 178.666 83.0752C174.272 91.0007 168.129 94.8785 159.904 93.7713L159.819 93.7593L159.593 93.727L159.51 93.7142C159.416 93.7001 159.323 93.6853 159.23 93.6698C159.195 93.6642 159.16 93.6584 159.125 93.6525L159.125 93.6518ZM52.6805 77.3867C50.4654 80.1566 49.8956 83.4962 50.8202 84.8815C51.4166 85.6724 52.0732 86.416 52.7842 87.1056L52.7452 87.0673C53.4092 87.7139 54.1316 88.2976 54.9032 88.8111L54.8032 88.7442C54.9759 88.861 55.1514 88.9738 55.3294 89.0825L55.288 89.0554C55.528 89.2029 55.7726 89.3425 56.0216 89.4741L55.9577 89.4395C56.0299 89.4786 56.1028 89.5162 56.1757 89.5538L56.0216 89.4741C56.099 89.5154 56.1765 89.5553 56.2546 89.5944L56.1765 89.5538C57.6602 90.3099 59.2658 90.7617 61.0066 90.8992C61.0133 90.9003 61.0201 90.901 61.0269 90.9015L61.0066 90.8992C61.0893 90.906 61.1705 90.912 61.2531 90.9165L61.0277 90.9015C61.1209 90.909 61.2156 90.915 61.3103 90.921L61.2531 90.9165C61.4619 90.9295 61.6709 90.938 61.88 90.9421L61.8026 90.9406L62.0867 90.9451L61.88 90.9421C62.0867 90.9466 62.2964 90.9458 62.5077 90.9421L62.325 90.9443C62.4152 90.9436 62.5054 90.9421 62.5956 90.9391L62.5077 90.9413C62.6009 90.9391 62.6956 90.9368 62.7903 90.9331L62.5949 90.9391C62.6986 90.9368 62.8023 90.9331 62.906 90.9278L62.7903 90.9331C62.888 90.9286 62.9857 90.924 63.0849 90.918L62.906 90.9278L63.1962 90.9128L63.0849 90.9188C63.9505 90.8667 64.8114 90.755 65.6616 90.5843C67.6722 90.1818 69.6425 89.5992 71.5486 88.8435L72.1334 88.6074L98.1053 78.8397V78.6382L96.4036 78.1218C83.3541 74.1862 74.1952 72.0477 69.0132 71.7072L68.7832 71.6937L68.3473 71.6726C60.9961 71.3975 55.6977 73.6142 52.6805 77.3867ZM45.9998 21.7416C40.4278 25.3496 38.3367 39.513 41.0043 55.3046L41.087 55.7834L41.2636 56.7635L41.4696 57.8407C43.4705 68.1459 45.2451 74.7266 47.8925 80.0589C48.3713 78.5067 49.1928 76.9305 50.3308 75.5076C53.9065 71.036 59.9791 68.445 68.0406 68.6525L68.4593 68.666L68.9027 68.6863C74.4064 68.99 83.9667 71.2149 97.6776 75.3633L98.1128 75.4948V36.0028L96.4848 34.8964C85.7601 27.6482 77.6257 22.8233 72.1176 20.4345C63.684 16.7777 52.7196 17.3903 45.9998 21.7424V21.7416Z" fill="#4C3030"/>
<path d="M113.292 30.8179C120.947 38.8944 124.775 47.9143 124.775 57.8775C124.775 67.8399 120.947 76.8598 113.293 84.9363C102.199 84.9371 93.2051 72.8219 93.2051 57.8775C93.2051 42.9331 102.199 30.8179 113.292 30.8179Z" fill="#C40000"/>
<path d="M112.748 84.9371C123.957 84.9371 133.043 72.8219 133.043 57.8775C133.043 42.9331 123.957 30.8179 112.748 30.8179C120.483 38.8944 124.349 47.9143 124.349 57.8775C124.349 67.8407 120.483 76.8605 112.748 84.9371Z" fill="#9E0000"/>
<path d="M113.124 29.3146C125.07 29.3146 134.547 42.1837 134.547 57.8775C134.547 73.5713 125.07 86.4404 113.124 86.4404C101.178 86.4404 91.7021 73.5713 91.7021 57.8775C91.7021 42.1837 101.178 29.3146 113.124 29.3146ZM113.124 32.3084C103.057 32.3084 94.6877 43.675 94.6877 57.8775C94.6877 72.08 103.057 83.4466 113.124 83.4466C123.191 83.4466 131.561 72.08 131.561 57.8775C131.561 43.675 123.191 32.3084 113.124 32.3084Z" fill="#4C3030"/>
</svg>
