<svg width="265" height="345" viewBox="0 0 265 345" fill="none" xmlns="http://www.w3.org/2000/svg">
<g filter="url(#filter0_d_864_1196)">
<path d="M71.4635 91.4339C73.5137 90.642 75.8672 91.7899 76.72 93.9978L88.765 125.181C89.6179 127.389 88.6472 129.821 86.597 130.613L57.6412 141.797C55.591 142.589 53.2376 141.441 52.3847 139.233L40.3397 108.05C39.4868 105.842 40.4575 103.411 42.5077 102.619L71.4635 91.4339Z" fill="#F93838"/>
<path d="M71.4635 91.4339C73.5137 90.642 75.8672 91.7899 76.72 93.9978L88.765 125.181C89.6179 127.389 88.6472 129.821 86.597 130.613L57.6412 141.797C55.591 142.589 53.2376 141.441 52.3847 139.233L40.3397 108.05C39.4868 105.842 40.4575 103.411 42.5077 102.619L71.4635 91.4339Z" fill="#F93838"/>
<path d="M79.2097 93.0362C77.8941 89.6302 74.0976 87.5553 70.5018 88.9443L41.5461 100.129C37.9503 101.518 36.5344 105.606 37.85 109.012L49.895 140.195C51.2107 143.601 55.0071 145.676 58.6029 144.287L87.5586 133.102C91.1544 131.713 92.5703 127.625 91.2547 124.219L79.2097 93.0362Z" stroke="white" stroke-width="5.33788"/>
</g>
<path d="M62.1597 111.783C64.5719 110.852 67.3407 112.202 68.3441 114.8C69.3475 117.397 68.2055 120.259 65.7933 121.19C63.3812 122.122 60.6124 120.772 59.609 118.174C58.6056 115.576 59.7476 112.715 62.1597 111.783Z" fill="white"/>
<g filter="url(#filter1_d_864_1196)">
<path d="M23.5466 171.46C24.8989 169.727 27.5077 169.503 29.3736 170.96L55.7261 191.527C57.592 192.983 58.0084 195.568 56.6561 197.301L37.5578 221.771C36.2056 223.504 33.5967 223.728 31.7308 222.272L5.37835 201.704C3.51244 200.248 3.09606 197.663 4.44833 195.93L23.5466 171.46Z" fill="#F93838"/>
<path d="M23.5466 171.46C24.8989 169.727 27.5077 169.503 29.3736 170.96L55.7261 191.527C57.592 192.983 58.0084 195.568 56.6561 197.301L37.5578 221.771C36.2056 223.504 33.5967 223.728 31.7308 222.272L5.37835 201.704C3.51244 200.248 3.09606 197.663 4.44833 195.93L23.5466 171.46Z" fill="#F93838"/>
<path d="M31.0157 168.856C28.1374 166.609 23.8143 166.779 21.4426 169.818L2.34434 194.288C-0.0273132 197.327 0.857897 201.562 3.73625 203.808L30.0887 224.376C32.967 226.622 37.2901 226.452 39.6618 223.413L58.7601 198.943C61.1318 195.904 60.2465 191.67 57.3682 189.423L31.0157 168.856Z" stroke="white" stroke-width="5.33788"/>
</g>
<path d="M26.0169 193.699C27.6079 191.66 30.6772 191.397 32.8724 193.11C35.0677 194.823 35.5576 197.865 33.9666 199.903C32.3757 201.942 29.3063 202.205 27.1111 200.492C24.9158 198.779 24.4259 195.737 26.0169 193.699Z" fill="white"/>
<g filter="url(#filter2_d_864_1196)">
<path d="M125.549 164.099C127.416 162.94 129.942 163.63 131.19 165.641L148.822 194.041C150.071 196.052 149.569 198.622 147.702 199.782L121.33 216.154C119.463 217.313 116.937 216.623 115.689 214.612L98.0565 186.212C96.808 184.201 97.3097 181.631 99.177 180.472L125.549 164.099Z" fill="#F93838"/>
<path d="M125.549 164.099C127.416 162.94 129.942 163.63 131.19 165.641L148.822 194.041C150.071 196.052 149.569 198.622 147.702 199.782L121.33 216.154C119.463 217.313 116.937 216.623 115.689 214.612L98.0565 186.212C96.808 184.201 97.3097 181.631 99.177 180.472L125.549 164.099Z" fill="#F93838"/>
<path d="M133.458 164.233C131.532 161.131 127.416 159.798 124.141 161.832L97.7692 178.204C94.4943 180.237 93.8631 184.518 95.789 187.62L113.421 216.02C115.347 219.122 119.463 220.455 122.738 218.422L149.11 202.049C152.384 200.016 153.016 195.736 151.09 192.634L133.458 164.233Z" stroke="white" stroke-width="5.33788"/>
</g>
<path d="M123.621 185.127C126.207 185.127 128.304 187.384 128.304 190.169C128.304 192.954 126.207 195.211 123.621 195.211C121.036 195.211 118.939 192.954 118.939 190.169C118.939 187.384 121.036 185.127 123.621 185.127Z" fill="white"/>
<g filter="url(#filter3_d_864_1196)">
<path d="M161.47 284.961C162.825 283.23 165.434 283.01 167.298 284.469L193.621 305.074C195.485 306.533 195.897 309.119 194.543 310.849L175.409 335.292C174.055 337.023 171.445 337.243 169.582 335.784L143.259 315.179C141.395 313.72 140.982 311.135 142.337 309.404L161.47 284.961Z" fill="#F93838"/>
<path d="M161.47 284.961C162.825 283.23 165.434 283.01 167.298 284.469L193.621 305.074C195.485 306.533 195.897 309.119 194.543 310.849L175.409 335.292C174.055 337.023 171.445 337.243 169.582 335.784L143.259 315.179C141.395 313.72 140.982 311.135 142.337 309.404L161.47 284.961Z" fill="#F93838"/>
<path d="M168.943 282.367C166.068 280.117 161.744 280.281 159.368 283.316L140.235 307.759C137.859 310.794 138.738 315.03 141.613 317.281L167.937 337.886C170.812 340.136 175.135 339.973 177.511 336.937L196.644 312.494C199.02 309.459 198.141 305.223 195.266 302.972L168.943 282.367Z" stroke="white" stroke-width="5.33788"/>
</g>
<path d="M141.296 310H160.267C160.913 310 161.519 310.312 161.894 310.838L171.385 324.125C172.358 325.487 174.475 325.122 174.935 323.512L178.74 310.197C178.777 310.066 178.828 309.939 178.891 309.818L182.439 303.045C183.204 301.585 185.308 301.625 186.016 303.113L189.148 309.689C189.246 309.895 189.378 310.082 189.539 310.243L195.296 316" stroke="black" stroke-width="3"/>
<path d="M39.7959 303.5L52.2959 298L62.2959 312L83.2959 298H95.7959" stroke="black"/>
<path d="M166.891 305.369C169.319 304.48 172.063 305.879 173.021 308.494C173.979 311.108 172.787 313.949 170.358 314.838C167.93 315.728 165.186 314.329 164.228 311.714C163.27 309.099 164.462 306.258 166.891 305.369Z" fill="white"/>
<g filter="url(#filter4_d_864_1196)">
<path d="M92.7977 294.385C94.4536 295.83 94.5341 298.447 92.9777 300.231L70.9956 325.415C69.4392 327.198 66.8351 327.472 65.1793 326.027L41.7937 305.615C40.1378 304.17 40.0573 301.553 41.6137 299.769L63.5958 274.585C65.1522 272.802 67.7563 272.528 69.4121 273.973L92.7977 294.385Z" fill="#F93838"/>
<path d="M92.7977 294.385C94.4536 295.83 94.5341 298.447 92.9777 300.231L70.9956 325.415C69.4392 327.198 66.8351 327.472 65.1793 326.027L41.7937 305.615C40.1378 304.17 40.0573 301.553 41.6137 299.769L63.5958 274.585C65.1522 272.802 67.7563 272.528 69.4121 273.973L92.7977 294.385Z" fill="#F93838"/>
<path d="M94.9884 301.986C97.3894 299.235 97.4569 294.909 94.5528 292.374L71.1672 271.962C68.2631 269.428 63.986 270.079 61.585 272.83L39.603 298.014C37.202 300.765 37.1346 305.091 40.0386 307.626L63.4242 328.038C66.3283 330.573 70.6054 329.921 73.0064 327.17L94.9884 301.986Z" stroke="white" stroke-width="5.33788"/>
</g>
<path d="M67.4779 295C70.0638 295 72.16 297.257 72.16 300.042C72.16 302.827 70.0638 305.084 67.4779 305.084C64.8921 305.084 62.7959 302.827 62.7959 300.042C62.7959 297.257 64.8921 295 67.4779 295Z" fill="white"/>
<g filter="url(#filter5_d_864_1196)">
<path d="M254.855 131.738C256.796 132.77 257.469 135.3 256.358 137.39L240.672 166.91C239.562 169 237.088 169.859 235.147 168.827L207.736 154.262C205.795 153.23 205.122 150.7 206.232 148.61L221.918 119.09C223.029 117 225.503 116.141 227.444 117.173L254.855 131.738Z" fill="#F93838"/>
<path d="M254.855 131.738C256.796 132.77 257.469 135.3 256.358 137.39L240.672 166.91C239.562 169 237.088 169.859 235.147 168.827L207.736 154.262C205.795 153.23 205.122 150.7 206.232 148.61L221.918 119.09C223.029 117 225.503 116.141 227.444 117.173L254.855 131.738Z" fill="#F93838"/>
<path d="M258.715 138.643C260.428 135.418 259.511 131.19 256.107 129.381L228.696 114.816C225.292 113.007 221.275 114.613 219.561 117.838L203.876 147.357C202.162 150.582 203.079 154.81 206.483 156.619L233.895 171.184C237.299 172.993 241.316 171.387 243.029 168.162L258.715 138.643Z" stroke="white" stroke-width="5.33788"/>
</g>
<path d="M233.803 138.67C236.087 139.883 236.878 142.861 235.572 145.32C234.265 147.779 231.355 148.789 229.071 147.575C226.788 146.362 225.996 143.385 227.303 140.926C228.609 138.467 231.52 137.457 233.803 138.67Z" fill="white"/>
<g filter="url(#filter6_d_864_1196)">
<path d="M220.085 208.069C221.484 206.374 224.098 206.221 225.924 207.728L251.707 229.004C253.533 230.51 253.879 233.106 252.48 234.801L232.724 258.743C231.325 260.438 228.711 260.591 226.885 259.085L201.102 237.809C199.276 236.302 198.93 233.707 200.329 232.012L220.085 208.069Z" fill="#F93838"/>
<path d="M220.085 208.069C221.484 206.374 224.098 206.221 225.924 207.728L251.707 229.004C253.533 230.51 253.879 233.106 252.48 234.801L232.724 258.743C231.325 260.438 228.711 260.591 226.885 259.085L201.102 237.809C199.276 236.302 198.93 233.707 200.329 232.012L220.085 208.069Z" fill="#F93838"/>
<path d="M227.622 205.669C224.806 203.345 220.48 203.398 218.027 206.371L198.27 230.313C195.817 233.286 196.587 237.543 199.403 239.867L225.187 261.143C228.003 263.467 232.329 263.415 234.782 260.442L254.539 236.5C256.992 233.526 256.222 229.269 253.406 226.945L227.622 205.669Z" stroke="white" stroke-width="5.33788"/>
</g>
<path d="M212.796 220L231.026 224.318C231.477 224.425 231.796 224.827 231.796 225.291V241C231.796 241.552 232.244 242 232.796 242H242.695C243.537 242 244.002 242.977 243.471 243.631L231.796 258" stroke="black" stroke-width="3"/>
<path d="M221.95 230.367C223.596 228.373 226.671 228.193 228.819 229.965C230.967 231.738 231.374 234.791 229.728 236.786C228.082 238.78 225.007 238.96 222.859 237.188C220.711 235.415 220.304 232.362 221.95 230.367Z" fill="white"/>
<path d="M129.796 167.5L120.784 176.888C119.067 178.676 118.92 181.451 120.437 183.411L127.815 192.941C129.02 194.498 129.2 196.618 128.273 198.355L117.796 218" stroke="black" stroke-width="3"/>
<path d="M22.7959 176.5L27.7959 190L22.7959 205L44.2959 198V211.5" stroke="black" stroke-width="3"/>
<path d="M222.796 121V143.518C222.796 144.94 224.239 145.908 225.555 145.368L238.402 140.097C239.961 139.458 241.564 140.915 241.075 142.528L237.382 154.716C237.325 154.904 237.296 155.1 237.296 155.296V164C237.296 165.105 236.4 166 235.296 166H228.296" stroke="black" stroke-width="3"/>
<path d="M74.7959 92L53.7597 117.711C52.897 118.765 52.8531 120.269 53.6527 121.372L66.7959 139.5" stroke="black" stroke-width="3"/>
<path d="M69.7959 275.5L62.3734 284.778C62.0474 285.186 62.0896 285.775 62.4704 286.132L69.2003 292.442C69.5469 292.767 69.6171 293.291 69.368 293.695L62.147 305.429C61.9346 305.775 61.9515 306.214 62.1899 306.542L69.3225 316.349C69.5989 316.729 69.5734 317.25 69.2612 317.602L61.7959 326" stroke="black" stroke-width="3"/>
<path d="M46.2959 16.5V92.5" stroke="black"/>
<path d="M73.7959 85V30.5" stroke="black"/>
<path d="M230.796 111.5V29" stroke="black"/>
<path d="M249.296 119V40.5" stroke="black"/>
<path d="M142.296 171V66.5" stroke="black"/>
<path d="M105.296 166V26.5M5.2959 176V64" stroke="black"/>
<path d="M91.2959 276V69" stroke="black"/>
<path d="M204.796 218.5V19" stroke="black"/>
<path d="M180.796 289.5V0" stroke="black"/>
<defs>
<filter id="filter0_d_864_1196" x="37.3672" y="88.5075" width="59.709" height="61.5541" filterUnits="userSpaceOnUse" color-interpolation-filters="sRGB">
<feFlood flood-opacity="0" result="BackgroundImageFix"/>
<feColorMatrix in="SourceAlpha" type="matrix" values="0 0 0 0 0 0 0 0 0 0 0 0 0 0 0 0 0 0 127 0" result="hardAlpha"/>
<feOffset dx="5.33788" dy="5.33788"/>
<feColorMatrix type="matrix" values="0 0 0 0 0 0 0 0 0 0 0 0 0 0 0 0 0 0 1 0"/>
<feBlend mode="normal" in2="BackgroundImageFix" result="effect1_dropShadow_864_1196"/>
<feBlend mode="normal" in="SourceGraphic" in2="effect1_dropShadow_864_1196" result="shape"/>
</filter>
<filter id="filter1_d_864_1196" x="0.980469" y="167.332" width="64.4814" height="63.9051" filterUnits="userSpaceOnUse" color-interpolation-filters="sRGB">
<feFlood flood-opacity="0" result="BackgroundImageFix"/>
<feColorMatrix in="SourceAlpha" type="matrix" values="0 0 0 0 0 0 0 0 0 0 0 0 0 0 0 0 0 0 127 0" result="hardAlpha"/>
<feOffset dx="5.33788" dy="5.33788"/>
<feColorMatrix type="matrix" values="0 0 0 0 0 0 0 0 0 0 0 0 0 0 0 0 0 0 1 0"/>
<feBlend mode="normal" in2="BackgroundImageFix" result="effect1_dropShadow_864_1196"/>
<feBlend mode="normal" in="SourceGraphic" in2="effect1_dropShadow_864_1196" result="shape"/>
</filter>
<filter id="filter2_d_864_1196" x="94.7061" y="160.861" width="62.8047" height="63.8692" filterUnits="userSpaceOnUse" color-interpolation-filters="sRGB">
<feFlood flood-opacity="0" result="BackgroundImageFix"/>
<feColorMatrix in="SourceAlpha" type="matrix" values="0 0 0 0 0 0 0 0 0 0 0 0 0 0 0 0 0 0 127 0" result="hardAlpha"/>
<feOffset dx="5.33788" dy="5.33788"/>
<feColorMatrix type="matrix" values="0 0 0 0 0 0 0 0 0 0 0 0 0 0 0 0 0 0 1 0"/>
<feBlend mode="normal" in2="BackgroundImageFix" result="effect1_dropShadow_864_1196"/>
<feBlend mode="normal" in="SourceGraphic" in2="effect1_dropShadow_864_1196" result="shape"/>
</filter>
<filter id="filter3_d_864_1196" x="138.865" y="280.837" width="64.4863" height="63.9163" filterUnits="userSpaceOnUse" color-interpolation-filters="sRGB">
<feFlood flood-opacity="0" result="BackgroundImageFix"/>
<feColorMatrix in="SourceAlpha" type="matrix" values="0 0 0 0 0 0 0 0 0 0 0 0 0 0 0 0 0 0 127 0" result="hardAlpha"/>
<feOffset dx="5.33788" dy="5.33788"/>
<feColorMatrix type="matrix" values="0 0 0 0 0 0 0 0 0 0 0 0 0 0 0 0 0 0 1 0"/>
<feBlend mode="normal" in2="BackgroundImageFix" result="effect1_dropShadow_864_1196"/>
<feBlend mode="normal" in="SourceGraphic" in2="effect1_dropShadow_864_1196" result="shape"/>
</filter>
<filter id="filter4_d_864_1196" x="37.8291" y="270.373" width="64.2715" height="64.591" filterUnits="userSpaceOnUse" color-interpolation-filters="sRGB">
<feFlood flood-opacity="0" result="BackgroundImageFix"/>
<feColorMatrix in="SourceAlpha" type="matrix" values="0 0 0 0 0 0 0 0 0 0 0 0 0 0 0 0 0 0 127 0" result="hardAlpha"/>
<feOffset dx="5.33788" dy="5.33788"/>
<feColorMatrix type="matrix" values="0 0 0 0 0 0 0 0 0 0 0 0 0 0 0 0 0 0 1 0"/>
<feBlend mode="normal" in2="BackgroundImageFix" result="effect1_dropShadow_864_1196"/>
<feBlend mode="normal" in="SourceGraphic" in2="effect1_dropShadow_864_1196" result="shape"/>
</filter>
<filter id="filter5_d_864_1196" x="203.033" y="114.06" width="61.8613" height="63.2181" filterUnits="userSpaceOnUse" color-interpolation-filters="sRGB">
<feFlood flood-opacity="0" result="BackgroundImageFix"/>
<feColorMatrix in="SourceAlpha" type="matrix" values="0 0 0 0 0 0 0 0 0 0 0 0 0 0 0 0 0 0 127 0" result="hardAlpha"/>
<feOffset dx="5.33788" dy="5.33788"/>
<feColorMatrix type="matrix" values="0 0 0 0 0 0 0 0 0 0 0 0 0 0 0 0 0 0 1 0"/>
<feBlend mode="normal" in2="BackgroundImageFix" result="effect1_dropShadow_864_1196"/>
<feBlend mode="normal" in="SourceGraphic" in2="effect1_dropShadow_864_1196" result="shape"/>
</filter>
<filter id="filter6_d_864_1196" x="196.797" y="204.023" width="64.5527" height="64.1033" filterUnits="userSpaceOnUse" color-interpolation-filters="sRGB">
<feFlood flood-opacity="0" result="BackgroundImageFix"/>
<feColorMatrix in="SourceAlpha" type="matrix" values="0 0 0 0 0 0 0 0 0 0 0 0 0 0 0 0 0 0 127 0" result="hardAlpha"/>
<feOffset dx="5.33788" dy="5.33788"/>
<feColorMatrix type="matrix" values="0 0 0 0 0 0 0 0 0 0 0 0 0 0 0 0 0 0 1 0"/>
<feBlend mode="normal" in2="BackgroundImageFix" result="effect1_dropShadow_864_1196"/>
<feBlend mode="normal" in="SourceGraphic" in2="effect1_dropShadow_864_1196" result="shape"/>
</filter>
</defs>
</svg>
