<svg width="384" height="274" viewBox="0 0 384 274" fill="none" xmlns="http://www.w3.org/2000/svg">
<g filter="url(#filter0_d_864_1233)">
<path d="M277.128 7.85258C279.651 8.32345 281.314 10.7504 280.843 13.2734L277.148 33.0717C276.835 34.7523 277.943 36.3689 279.624 36.6826L283.666 37.437C285.803 37.8358 287.212 39.8913 286.813 42.0281C286.414 44.1649 284.359 45.5739 282.222 45.1751L276.045 44.0224C270.497 42.9869 266.839 37.65 267.875 32.1021L271.707 11.5683C272.178 9.04528 274.605 7.38171 277.128 7.85258Z" fill="#FF8577"/>
<path d="M283.793 13.8238C284.567 9.67209 281.83 5.67834 277.678 4.9035C273.527 4.12866 269.533 6.86616 268.758 11.0179L264.926 31.5517C263.586 38.7284 268.318 45.632 275.495 46.9714L281.671 48.1242C285.437 48.8269 289.059 46.3441 289.762 42.5785C290.465 38.813 287.982 35.1907 284.216 34.4879L280.174 33.7335C280.155 33.73 280.146 33.725 280.139 33.7207C280.131 33.7151 280.121 33.7062 280.113 33.6936C280.104 33.681 280.099 33.6687 280.097 33.6589C280.095 33.6512 280.094 33.6405 280.098 33.6221L283.793 13.8238Z" stroke="black" stroke-width="6"/>
</g>
<g filter="url(#filter1_d_864_1233)">
<path d="M191.128 7.85258C193.651 8.32345 195.314 10.7504 194.843 13.2734L191.148 33.0717C190.835 34.7523 191.943 36.3689 193.624 36.6826L197.666 37.437C199.803 37.8358 201.212 39.8913 200.813 42.0281C200.414 44.1649 198.359 45.5739 196.222 45.1751L190.045 44.0224C184.497 42.9869 180.839 37.65 181.875 32.1021L185.707 11.5683C186.178 9.04528 188.605 7.38171 191.128 7.85258Z" fill="#FF8577"/>
<path d="M197.793 13.8238C198.567 9.67209 195.83 5.67834 191.678 4.9035C187.527 4.12866 183.533 6.86616 182.758 11.0179L178.926 31.5517C177.586 38.7284 182.318 45.632 189.495 46.9714L195.671 48.1242C199.437 48.8269 203.059 46.3441 203.762 42.5785C204.465 38.813 201.982 35.1907 198.216 34.4879L194.174 33.7335C194.155 33.73 194.146 33.725 194.139 33.7207C194.131 33.7151 194.121 33.7062 194.113 33.6936C194.104 33.681 194.099 33.6687 194.097 33.6589C194.095 33.6512 194.094 33.6405 194.098 33.6221L197.793 13.8238Z" stroke="black" stroke-width="6"/>
</g>
<mask id="path-5-outside-1_864_1233" maskUnits="userSpaceOnUse" x="87" y="-1" width="43" height="52" fill="black">
<rect fill="white" x="87" y="-1" width="43" height="52"/>
<path fill-rule="evenodd" clip-rule="evenodd" d="M106.442 30.2149L108.821 24.0337L111.013 30.2149H106.442ZM103.855 36.9352L102.373 40.7857C101.547 42.9334 99.2943 43.6863 97.3424 42.4673C95.3905 41.2483 94.4782 38.5191 95.3049 36.3715L104.83 11.624C104.934 9.96909 105.847 8.33906 107.283 7.51307C109.264 6.37343 111.49 7.19595 112.253 9.3502L121.908 36.5815C122.671 38.7357 121.684 41.4059 119.703 42.5456C117.722 43.6852 115.497 42.8627 114.733 40.7084L113.395 36.9352H103.855Z"/>
</mask>
<path fill-rule="evenodd" clip-rule="evenodd" d="M106.442 30.2149L108.821 24.0337L111.013 30.2149H106.442ZM103.855 36.9352L102.373 40.7857C101.547 42.9334 99.2943 43.6863 97.3424 42.4673C95.3905 41.2483 94.4782 38.5191 95.3049 36.3715L104.83 11.624C104.934 9.96909 105.847 8.33906 107.283 7.51307C109.264 6.37343 111.49 7.19595 112.253 9.3502L121.908 36.5815C122.671 38.7357 121.684 41.4059 119.703 42.5456C117.722 43.6852 115.497 42.8627 114.733 40.7084L113.395 36.9352H103.855Z" fill="#0FA958"/>
<path d="M108.821 24.0337L115.419 21.6947L109.091 3.84576L102.288 21.5192L108.821 24.0337ZM106.442 30.2149L99.9093 27.7005L96.2472 37.2149H106.442V30.2149ZM111.013 30.2149V37.2149H120.921L117.61 27.8759L111.013 30.2149ZM103.855 36.9352V29.9352H99.0492L97.3227 34.4207L103.855 36.9352ZM102.373 40.7857L108.906 43.3001H108.906L102.373 40.7857ZM97.3424 42.4673L93.6346 48.4047H93.6346L97.3424 42.4673ZM95.3049 36.3715L101.838 38.8859L95.3049 36.3715ZM104.83 11.624L111.363 14.1384L111.749 13.1342L111.817 12.0603L104.83 11.624ZM107.283 7.51307L103.793 1.44527L103.793 1.44527L107.283 7.51307ZM112.253 9.3502L105.656 11.6892L105.656 11.6892L112.253 9.3502ZM121.908 36.5815L128.505 34.2424L121.908 36.5815ZM119.703 42.5456L123.193 48.6134L123.193 48.6134L119.703 42.5456ZM114.733 40.7084L121.331 38.3694V38.3694L114.733 40.7084ZM113.395 36.9352L119.993 34.5962L118.34 29.9352H113.395V36.9352ZM102.288 21.5192L99.9093 27.7005L112.975 32.7294L115.354 26.5482L102.288 21.5192ZM117.61 27.8759L115.419 21.6947L102.224 26.3728L104.415 32.554L117.61 27.8759ZM106.442 37.2149H111.013V23.2149H106.442V37.2149ZM97.3227 34.4207L95.8407 38.2712L108.906 43.3001L110.388 39.4497L97.3227 34.4207ZM95.8407 38.2712C96.1163 37.555 96.8333 36.6603 98.0608 36.25C99.2884 35.8397 100.399 36.1235 101.05 36.5299L93.6346 48.4047C96.2374 50.0301 99.4505 50.5469 102.499 49.5279C105.547 48.509 107.804 46.164 108.906 43.3001L95.8407 38.2712ZM101.05 36.5299C101.633 36.894 101.845 37.323 101.921 37.5486C101.996 37.7742 102.085 38.2445 101.838 38.8859L88.7721 33.857C86.7406 39.1349 88.8377 45.4091 93.6346 48.4047L101.05 36.5299ZM101.838 38.8859L111.363 14.1384L98.2974 9.10948L88.7721 33.857L101.838 38.8859ZM111.817 12.0603C111.799 12.3487 111.719 12.5883 111.595 12.7988C111.47 13.0124 111.223 13.3225 110.773 13.5809L103.793 1.44527C100.094 3.57275 98.0766 7.46056 97.8438 11.1876L111.817 12.0603ZM110.773 13.5809C110.098 13.9693 108.988 14.2023 107.798 13.7623C106.608 13.3222 105.916 12.4236 105.656 11.6892L118.851 7.01116C117.827 4.12258 115.641 1.73552 112.652 0.630593C109.662 -0.474335 106.45 -0.0828309 103.793 1.44527L110.773 13.5809ZM105.656 11.6892L115.31 38.9205L128.505 34.2424L118.851 7.01116L105.656 11.6892ZM115.31 38.9205C115.076 38.2591 115.176 37.7679 115.269 37.5171C115.362 37.2663 115.605 36.8277 116.213 36.4778L123.193 48.6134C128.104 45.7888 130.398 39.5816 128.505 34.2424L115.31 38.9205ZM116.213 36.4778C116.888 36.0893 117.998 35.8564 119.188 36.2964C120.379 36.7364 121.07 37.6351 121.331 38.3694L108.135 43.0475C109.159 45.9361 111.345 48.3231 114.335 49.4281C117.324 50.533 120.537 50.1415 123.193 48.6134L116.213 36.4778ZM121.331 38.3694L119.993 34.5962L106.798 39.2743L108.135 43.0475L121.331 38.3694ZM113.395 29.9352H103.855V43.9352H113.395V29.9352Z" fill="black" mask="url(#path-5-outside-1_864_1233)"/>
<path d="M165.5 117C165.5 123.822 163.549 129.849 160.573 134.078C157.59 138.316 153.8 140.5 150 140.5C146.2 140.5 142.41 138.316 139.427 134.078C136.451 129.849 134.5 123.822 134.5 117C134.5 110.178 136.451 104.151 139.427 99.9223C142.41 95.6835 146.2 93.5 150 93.5C153.8 93.5 157.59 95.6835 160.573 99.9223C163.549 104.151 165.5 110.178 165.5 117Z" fill="#E7C711" stroke="black" stroke-width="7"/>
<mask id="path-8-outside-2_864_1233" maskUnits="userSpaceOnUse" x="-2.23264" y="217.709" width="51.3062" height="58.3359" fill="black">
<rect fill="white" x="-2.23264" y="217.709" width="51.3062" height="58.3359"/>
<path fill-rule="evenodd" clip-rule="evenodd" d="M26.563 231.182C26.1517 229.156 27.461 227.18 29.4874 226.768C31.5139 226.357 33.4901 227.666 33.9014 229.693L39.5749 257.642C40.2988 259.132 39.9651 260.939 38.6089 262.107C36.9056 263.574 34.2342 263.477 32.6422 261.89L17.9339 247.225L20.9528 262.097C21.3642 264.123 20.0549 266.099 18.0284 266.511C16.002 266.922 14.0258 265.613 13.6144 263.586L8.26534 237.235C8.25943 237.206 8.25388 237.177 8.24869 237.148C7.65343 235.702 8.01718 234.008 9.30969 232.894C11.013 231.427 13.6844 231.525 15.2764 233.112L29.9182 247.711L26.563 231.182Z"/>
</mask>
<path fill-rule="evenodd" clip-rule="evenodd" d="M26.563 231.182C26.1517 229.156 27.461 227.18 29.4874 226.768C31.5139 226.357 33.4901 227.666 33.9014 229.693L39.5749 257.642C40.2988 259.132 39.9651 260.939 38.6089 262.107C36.9056 263.574 34.2342 263.477 32.6422 261.89L17.9339 247.225L20.9528 262.097C21.3642 264.123 20.0549 266.099 18.0284 266.511C16.002 266.922 14.0258 265.613 13.6144 263.586L8.26534 237.235C8.25943 237.206 8.25388 237.177 8.24869 237.148C7.65343 235.702 8.01718 234.008 9.30969 232.894C11.013 231.427 13.6844 231.525 15.2764 233.112L29.9182 247.711L26.563 231.182Z" fill="#FFE300"/>
<path d="M39.5749 257.642L32.7148 259.035L32.8913 259.904L33.279 260.702L39.5749 257.642ZM38.6089 262.107L34.0407 256.803L34.0407 256.803L38.6089 262.107ZM32.6422 261.89L27.6998 266.847L32.6422 261.89ZM17.9339 247.225L22.8764 242.268L6.46297 225.903L11.0738 248.617L17.9339 247.225ZM20.9528 262.097L14.0927 263.489L20.9528 262.097ZM8.24869 237.148L15.1393 235.915L15.0072 235.177L14.7217 234.483L8.24869 237.148ZM9.30969 232.894L4.74148 227.591L4.74148 227.591L9.30969 232.894ZM15.2764 233.112L10.334 238.069L10.334 238.069L15.2764 233.112ZM29.9182 247.711L24.9757 252.668L41.3891 269.033L36.7783 246.318L29.9182 247.711ZM28.0949 219.908C22.2797 221.089 18.5225 226.76 19.703 232.575L33.4231 229.79C33.7809 231.552 32.6422 233.271 30.88 233.628L28.0949 219.908ZM40.7615 228.3C39.5811 222.485 33.9101 218.728 28.0949 219.908L30.88 233.628C29.1177 233.986 27.3991 232.847 27.0413 231.085L40.7615 228.3ZM46.435 256.25L40.7615 228.3L27.0413 231.085L32.7148 259.035L46.435 256.25ZM33.279 260.702C32.6115 259.328 32.9953 257.704 34.0407 256.803L43.1771 267.411C46.9349 264.175 47.9861 258.935 45.8708 254.582L33.279 260.702ZM34.0407 256.803C34.6321 256.294 35.3001 256.129 35.8389 256.149C36.3778 256.168 37.032 256.382 37.5847 256.933L27.6998 266.847C31.8837 271.018 38.7004 271.267 43.1771 267.411L34.0407 256.803ZM37.5847 256.933L22.8764 242.268L12.9915 252.182L27.6998 266.847L37.5847 256.933ZM27.8129 260.704L24.794 245.832L11.0738 248.617L14.0927 263.489L27.8129 260.704ZM19.421 273.371C25.2361 272.191 28.9933 266.519 27.8129 260.704L14.0927 263.489C13.735 261.727 14.8736 260.008 16.6359 259.651L19.421 273.371ZM6.75435 264.979C7.93477 270.794 13.6058 274.551 19.421 273.371L16.6359 259.651C18.3982 259.293 20.1168 260.432 20.4745 262.194L6.75435 264.979ZM1.40525 238.628L6.75435 264.979L20.4745 262.194L15.1254 235.843L1.40525 238.628ZM1.35805 238.38C1.37281 238.463 1.38854 238.545 1.40525 238.628L15.1254 235.843C15.1303 235.867 15.135 235.891 15.1393 235.915L1.35805 238.38ZM14.7217 234.483C15.2767 235.832 14.8665 237.347 13.8779 238.198L4.74148 227.591C1.16782 230.669 0.0301139 235.572 1.7757 239.813L14.7217 234.483ZM13.8779 238.198C13.2865 238.708 12.6185 238.873 12.0797 238.853C11.5408 238.834 10.8867 238.62 10.334 238.069L20.2188 228.155C16.0349 223.983 9.21818 223.735 4.74148 227.591L13.8779 238.198ZM10.334 238.069L24.9757 252.668L34.8606 242.754L20.2188 228.155L10.334 238.069ZM19.703 232.575L23.0581 249.103L36.7783 246.318L33.4231 229.79L19.703 232.575Z" fill="black" mask="url(#path-8-outside-2_864_1233)"/>
<mask id="path-10-outside-3_864_1233" maskUnits="userSpaceOnUse" x="277.767" y="216.709" width="51.3062" height="58.3359" fill="black">
<rect fill="white" x="277.767" y="216.709" width="51.3062" height="58.3359"/>
<path fill-rule="evenodd" clip-rule="evenodd" d="M306.563 230.182C306.152 228.156 307.461 226.18 309.487 225.768C311.514 225.357 313.49 226.666 313.901 228.693L319.575 256.642C320.299 258.132 319.965 259.939 318.609 261.107C316.906 262.574 314.234 262.477 312.642 260.89L297.934 246.225L300.953 261.097C301.364 263.123 300.055 265.099 298.028 265.511C296.002 265.922 294.026 264.613 293.614 262.586L288.265 236.235C288.259 236.206 288.254 236.177 288.249 236.148C287.653 234.702 288.017 233.008 289.31 231.894C291.013 230.427 293.684 230.525 295.276 232.112L309.918 246.711L306.563 230.182Z"/>
</mask>
<path fill-rule="evenodd" clip-rule="evenodd" d="M306.563 230.182C306.152 228.156 307.461 226.18 309.487 225.768C311.514 225.357 313.49 226.666 313.901 228.693L319.575 256.642C320.299 258.132 319.965 259.939 318.609 261.107C316.906 262.574 314.234 262.477 312.642 260.89L297.934 246.225L300.953 261.097C301.364 263.123 300.055 265.099 298.028 265.511C296.002 265.922 294.026 264.613 293.614 262.586L288.265 236.235C288.259 236.206 288.254 236.177 288.249 236.148C287.653 234.702 288.017 233.008 289.31 231.894C291.013 230.427 293.684 230.525 295.276 232.112L309.918 246.711L306.563 230.182Z" fill="#FFE300"/>
<path d="M319.575 256.642L312.715 258.035L312.891 258.904L313.279 259.702L319.575 256.642ZM318.609 261.107L314.041 255.803L314.041 255.803L318.609 261.107ZM312.642 260.89L307.7 265.847L312.642 260.89ZM297.934 246.225L302.876 241.268L286.463 224.903L291.074 247.617L297.934 246.225ZM300.953 261.097L294.093 262.489L300.953 261.097ZM293.614 262.586L286.754 263.979L293.614 262.586ZM288.265 236.235L295.125 234.843L288.265 236.235ZM288.249 236.148L295.139 234.915L295.007 234.177L294.722 233.483L288.249 236.148ZM289.31 231.894L284.741 226.591L284.741 226.591L289.31 231.894ZM295.276 232.112L290.334 237.069L290.334 237.069L295.276 232.112ZM309.918 246.711L304.976 251.668L321.389 268.033L316.778 245.318L309.918 246.711ZM308.095 218.908C302.28 220.089 298.523 225.76 299.703 231.575L313.423 228.79C313.781 230.552 312.642 232.271 310.88 232.628L308.095 218.908ZM320.762 227.3C319.581 221.485 313.91 217.728 308.095 218.908L310.88 232.628C309.118 232.986 307.399 231.847 307.041 230.085L320.762 227.3ZM326.435 255.25L320.762 227.3L307.041 230.085L312.715 258.035L326.435 255.25ZM313.279 259.702C312.611 258.328 312.995 256.704 314.041 255.803L323.177 266.411C326.935 263.175 327.986 257.935 325.871 253.582L313.279 259.702ZM314.041 255.803C314.632 255.294 315.3 255.129 315.839 255.149C316.378 255.168 317.032 255.382 317.585 255.933L307.7 265.847C311.884 270.018 318.7 270.267 323.177 266.411L314.041 255.803ZM317.585 255.933L302.876 241.268L292.991 251.182L307.7 265.847L317.585 255.933ZM307.813 259.704L304.794 244.832L291.074 247.617L294.093 262.489L307.813 259.704ZM299.421 272.371C305.236 271.191 308.993 265.519 307.813 259.704L294.093 262.489C293.735 260.727 294.874 259.008 296.636 258.651L299.421 272.371ZM286.754 263.979C287.935 269.794 293.606 273.551 299.421 272.371L296.636 258.651C298.398 258.293 300.117 259.432 300.475 261.194L286.754 263.979ZM281.405 237.628L286.754 263.979L300.475 261.194L295.125 234.843L281.405 237.628ZM281.358 237.38C281.373 237.463 281.389 237.545 281.405 237.628L295.125 234.843C295.13 234.867 295.135 234.891 295.139 234.915L281.358 237.38ZM294.722 233.483C295.277 234.832 294.867 236.347 293.878 237.198L284.741 226.591C281.168 229.669 280.03 234.572 281.776 238.813L294.722 233.483ZM293.878 237.198C293.287 237.708 292.619 237.873 292.08 237.853C291.541 237.834 290.887 237.62 290.334 237.069L300.219 227.155C296.035 222.983 289.218 222.735 284.741 226.591L293.878 237.198ZM290.334 237.069L304.976 251.668L314.861 241.754L300.219 227.155L290.334 237.069ZM299.703 231.575L303.058 248.103L316.778 245.318L313.423 228.79L299.703 231.575Z" fill="black" mask="url(#path-10-outside-3_864_1233)"/>
<mask id="path-12-outside-4_864_1233" maskUnits="userSpaceOnUse" x="108.285" y="216.317" width="54.9025" height="61.6952" fill="black">
<rect fill="white" x="108.285" y="216.317" width="54.9025" height="61.6952"/>
<path fill-rule="evenodd" clip-rule="evenodd" d="M131.265 226.063C129.257 225.476 127.153 226.628 126.566 228.636C125.979 230.645 127.131 232.749 129.14 233.336L135.954 235.327L128.309 261.479C127.835 263.102 128.766 264.803 130.39 265.277C132.013 265.752 133.713 264.82 134.188 263.197L141.832 237.046L147.993 238.847C150.001 239.434 152.105 238.281 152.692 236.273C153.279 234.265 152.127 232.161 150.119 231.574L131.265 226.063Z"/>
</mask>
<path fill-rule="evenodd" clip-rule="evenodd" d="M131.265 226.063C129.257 225.476 127.153 226.628 126.566 228.636C125.979 230.645 127.131 232.749 129.14 233.336L135.954 235.327L128.309 261.479C127.835 263.102 128.766 264.803 130.39 265.277C132.013 265.752 133.713 264.82 134.188 263.197L141.832 237.046L147.993 238.847C150.001 239.434 152.105 238.281 152.692 236.273C153.279 234.265 152.127 232.161 150.119 231.574L131.265 226.063Z" fill="#953000"/>
<path d="M135.954 235.327L142.673 237.291L144.637 230.572L137.918 228.609L135.954 235.327ZM141.832 237.046L143.796 230.327L137.077 228.363L135.113 235.082L141.832 237.046ZM133.285 230.6C132.787 232.303 131.004 233.279 129.302 232.782L133.229 219.344C127.51 217.672 121.519 220.953 119.847 226.672L133.285 230.6ZM131.104 226.617C132.806 227.114 133.783 228.898 133.285 230.6L119.847 226.672C118.176 232.391 121.457 238.383 127.176 240.054L131.104 226.617ZM137.918 228.609L131.104 226.617L127.176 240.054L133.99 242.046L137.918 228.609ZM135.028 263.443L142.673 237.291L129.235 233.363L121.591 259.515L135.028 263.443ZM132.353 258.558C134.441 259.168 135.639 261.355 135.028 263.443L121.591 259.515C120.031 264.849 123.092 270.437 128.426 271.996L132.353 258.558ZM127.469 261.233C128.079 259.146 130.266 257.948 132.353 258.558L128.426 271.996C133.76 273.555 139.348 270.495 140.907 265.161L127.469 261.233ZM135.113 235.082L127.469 261.233L140.907 265.161L148.551 239.01L135.113 235.082ZM149.957 232.128L143.796 230.327L139.868 243.764L146.029 245.565L149.957 232.128ZM145.973 234.309C146.471 232.607 148.255 231.63 149.957 232.128L146.029 245.565C151.748 247.237 157.739 243.956 159.411 238.237L145.973 234.309ZM148.155 238.293C146.452 237.795 145.476 236.012 145.973 234.309L159.411 238.237C161.083 232.518 157.802 226.527 152.083 224.855L148.155 238.293ZM129.302 232.782L148.155 238.293L152.083 224.855L133.229 219.344L129.302 232.782Z" fill="black" mask="url(#path-12-outside-4_864_1233)"/>
<mask id="path-14-outside-5_864_1233" maskUnits="userSpaceOnUse" x="174" y="222" width="41" height="51" fill="black">
<rect fill="white" x="174" y="222" width="41" height="51"/>
<path fill-rule="evenodd" clip-rule="evenodd" d="M181 232.115C181 230.395 182.395 229 184.115 229C185.836 229 187.231 230.395 187.231 232.115V243.095H201.769V232.115C201.769 230.395 203.164 229 204.885 229C206.605 229 208 230.395 208 232.115V243.095V247.5V262.885C208 264.605 206.605 266 204.885 266C203.164 266 201.769 264.605 201.769 262.885V247.5H187.231V262.885C187.231 264.605 185.836 266 184.115 266C182.395 266 181 264.605 181 262.885V247.5V243.095V232.115Z"/>
</mask>
<path fill-rule="evenodd" clip-rule="evenodd" d="M181 232.115C181 230.395 182.395 229 184.115 229C185.836 229 187.231 230.395 187.231 232.115V243.095H201.769V232.115C201.769 230.395 203.164 229 204.885 229C206.605 229 208 230.395 208 232.115V243.095V247.5V262.885C208 264.605 206.605 266 204.885 266C203.164 266 201.769 264.605 201.769 262.885V247.5H187.231V262.885C187.231 264.605 185.836 266 184.115 266C182.395 266 181 264.605 181 262.885V247.5V243.095V232.115Z" fill="#0FA958"/>
<path d="M187.231 243.095H180.231V250.095H187.231V243.095ZM201.769 243.095V250.095H208.769V243.095H201.769ZM201.769 247.5H208.769V240.5H201.769V247.5ZM187.231 247.5V240.5H180.231V247.5H187.231ZM184.115 222C178.529 222 174 226.529 174 232.115H188C188 234.261 186.261 236 184.115 236V222ZM194.231 232.115C194.231 226.529 189.702 222 184.115 222V236C181.97 236 180.231 234.261 180.231 232.115H194.231ZM194.231 243.095V232.115H180.231V243.095H194.231ZM187.231 250.095H201.769V236.095H187.231V250.095ZM194.769 232.115V243.095H208.769V232.115H194.769ZM204.885 222C199.298 222 194.769 226.529 194.769 232.115H208.769C208.769 234.261 207.03 236 204.885 236V222ZM215 232.115C215 226.529 210.471 222 204.885 222V236C202.739 236 201 234.261 201 232.115H215ZM215 243.095V232.115H201V243.095H215ZM201 243.095V247.5H215V243.095H201ZM215 262.885V247.5H201V262.885H215ZM204.885 273C210.471 273 215 268.471 215 262.885H201C201 260.739 202.739 259 204.885 259V273ZM194.769 262.885C194.769 268.471 199.298 273 204.885 273V259C207.03 259 208.769 260.739 208.769 262.885H194.769ZM194.769 247.5V262.885H208.769V247.5H194.769ZM201.769 240.5H187.231V254.5H201.769V240.5ZM194.231 262.885V247.5H180.231V262.885H194.231ZM184.115 273C189.702 273 194.231 268.471 194.231 262.885H180.231C180.231 260.739 181.97 259 184.115 259V273ZM174 262.885C174 268.471 178.529 273 184.115 273V259C186.261 259 188 260.739 188 262.885H174ZM174 247.5V262.885H188V247.5H174ZM188 247.5V243.095H174V247.5H188ZM174 232.115V243.095H188V232.115H174Z" fill="black" mask="url(#path-14-outside-5_864_1233)"/>
<mask id="path-16-outside-6_864_1233" maskUnits="userSpaceOnUse" x="233.547" y="218.547" width="38.0613" height="55.5088" fill="black">
<rect fill="white" x="233.547" y="218.547" width="38.0613" height="55.5088"/>
<path fill-rule="evenodd" clip-rule="evenodd" d="M244.14 228.096C244.271 226.437 245.723 225.197 247.383 225.328L259.841 226.31C261.501 226.441 262.74 227.893 262.609 229.553C262.479 231.213 261.027 232.452 259.367 232.321L256.601 232.103L254.421 259.753L258.894 260.105C260.886 260.262 262.373 262.004 262.216 263.996C262.059 265.988 260.317 267.475 258.325 267.318L243.606 266.158C241.615 266 240.127 264.258 240.284 262.267C240.441 260.275 242.183 258.788 244.175 258.945L247.495 259.206L249.675 231.557L246.909 231.339C245.249 231.208 244.01 229.756 244.14 228.096Z"/>
</mask>
<path fill-rule="evenodd" clip-rule="evenodd" d="M244.14 228.096C244.271 226.437 245.723 225.197 247.383 225.328L259.841 226.31C261.501 226.441 262.74 227.893 262.609 229.553C262.479 231.213 261.027 232.452 259.367 232.321L256.601 232.103L254.421 259.753L258.894 260.105C260.886 260.262 262.373 262.004 262.216 263.996C262.059 265.988 260.317 267.475 258.325 267.318L243.606 266.158C241.615 266 240.127 264.258 240.284 262.267C240.441 260.275 242.183 258.788 244.175 258.945L247.495 259.206L249.675 231.557L246.909 231.339C245.249 231.208 244.01 229.756 244.14 228.096Z" fill="#FF8577"/>
<path d="M247.383 225.328L247.855 219.347L247.383 225.328ZM259.841 226.31L259.369 232.292L259.841 226.31ZM259.367 232.321L258.895 238.303L259.367 232.321ZM256.601 232.103L257.073 226.122L251.091 225.65L250.619 231.631L256.601 232.103ZM254.421 259.753L248.439 259.281L247.967 265.262L253.949 265.734L254.421 259.753ZM244.175 258.945L243.704 264.926L244.175 258.945ZM247.495 259.206L247.023 265.188L253.004 265.659L253.476 259.678L247.495 259.206ZM249.675 231.557L255.656 232.029L256.128 226.047L250.147 225.575L249.675 231.557ZM247.855 219.347C242.891 218.955 238.55 222.661 238.159 227.625L250.122 228.568C249.992 230.212 248.555 231.439 246.911 231.309L247.855 219.347ZM260.313 220.329L247.855 219.347L246.911 231.309L259.369 232.292L260.313 220.329ZM268.591 230.024C268.982 225.061 265.276 220.72 260.313 220.329L259.369 232.292C257.726 232.162 256.498 230.725 256.628 229.081L268.591 230.024ZM258.895 238.303C263.859 238.694 268.199 234.988 268.591 230.024L256.628 229.081C256.758 227.437 258.195 226.21 259.839 226.34L258.895 238.303ZM256.129 238.084L258.895 238.303L259.839 226.34L257.073 226.122L256.129 238.084ZM260.402 260.224L262.582 232.575L250.619 231.631L248.439 259.281L260.402 260.224ZM253.949 265.734L258.423 266.087L259.366 254.124L254.892 253.771L253.949 265.734ZM258.423 266.087C257.111 265.983 256.131 264.836 256.235 263.524L268.198 264.468C268.615 259.173 264.661 254.541 259.366 254.124L258.423 266.087ZM256.235 263.524C256.338 262.213 257.485 261.233 258.797 261.337L257.854 273.3C263.149 273.717 267.78 269.763 268.198 264.468L256.235 263.524ZM258.797 261.337L244.078 260.176L243.135 272.139L257.854 273.3L258.797 261.337ZM244.078 260.176C245.39 260.28 246.369 261.427 246.266 262.738L234.303 261.795C233.885 267.09 237.84 271.721 243.135 272.139L244.078 260.176ZM246.266 262.738C246.162 264.05 245.015 265.029 243.704 264.926L244.647 252.963C239.352 252.546 234.721 256.5 234.303 261.795L246.266 262.738ZM243.704 264.926L247.023 265.188L247.966 253.225L244.647 252.963L243.704 264.926ZM243.694 231.085L241.513 258.735L253.476 259.678L255.656 232.029L243.694 231.085ZM246.437 237.32L249.203 237.538L250.147 225.575L247.381 225.357L246.437 237.32ZM238.159 227.625C237.768 232.588 241.474 236.929 246.437 237.32L247.381 225.357C249.024 225.487 250.252 226.924 250.122 228.568L238.159 227.625Z" fill="black" mask="url(#path-16-outside-6_864_1233)"/>
<g filter="url(#filter2_d_864_1233)">
<path d="M359.526 246.593C359.264 244.62 360.651 242.808 362.624 242.546L372.381 241.251C375.119 240.888 377.681 242.813 377.777 245.573C377.779 245.631 377.781 245.69 377.783 245.749C377.83 247.305 377.706 248.773 377.41 250.151C376.997 252.087 376.323 253.851 375.386 255.443C374.445 257.002 373.271 258.37 371.864 259.545C370.485 260.685 368.919 261.626 367.168 262.369C365.417 263.111 363.539 263.616 361.533 263.882C358.775 264.248 356.192 264.128 353.784 263.523C351.407 262.914 349.296 261.902 347.45 260.489C345.6 259.044 344.069 257.238 342.856 255.071C341.64 252.873 340.846 250.379 340.476 247.59C340.11 244.832 340.214 242.251 340.788 239.847C341.389 237.407 342.397 235.264 343.81 233.419C345.255 231.569 347.076 230.035 349.275 228.819C351.473 227.602 353.998 226.805 356.85 226.426C360.548 225.936 363.898 226.304 366.899 227.533C368.71 228.274 370.353 229.363 371.827 230.8C373.476 232.408 372.83 235.054 370.836 236.207L369.696 236.866C367.79 237.969 365.451 237.169 363.699 235.834C363.314 235.541 362.913 235.296 362.498 235.101C361.1 234.425 359.571 234.197 357.91 234.418C356.532 234.601 355.313 235.033 354.256 235.716C353.194 236.367 352.32 237.232 351.635 238.312C350.976 239.356 350.501 240.583 350.21 241.993C349.95 243.399 349.93 244.932 350.15 246.593C350.35 248.097 350.723 249.467 351.269 250.702C351.847 251.933 352.59 252.966 353.499 253.802C354.407 254.639 355.476 255.246 356.706 255.625C357.932 255.973 359.313 256.044 360.849 255.841C361.758 255.72 362.623 255.51 363.444 255.209C364.261 254.878 364.969 254.449 365.569 253.923C366.196 253.361 366.681 252.691 367.024 251.912C367.235 251.433 367.385 250.902 367.474 250.319C367.566 249.714 367.022 249.233 366.415 249.314L363.573 249.691C361.599 249.953 359.788 248.566 359.526 246.593Z" fill="#699BF7"/>
<path d="M349.275 228.819L347.822 226.194C345.296 227.592 343.156 229.382 341.446 231.572L341.437 231.583L341.428 231.595C339.744 233.795 338.567 236.321 337.875 239.129L337.873 239.14L337.87 239.15C337.201 241.954 337.094 244.908 337.502 247.984C337.916 251.1 338.813 253.96 340.231 256.524L340.231 256.524L340.238 256.536C341.634 259.031 343.421 261.149 345.603 262.853L345.615 262.862L345.626 262.871C347.81 264.543 350.293 265.725 353.039 266.429L353.046 266.431L353.053 266.432C355.871 267.141 358.839 267.266 361.928 266.856C364.184 266.556 366.325 265.985 368.339 265.131C370.341 264.282 372.158 263.194 373.775 261.858L373.781 261.853L373.788 261.848C375.448 260.46 376.84 258.839 377.954 256.992L377.963 256.978L377.971 256.965C379.083 255.076 379.869 253.006 380.344 250.777C380.344 250.777 380.344 250.777 380.344 250.777L377.41 250.151M349.275 228.819L377.777 245.573C377.778 245.605 377.779 245.638 377.78 245.671C377.781 245.697 377.782 245.723 377.783 245.749M349.275 228.819L347.822 226.194C350.392 224.772 353.286 223.873 356.455 223.452C360.593 222.903 364.481 223.302 368.035 224.756C370.222 225.651 372.186 226.96 373.921 228.652C377.032 231.684 375.878 236.026 373.195 238.211C377.045 238.294 380.625 241.171 380.775 245.468C380.777 245.531 380.779 245.595 380.781 245.658M349.275 228.819L380.781 245.658M377.41 250.151C377.706 248.773 377.83 247.305 377.783 245.749M377.41 250.151C376.997 252.087 376.323 253.851 375.386 255.443C374.445 257.002 373.271 258.37 371.864 259.545M377.41 250.151L371.864 259.545M377.783 245.749L380.781 245.658M377.783 245.749L380.781 245.658C380.781 245.658 380.781 245.658 380.781 245.658M371.864 259.545C370.485 260.685 368.919 261.626 367.168 262.369C365.417 263.111 363.539 263.616 361.533 263.882C358.775 264.248 356.192 264.128 353.784 263.523C351.407 262.914 349.296 261.902 347.45 260.489L371.864 259.545ZM363.73 239.373L362.23 239.572C358.614 240.052 356.072 243.372 356.552 246.987C356.933 249.857 359.103 252.05 361.79 252.593C361.366 252.713 360.921 252.805 360.454 252.867C359.256 253.026 358.308 252.955 357.556 252.748C356.75 252.494 356.088 252.109 355.531 251.595C354.943 251.054 354.426 250.357 353.999 249.457C353.588 248.52 353.289 247.441 353.124 246.198C352.94 244.811 352.965 243.609 353.154 242.569C353.384 241.471 353.737 240.603 354.169 239.917C354.617 239.214 355.164 238.678 355.824 238.273L355.854 238.255L355.883 238.236C356.53 237.819 357.319 237.523 358.305 237.392C359.433 237.242 360.365 237.401 361.192 237.801L361.206 237.809L361.221 237.816C361.435 237.916 361.654 238.048 361.881 238.22C362.401 238.617 363.028 239.022 363.73 239.373Z" stroke="black" stroke-width="6"/>
</g>
<ellipse cx="150" cy="117" rx="5" ry="8" fill="black"/>
<path d="M96.5 246C96.5 252.822 94.5486 258.849 91.5727 263.078C88.5898 267.316 84.7995 269.5 81 269.5C77.2005 269.5 73.4102 267.316 70.4273 263.078C67.4514 258.849 65.5 252.822 65.5 246C65.5 239.178 67.4514 233.151 70.4273 228.922C73.4102 224.684 77.2005 222.5 81 222.5C84.7995 222.5 88.5898 224.684 91.5727 228.922C94.5486 233.151 96.5 239.178 96.5 246Z" fill="#E7C711" stroke="black" stroke-width="7"/>
<ellipse cx="81" cy="246" rx="5" ry="8" fill="black"/>
<mask id="path-23-outside-7_864_1233" maskUnits="userSpaceOnUse" x="220" y="110" width="43" height="53" fill="black">
<rect fill="white" x="220" y="110" width="43" height="53"/>
<path fill-rule="evenodd" clip-rule="evenodd" d="M227 121.5C227 119.015 229.015 117 231.5 117C233.08 117 234.469 117.814 235.272 119.045C237.015 117.76 239.169 117 241.5 117C247.299 117 252 121.701 252 127.5C252 132.181 248.937 136.146 244.706 137.502L254.2 147.714C255.892 149.534 255.788 152.381 253.968 154.074C252.148 155.766 249.301 155.662 247.608 153.842L236.064 141.424C236.042 141.4 236.021 141.377 236 141.353V151.5C236 153.985 233.985 156 231.5 156C229.015 156 227 153.985 227 151.5V121.5Z"/>
</mask>
<path fill-rule="evenodd" clip-rule="evenodd" d="M227 121.5C227 119.015 229.015 117 231.5 117C233.08 117 234.469 117.814 235.272 119.045C237.015 117.76 239.169 117 241.5 117C247.299 117 252 121.701 252 127.5C252 132.181 248.937 136.146 244.706 137.502L254.2 147.714C255.892 149.534 255.788 152.381 253.968 154.074C252.148 155.766 249.301 155.662 247.608 153.842L236.064 141.424C236.042 141.4 236.021 141.377 236 141.353V151.5C236 153.985 233.985 156 231.5 156C229.015 156 227 153.985 227 151.5V121.5Z" fill="#953000"/>
<path d="M235.272 119.045L229.409 122.869L233.46 129.082L239.428 124.678L235.272 119.045ZM244.706 137.502L242.571 130.835L232.076 134.197L239.579 142.268L244.706 137.502ZM254.2 147.714L249.073 152.48L249.073 152.48L254.2 147.714ZM247.608 153.842L242.482 158.608L242.482 158.608L247.608 153.842ZM236.064 141.424L241.191 136.658L241.191 136.657L236.064 141.424ZM236 141.353L241.224 136.694L229 122.987V141.353H236ZM231.5 110C225.149 110 220 115.149 220 121.5H234C234 122.881 232.881 124 231.5 124V110ZM241.136 115.222C239.096 112.093 235.544 110 231.5 110V124C230.615 124 229.843 123.535 229.409 122.869L241.136 115.222ZM239.428 124.678C240.008 124.25 240.714 124 241.5 124V110C237.623 110 234.021 111.269 231.116 113.413L239.428 124.678ZM241.5 124C243.433 124 245 125.567 245 127.5H259C259 117.835 251.165 110 241.5 110V124ZM245 127.5C245 129.05 243.988 130.381 242.571 130.835L246.841 144.168C253.886 141.911 259 135.312 259 127.5H245ZM259.327 142.948L249.833 132.735L239.579 142.268L249.073 152.48L259.327 142.948ZM258.734 159.2C263.386 154.876 263.651 147.599 259.327 142.948L249.073 152.48C248.133 151.469 248.191 149.887 249.202 148.947L258.734 159.2ZM242.482 158.608C246.806 163.26 254.083 163.525 258.734 159.2L249.202 148.947C250.213 148.007 251.795 148.064 252.735 149.076L242.482 158.608ZM230.937 146.19L242.482 158.608L252.735 149.076L241.191 136.658L230.937 146.19ZM230.776 146.013C230.829 146.072 230.883 146.131 230.937 146.19L241.191 136.657C241.202 136.67 241.213 136.682 241.224 136.694L230.776 146.013ZM243 151.5V141.353H229V151.5H243ZM231.5 163C237.851 163 243 157.851 243 151.5H229C229 150.119 230.119 149 231.5 149V163ZM220 151.5C220 157.851 225.149 163 231.5 163V149C232.881 149 234 150.119 234 151.5H220ZM220 121.5V151.5H234V121.5H220Z" fill="black" mask="url(#path-23-outside-7_864_1233)"/>
<path d="M242.5 128.5C242.5 130.157 241.157 131.5 239.5 131.5C237.843 131.5 236.5 130.157 236.5 128.5C236.5 126.843 237.843 125.5 239.5 125.5C241.157 125.5 242.5 126.843 242.5 128.5Z" fill="#FF9A02" stroke="black" stroke-width="3"/>
<defs>
<filter id="filter0_d_864_1233" x="261.698" y="1.7718" width="31.1831" height="52.4719" filterUnits="userSpaceOnUse" color-interpolation-filters="sRGB">
<feFlood flood-opacity="0" result="BackgroundImageFix"/>
<feColorMatrix in="SourceAlpha" type="matrix" values="0 0 0 0 0 0 0 0 0 0 0 0 0 0 0 0 0 0 127 0" result="hardAlpha"/>
<feOffset dy="3"/>
<feColorMatrix type="matrix" values="0 0 0 0 0 0 0 0 0 0 0 0 0 0 0 0 0 0 1 0"/>
<feBlend mode="normal" in2="BackgroundImageFix" result="effect1_dropShadow_864_1233"/>
<feBlend mode="normal" in="SourceGraphic" in2="effect1_dropShadow_864_1233" result="shape"/>
</filter>
<filter id="filter1_d_864_1233" x="175.698" y="1.7718" width="31.1831" height="52.4719" filterUnits="userSpaceOnUse" color-interpolation-filters="sRGB">
<feFlood flood-opacity="0" result="BackgroundImageFix"/>
<feColorMatrix in="SourceAlpha" type="matrix" values="0 0 0 0 0 0 0 0 0 0 0 0 0 0 0 0 0 0 127 0" result="hardAlpha"/>
<feOffset dy="3"/>
<feColorMatrix type="matrix" values="0 0 0 0 0 0 0 0 0 0 0 0 0 0 0 0 0 0 1 0"/>
<feBlend mode="normal" in2="BackgroundImageFix" result="effect1_dropShadow_864_1233"/>
<feBlend mode="normal" in="SourceGraphic" in2="effect1_dropShadow_864_1233" result="shape"/>
</filter>
<filter id="filter2_d_864_1233" x="334.263" y="220.216" width="49.5298" height="52.8722" filterUnits="userSpaceOnUse" color-interpolation-filters="sRGB">
<feFlood flood-opacity="0" result="BackgroundImageFix"/>
<feColorMatrix in="SourceAlpha" type="matrix" values="0 0 0 0 0 0 0 0 0 0 0 0 0 0 0 0 0 0 127 0" result="hardAlpha"/>
<feOffset dy="3"/>
<feColorMatrix type="matrix" values="0 0 0 0 0 0 0 0 0 0 0 0 0 0 0 0 0 0 1 0"/>
<feBlend mode="normal" in2="BackgroundImageFix" result="effect1_dropShadow_864_1233"/>
<feBlend mode="normal" in="SourceGraphic" in2="effect1_dropShadow_864_1233" result="shape"/>
</filter>
</defs>
</svg>
