<svg width="206" height="147" viewBox="0 0 206 147" fill="none" xmlns="http://www.w3.org/2000/svg">
<g filter="url(#filter0_d_864_1071)">
<mask id="path-1-outside-1_864_1071" maskUnits="userSpaceOnUse" x="118" y="45" width="82" height="84" fill="black">
<rect fill="white" x="118" y="45" width="82" height="84"/>
<path fill-rule="evenodd" clip-rule="evenodd" d="M171.389 123.217C174.464 124.322 177.825 122.647 178.897 119.475L194.025 74.6851C195.097 71.5137 193.472 68.0472 190.397 66.9424L146.966 51.3401C143.891 50.2353 140.53 51.9107 139.459 55.0821L124.33 99.8722C123.259 103.044 124.883 106.51 127.958 107.615L171.389 123.217ZM159.89 93.3398C162.928 93.3398 165.39 90.6535 165.39 87.3398C165.39 84.0261 162.928 81.3398 159.89 81.3398C156.853 81.3398 154.39 84.0261 154.39 87.3398C154.39 90.6535 156.853 93.3398 159.89 93.3398Z"/>
</mask>
<path fill-rule="evenodd" clip-rule="evenodd" d="M171.389 123.217C174.464 124.322 177.825 122.647 178.897 119.475L194.025 74.6851C195.097 71.5137 193.472 68.0472 190.397 66.9424L146.966 51.3401C143.891 50.2353 140.53 51.9107 139.459 55.0821L124.33 99.8722C123.259 103.044 124.883 106.51 127.958 107.615L171.389 123.217ZM159.89 93.3398C162.928 93.3398 165.39 90.6535 165.39 87.3398C165.39 84.0261 162.928 81.3398 159.89 81.3398C156.853 81.3398 154.39 84.0261 154.39 87.3398C154.39 90.6535 156.853 93.3398 159.89 93.3398Z" fill="white"/>
<path d="M178.897 119.475L183.954 121.183L178.897 119.475ZM171.389 123.217L169.584 128.241L169.584 128.241L171.389 123.217ZM194.025 74.6851L188.968 72.9769V72.9769L194.025 74.6851ZM190.397 66.9424L188.592 71.966V71.966L190.397 66.9424ZM146.966 51.3401L148.771 46.3165L146.966 51.3401ZM139.459 55.0821L144.516 56.7903V56.7903L139.459 55.0821ZM124.33 99.8722L129.387 101.58L124.33 99.8722ZM127.958 107.615L129.763 102.591H129.763L127.958 107.615ZM173.839 117.767C173.762 117.995 173.63 118.114 173.513 118.172C173.4 118.229 173.301 118.232 173.194 118.194L169.584 128.241C175.588 130.398 181.967 127.066 183.954 121.183L173.839 117.767ZM188.968 72.9769L173.839 117.767L183.954 121.183L199.083 76.3932L188.968 72.9769ZM188.592 71.966C188.708 72.0075 188.839 72.1037 188.933 72.3039C189.027 72.5061 189.047 72.7434 188.968 72.9769L199.083 76.3932C201.046 70.5791 198.124 64.0465 192.202 61.9189L188.592 71.966ZM145.162 56.3636L188.592 71.966L192.202 61.9189L148.771 46.3165L145.162 56.3636ZM144.516 56.7903C144.593 56.5626 144.726 56.443 144.842 56.3849C144.955 56.3287 145.054 56.3249 145.162 56.3636L148.771 46.3165C142.767 44.1595 136.389 47.4908 134.401 53.3739L144.516 56.7903ZM129.387 101.58L144.516 56.7903L134.401 53.3739L119.273 98.164L129.387 101.58ZM129.763 102.591C129.647 102.55 129.516 102.454 129.423 102.253C129.328 102.051 129.308 101.814 129.387 101.58L119.273 98.164C117.309 103.978 120.231 110.511 126.154 112.638L129.763 102.591ZM173.194 118.194L129.763 102.591L126.154 112.638L169.584 128.241L173.194 118.194ZM160.052 87.3398C160.052 87.6696 159.932 87.8804 159.844 87.9755C159.803 88.0212 159.78 88.0281 159.795 88.0215C159.815 88.0122 159.852 88.0019 159.89 88.0019V98.6777C166.304 98.6777 170.728 93.1548 170.728 87.3398H160.052ZM159.89 86.6777C159.852 86.6777 159.815 86.6673 159.795 86.6581C159.78 86.6514 159.803 86.6584 159.844 86.7041C159.932 86.7992 160.052 87.01 160.052 87.3398H170.728C170.728 81.5248 166.304 76.0019 159.89 76.0019V86.6777ZM159.728 87.3398C159.728 87.01 159.849 86.7992 159.936 86.7041C159.978 86.6584 160 86.6514 159.986 86.6581C159.966 86.6673 159.928 86.6777 159.89 86.6777V76.0019C153.477 76.0019 149.052 81.5247 149.052 87.3398H159.728ZM159.89 88.0019C159.928 88.0019 159.966 88.0122 159.986 88.0215C160 88.0281 159.978 88.0212 159.936 87.9755C159.849 87.8804 159.728 87.6696 159.728 87.3398H149.052C149.052 93.1549 153.477 98.6777 159.89 98.6777V88.0019Z" fill="black" mask="url(#path-1-outside-1_864_1071)"/>
</g>
<g filter="url(#filter1_d_864_1071)">
<mask id="path-3-outside-2_864_1071" maskUnits="userSpaceOnUse" x="0" y="51" width="88" height="91" fill="black">
<rect fill="white" y="51" width="88" height="91"/>
<path fill-rule="evenodd" clip-rule="evenodd" d="M43.2189 58.4363C45.7062 56.2687 49.4263 56.591 51.5281 59.1562L81.2118 95.3838C83.3136 97.9489 83.0011 101.786 80.5138 103.953L45.3856 134.566C42.8984 136.733 39.1782 136.411 37.0764 133.846L7.39271 97.6184C5.29094 95.0533 5.60344 91.2167 8.09072 89.0491L43.2189 58.4363ZM68.4904 103.404C66.2518 105.355 62.9037 105.065 61.0121 102.756C59.1205 100.448 59.4017 96.9947 61.6403 95.0438C63.8789 93.093 67.227 93.3831 69.1186 95.6917C71.0102 98.0003 70.729 101.453 68.4904 103.404ZM21.0121 97.7562C22.9037 100.065 26.2518 100.355 28.4904 98.4041C30.729 96.4532 31.0102 93.0003 29.1186 90.6917C27.227 88.3831 23.8789 88.093 21.6403 90.0438C19.4018 91.9946 19.1205 95.4476 21.0121 97.7562Z"/>
</mask>
<path fill-rule="evenodd" clip-rule="evenodd" d="M43.2189 58.4363C45.7062 56.2687 49.4263 56.591 51.5281 59.1562L81.2118 95.3838C83.3136 97.9489 83.0011 101.786 80.5138 103.953L45.3856 134.566C42.8984 136.733 39.1782 136.411 37.0764 133.846L7.39271 97.6184C5.29094 95.0533 5.60344 91.2167 8.09072 89.0491L43.2189 58.4363ZM68.4904 103.404C66.2518 105.355 62.9037 105.065 61.0121 102.756C59.1205 100.448 59.4017 96.9947 61.6403 95.0438C63.8789 93.093 67.227 93.3831 69.1186 95.6917C71.0102 98.0003 70.729 101.453 68.4904 103.404ZM21.0121 97.7562C22.9037 100.065 26.2518 100.355 28.4904 98.4041C30.729 96.4532 31.0102 93.0003 29.1186 90.6917C27.227 88.3831 23.8789 88.093 21.6403 90.0438C19.4018 91.9946 19.1205 95.4476 21.0121 97.7562Z" fill="white"/>
<path d="M51.5281 59.1562L47.3992 62.5392L47.3992 62.5392L51.5281 59.1562ZM43.2189 58.4363L39.7119 54.4121L39.7119 54.4121L43.2189 58.4363ZM81.2118 95.3838L85.3407 92.0007L81.2118 95.3838ZM80.5138 103.953L84.0208 107.977L80.5138 103.953ZM45.3856 134.566L41.8787 130.542L41.8787 130.542L45.3856 134.566ZM37.0764 133.846L32.9475 137.229H32.9475L37.0764 133.846ZM7.39271 97.6184L11.5216 94.2353V94.2353L7.39271 97.6184ZM8.09072 89.0491L11.5977 93.0733H11.5977L8.09072 89.0491ZM61.0121 102.756L65.141 99.3731L65.141 99.3731L61.0121 102.756ZM68.4904 103.404L64.9835 99.3798L68.4904 103.404ZM61.6403 95.0438L65.1473 99.0681L61.6403 95.0438ZM69.1186 95.6917L73.2475 92.3086V92.3086L69.1186 95.6917ZM28.4904 98.4041L24.9835 94.3798H24.9835L28.4904 98.4041ZM21.0121 97.7562L25.141 94.3731H25.141L21.0121 97.7562ZM29.1186 90.6917L24.9897 94.0748H24.9897L29.1186 90.6917ZM21.6403 90.0438L25.1473 94.0681L25.1473 94.0681L21.6403 90.0438ZM55.657 55.7731C51.6637 50.8995 44.49 50.2482 39.7119 54.4121L46.7258 62.4605C46.8488 62.3533 46.959 62.3309 47.0573 62.3394C47.1568 62.348 47.2787 62.3922 47.3992 62.5392L55.657 55.7731ZM85.3407 92.0007L55.657 55.7731L47.3992 62.5392L77.0829 98.7669L85.3407 92.0007ZM84.0208 107.977C88.7016 103.898 89.2552 96.7782 85.3407 92.0007L77.0829 98.7669C77.2104 98.9224 77.2836 99.1363 77.2634 99.3842C77.2433 99.6317 77.1387 99.8139 77.0069 99.9289L84.0208 107.977ZM48.8926 138.59L84.0208 107.977L77.0069 99.9289L41.8787 130.542L48.8926 138.59ZM32.9475 137.229C36.9408 142.103 44.1145 142.754 48.8926 138.59L41.8787 130.542C41.7557 130.649 41.6456 130.671 41.5472 130.663C41.4478 130.654 41.3258 130.61 41.2053 130.463L32.9475 137.229ZM3.26382 101.001L32.9475 137.229L41.2053 130.463L11.5216 94.2353L3.26382 101.001ZM4.58377 85.0249C-0.0970287 89.104 -0.650681 96.224 3.26382 101.001L11.5216 94.2353C11.3942 94.0798 11.3209 93.8659 11.3411 93.618C11.3612 93.3705 11.4658 93.1882 11.5977 93.0733L4.58377 85.0249ZM39.7119 54.4121L4.58377 85.0249L11.5977 93.0733L46.7258 62.4605L39.7119 54.4121ZM56.8832 106.139C60.6663 110.756 67.468 111.375 71.9974 107.428L64.9835 99.3798C64.9751 99.3872 64.9859 99.3764 65.0136 99.3675C65.0378 99.3598 65.0614 99.3577 65.0819 99.3595C65.1023 99.3612 65.1209 99.3669 65.1363 99.375C65.155 99.3847 65.1555 99.3908 65.141 99.3731L56.8832 106.139ZM58.1334 91.0196C53.7013 94.882 53.1789 101.618 56.8832 106.139L65.141 99.3731C65.1186 99.3458 65.0901 99.292 65.0977 99.1992C65.1052 99.1068 65.1397 99.0746 65.1473 99.0681L58.1334 91.0196ZM73.2475 92.3086C69.4644 87.6915 62.6627 87.0725 58.1334 91.0196L65.1473 99.0681C65.1557 99.0607 65.1449 99.0715 65.1171 99.0804C65.0929 99.0881 65.0693 99.0902 65.0489 99.0884C65.0284 99.0867 65.0098 99.081 64.9944 99.0729C64.9758 99.0632 64.9752 99.0571 64.9897 99.0748L73.2475 92.3086ZM71.9973 107.428C76.4294 103.566 76.9519 96.8296 73.2475 92.3086L64.9897 99.0748C65.0121 99.1021 65.0406 99.1559 65.0331 99.2487C65.0255 99.3411 64.991 99.3733 64.9835 99.3798L71.9973 107.428ZM24.9835 94.3798C24.9751 94.3872 24.9859 94.3764 25.0137 94.3675C25.0378 94.3598 25.0614 94.3577 25.0819 94.3595C25.1023 94.3612 25.1209 94.3669 25.1363 94.375C25.155 94.3847 25.1555 94.3908 25.141 94.3731L16.8832 101.139C20.6663 105.756 27.468 106.375 31.9974 102.428L24.9835 94.3798ZM24.9897 94.0748C25.0121 94.1021 25.0406 94.1559 25.0331 94.2487C25.0255 94.3411 24.991 94.3733 24.9835 94.3798L31.9974 102.428C36.4294 98.5659 36.9518 91.8296 33.2475 87.3086L24.9897 94.0748ZM25.1473 94.0681C25.1557 94.0607 25.1449 94.0715 25.1171 94.0804C25.0929 94.0881 25.0693 94.0902 25.0489 94.0884C25.0284 94.0867 25.0098 94.081 24.9944 94.0729C24.9758 94.0632 24.9752 94.0571 24.9897 94.0748L33.2475 87.3086C29.4644 82.6915 22.6628 82.0724 18.1334 86.0196L25.1473 94.0681ZM25.141 94.3731C25.1187 94.3458 25.0901 94.292 25.0977 94.1992C25.1052 94.1067 25.1397 94.0746 25.1473 94.0681L18.1334 86.0196C13.7013 89.882 13.1789 96.6183 16.8832 101.139L25.141 94.3731Z" fill="black" mask="url(#path-3-outside-2_864_1071)"/>
</g>
<g filter="url(#filter2_d_864_1071)">
<mask id="path-5-outside-3_864_1071" maskUnits="userSpaceOnUse" x="61" y="9" width="82" height="84" fill="black">
<rect fill="white" x="61" y="9" width="82" height="84"/>
<path fill-rule="evenodd" clip-rule="evenodd" d="M71.0813 29.9091C67.9833 30.9437 66.2852 34.3724 67.2884 37.5674L81.4566 82.6903C82.4598 85.8853 85.7844 87.6366 88.8825 86.6021L132.636 71.9904C135.734 70.9558 137.432 67.527 136.429 64.3321L122.261 19.2091C121.258 16.0141 117.933 14.2628 114.835 15.2974L71.0813 29.9091ZM117.403 29.9894C118.201 32.9205 116.471 35.943 113.54 36.7405C110.609 37.538 107.587 35.8085 106.789 32.8774C105.992 29.9464 107.721 26.9239 110.652 26.1264C113.583 25.3289 116.606 27.0584 117.403 29.9894ZM104.495 56.8198C107.426 56.0223 109.155 52.9997 108.358 50.0687C107.56 47.1377 104.538 45.4082 101.607 46.2057C98.6756 47.0032 96.946 50.0257 97.7436 52.9567C98.5411 55.8878 101.564 57.6173 104.495 56.8198ZM92.2917 76.7218C95.2228 75.9243 96.9523 72.9018 96.1548 69.9707C95.3573 67.0397 92.3348 65.3102 89.4037 66.1077C86.4727 66.9052 84.7432 69.9277 85.5407 72.8587C86.3382 75.7898 89.3607 77.5193 92.2917 76.7218Z"/>
</mask>
<path fill-rule="evenodd" clip-rule="evenodd" d="M71.0813 29.9091C67.9833 30.9437 66.2852 34.3724 67.2884 37.5674L81.4566 82.6903C82.4598 85.8853 85.7844 87.6366 88.8825 86.6021L132.636 71.9904C135.734 70.9558 137.432 67.527 136.429 64.3321L122.261 19.2091C121.258 16.0141 117.933 14.2628 114.835 15.2974L71.0813 29.9091ZM117.403 29.9894C118.201 32.9205 116.471 35.943 113.54 36.7405C110.609 37.538 107.587 35.8085 106.789 32.8774C105.992 29.9464 107.721 26.9239 110.652 26.1264C113.583 25.3289 116.606 27.0584 117.403 29.9894ZM104.495 56.8198C107.426 56.0223 109.155 52.9997 108.358 50.0687C107.56 47.1377 104.538 45.4082 101.607 46.2057C98.6756 47.0032 96.946 50.0257 97.7436 52.9567C98.5411 55.8878 101.564 57.6173 104.495 56.8198ZM92.2917 76.7218C95.2228 75.9243 96.9523 72.9018 96.1548 69.9707C95.3573 67.0397 92.3348 65.3102 89.4037 66.1077C86.4727 66.9052 84.7432 69.9277 85.5407 72.8587C86.3382 75.7898 89.3607 77.5193 92.2917 76.7218Z" fill="white"/>
<path d="M67.2884 37.5674L72.3811 35.9683L67.2884 37.5674ZM71.0813 29.9091L69.3905 24.846H69.3905L71.0813 29.9091ZM81.4566 82.6903L86.5493 81.0913H86.5493L81.4566 82.6903ZM88.8825 86.6021L90.5733 91.6651H90.5733L88.8825 86.6021ZM132.636 71.9904L130.945 66.9274L132.636 71.9904ZM136.429 64.3321L131.336 65.9312V65.9312L136.429 64.3321ZM122.261 19.2091L117.168 20.8082V20.8082L122.261 19.2091ZM114.835 15.2974L116.526 20.3604V20.3604L114.835 15.2974ZM113.54 36.7405L114.942 41.8911L114.942 41.8911L113.54 36.7405ZM117.403 29.9894L122.554 28.588V28.588L117.403 29.9894ZM106.789 32.8774L101.638 34.2789V34.2789L106.789 32.8774ZM110.652 26.1264L112.054 31.277L110.652 26.1264ZM108.358 50.0687L113.508 48.6673L113.508 48.6673L108.358 50.0687ZM104.495 56.8198L103.093 51.6692L103.093 51.6692L104.495 56.8198ZM101.607 46.2057L103.008 51.3563H103.008L101.607 46.2057ZM96.1548 69.9707L101.305 68.5693L96.1548 69.9707ZM92.2917 76.7218L90.8903 71.5712L90.8903 71.5712L92.2917 76.7218ZM89.4037 66.1077L90.8052 71.2583H90.8052L89.4037 66.1077ZM72.3811 35.9683C72.3067 35.7314 72.3323 35.495 72.4303 35.2972C72.5272 35.1014 72.6579 35.0102 72.7722 34.9721L69.3905 24.846C63.4167 26.841 60.3574 33.3121 62.1956 39.1664L72.3811 35.9683ZM86.5493 81.0913L72.3811 35.9683L62.1956 39.1664L76.3638 84.2894L86.5493 81.0913ZM87.1916 81.539C87.0849 81.5747 86.9857 81.5696 86.8717 81.5096C86.754 81.4475 86.622 81.3227 86.5493 81.0913L76.3638 84.2894C78.2226 90.2091 84.5216 93.686 90.5733 91.6651L87.1916 81.539ZM130.945 66.9274L87.1916 81.539L90.5733 91.6651L134.327 77.0534L130.945 66.9274ZM131.336 65.9312C131.411 66.168 131.385 66.4044 131.287 66.6023C131.19 66.798 131.059 66.8892 130.945 66.9274L134.327 77.0534C140.301 75.0584 143.36 68.5874 141.522 62.733L131.336 65.9312ZM117.168 20.8082L131.336 65.9312L141.522 62.733L127.354 17.61L117.168 20.8082ZM116.526 20.3604C116.632 20.3248 116.732 20.3298 116.846 20.3899C116.963 20.4519 117.095 20.5768 117.168 20.8082L127.354 17.61C125.495 11.6903 119.196 8.21338 113.144 10.2344L116.526 20.3604ZM72.7722 34.9721L116.526 20.3604L113.144 10.2344L69.3905 24.846L72.7722 34.9721ZM114.942 41.8911C120.717 40.3196 124.125 34.3636 122.554 28.588L112.253 31.3909C112.261 31.422 112.26 31.4401 112.259 31.453C112.256 31.4697 112.25 31.4912 112.237 31.514C112.224 31.5367 112.209 31.5531 112.195 31.5635C112.185 31.5716 112.17 31.5814 112.139 31.5899L114.942 41.8911ZM101.638 34.2789C103.21 40.0545 109.166 43.4626 114.942 41.8911L112.139 31.5899C112.108 31.5983 112.09 31.5976 112.077 31.5958C112.06 31.5936 112.038 31.5872 112.016 31.5742C111.993 31.5611 111.976 31.5458 111.966 31.5326C111.958 31.5223 111.948 31.5071 111.94 31.476L101.638 34.2789ZM109.251 20.9758C103.475 22.5473 100.067 28.5033 101.638 34.2789L111.94 31.476C111.931 31.4449 111.932 31.4268 111.934 31.4139C111.936 31.3972 111.942 31.3757 111.955 31.3529C111.968 31.3302 111.984 31.3137 111.997 31.3033C112.007 31.2953 112.022 31.2855 112.054 31.277L109.251 20.9758ZM122.554 28.588C120.982 22.8124 115.026 19.4042 109.251 20.9758L112.054 31.277C112.085 31.2685 112.103 31.2693 112.116 31.271C112.132 31.2733 112.154 31.2797 112.177 31.2927C112.199 31.3057 112.216 31.3211 112.226 31.3343C112.234 31.3446 112.244 31.3598 112.253 31.3909L122.554 28.588ZM103.207 51.4702C103.215 51.5013 103.215 51.5194 103.213 51.5323C103.211 51.549 103.204 51.5705 103.191 51.5932C103.178 51.616 103.163 51.6324 103.15 51.6428C103.14 51.6509 103.124 51.6607 103.093 51.6692L105.896 61.9704C111.672 60.3989 115.08 54.4429 113.508 48.6673L103.207 51.4702ZM103.008 51.3563C103.039 51.3478 103.057 51.3486 103.07 51.3503C103.087 51.3526 103.108 51.359 103.131 51.372C103.154 51.385 103.17 51.4003 103.181 51.4136C103.189 51.4238 103.199 51.439 103.207 51.4702L113.508 48.6673C111.937 42.8916 105.981 39.4835 100.205 41.055L103.008 51.3563ZM102.894 51.5553C102.886 51.5242 102.886 51.5061 102.888 51.4932C102.89 51.4765 102.897 51.455 102.91 51.4322C102.923 51.4094 102.938 51.393 102.951 51.3826C102.962 51.3746 102.977 51.3648 103.008 51.3563L100.205 41.055C94.4295 42.6265 91.0214 48.5825 92.5929 54.3582L102.894 51.5553ZM103.093 51.6692C103.062 51.6776 103.044 51.6769 103.031 51.6751C103.014 51.6729 102.993 51.6665 102.97 51.6534C102.947 51.6404 102.931 51.6251 102.921 51.6119C102.912 51.6016 102.903 51.5864 102.894 51.5553L92.5929 54.3582C94.1644 60.1338 100.12 63.5419 105.896 61.9704L103.093 51.6692ZM91.0042 71.3722C91.0126 71.4033 91.0119 71.4214 91.0101 71.4343C91.0079 71.451 91.0015 71.4725 90.9885 71.4953C90.9754 71.518 90.9601 71.5344 90.9469 71.5448C90.9366 71.5529 90.9214 71.5627 90.8903 71.5712L93.6932 81.8724C99.4688 80.3009 102.877 74.3449 101.305 68.5693L91.0042 71.3722ZM90.8052 71.2583C90.8363 71.2498 90.8544 71.2506 90.8673 71.2523C90.884 71.2546 90.9055 71.261 90.9283 71.274C90.951 71.287 90.9674 71.3023 90.9778 71.3156C90.9859 71.3258 90.9957 71.3411 91.0042 71.3722L101.305 68.5693C99.7339 62.7936 93.7779 59.3855 88.0023 60.9571L90.8052 71.2583ZM90.6913 71.4573C90.6828 71.4262 90.6836 71.4081 90.6853 71.3952C90.6876 71.3785 90.694 71.357 90.707 71.3342C90.72 71.3115 90.7354 71.295 90.7486 71.2846C90.7588 71.2766 90.7741 71.2668 90.8052 71.2583L88.0023 60.9571C82.2267 62.5285 78.8185 68.4845 80.3901 74.2602L90.6913 71.4573ZM90.8903 71.5712C90.8592 71.5796 90.8411 71.5789 90.8282 71.5771C90.8115 71.5749 90.79 71.5685 90.7672 71.5554C90.7445 71.5424 90.728 71.5271 90.7176 71.5138C90.7096 71.5036 90.6998 71.4884 90.6913 71.4573L80.3901 74.2602C81.9616 80.0359 87.9176 83.4439 93.6932 81.8724L90.8903 71.5712Z" fill="black" mask="url(#path-5-outside-3_864_1071)"/>
</g>
<defs>
<filter id="filter0_d_864_1071" x="118.664" y="45.6565" width="86.3644" height="88.5821" filterUnits="userSpaceOnUse" color-interpolation-filters="sRGB">
<feFlood flood-opacity="0" result="BackgroundImageFix"/>
<feColorMatrix in="SourceAlpha" type="matrix" values="0 0 0 0 0 0 0 0 0 0 0 0 0 0 0 0 0 0 127 0" result="hardAlpha"/>
<feOffset dx="5.33788" dy="5.33788"/>
<feColorMatrix type="matrix" values="0 0 0 0 0 0 0 0 0 0 0 0 0 0 0 0 0 0 1 0"/>
<feBlend mode="normal" in2="BackgroundImageFix" result="effect1_dropShadow_864_1071"/>
<feBlend mode="normal" in="SourceGraphic" in2="effect1_dropShadow_864_1071" result="shape"/>
</filter>
<filter id="filter1_d_864_1071" x="0.662354" y="51.6616" width="92.6177" height="95.0168" filterUnits="userSpaceOnUse" color-interpolation-filters="sRGB">
<feFlood flood-opacity="0" result="BackgroundImageFix"/>
<feColorMatrix in="SourceAlpha" type="matrix" values="0 0 0 0 0 0 0 0 0 0 0 0 0 0 0 0 0 0 127 0" result="hardAlpha"/>
<feOffset dx="5.33788" dy="5.33788"/>
<feColorMatrix type="matrix" values="0 0 0 0 0 0 0 0 0 0 0 0 0 0 0 0 0 0 1 0"/>
<feBlend mode="normal" in2="BackgroundImageFix" result="effect1_dropShadow_864_1071"/>
<feBlend mode="normal" in="SourceGraphic" in2="effect1_dropShadow_864_1071" result="shape"/>
</filter>
<filter id="filter2_d_864_1071" x="61.6642" y="9.65662" width="85.7267" height="87.9241" filterUnits="userSpaceOnUse" color-interpolation-filters="sRGB">
<feFlood flood-opacity="0" result="BackgroundImageFix"/>
<feColorMatrix in="SourceAlpha" type="matrix" values="0 0 0 0 0 0 0 0 0 0 0 0 0 0 0 0 0 0 127 0" result="hardAlpha"/>
<feOffset dx="5.33788" dy="5.33788"/>
<feColorMatrix type="matrix" values="0 0 0 0 0 0 0 0 0 0 0 0 0 0 0 0 0 0 1 0"/>
<feBlend mode="normal" in2="BackgroundImageFix" result="effect1_dropShadow_864_1071"/>
<feBlend mode="normal" in="SourceGraphic" in2="effect1_dropShadow_864_1071" result="shape"/>
</filter>
</defs>
</svg>
