<svg width="371" height="47" viewBox="0 0 371 47" fill="none" xmlns="http://www.w3.org/2000/svg">
<path d="M23 0H46.375H92.75H185.5H371V23.5L347.812 47H324.625H278.25H185.5H0V23.5L23 0Z" fill="#7952B3"/>
<path d="M72.3049 13.62H85.7029V16.238H72.3049V13.62ZM79.7409 21.078L81.6769 19.45C83.0849 20.836 85.2189 22.816 86.2309 24.026L84.1849 25.896C83.2389 24.642 81.1929 22.574 79.7409 21.078ZM78.9049 14.368L81.5449 15.204C79.5209 19.56 76.2869 23.52 72.8769 25.94C72.4809 25.39 71.4909 24.29 70.8969 23.806C74.2409 21.716 77.2329 18.218 78.9049 14.368ZM77.2329 18.24L78.5089 16.964L79.9609 17.426V29.328H77.2329V18.24ZM70.9409 19.626V29.592H68.2789V22.222H65.7709V19.626H70.9409ZM66.5849 13.884L68.6529 12.388C69.7749 13.488 71.2489 15.028 71.9529 16.062L69.7309 17.756C69.1149 16.7 67.7069 15.05 66.5849 13.884ZM69.5989 27.744C70.3689 27.744 70.9409 28.404 72.2609 29.13C73.7569 30.032 75.8249 30.186 78.3769 30.186C80.7529 30.186 84.4049 29.966 86.6929 29.614C86.3629 30.362 85.9229 31.77 85.8789 32.54C84.2729 32.65 80.5989 32.804 78.2449 32.804C75.3409 32.804 73.4709 32.518 71.8209 31.616C70.8089 31.022 70.0389 30.318 69.5329 30.318C68.8949 30.318 67.9489 31.836 67.1569 33.178L65.2429 30.516C66.8049 28.822 68.4549 27.744 69.5989 27.744ZM87.7329 14.984H107.357V17.448H87.7329V14.984ZM93.6729 22.904H103.243V25.104H93.6729V22.904ZM91.7149 19.186H102.847V21.496H94.3329V32.958H91.7149V19.186ZM102.319 19.186H104.893V30.12C104.893 31.418 104.651 32.144 103.749 32.562C102.869 32.958 101.615 32.98 99.8329 32.98C99.7229 32.254 99.3709 31.132 99.0189 30.45C100.163 30.516 101.461 30.494 101.835 30.494C102.187 30.494 102.319 30.384 102.319 30.076V19.186ZM94.5529 12.3L97.2809 12.916C95.7409 17.888 93.1009 22.948 88.8109 25.94C88.4369 25.346 87.6009 24.4 87.0729 23.894C90.9889 21.32 93.4529 16.59 94.5529 12.3ZM93.6729 26.534H103.243V28.734H93.6729V26.534ZM109.365 14.148H128.681V16.392H109.365V14.148ZM117.527 12.278H120.255V15.27H117.527V12.278ZM110.245 23.036H126.327V25.214H112.819V33.002H110.245V23.036ZM125.337 23.036H127.999V30.208C127.999 31.418 127.757 32.122 126.899 32.518C126.063 32.914 124.897 32.958 123.313 32.958C123.225 32.21 122.851 31.154 122.499 30.472C123.489 30.516 124.611 30.516 124.919 30.494C125.249 30.494 125.337 30.406 125.337 30.142V23.036ZM114.799 26.226H117.087V32.166H114.799V26.226ZM115.943 26.226H123.247V31.154H115.943V29.394H120.915V27.986H115.943V26.226ZM115.481 19.01V20.33H122.411V19.01H115.481ZM112.973 17.25H125.073V22.112H112.973V17.25ZM146.749 12.278L148.663 14.456C144.131 15.622 137.795 16.172 132.405 16.348C132.339 15.688 132.009 14.61 131.767 14.038C137.069 13.818 143.141 13.246 146.749 12.278ZM131.965 18.526H149.367V21.056H131.965V18.526ZM130.447 23.652H150.665V26.226H130.447V23.652ZM139.203 15.38H141.953V29.834C141.953 31.396 141.557 32.1 140.501 32.496C139.445 32.914 137.839 32.98 135.595 32.958C135.419 32.21 134.913 31.022 134.517 30.34C136.145 30.406 137.993 30.384 138.499 30.384C139.005 30.384 139.203 30.23 139.203 29.79V15.38ZM160.351 25.346C159.889 21.892 164.575 21.122 164.575 18.988C164.575 17.646 163.519 16.898 161.781 16.898C160.439 16.898 159.339 17.514 158.261 18.636L156.457 16.986C157.865 15.358 159.801 14.28 162.155 14.28C165.345 14.28 167.677 15.776 167.677 18.702C167.677 21.914 162.859 22.31 163.211 25.346H160.351ZM161.803 31.22C160.659 31.22 159.845 30.406 159.845 29.262C159.845 28.118 160.681 27.326 161.803 27.326C162.903 27.326 163.739 28.118 163.739 29.262C163.739 30.406 162.903 31.22 161.803 31.22ZM183.545 19.67C182.379 19.67 181.433 18.79 181.433 17.602C181.433 16.392 182.379 15.512 183.545 15.512C184.689 15.512 185.635 16.392 185.635 17.602C185.635 18.79 184.689 19.67 183.545 19.67ZM183.545 30.164C182.379 30.164 181.433 29.284 181.433 28.096C181.433 26.886 182.379 26.006 183.545 26.006C184.689 26.006 185.635 26.886 185.635 28.096C185.635 29.284 184.689 30.164 183.545 30.164ZM195.277 13.62H214.813V15.952H195.277V13.62ZM200.073 12.322H202.691V17.382H200.073V12.322ZM207.311 12.322H209.951V17.382H207.311V12.322ZM195.409 22.86H214.681V25.236H195.409V22.86ZM203.681 20.572H206.277V32.958H203.681V20.572ZM202.999 24.29L205.089 25.126C203.109 28.228 199.809 30.846 196.355 32.21C195.981 31.572 195.189 30.56 194.595 30.032C197.961 28.954 201.305 26.732 202.999 24.29ZM207.113 24.29C208.829 26.71 212.129 28.888 215.451 29.944C214.857 30.494 214.043 31.528 213.625 32.254C210.237 30.868 207.003 28.184 205.023 25.126L207.113 24.29ZM195.695 17.844H214.395V22.156H211.777V20.11H198.203V22.156H195.695V17.844ZM224.103 21.386H236.291V23.806H224.103V21.386ZM231.319 18.878L233.123 17.668C234.069 18.372 235.191 19.45 235.675 20.242L233.761 21.584C233.321 20.814 232.265 19.67 231.319 18.878ZM231.055 22.794C231.891 26.424 233.629 29.416 236.753 30.758C236.181 31.242 235.411 32.232 235.081 32.892C231.715 31.132 229.977 27.656 228.987 23.168L231.055 22.794ZM216.755 13.84H236.335V16.216H216.755V13.84ZM221.485 12.322H224.103V17.69H221.485V12.322ZM229.053 12.322H231.671V17.47H229.053V12.322ZM228.657 17.888H231.121V21.298C231.121 24.906 230.395 29.68 225.291 33.024C224.829 32.474 223.971 31.77 223.333 31.308C228.063 28.228 228.657 24.18 228.657 21.276V17.888ZM217.261 18.79L218.977 17.448C223.223 19.978 223.817 23.146 223.817 26.424C223.817 28.844 223.531 30.868 222.519 31.968C222.189 32.342 221.727 32.584 221.199 32.672C220.363 32.87 219.505 32.87 218.449 32.826C218.427 32.1 218.185 31.22 217.745 30.56C218.823 30.626 219.615 30.626 220.077 30.56C220.407 30.538 220.583 30.428 220.759 30.208C221.221 29.636 221.397 28.294 221.397 26.248C221.397 23.366 220.583 20.814 217.261 18.79ZM221.089 23.234L222.849 24.312C221.705 25.984 219.505 27.898 217.701 28.954C217.349 28.36 216.711 27.524 216.161 27.04C217.943 26.292 220.055 24.686 221.089 23.234ZM222.167 17.756L224.301 18.922C222.651 20.814 220.121 22.53 217.745 23.63C217.393 23.102 216.667 22.31 216.183 21.87C218.493 20.924 220.825 19.296 222.167 17.756ZM245.303 15V31H241.92V18.2109H241.826L238.162 20.5078V17.5078L242.123 15H245.303ZM254.879 31.3516C253.535 31.3464 252.379 31.0156 251.41 30.3594C250.447 29.7031 249.704 28.7526 249.184 27.5078C248.668 26.263 248.413 24.7656 248.418 23.0156C248.418 21.2708 248.676 19.7839 249.191 18.5547C249.712 17.3255 250.454 16.3906 251.418 15.75C252.387 15.1042 253.54 14.7812 254.879 14.7812C256.217 14.7812 257.368 15.1042 258.332 15.75C259.301 16.3958 260.046 17.3333 260.566 18.5625C261.087 19.7865 261.345 21.2708 261.34 23.0156C261.34 24.7708 261.079 26.2708 260.559 27.5156C260.043 28.7604 259.303 29.7109 258.34 30.3672C257.376 31.0234 256.223 31.3516 254.879 31.3516ZM254.879 28.5469C255.796 28.5469 256.527 28.0859 257.074 27.1641C257.621 26.2422 257.892 24.8594 257.887 23.0156C257.887 21.8021 257.762 20.7917 257.512 19.9844C257.267 19.1771 256.918 18.5703 256.465 18.1641C256.017 17.7578 255.488 17.5547 254.879 17.5547C253.967 17.5547 253.238 18.0104 252.691 18.9219C252.145 19.8333 251.868 21.1979 251.863 23.0156C251.863 24.2448 251.986 25.2708 252.23 26.0937C252.48 26.9115 252.832 27.526 253.285 27.9375C253.738 28.3437 254.27 28.5469 254.879 28.5469ZM271.305 12.41L274.055 12.894C273.197 16.81 271.701 20.484 269.897 22.816C269.347 22.398 268.093 21.694 267.389 21.386C269.281 19.34 270.623 15.908 271.305 12.41ZM275.375 18.592H276.739V21.012C276.739 23.41 278.059 28.206 283.493 30.582C282.987 31.22 282.195 32.32 281.777 32.98C277.839 31.176 275.771 27.282 275.353 25.302C274.825 27.282 272.581 31.044 268.115 32.98C267.807 32.364 266.971 31.242 266.509 30.758C272.471 28.382 273.945 23.52 273.945 21.012V18.592H275.375ZM262.549 27.612C263.781 26.424 265.761 24.4 267.587 22.398L269.083 24.664C267.565 26.446 265.761 28.382 264.243 29.878L262.549 27.612ZM263.187 15.622L265.057 13.686C266.377 14.544 268.159 15.864 269.017 16.81L267.015 18.988C266.245 18.02 264.529 16.59 263.187 15.622ZM272.251 16.128H281.271V18.746H270.953L272.251 16.128ZM280.391 16.128H280.787L281.293 15.974L283.251 17.118C282.613 19.34 281.557 21.628 280.699 23.19C280.149 22.904 279.093 22.354 278.455 22.112C279.159 20.77 280.061 18.438 280.391 16.7V16.128ZM286.117 15.38H302.925V17.998H286.117V15.38ZM284.533 20.528H304.377V23.19H284.533V20.528ZM293.179 12.344H295.973V31.088H293.179V12.344ZM299.823 24.444H302.573V32.98H299.823V24.444ZM286.359 24.488H289.175V29.394H301.737V31.968H286.359V24.488ZM306.143 13.4H318.089V16.15H306.143V13.4ZM317.165 13.4H319.871C319.783 23.388 320.641 29.812 323.589 29.79C324.095 29.768 324.293 28.382 324.359 26.028C324.975 26.644 325.723 27.348 326.339 27.678C326.053 31.374 325.305 32.562 323.501 32.562C318.111 32.562 317.209 24.972 317.165 13.4ZM323.523 14.764L325.899 16.04C324.095 18.02 321.785 20.132 319.959 21.474L318.023 20.264C319.827 18.878 322.137 16.59 323.523 14.764ZM318.375 21.518L319.629 19.648C321.719 20.594 324.689 22.134 326.119 23.234L324.777 25.368C323.413 24.224 320.531 22.574 318.375 21.518Z" fill="#D9D9D9"/>
</svg>
