<svg width="371" height="47" viewBox="0 0 371 47" fill="none" xmlns="http://www.w3.org/2000/svg">
<path d="M23 0H46.375H92.75H185.5H371V23.5L347.812 47H324.625H278.25H185.5H0V23.5L23 0Z" fill="url(#paint0_linear_3999_750)"/>
<path d="M67.0109 16.258H85.6229V34.166H82.8289V18.81H69.6729V34.342H67.0109V16.258ZM68.4189 30.36H84.3029V32.912H68.4189V30.36ZM77.0429 18.106H79.5949V24.2C79.5949 24.53 79.6169 24.728 79.6829 24.794C79.7489 24.86 79.8809 24.904 80.0349 24.904C80.1669 24.904 80.4309 24.904 80.6069 24.904C80.7609 24.904 80.9369 24.882 81.0249 24.838C81.1129 24.772 81.2009 24.662 81.2449 24.354C81.3109 24.068 81.3329 23.408 81.3549 22.572C81.7949 22.99 82.6969 23.452 83.3569 23.672C83.2909 24.53 83.2029 25.498 83.0269 25.938C82.8509 26.356 82.5649 26.642 82.1469 26.84C81.7949 26.994 81.2009 27.082 80.7609 27.082C80.3649 27.082 79.7049 27.082 79.3309 27.082C78.7589 27.082 78.0769 26.906 77.6589 26.51C77.2409 26.136 77.0429 25.652 77.0429 24.156V18.106ZM72.5989 18.062H75.1729C74.9969 22.594 74.4909 26.18 71.3009 28.38C70.9709 27.742 70.2449 26.84 69.6509 26.4C72.2469 24.662 72.4669 21.758 72.5989 18.062ZM92.6909 21.626V31.658H90.1389V24.046H87.6529V21.626H92.6909ZM88.3349 15.818L90.3589 14.498C91.4369 15.664 92.8009 17.314 93.4169 18.392L91.2609 19.888C90.7109 18.788 89.3909 17.072 88.3349 15.818ZM91.3489 29.744C92.1189 29.744 92.6909 30.404 94.0109 31.13C95.5069 32.032 97.5749 32.186 100.127 32.186C102.503 32.186 106.155 31.966 108.443 31.614C108.113 32.362 107.673 33.77 107.629 34.54C106.023 34.65 102.349 34.804 99.9949 34.804C97.0909 34.804 95.2209 34.518 93.5709 33.616C92.5589 33.022 91.7889 32.318 91.2829 32.318C90.6449 32.318 89.7209 33.836 88.9509 35.178L87.0369 32.516C88.5769 30.822 90.2269 29.744 91.3489 29.744ZM100.193 19.492H102.921V31.68H100.193V19.492ZM93.7469 26.092H107.629V28.556H93.7469V26.092ZM93.9449 16.5H107.387V18.766H93.9449V16.5ZM95.0229 24.464V22.418L96.3429 21.67H106.705L106.683 24.112H97.1789C96.2109 24.112 95.2209 24.244 95.0229 24.464ZM95.0229 24.464C94.8909 23.936 94.4509 22.682 94.1649 22C94.6269 21.868 94.9789 21.384 95.4189 20.614C95.8589 19.866 97.1349 16.984 97.8169 14.3L100.567 15.026C99.6209 17.908 98.1689 20.966 96.8269 23.034V23.078C96.8269 23.078 95.0229 23.98 95.0229 24.464ZM119.185 15.136H127.809V17.336H119.185V15.136ZM121.737 16.016L124.201 16.148C123.849 19.602 122.573 21.868 120.307 23.298C119.889 22.88 118.833 22.088 118.283 21.78C120.505 20.68 121.517 18.766 121.737 16.016ZM126.423 15.136H128.931C128.931 15.136 128.931 15.752 128.909 16.038C128.777 19.734 128.557 21.318 128.051 21.956C127.633 22.44 127.149 22.616 126.555 22.704C126.005 22.77 125.103 22.77 124.113 22.748C124.069 22.066 123.827 21.12 123.475 20.526C124.245 20.614 124.905 20.614 125.235 20.614C125.521 20.614 125.719 20.57 125.895 20.394C126.159 20.042 126.313 18.81 126.423 15.466V15.136ZM109.769 16.566H118.547V18.854H109.769V16.566ZM109.263 20.878H118.921V23.21H109.263V20.878ZM114.411 25.608H118.657V27.896H114.411V25.608ZM112.981 14.344H115.401V22.088H112.981V14.344ZM113.399 22.264H115.731V32.01H113.399V22.264ZM111.903 26.598C113.069 31.218 115.577 31.9 120.263 31.9C121.935 31.922 127.853 31.922 129.855 31.812C129.437 32.406 128.997 33.638 128.843 34.43H120.263C114.389 34.43 111.529 33.33 110.011 27.148L111.903 26.598ZM109.945 24.332L112.255 24.464C112.211 28.666 111.925 32.472 110.737 34.958C110.297 34.65 109.197 34.056 108.625 33.814C109.769 31.636 109.923 28.094 109.945 24.332ZM122.221 25.718V28.446H125.785V25.718H122.221ZM119.757 23.606H128.425V30.558H119.757V23.606ZM135.757 15.224H144.953V17.864H135.757V15.224ZM134.547 15.224H137.319V22C137.319 26.004 136.659 31.79 132.391 35.134C131.973 34.606 130.873 33.616 130.279 33.242C134.217 30.162 134.547 25.542 134.547 21.978V15.224ZM143.633 15.224H146.339V30.602C146.339 31.702 146.405 31.856 146.867 31.856C147.087 31.856 147.923 31.856 148.143 31.856C148.693 31.856 148.781 30.998 148.869 27.698C149.485 28.204 150.585 28.71 151.311 28.886C151.091 32.868 150.497 34.408 148.429 34.408C148.011 34.408 146.779 34.408 146.383 34.408C144.293 34.408 143.633 33.55 143.633 30.58V15.224ZM137.187 22.484L139.167 20.944C140.531 22.506 142.555 24.684 143.501 26.004L141.345 27.83C140.487 26.444 138.573 24.156 137.187 22.484ZM162.295 21.67C161.129 21.67 160.183 20.79 160.183 19.602C160.183 18.392 161.129 17.512 162.295 17.512C163.439 17.512 164.385 18.392 164.385 19.602C164.385 20.79 163.439 21.67 162.295 21.67ZM162.295 32.164C161.129 32.164 160.183 31.284 160.183 30.096C160.183 28.886 161.129 28.006 162.295 28.006C163.439 28.006 164.385 28.886 164.385 30.096C164.385 31.284 163.439 32.164 162.295 32.164ZM184.213 17.138H191.715V19.712H184.213V17.138ZM173.719 15.554H184.829V17.996H173.719V15.554ZM176.623 20.108H181.925V22.462H176.623V20.108ZM176.623 24.684H181.925V27.038H176.623V24.684ZM190.989 17.138H191.451L191.913 17.072L193.629 17.49C192.771 26.4 189.889 31.812 184.917 34.848C184.521 34.166 183.773 33.176 183.179 32.67C187.557 30.382 190.263 24.97 190.989 17.71V17.138ZM186.787 19.778C187.865 25.498 190.219 30.36 194.443 32.648C193.849 33.154 193.035 34.166 192.617 34.848C187.997 32.054 185.643 26.906 184.257 20.262L186.787 19.778ZM175.237 16.566H177.745V30.954H175.237V16.566ZM180.891 16.566H183.443V34.98H180.891V16.566ZM173.213 29.986C175.391 29.744 178.669 29.304 181.771 28.864L181.925 31.262C179.065 31.768 176.007 32.252 173.697 32.604L173.213 29.986ZM205.735 19.646V20.768H211.477V19.646H205.735ZM205.735 16.808V17.908H211.477V16.808H205.735ZM203.183 14.96H214.139V22.616H203.183V14.96ZM202.083 23.584H214.865V25.74H202.083V23.584ZM201.511 26.994H215.305V29.238H201.511V26.994ZM209.629 25.476H212.291V32.362C212.291 33.572 212.071 34.21 211.213 34.584C210.399 34.958 209.299 34.98 207.781 34.98C207.671 34.254 207.297 33.286 206.967 32.626C207.891 32.67 208.925 32.67 209.211 32.648C209.541 32.626 209.629 32.56 209.629 32.296V25.476ZM202.985 30.316L204.811 29.084C205.757 29.942 206.923 31.174 207.495 31.988L205.515 33.396C205.031 32.56 203.887 31.262 202.985 30.316ZM199.971 19.184L202.281 20.152C200.675 22.858 198.101 25.762 195.791 27.566C195.615 26.994 194.955 25.498 194.559 24.86C196.495 23.496 198.651 21.318 199.971 19.184ZM199.377 14.344L201.885 15.356C200.411 17.402 198.167 19.558 196.099 20.9C195.813 20.306 195.197 19.228 194.779 18.678C196.495 17.622 198.453 15.818 199.377 14.344ZM197.793 24.09L200.235 21.648L200.345 21.714V34.98H197.793V24.09ZM224.053 17V33H220.67V20.2109H220.576L216.912 22.5078V19.5078L220.873 17H224.053ZM233.629 33.3516C232.285 33.3464 231.129 33.0156 230.16 32.3594C229.197 31.7031 228.454 30.7526 227.934 29.5078C227.418 28.263 227.163 26.7656 227.168 25.0156C227.168 23.2708 227.426 21.7839 227.941 20.5547C228.462 19.3255 229.204 18.3906 230.168 17.75C231.137 17.1042 232.29 16.7812 233.629 16.7812C234.967 16.7812 236.118 17.1042 237.082 17.75C238.051 18.3958 238.796 19.3333 239.316 20.5625C239.837 21.7865 240.095 23.2708 240.09 25.0156C240.09 26.7708 239.829 28.2708 239.309 29.5156C238.793 30.7604 238.053 31.7109 237.09 32.3672C236.126 33.0234 234.973 33.3516 233.629 33.3516ZM233.629 30.5469C234.546 30.5469 235.277 30.0859 235.824 29.1641C236.371 28.2422 236.642 26.8594 236.637 25.0156C236.637 23.8021 236.512 22.7917 236.262 21.9844C236.017 21.1771 235.668 20.5703 235.215 20.1641C234.767 19.7578 234.238 19.5547 233.629 19.5547C232.717 19.5547 231.988 20.0104 231.441 20.9219C230.895 21.8333 230.618 23.1979 230.613 25.0156C230.613 26.2448 230.736 27.2708 230.98 28.0937C231.23 28.9115 231.582 29.526 232.035 29.9375C232.488 30.3437 233.02 30.5469 233.629 30.5469ZM250.055 14.41L252.805 14.894C251.947 18.81 250.451 22.484 248.647 24.816C248.097 24.398 246.843 23.694 246.139 23.386C248.031 21.34 249.373 17.908 250.055 14.41ZM254.125 20.592H255.489V23.012C255.489 25.41 256.809 30.206 262.243 32.582C261.737 33.22 260.945 34.32 260.527 34.98C256.589 33.176 254.521 29.282 254.103 27.302C253.575 29.282 251.331 33.044 246.865 34.98C246.557 34.364 245.721 33.242 245.259 32.758C251.221 30.382 252.695 25.52 252.695 23.012V20.592H254.125ZM241.299 29.612C242.531 28.424 244.511 26.4 246.337 24.398L247.833 26.664C246.315 28.446 244.511 30.382 242.993 31.878L241.299 29.612ZM241.937 17.622L243.807 15.686C245.127 16.544 246.909 17.864 247.767 18.81L245.765 20.988C244.995 20.02 243.279 18.59 241.937 17.622ZM251.001 18.128H260.021V20.746H249.703L251.001 18.128ZM259.141 18.128H259.537L260.043 17.974L262.001 19.118C261.363 21.34 260.307 23.628 259.449 25.19C258.899 24.904 257.843 24.354 257.205 24.112C257.909 22.77 258.811 20.438 259.141 18.7V18.128ZM265.131 15.092H269.619V17.468H265.131V15.092ZM264.977 20.108H269.069V22.506H264.977V20.108ZM264.977 25.234H269.091V27.676H264.977V25.234ZM263.877 15.092H266.231V23.078C266.231 26.598 266.033 31.724 264.713 34.98C264.273 34.606 263.173 34.012 262.579 33.814C263.789 30.778 263.877 26.334 263.877 23.1V15.092ZM268.255 15.092H270.675V32.054C270.675 33.176 270.499 33.924 269.839 34.342C269.179 34.782 268.321 34.848 267.023 34.848C266.957 34.166 266.671 33 266.341 32.34C267.023 32.362 267.705 32.362 267.925 32.362C268.167 32.34 268.255 32.252 268.255 31.988V15.092ZM272.677 15.466L275.141 15.906C274.613 19.162 273.645 22.418 272.435 24.508C271.973 24.134 270.851 23.474 270.257 23.188C271.467 21.34 272.237 18.37 272.677 15.466ZM276.109 14.608H278.683V33.55H276.109V14.608ZM272.105 25.366H282.643V27.808H272.105V25.366ZM271.203 31.944H283.523V34.452H271.203V31.944ZM273.469 19.03H282.973V21.516H272.479L273.469 19.03ZM284.651 20.856H295.211V23.298H284.651V20.856ZM296.267 16.984H298.841V29.348H296.267V16.984ZM288.853 16.5H291.449V34.958H288.853V16.5ZM301.481 14.74H304.099V31.746C304.099 33.308 303.791 34.034 302.889 34.474C301.965 34.892 300.513 34.98 298.489 34.98C298.357 34.21 297.939 33 297.565 32.252C299.017 32.296 300.425 32.296 300.887 32.296C301.305 32.296 301.481 32.164 301.481 31.746V14.74ZM293.275 14.41L295.167 16.434C292.373 17.534 288.501 18.282 285.179 18.744C285.069 18.15 284.695 17.226 284.387 16.676C287.599 16.192 291.141 15.378 293.275 14.41ZM288.831 22.022L290.613 22.792C289.513 26.092 287.577 30.03 285.509 32.23C285.245 31.438 284.585 30.338 284.145 29.634C286.037 27.808 287.951 24.596 288.831 22.022ZM291.053 24.244C291.911 24.794 294.639 27.082 295.277 27.654L293.781 29.92C292.813 28.732 290.767 26.598 289.689 25.608L291.053 24.244Z" fill="#501818"/>
<defs>
<linearGradient id="paint0_linear_3999_750" x1="185.5" y1="0" x2="185.5" y2="47" gradientUnits="userSpaceOnUse">
<stop offset="0.9999" stop-color="#FCECDD"/>
<stop offset="1" stop-color="#078AD4"/>
</linearGradient>
</defs>
</svg>
