<svg width="371" height="47" viewBox="0 0 371 47" fill="none" xmlns="http://www.w3.org/2000/svg">
<path d="M23 0H46.375H92.75H185.5H371V23.5L347.812 47H324.625H278.25H185.5H0V23.5L23 0Z" fill="url(#paint0_linear_3999_749)"/>
<path d="M65.5289 14.324H82.5569V16.942H65.5289V14.324ZM64.2529 29.306H83.9869V31.924H64.2529V29.306ZM71.6449 15.248H74.6589C73.7789 20.528 72.4809 27.04 71.5349 30.978H68.5429C69.6429 26.886 70.9409 20.352 71.6449 15.248ZM66.2549 20.77H80.5329V30.538H77.8049V23.366H66.2549V20.77ZM90.4829 19.626V29.658H87.9309V22.046H85.4449V19.626H90.4829ZM86.1269 13.818L88.1509 12.498C89.2289 13.664 90.5929 15.314 91.2089 16.392L89.0529 17.888C88.5029 16.788 87.1829 15.072 86.1269 13.818ZM89.1409 27.744C89.9109 27.744 90.4829 28.404 91.8029 29.13C93.2989 30.032 95.3669 30.186 97.9189 30.186C100.295 30.186 103.947 29.966 106.235 29.614C105.905 30.362 105.465 31.77 105.421 32.54C103.815 32.65 100.141 32.804 97.7869 32.804C94.8829 32.804 93.0129 32.518 91.3629 31.616C90.3509 31.022 89.5809 30.318 89.0749 30.318C88.4369 30.318 87.5129 31.836 86.7429 33.178L84.8289 30.516C86.3689 28.822 88.0189 27.744 89.1409 27.744ZM97.9849 17.492H100.713V29.68H97.9849V17.492ZM91.5389 24.092H105.421V26.556H91.5389V24.092ZM91.7369 14.5H105.179V16.766H91.7369V14.5ZM92.8149 22.464V20.418L94.1349 19.67H104.497L104.475 22.112H94.9709C94.0029 22.112 93.0129 22.244 92.8149 22.464ZM92.8149 22.464C92.6829 21.936 92.2429 20.682 91.9569 20C92.4189 19.868 92.7709 19.384 93.2109 18.614C93.6509 17.866 94.9269 14.984 95.6089 12.3L98.3589 13.026C97.4129 15.908 95.9609 18.966 94.6189 21.034V21.078C94.6189 21.078 92.8149 21.98 92.8149 22.464ZM107.473 27.282C107.363 26.82 106.967 25.698 106.703 25.06C107.253 24.928 107.759 24.466 108.463 23.652C109.211 22.86 111.521 19.846 112.973 16.854L115.041 18.174C113.369 21.034 111.191 23.96 109.057 26.05V26.116C109.057 26.116 107.473 26.842 107.473 27.282ZM107.473 27.282L107.319 25.28L108.419 24.51L114.755 23.432C114.667 24.092 114.645 25.082 114.689 25.61C108.969 26.71 108.045 26.952 107.473 27.282ZM107.407 21.914C107.275 21.408 106.879 20.198 106.571 19.538C107.033 19.406 107.429 18.944 107.913 18.218C108.419 17.514 109.937 14.742 110.751 12.146L113.171 13.29C112.071 15.886 110.399 18.68 108.793 20.616V20.682C108.793 20.682 107.407 21.474 107.407 21.914ZM107.407 21.914L107.341 20.044L108.441 19.318L112.797 18.966C112.665 19.648 112.533 20.594 112.533 21.122C108.661 21.518 107.891 21.694 107.407 21.914ZM106.747 29.504C108.749 29.13 111.873 28.47 114.843 27.81L115.085 29.988C112.335 30.714 109.431 31.418 107.187 32.012L106.747 29.504ZM119.815 19.516H122.037V25.214H119.815V19.516ZM118.539 14.346H123.093V16.612H117.417L118.539 14.346ZM122.719 14.346H123.313L123.797 14.192L125.381 15.336C124.501 16.964 123.269 18.9 122.147 20.11C121.817 19.648 121.113 18.944 120.717 18.614C121.487 17.602 122.345 15.886 122.719 14.808V14.346ZM115.591 18.658H118.011V29.152C118.011 30.186 118.231 30.362 119.551 30.362C120.167 30.362 122.895 30.362 123.621 30.362C124.743 30.362 124.941 29.9 125.073 27.59C125.645 27.986 126.657 28.382 127.339 28.536C127.009 31.682 126.305 32.65 123.797 32.65C123.137 32.65 119.947 32.65 119.309 32.65C116.471 32.65 115.591 31.924 115.591 29.152V18.658ZM118.187 12.146L120.607 12.828C119.507 15.6 117.703 18.394 115.921 20.132C115.481 19.692 114.513 18.856 113.941 18.482C115.679 16.964 117.285 14.544 118.187 12.146ZM117.241 23.96H123.841V20.88H117.241V18.658H126.261V26.204H117.241V23.96ZM128.379 17.624H148.839V20.176H128.379V17.624ZM132.933 29.042H148.047V31.572H132.933V29.042ZM138.367 23.652H144.021V26.116H138.367V23.652ZM131.547 12.982H134.275V32.98H131.547V12.982ZM137.267 12.52H139.929V27.018H137.267V12.52ZM142.877 12.74H145.539V26.974H142.877V12.74ZM160.087 19.67C158.921 19.67 157.975 18.79 157.975 17.602C157.975 16.392 158.921 15.512 160.087 15.512C161.231 15.512 162.177 16.392 162.177 17.602C162.177 18.79 161.231 19.67 160.087 19.67ZM160.087 30.164C158.921 30.164 157.975 29.284 157.975 28.096C157.975 26.886 158.921 26.006 160.087 26.006C161.231 26.006 162.177 26.886 162.177 28.096C162.177 29.284 161.231 30.164 160.087 30.164ZM182.005 15.138H189.507V17.712H182.005V15.138ZM171.511 13.554H182.621V15.996H171.511V13.554ZM174.415 18.108H179.717V20.462H174.415V18.108ZM174.415 22.684H179.717V25.038H174.415V22.684ZM188.781 15.138H189.243L189.705 15.072L191.421 15.49C190.563 24.4 187.681 29.812 182.709 32.848C182.313 32.166 181.565 31.176 180.971 30.67C185.349 28.382 188.055 22.97 188.781 15.71V15.138ZM184.579 17.778C185.657 23.498 188.011 28.36 192.235 30.648C191.641 31.154 190.827 32.166 190.409 32.848C185.789 30.054 183.435 24.906 182.049 18.262L184.579 17.778ZM173.029 14.566H175.537V28.954H173.029V14.566ZM178.683 14.566H181.235V32.98H178.683V14.566ZM171.005 27.986C173.183 27.744 176.461 27.304 179.563 26.864L179.717 29.262C176.857 29.768 173.799 30.252 171.489 30.604L171.005 27.986ZM203.527 17.646V18.768H209.269V17.646H203.527ZM203.527 14.808V15.908H209.269V14.808H203.527ZM200.975 12.96H211.931V20.616H200.975V12.96ZM199.875 21.584H212.657V23.74H199.875V21.584ZM199.303 24.994H213.097V27.238H199.303V24.994ZM207.421 23.476H210.083V30.362C210.083 31.572 209.863 32.21 209.005 32.584C208.191 32.958 207.091 32.98 205.573 32.98C205.463 32.254 205.089 31.286 204.759 30.626C205.683 30.67 206.717 30.67 207.003 30.648C207.333 30.626 207.421 30.56 207.421 30.296V23.476ZM200.777 28.316L202.603 27.084C203.549 27.942 204.715 29.174 205.287 29.988L203.307 31.396C202.823 30.56 201.679 29.262 200.777 28.316ZM197.763 17.184L200.073 18.152C198.467 20.858 195.893 23.762 193.583 25.566C193.407 24.994 192.747 23.498 192.351 22.86C194.287 21.496 196.443 19.318 197.763 17.184ZM197.169 12.344L199.677 13.356C198.203 15.402 195.959 17.558 193.891 18.9C193.605 18.306 192.989 17.228 192.571 16.678C194.287 15.622 196.245 13.818 197.169 12.344ZM195.585 22.09L198.027 19.648L198.137 19.714V32.98H195.585V22.09ZM220.728 31.2187C219.623 31.2187 218.639 31.0156 217.774 30.6094C216.915 30.2031 216.233 29.6432 215.728 28.9297C215.222 28.2161 214.959 27.3984 214.938 26.4766H218.22C218.256 27.0964 218.517 27.599 219.001 27.9844C219.485 28.3698 220.061 28.5625 220.728 28.5625C221.259 28.5625 221.728 28.4453 222.134 28.2109C222.545 27.9714 222.866 27.6406 223.095 27.2188C223.329 26.7917 223.446 26.3021 223.446 25.75C223.446 25.1875 223.326 24.6927 223.087 24.2656C222.853 23.8385 222.527 23.5052 222.11 23.2656C221.694 23.026 221.217 22.9036 220.681 22.8984C220.212 22.8984 219.756 22.9948 219.313 23.1875C218.876 23.3802 218.535 23.6432 218.29 23.9766L215.282 23.4375L216.04 15H225.821V17.7656H218.829L218.415 21.7734H218.509C218.79 21.3776 219.215 21.0495 219.782 20.7891C220.35 20.5286 220.985 20.3984 221.688 20.3984C222.652 20.3984 223.511 20.625 224.267 21.0781C225.022 21.5312 225.618 22.1536 226.056 22.9453C226.493 23.7318 226.709 24.638 226.704 25.6641C226.709 26.7422 226.459 27.7005 225.954 28.5391C225.454 29.3724 224.754 30.0286 223.853 30.5078C222.957 30.9818 221.915 31.2187 220.728 31.2187ZM234.837 31.3516C233.493 31.3464 232.337 31.0156 231.368 30.3594C230.405 29.7031 229.662 28.7526 229.142 27.5078C228.626 26.263 228.371 24.7656 228.376 23.0156C228.376 21.2708 228.634 19.7839 229.149 18.5547C229.67 17.3255 230.412 16.3906 231.376 15.75C232.345 15.1042 233.498 14.7812 234.837 14.7812C236.175 14.7812 237.326 15.1042 238.29 15.75C239.259 16.3958 240.004 17.3333 240.524 18.5625C241.045 19.7865 241.303 21.2708 241.298 23.0156C241.298 24.7708 241.037 26.2708 240.517 27.5156C240.001 28.7604 239.261 29.7109 238.298 30.3672C237.334 31.0234 236.181 31.3516 234.837 31.3516ZM234.837 28.5469C235.754 28.5469 236.485 28.0859 237.032 27.1641C237.579 26.2422 237.85 24.8594 237.845 23.0156C237.845 21.8021 237.72 20.7917 237.47 19.9844C237.225 19.1771 236.876 18.5703 236.423 18.1641C235.975 17.7578 235.446 17.5547 234.837 17.5547C233.925 17.5547 233.196 18.0104 232.649 18.9219C232.103 19.8333 231.826 21.1979 231.821 23.0156C231.821 24.2448 231.944 25.2708 232.188 26.0937C232.438 26.9115 232.79 27.526 233.243 27.9375C233.696 28.3437 234.228 28.5469 234.837 28.5469ZM251.263 12.41L254.013 12.894C253.155 16.81 251.659 20.484 249.855 22.816C249.305 22.398 248.051 21.694 247.347 21.386C249.239 19.34 250.581 15.908 251.263 12.41ZM255.333 18.592H256.697V21.012C256.697 23.41 258.017 28.206 263.451 30.582C262.945 31.22 262.153 32.32 261.735 32.98C257.797 31.176 255.729 27.282 255.311 25.302C254.783 27.282 252.539 31.044 248.073 32.98C247.765 32.364 246.929 31.242 246.467 30.758C252.429 28.382 253.903 23.52 253.903 21.012V18.592H255.333ZM242.507 27.612C243.739 26.424 245.719 24.4 247.545 22.398L249.041 24.664C247.523 26.446 245.719 28.382 244.201 29.878L242.507 27.612ZM243.145 15.622L245.015 13.686C246.335 14.544 248.117 15.864 248.975 16.81L246.973 18.988C246.203 18.02 244.487 16.59 243.145 15.622ZM252.209 16.128H261.229V18.746H250.911L252.209 16.128ZM260.349 16.128H260.745L261.251 15.974L263.209 17.118C262.571 19.34 261.515 21.628 260.657 23.19C260.107 22.904 259.051 22.354 258.413 22.112C259.117 20.77 260.019 18.438 260.349 16.7V16.128ZM266.339 13.092H270.827V15.468H266.339V13.092ZM266.185 18.108H270.277V20.506H266.185V18.108ZM266.185 23.234H270.299V25.676H266.185V23.234ZM265.085 13.092H267.439V21.078C267.439 24.598 267.241 29.724 265.921 32.98C265.481 32.606 264.381 32.012 263.787 31.814C264.997 28.778 265.085 24.334 265.085 21.1V13.092ZM269.463 13.092H271.883V30.054C271.883 31.176 271.707 31.924 271.047 32.342C270.387 32.782 269.529 32.848 268.231 32.848C268.165 32.166 267.879 31 267.549 30.34C268.231 30.362 268.913 30.362 269.133 30.362C269.375 30.34 269.463 30.252 269.463 29.988V13.092ZM273.885 13.466L276.349 13.906C275.821 17.162 274.853 20.418 273.643 22.508C273.181 22.134 272.059 21.474 271.465 21.188C272.675 19.34 273.445 16.37 273.885 13.466ZM277.317 12.608H279.891V31.55H277.317V12.608ZM273.313 23.366H283.851V25.808H273.313V23.366ZM272.411 29.944H284.731V32.452H272.411V29.944ZM274.677 17.03H284.181V19.516H273.687L274.677 17.03ZM285.859 18.856H296.419V21.298H285.859V18.856ZM297.475 14.984H300.049V27.348H297.475V14.984ZM290.061 14.5H292.657V32.958H290.061V14.5ZM302.689 12.74H305.307V29.746C305.307 31.308 304.999 32.034 304.097 32.474C303.173 32.892 301.721 32.98 299.697 32.98C299.565 32.21 299.147 31 298.773 30.252C300.225 30.296 301.633 30.296 302.095 30.296C302.513 30.296 302.689 30.164 302.689 29.746V12.74ZM294.483 12.41L296.375 14.434C293.581 15.534 289.709 16.282 286.387 16.744C286.277 16.15 285.903 15.226 285.595 14.676C288.807 14.192 292.349 13.378 294.483 12.41ZM290.039 20.022L291.821 20.792C290.721 24.092 288.785 28.03 286.717 30.23C286.453 29.438 285.793 28.338 285.353 27.634C287.245 25.808 289.159 22.596 290.039 20.022ZM292.261 22.244C293.119 22.794 295.847 25.082 296.485 25.654L294.989 27.92C294.021 26.732 291.975 24.598 290.897 23.608L292.261 22.244Z" fill="#501818"/>
<defs>
<linearGradient id="paint0_linear_3999_749" x1="185.5" y1="0" x2="185.5" y2="47" gradientUnits="userSpaceOnUse">
<stop offset="0.9999" stop-color="#FCECDD"/>
<stop offset="1" stop-color="#078AD4"/>
</linearGradient>
</defs>
</svg>
