<svg width="371" height="47" viewBox="0 0 371 47" fill="none" xmlns="http://www.w3.org/2000/svg">
<path d="M23 0H46.375H92.75H185.5H371V23.5L347.812 47H324.625H278.25H185.5H0V23.5L23 0Z" fill="#7952B3"/>
<path d="M66.1502 20.22H86.1702V22.376H66.1502V20.22ZM71.8482 26.908H80.3842V28.778H71.8482V26.908ZM71.8482 30.274H80.3842V32.32H71.8482V30.274ZM68.0642 17.052H84.2562V19.142H68.0642V17.052ZM67.3382 13.862H84.9822V15.974H67.3382V13.862ZM79.1522 17.734C80.4722 21.232 83.1782 24.268 86.7862 25.676C86.1922 26.204 85.3782 27.216 85.0042 27.876C81.1542 26.094 78.4262 22.706 76.7982 18.438L79.1522 17.734ZM70.2422 23.498H82.1002V32.892H79.3502V25.544H72.8382V32.98H70.2422V23.498ZM74.2022 12.322L76.8862 12.52C76.3362 18.812 73.8502 24.862 67.2942 28.382C66.9862 27.7 66.1942 26.688 65.5782 26.248C71.7382 23.212 73.8502 17.822 74.2022 12.322ZM87.6502 20.22H107.67V22.376H87.6502V20.22ZM93.3482 26.908H101.884V28.778H93.3482V26.908ZM93.3482 30.274H101.884V32.32H93.3482V30.274ZM89.5642 17.052H105.756V19.142H89.5642V17.052ZM88.8382 13.862H106.482V15.974H88.8382V13.862ZM100.652 17.734C101.972 21.232 104.678 24.268 108.286 25.676C107.692 26.204 106.878 27.216 106.504 27.876C102.654 26.094 99.9262 22.706 98.2982 18.438L100.652 17.734ZM91.7422 23.498H103.6V32.892H100.85V25.544H94.3382V32.98H91.7422V23.498ZM95.7022 12.322L98.3862 12.52C97.8362 18.812 95.3502 24.862 88.7942 28.382C88.4862 27.7 87.6942 26.688 87.0782 26.248C93.2382 23.212 95.3502 17.822 95.7022 12.322ZM111.306 15.886H118.06V30.714H111.306V28.382H115.662V18.196H111.306V15.886ZM109.766 15.886H112.164V32.342H109.766V15.886ZM111.196 21.76H116.828V24.048H111.196V21.76ZM112.89 12.3L115.772 12.718C115.266 14.214 114.716 15.776 114.276 16.81L112.164 16.348C112.472 15.204 112.78 13.51 112.89 12.3ZM120.964 15.732H127.388V18.13H120.964V15.732ZM126.486 15.732H128.928C128.928 15.732 128.928 16.59 128.906 16.92C128.62 26.82 128.356 30.318 127.454 31.484C126.838 32.342 126.222 32.584 125.32 32.716C124.484 32.848 123.142 32.826 121.866 32.76C121.822 32.034 121.47 30.912 120.986 30.208C122.416 30.318 123.736 30.34 124.286 30.34C124.726 30.34 124.968 30.252 125.254 29.944C125.958 29.196 126.244 25.412 126.486 16.238V15.732ZM121.03 12.322L123.56 12.916C122.702 16.172 121.272 19.516 119.776 21.628C119.292 21.188 118.214 20.44 117.598 20.088C119.072 18.24 120.326 15.248 121.03 12.322ZM119.952 22.068L122.02 20.902C123.098 22.42 124.55 24.532 125.232 25.83L122.988 27.194C122.394 25.852 121.008 23.696 119.952 22.068ZM130.848 13.4H142.794V16.15H130.848V13.4ZM141.87 13.4H144.576C144.488 23.388 145.346 29.812 148.294 29.79C148.8 29.768 148.998 28.382 149.064 26.028C149.68 26.644 150.428 27.348 151.044 27.678C150.758 31.374 150.01 32.562 148.206 32.562C142.816 32.562 141.914 24.972 141.87 13.4ZM148.228 14.764L150.604 16.04C148.8 18.02 146.49 20.132 144.664 21.474L142.728 20.264C144.532 18.878 146.842 16.59 148.228 14.764ZM143.08 21.518L144.334 19.648C146.424 20.594 149.394 22.134 150.824 23.234L149.482 25.368C148.118 24.224 145.236 22.574 143.08 21.518ZM165.02 25.566V29.68H162.864V25.566H165.02ZM168.892 23.674V32.98H166.516V23.674H168.892ZM172.148 28.602V30.582H160.84V28.602H172.148ZM171.576 24.708V26.732H161.962V24.708H171.576ZM155.89 26.622C156.704 27.194 157.76 28.052 158.266 28.668L156.528 29.834C156.066 29.24 155.054 28.338 154.218 27.722L155.89 26.622ZM160.114 24.796L160.51 24.73L161.918 25.39C160.576 29.548 157.518 31.858 153.866 33.024C153.58 32.496 152.876 31.55 152.414 31.154C155.868 30.252 158.618 28.338 159.652 25.148V24.796H160.114ZM158.42 23.784C157.276 25.918 155.274 27.744 153.272 28.844C152.964 28.448 152.172 27.656 151.71 27.282C153.624 26.38 155.406 24.906 156.33 23.212L158.42 23.784ZM168.914 14.962V22.354H166.494V14.962H168.914ZM165.086 14.962V22.354H162.93V14.962H165.086ZM161.5 14.962V22.354H159.322V14.962H161.5ZM157.98 14.962V22.354H155.582V14.962H157.98ZM171.708 21.386V23.454H152.81V21.386H171.708ZM171.95 17.778V19.89H152.37V17.778H171.95ZM160.378 24.796V26.534H154.768L156.484 24.796H160.378ZM171.004 14.236V16.304H154.394L156.44 14.236H171.004ZM158.53 12.74C157.43 14.566 156.088 16.238 154.196 17.69C153.734 17.184 152.876 16.48 152.26 16.172C153.998 15.05 155.274 13.532 156 12.256L158.53 12.74ZM183.66 19.67C182.494 19.67 181.548 18.79 181.548 17.602C181.548 16.392 182.494 15.512 183.66 15.512C184.804 15.512 185.75 16.392 185.75 17.602C185.75 18.79 184.804 19.67 183.66 19.67ZM183.66 30.164C182.494 30.164 181.548 29.284 181.548 28.096C181.548 26.886 182.494 26.006 183.66 26.006C184.804 26.006 185.75 26.886 185.75 28.096C185.75 29.284 184.804 30.164 183.66 30.164ZM195.392 13.62H214.928V15.952H195.392V13.62ZM200.188 12.322H202.806V17.382H200.188V12.322ZM207.426 12.322H210.066V17.382H207.426V12.322ZM195.524 22.86H214.796V25.236H195.524V22.86ZM203.796 20.572H206.392V32.958H203.796V20.572ZM203.114 24.29L205.204 25.126C203.224 28.228 199.924 30.846 196.47 32.21C196.096 31.572 195.304 30.56 194.71 30.032C198.076 28.954 201.42 26.732 203.114 24.29ZM207.228 24.29C208.944 26.71 212.244 28.888 215.566 29.944C214.972 30.494 214.158 31.528 213.74 32.254C210.352 30.868 207.118 28.184 205.138 25.126L207.228 24.29ZM195.81 17.844H214.51V22.156H211.892V20.11H198.318V22.156H195.81V17.844ZM224.218 21.386H236.406V23.806H224.218V21.386ZM231.434 18.878L233.238 17.668C234.184 18.372 235.306 19.45 235.79 20.242L233.876 21.584C233.436 20.814 232.38 19.67 231.434 18.878ZM231.17 22.794C232.006 26.424 233.744 29.416 236.868 30.758C236.296 31.242 235.526 32.232 235.196 32.892C231.83 31.132 230.092 27.656 229.102 23.168L231.17 22.794ZM216.87 13.84H236.45V16.216H216.87V13.84ZM221.6 12.322H224.218V17.69H221.6V12.322ZM229.168 12.322H231.786V17.47H229.168V12.322ZM228.772 17.888H231.236V21.298C231.236 24.906 230.51 29.68 225.406 33.024C224.944 32.474 224.086 31.77 223.448 31.308C228.178 28.228 228.772 24.18 228.772 21.276V17.888ZM217.376 18.79L219.092 17.448C223.338 19.978 223.932 23.146 223.932 26.424C223.932 28.844 223.646 30.868 222.634 31.968C222.304 32.342 221.842 32.584 221.314 32.672C220.478 32.87 219.62 32.87 218.564 32.826C218.542 32.1 218.3 31.22 217.86 30.56C218.938 30.626 219.73 30.626 220.192 30.56C220.522 30.538 220.698 30.428 220.874 30.208C221.336 29.636 221.512 28.294 221.512 26.248C221.512 23.366 220.698 20.814 217.376 18.79ZM221.204 23.234L222.964 24.312C221.82 25.984 219.62 27.898 217.816 28.954C217.464 28.36 216.826 27.524 216.276 27.04C218.058 26.292 220.17 24.686 221.204 23.234ZM222.282 17.756L224.416 18.922C222.766 20.814 220.236 22.53 217.86 23.63C217.508 23.102 216.782 22.31 216.298 21.87C218.608 20.924 220.94 19.296 222.282 17.756ZM244.301 31.2187C243.197 31.2187 242.212 31.0156 241.348 30.6094C240.488 30.2031 239.806 29.6432 239.301 28.9297C238.796 28.2161 238.533 27.3984 238.512 26.4766H241.793C241.829 27.0964 242.09 27.599 242.574 27.9844C243.059 28.3698 243.634 28.5625 244.301 28.5625C244.832 28.5625 245.301 28.4453 245.707 28.2109C246.118 27.9714 246.439 27.6406 246.668 27.2188C246.902 26.7917 247.02 26.3021 247.02 25.75C247.02 25.1875 246.9 24.6927 246.66 24.2656C246.426 23.8385 246.1 23.5052 245.684 23.2656C245.267 23.026 244.79 22.9036 244.254 22.8984C243.785 22.8984 243.329 22.9948 242.887 23.1875C242.449 23.3802 242.108 23.6432 241.863 23.9766L238.855 23.4375L239.613 15H249.395V17.7656H242.402L241.988 21.7734H242.082C242.363 21.3776 242.788 21.0495 243.355 20.7891C243.923 20.5286 244.559 20.3984 245.262 20.3984C246.225 20.3984 247.085 20.625 247.84 21.0781C248.595 21.5312 249.191 22.1536 249.629 22.9453C250.066 23.7318 250.283 24.638 250.277 25.6641C250.283 26.7422 250.033 27.7005 249.527 28.5391C249.027 29.3724 248.327 30.0286 247.426 30.5078C246.53 30.9818 245.488 31.2187 244.301 31.2187ZM260.19 12.41L262.94 12.894C262.082 16.81 260.586 20.484 258.782 22.816C258.232 22.398 256.978 21.694 256.274 21.386C258.166 19.34 259.508 15.908 260.19 12.41ZM264.26 18.592H265.624V21.012C265.624 23.41 266.944 28.206 272.378 30.582C271.872 31.22 271.08 32.32 270.662 32.98C266.724 31.176 264.656 27.282 264.238 25.302C263.71 27.282 261.466 31.044 257 32.98C256.692 32.364 255.856 31.242 255.394 30.758C261.356 28.382 262.83 23.52 262.83 21.012V18.592H264.26ZM251.434 27.612C252.666 26.424 254.646 24.4 256.472 22.398L257.968 24.664C256.45 26.446 254.646 28.382 253.128 29.878L251.434 27.612ZM252.072 15.622L253.942 13.686C255.262 14.544 257.044 15.864 257.902 16.81L255.9 18.988C255.13 18.02 253.414 16.59 252.072 15.622ZM261.136 16.128H270.156V18.746H259.838L261.136 16.128ZM269.276 16.128H269.672L270.178 15.974L272.136 17.118C271.498 19.34 270.442 21.628 269.584 23.19C269.034 22.904 267.978 22.354 267.34 22.112C268.044 20.77 268.946 18.438 269.276 16.7V16.128ZM275.002 15.38H291.81V17.998H275.002V15.38ZM273.418 20.528H293.262V23.19H273.418V20.528ZM282.064 12.344H284.858V31.088H282.064V12.344ZM288.708 24.444H291.458V32.98H288.708V24.444ZM275.244 24.488H278.06V29.394H290.622V31.968H275.244V24.488ZM295.028 13.4H306.974V16.15H295.028V13.4ZM306.05 13.4H308.756C308.668 23.388 309.526 29.812 312.474 29.79C312.98 29.768 313.178 28.382 313.244 26.028C313.86 26.644 314.608 27.348 315.224 27.678C314.938 31.374 314.19 32.562 312.386 32.562C306.996 32.562 306.094 24.972 306.05 13.4ZM312.408 14.764L314.784 16.04C312.98 18.02 310.67 20.132 308.844 21.474L306.908 20.264C308.712 18.878 311.022 16.59 312.408 14.764ZM307.26 21.518L308.514 19.648C310.604 20.594 313.574 22.134 315.004 23.234L313.662 25.368C312.298 24.224 309.416 22.574 307.26 21.518Z" fill="#D9D9D9"/>
</svg>
