<svg width="371" height="47" viewBox="0 0 371 47" fill="none" xmlns="http://www.w3.org/2000/svg">
<path d="M23 0H46.375H92.75H185.5H371V23.5L347.812 47H324.625H278.25H185.5H0V23.5L23 0Z" fill="url(#paint0_linear_3999_751)"/>
<path d="M73.0282 14.434H89.7922V17.118H73.0282V14.434ZM74.5462 21.518H88.0322V24.18H74.5462V21.518ZM71.7742 28.954H90.9582V31.66H71.7742V28.954ZM97.8062 19.626V29.658H95.2542V22.046H92.7682V19.626H97.8062ZM93.4502 13.818L95.4742 12.498C96.5522 13.664 97.9162 15.314 98.5322 16.392L96.3762 17.888C95.8262 16.788 94.5062 15.072 93.4502 13.818ZM96.4642 27.744C97.2342 27.744 97.8062 28.404 99.1262 29.13C100.622 30.032 102.69 30.186 105.242 30.186C107.618 30.186 111.27 29.966 113.558 29.614C113.228 30.362 112.788 31.77 112.744 32.54C111.138 32.65 107.464 32.804 105.11 32.804C102.206 32.804 100.336 32.518 98.6862 31.616C97.6742 31.022 96.9042 30.318 96.3982 30.318C95.7602 30.318 94.8362 31.836 94.0662 33.178L92.1522 30.516C93.6922 28.822 95.3422 27.744 96.4642 27.744ZM105.308 17.492H108.036V29.68H105.308V17.492ZM98.8622 24.092H112.744V26.556H98.8622V24.092ZM99.0602 14.5H112.502V16.766H99.0602V14.5ZM100.138 22.464V20.418L101.458 19.67H111.82L111.798 22.112H102.294C101.326 22.112 100.336 22.244 100.138 22.464ZM100.138 22.464C100.006 21.936 99.5662 20.682 99.2802 20C99.7422 19.868 100.094 19.384 100.534 18.614C100.974 17.866 102.25 14.984 102.932 12.3L105.682 13.026C104.736 15.908 103.284 18.966 101.942 21.034V21.078C101.942 21.078 100.138 21.98 100.138 22.464ZM114.224 14.434L116.314 13.18C117.546 14.61 119.174 16.59 119.9 17.888L117.634 19.362C116.996 18.042 115.456 15.974 114.224 14.434ZM113.938 30.406C115.016 28.646 116.556 25.764 117.722 23.08L119.724 24.686C118.69 27.128 117.436 29.746 116.226 31.99L113.938 30.406ZM121.264 15.578H132.902V23.366H130.372V18.086H121.264V15.578ZM120.274 22.178H134.728V24.708H120.274V22.178ZM128.722 23.014C129.646 26.578 131.604 29.394 135.036 30.604C134.442 31.132 133.672 32.21 133.276 32.914C129.448 31.286 127.49 28.008 126.324 23.476L128.722 23.014ZM125.246 12.322H128.04V20C128.04 24.488 127.006 29.746 120.846 33.024C120.45 32.452 119.548 31.396 118.888 30.89C124.894 28.206 125.246 23.696 125.246 19.978V12.322ZM137.836 13.092H142.324V15.468H137.836V13.092ZM137.682 18.108H141.774V20.506H137.682V18.108ZM137.682 23.234H141.796V25.676H137.682V23.234ZM136.582 13.092H138.936V21.078C138.936 24.598 138.738 29.724 137.418 32.98C136.978 32.606 135.878 32.012 135.284 31.814C136.494 28.778 136.582 24.334 136.582 21.1V13.092ZM140.96 13.092H143.38V30.054C143.38 31.176 143.204 31.924 142.544 32.342C141.884 32.782 141.026 32.848 139.728 32.848C139.662 32.166 139.376 31 139.046 30.34C139.728 30.362 140.41 30.362 140.63 30.362C140.872 30.34 140.96 30.252 140.96 29.988V13.092ZM145.382 13.466L147.846 13.906C147.318 17.162 146.35 20.418 145.14 22.508C144.678 22.134 143.556 21.474 142.962 21.188C144.172 19.34 144.942 16.37 145.382 13.466ZM148.814 12.608H151.388V31.55H148.814V12.608ZM144.81 23.366H155.348V25.808H144.81V23.366ZM143.908 29.944H156.228V32.452H143.908V29.944ZM146.174 17.03H155.678V19.516H145.184L146.174 17.03ZM167.41 19.67C166.244 19.67 165.298 18.79 165.298 17.602C165.298 16.392 166.244 15.512 167.41 15.512C168.554 15.512 169.5 16.392 169.5 17.602C169.5 18.79 168.554 19.67 167.41 19.67ZM167.41 30.164C166.244 30.164 165.298 29.284 165.298 28.096C165.298 26.886 166.244 26.006 167.41 26.006C168.554 26.006 169.5 26.886 169.5 28.096C169.5 29.284 168.554 30.164 167.41 30.164ZM189.328 15.138H196.83V17.712H189.328V15.138ZM178.834 13.554H189.944V15.996H178.834V13.554ZM181.738 18.108H187.04V20.462H181.738V18.108ZM181.738 22.684H187.04V25.038H181.738V22.684ZM196.104 15.138H196.566L197.028 15.072L198.744 15.49C197.886 24.4 195.004 29.812 190.032 32.848C189.636 32.166 188.888 31.176 188.294 30.67C192.672 28.382 195.378 22.97 196.104 15.71V15.138ZM191.902 17.778C192.98 23.498 195.334 28.36 199.558 30.648C198.964 31.154 198.15 32.166 197.732 32.848C193.112 30.054 190.758 24.906 189.372 18.262L191.902 17.778ZM180.352 14.566H182.86V28.954H180.352V14.566ZM186.006 14.566H188.558V32.98H186.006V14.566ZM178.328 27.986C180.506 27.744 183.784 27.304 186.886 26.864L187.04 29.262C184.18 29.768 181.122 30.252 178.812 30.604L178.328 27.986ZM210.85 17.646V18.768H216.592V17.646H210.85ZM210.85 14.808V15.908H216.592V14.808H210.85ZM208.298 12.96H219.254V20.616H208.298V12.96ZM207.198 21.584H219.98V23.74H207.198V21.584ZM206.626 24.994H220.42V27.238H206.626V24.994ZM214.744 23.476H217.406V30.362C217.406 31.572 217.186 32.21 216.328 32.584C215.514 32.958 214.414 32.98 212.896 32.98C212.786 32.254 212.412 31.286 212.082 30.626C213.006 30.67 214.04 30.67 214.326 30.648C214.656 30.626 214.744 30.56 214.744 30.296V23.476ZM208.1 28.316L209.926 27.084C210.872 27.942 212.038 29.174 212.61 29.988L210.63 31.396C210.146 30.56 209.002 29.262 208.1 28.316ZM205.086 17.184L207.396 18.152C205.79 20.858 203.216 23.762 200.906 25.566C200.73 24.994 200.07 23.498 199.674 22.86C201.61 21.496 203.766 19.318 205.086 17.184ZM204.492 12.344L207 13.356C205.526 15.402 203.282 17.558 201.214 18.9C200.928 18.306 200.312 17.228 199.894 16.678C201.61 15.622 203.568 13.818 204.492 12.344ZM202.908 22.09L205.35 19.648L205.46 19.714V32.98H202.908V22.09ZM228.051 31.2187C226.947 31.2187 225.962 31.0156 225.098 30.6094C224.238 30.2031 223.556 29.6432 223.051 28.9297C222.546 28.2161 222.283 27.3984 222.262 26.4766H225.543C225.579 27.0964 225.84 27.599 226.324 27.9844C226.809 28.3698 227.384 28.5625 228.051 28.5625C228.582 28.5625 229.051 28.4453 229.457 28.2109C229.868 27.9714 230.189 27.6406 230.418 27.2188C230.652 26.7917 230.77 26.3021 230.77 25.75C230.77 25.1875 230.65 24.6927 230.41 24.2656C230.176 23.8385 229.85 23.5052 229.434 23.2656C229.017 23.026 228.54 22.9036 228.004 22.8984C227.535 22.8984 227.079 22.9948 226.637 23.1875C226.199 23.3802 225.858 23.6432 225.613 23.9766L222.605 23.4375L223.363 15H233.145V17.7656H226.152L225.738 21.7734H225.832C226.113 21.3776 226.538 21.0495 227.105 20.7891C227.673 20.5286 228.309 20.3984 229.012 20.3984C229.975 20.3984 230.835 20.625 231.59 21.0781C232.345 21.5312 232.941 22.1536 233.379 22.9453C233.816 23.7318 234.033 24.638 234.027 25.6641C234.033 26.7422 233.783 27.7005 233.277 28.5391C232.777 29.3724 232.077 30.0286 231.176 30.5078C230.28 30.9818 229.238 31.2187 228.051 31.2187ZM243.94 12.41L246.69 12.894C245.832 16.81 244.336 20.484 242.532 22.816C241.982 22.398 240.728 21.694 240.024 21.386C241.916 19.34 243.258 15.908 243.94 12.41ZM248.01 18.592H249.374V21.012C249.374 23.41 250.694 28.206 256.128 30.582C255.622 31.22 254.83 32.32 254.412 32.98C250.474 31.176 248.406 27.282 247.988 25.302C247.46 27.282 245.216 31.044 240.75 32.98C240.442 32.364 239.606 31.242 239.144 30.758C245.106 28.382 246.58 23.52 246.58 21.012V18.592H248.01ZM235.184 27.612C236.416 26.424 238.396 24.4 240.222 22.398L241.718 24.664C240.2 26.446 238.396 28.382 236.878 29.878L235.184 27.612ZM235.822 15.622L237.692 13.686C239.012 14.544 240.794 15.864 241.652 16.81L239.65 18.988C238.88 18.02 237.164 16.59 235.822 15.622ZM244.886 16.128H253.906V18.746H243.588L244.886 16.128ZM253.026 16.128H253.422L253.928 15.974L255.886 17.118C255.248 19.34 254.192 21.628 253.334 23.19C252.784 22.904 251.728 22.354 251.09 22.112C251.794 20.77 252.696 18.438 253.026 16.7V16.128ZM259.016 13.092H263.504V15.468H259.016V13.092ZM258.862 18.108H262.954V20.506H258.862V18.108ZM258.862 23.234H262.976V25.676H258.862V23.234ZM257.762 13.092H260.116V21.078C260.116 24.598 259.918 29.724 258.598 32.98C258.158 32.606 257.058 32.012 256.464 31.814C257.674 28.778 257.762 24.334 257.762 21.1V13.092ZM262.14 13.092H264.56V30.054C264.56 31.176 264.384 31.924 263.724 32.342C263.064 32.782 262.206 32.848 260.908 32.848C260.842 32.166 260.556 31 260.226 30.34C260.908 30.362 261.59 30.362 261.81 30.362C262.052 30.34 262.14 30.252 262.14 29.988V13.092ZM266.562 13.466L269.026 13.906C268.498 17.162 267.53 20.418 266.32 22.508C265.858 22.134 264.736 21.474 264.142 21.188C265.352 19.34 266.122 16.37 266.562 13.466ZM269.994 12.608H272.568V31.55H269.994V12.608ZM265.99 23.366H276.528V25.808H265.99V23.366ZM265.088 29.944H277.408V32.452H265.088V29.944ZM267.354 17.03H276.858V19.516H266.364L267.354 17.03ZM278.536 18.856H289.096V21.298H278.536V18.856ZM290.152 14.984H292.726V27.348H290.152V14.984ZM282.738 14.5H285.334V32.958H282.738V14.5ZM295.366 12.74H297.984V29.746C297.984 31.308 297.676 32.034 296.774 32.474C295.85 32.892 294.398 32.98 292.374 32.98C292.242 32.21 291.824 31 291.45 30.252C292.902 30.296 294.31 30.296 294.772 30.296C295.19 30.296 295.366 30.164 295.366 29.746V12.74ZM287.16 12.41L289.052 14.434C286.258 15.534 282.386 16.282 279.064 16.744C278.954 16.15 278.58 15.226 278.272 14.676C281.484 14.192 285.026 13.378 287.16 12.41ZM282.716 20.022L284.498 20.792C283.398 24.092 281.462 28.03 279.394 30.23C279.13 29.438 278.47 28.338 278.03 27.634C279.922 25.808 281.836 22.596 282.716 20.022ZM284.938 22.244C285.796 22.794 288.524 25.082 289.162 25.654L287.666 27.92C286.698 26.732 284.652 24.598 283.574 23.608L284.938 22.244Z" fill="#501818"/>
<defs>
<linearGradient id="paint0_linear_3999_751" x1="185.5" y1="0" x2="185.5" y2="47" gradientUnits="userSpaceOnUse">
<stop offset="0.9999" stop-color="#FCECDD"/>
<stop offset="1" stop-color="#078AD4"/>
</linearGradient>
</defs>
</svg>
