<svg width="371" height="88" viewBox="0 0 371 88" fill="none" xmlns="http://www.w3.org/2000/svg">
<path d="M23 11H46.375H92.75H185.5H371V44.5L347.812 78H324.625H278.25H185.5H0V44.5L23 11Z" fill="#7952B3"/>
<path d="M89.388 27.528H98.254V29.882H89.388V27.528ZM89.41 31.752H98.276V34.106H89.41V31.752ZM89.212 36.108H99.024V38.55H89.212V36.108ZM93.106 24.074H95.46V37.406H93.106V24.074ZM90.422 23.26H98.76V25.636H90.422V40.024H87.98V24.778L89.432 23.26H90.422ZM89.652 19.388L92.248 20.136C91.082 23.59 89.234 27.44 86.968 30.058C86.726 29.354 86.198 28.122 85.824 27.484C87.518 25.438 88.948 21.984 89.652 19.388ZM92.402 20.356L94.69 19.41C95.328 20.4 95.988 21.72 96.296 22.6L93.898 23.7C93.656 22.798 92.996 21.39 92.402 20.356ZM78.784 21.676H85.208V24.008H78.784V21.676ZM84.46 21.676H84.9L85.34 21.588L86.99 22.138C86.088 29.508 83.69 35.074 79.906 38.352C79.488 37.714 78.696 36.79 78.08 36.35C81.38 33.776 83.756 28.188 84.46 22.248V21.676ZM78.542 26.362L80.302 24.866C82.722 27.946 85.956 32.104 87.32 34.744L85.318 36.592C84.042 33.886 80.962 29.574 78.542 26.362ZM106.114 21.72H120.216V23.854H106.114V21.72ZM111.614 22.754L114.65 22.93C114.21 24.118 113.616 25.306 113.198 26.098L111.064 25.724C111.284 24.844 111.526 23.612 111.614 22.754ZM115.332 19.3L117.994 19.872C117.378 20.84 116.784 21.764 116.3 22.402L114.1 21.852C114.518 21.126 115.068 20.048 115.332 19.3ZM108.16 20.114L110.228 19.344C110.844 20.004 111.46 20.95 111.68 21.61L109.502 22.468C109.304 21.83 108.732 20.818 108.16 20.114ZM105.344 27.902V35.998H102.77V30.344H100.196V27.902H105.344ZM105.344 34.854C106.224 36.306 107.896 36.944 110.184 37.032C112.758 37.142 117.752 37.076 120.722 36.834C120.436 37.45 119.996 38.726 119.886 39.518C117.224 39.65 112.78 39.694 110.14 39.584C107.434 39.474 105.608 38.836 104.178 37.12C103.21 37.978 102.22 38.814 101.032 39.782L99.734 37.032C100.724 36.416 101.912 35.646 102.924 34.854H105.344ZM100.24 21.412L102.198 19.828C103.518 20.752 105.124 22.138 105.894 23.172L103.782 24.91C103.122 23.876 101.538 22.402 100.24 21.412ZM110.096 29.838V30.982H116.102V29.838H110.096ZM110.096 32.742V33.908H116.102V32.742H110.096ZM110.096 26.934V28.078H116.102V26.934H110.096ZM107.61 25.02H118.698V35.822H107.61V25.02ZM134.104 19.41H136.568V34.744H134.104V19.41ZM126.668 28.034L139.736 22.952L140.726 25.24L127.68 30.366L126.668 28.034ZM129.352 21.786H131.97V35.756C131.97 37.076 132.19 37.274 133.642 37.274C134.302 37.274 137.316 37.274 138.086 37.274C139.362 37.274 139.604 36.746 139.802 34.238C140.396 34.656 141.452 35.096 142.2 35.272C141.848 38.572 141.056 39.65 138.284 39.65C137.536 39.65 134.104 39.65 133.422 39.65C130.232 39.65 129.352 38.814 129.352 35.756V21.786ZM138.834 23.392H138.68L139.142 23.062L139.604 22.71L141.408 23.414L141.298 23.81C141.276 27.66 141.254 30.322 141.122 31.268C141.012 32.39 140.616 32.962 139.868 33.292C139.208 33.578 138.174 33.622 137.382 33.6C137.338 32.852 137.096 31.752 136.81 31.18C137.272 31.202 137.91 31.202 138.152 31.202C138.46 31.202 138.614 31.136 138.724 30.696C138.812 30.212 138.834 28.012 138.834 23.392ZM126.052 19.41L128.494 20.18C127.086 23.898 124.798 27.858 122.422 30.366C122.18 29.75 121.476 28.32 121.036 27.682C123.038 25.68 124.93 22.556 126.052 19.41ZM123.83 25.482L126.426 22.908V22.93V39.958H123.83V25.482ZM154.768 37.406L156.506 35.734C158.904 36.526 161.698 37.56 163.348 38.264L161.104 40.002C159.63 39.298 157.166 38.242 154.768 37.406ZM143.438 33.776H163.084V35.954H143.438V33.776ZM144.076 20.906H162.622V23.106H144.076V20.906ZM151.798 19.3H154.592V24.866H151.798V19.3ZM149.202 28.012V28.958H157.54V28.012H149.202ZM149.202 30.41V31.4H157.54V30.41H149.202ZM149.202 25.592V26.516H157.54V25.592H149.202ZM146.65 24.03H160.224V32.94H146.65V24.03ZM149.576 35.866L151.776 37.406C150.038 38.44 147.288 39.496 145.11 40.024C144.67 39.518 143.878 38.704 143.306 38.22C145.528 37.714 148.212 36.724 149.576 35.866ZM166.896 22.886H173.65V37.714H166.896V35.382H171.252V25.196H166.896V22.886ZM165.356 22.886H167.754V39.342H165.356V22.886ZM166.786 28.76H172.418V31.048H166.786V28.76ZM168.48 19.3L171.362 19.718C170.856 21.214 170.306 22.776 169.866 23.81L167.754 23.348C168.062 22.204 168.37 20.51 168.48 19.3ZM176.554 22.732H182.978V25.13H176.554V22.732ZM182.076 22.732H184.518C184.518 22.732 184.518 23.59 184.496 23.92C184.21 33.82 183.946 37.318 183.044 38.484C182.428 39.342 181.812 39.584 180.91 39.716C180.074 39.848 178.732 39.826 177.456 39.76C177.412 39.034 177.06 37.912 176.576 37.208C178.006 37.318 179.326 37.34 179.876 37.34C180.316 37.34 180.558 37.252 180.844 36.944C181.548 36.196 181.834 32.412 182.076 23.238V22.732ZM176.62 19.322L179.15 19.916C178.292 23.172 176.862 26.516 175.366 28.628C174.882 28.188 173.804 27.44 173.188 27.088C174.662 25.24 175.916 22.248 176.62 19.322ZM175.542 29.068L177.61 27.902C178.688 29.42 180.14 31.532 180.822 32.83L178.578 34.194C177.984 32.852 176.598 30.696 175.542 29.068ZM186.526 28.716H206.018V31.048H186.526V28.716ZM196.382 32.698H204.61V34.964H196.382V32.698ZM195.15 29.904H197.812V38.044H195.15V29.904ZM191.74 33.424C192.95 36.636 195.744 37.142 199.594 37.164C200.804 37.186 205.05 37.164 206.634 37.12C206.26 37.692 205.864 38.858 205.732 39.628H199.44C194.38 39.628 191.366 38.726 189.562 34.128L191.74 33.424ZM189.826 31.51L192.466 31.884C191.74 35.514 190.156 38.286 187.714 40.024C187.318 39.54 186.306 38.572 185.734 38.176C187.978 36.79 189.32 34.458 189.826 31.51ZM191.124 24.778V25.878H201.222V24.778H191.124ZM191.124 21.94V23.04H201.222V21.94H191.124ZM188.572 20.07H203.906V27.748H188.572V20.07ZM219.07 28.628C220.324 33.182 223.074 36.284 228.244 37.45C227.628 38.044 226.836 39.232 226.418 40.002C220.808 38.44 218.102 34.854 216.474 29.178L219.07 28.628ZM208.62 27.528H226.946V30.256H208.62V27.528ZM207.938 20.774H227.518V23.502H207.938V20.774ZM216.122 21.5H218.96V26.912C218.96 31.62 217.816 37.318 208.972 40.024C208.686 39.364 207.894 38.198 207.344 37.67C215.198 35.36 216.122 30.608 216.122 26.912V21.5ZM238.15 19.3L240.944 19.278L241.054 36.68C241.076 38.308 240.746 39.034 239.756 39.496C238.788 39.936 237.248 40.002 235.092 40.024C234.96 39.232 234.498 38 234.08 37.274C235.554 37.318 237.16 37.296 237.622 37.296C238.106 37.274 238.282 37.142 238.26 36.702L238.15 19.3ZM229.592 23.26H248.974V25.856H229.592V23.26ZM244.618 26.34L247.236 27.946C243.078 31.686 236.698 34.766 230.252 36.438C229.922 35.734 229.24 34.568 228.8 33.952C234.982 32.544 241.494 29.53 244.618 26.34ZM259.056 32.346C258.594 28.892 263.28 28.122 263.28 25.988C263.28 24.646 262.224 23.898 260.486 23.898C259.144 23.898 258.044 24.514 256.966 25.636L255.162 23.986C256.57 22.358 258.506 21.28 260.86 21.28C264.05 21.28 266.382 22.776 266.382 25.702C266.382 28.914 261.564 29.31 261.916 32.346H259.056ZM260.508 38.22C259.364 38.22 258.55 37.406 258.55 36.262C258.55 35.118 259.386 34.326 260.508 34.326C261.608 34.326 262.444 35.118 262.444 36.262C262.444 37.406 261.608 38.22 260.508 38.22ZM282.25 26.67C281.084 26.67 280.138 25.79 280.138 24.602C280.138 23.392 281.084 22.512 282.25 22.512C283.394 22.512 284.34 23.392 284.34 24.602C284.34 25.79 283.394 26.67 282.25 26.67ZM282.25 37.164C281.084 37.164 280.138 36.284 280.138 35.096C280.138 33.886 281.084 33.006 282.25 33.006C283.394 33.006 284.34 33.886 284.34 35.096C284.34 36.284 283.394 37.164 282.25 37.164ZM121.737 58.322H134.871V59.928H121.737V58.322ZM125.147 60.962L126.489 59.664C130.933 61.754 131.725 65.692 129.789 67.188C129.019 67.826 128.293 68.002 127.347 68.002C126.863 68.002 126.225 68.002 125.609 67.98C125.565 67.386 125.301 66.44 124.949 65.89C125.697 65.956 126.489 65.956 126.929 65.956C127.435 65.956 127.809 65.934 128.117 65.714C129.085 65.054 128.447 62.7 125.147 60.962ZM126.929 60.962L128.227 61.556C126.357 63.14 122.903 64.438 119.911 64.988C119.691 64.592 119.207 63.998 118.877 63.646C121.825 63.228 125.235 62.216 126.929 60.962ZM128.337 62.216L129.833 62.854C127.611 65.296 123.629 67.056 119.647 67.848C119.383 67.364 118.877 66.638 118.481 66.242C122.397 65.67 126.379 64.196 128.337 62.216ZM131.131 58.806C132.165 62.326 134.453 64.812 138.347 65.758C137.841 66.242 137.181 67.144 136.895 67.738C132.649 66.462 130.361 63.558 129.107 59.224L131.131 58.806ZM135.531 60.06L137.313 61.402C135.949 62.304 134.211 63.162 132.913 63.712L131.395 62.458C132.671 61.886 134.475 60.852 135.531 60.06ZM127.765 58.586L129.283 59.268C127.149 60.808 123.365 61.908 120.241 62.546C120.065 62.194 119.603 61.402 119.317 61.05C122.331 60.632 125.939 59.774 127.765 58.586ZM118.503 48.84H138.193V50.666H118.503V48.84ZM126.841 47.322H129.635V50.248H126.841V47.322ZM118.701 55.88H137.995V59.598H135.597V57.596H120.989V59.752H118.701V55.88ZM124.091 52.822V53.812H132.517V52.822H124.091ZM121.451 51.414H135.333V55.22H121.451V51.414ZM150.255 50.138H157.757V52.712H150.255V50.138ZM139.761 48.554H150.871V50.996H139.761V48.554ZM142.665 53.108H147.967V55.462H142.665V53.108ZM142.665 57.684H147.967V60.038H142.665V57.684ZM157.031 50.138H157.493L157.955 50.072L159.671 50.49C158.813 59.4 155.931 64.812 150.959 67.848C150.563 67.166 149.815 66.176 149.221 65.67C153.599 63.382 156.305 57.97 157.031 50.71V50.138ZM152.829 52.778C153.907 58.498 156.261 63.36 160.485 65.648C159.891 66.154 159.077 67.166 158.659 67.848C154.039 65.054 151.685 59.906 150.299 53.262L152.829 52.778ZM141.279 49.566H143.787V63.954H141.279V49.566ZM146.933 49.566H149.485V67.98H146.933V49.566ZM139.255 62.986C141.433 62.744 144.711 62.304 147.813 61.864L147.967 64.262C145.107 64.768 142.049 65.252 139.739 65.604L139.255 62.986ZM167.478 66.2187C166.373 66.2187 165.389 66.0156 164.524 65.6094C163.665 65.2031 162.983 64.6432 162.478 63.9297C161.972 63.2161 161.709 62.3984 161.688 61.4766H164.97C165.006 62.0964 165.267 62.599 165.751 62.9844C166.235 63.3698 166.811 63.5625 167.478 63.5625C168.009 63.5625 168.478 63.4453 168.884 63.2109C169.295 62.9714 169.616 62.6406 169.845 62.2188C170.079 61.7917 170.196 61.3021 170.196 60.75C170.196 60.1875 170.076 59.6927 169.837 59.2656C169.603 58.8385 169.277 58.5052 168.86 58.2656C168.444 58.026 167.967 57.9036 167.431 57.8984C166.962 57.8984 166.506 57.9948 166.063 58.1875C165.626 58.3802 165.285 58.6432 165.04 58.9766L162.032 58.4375L162.79 50H172.571V52.7656H165.579L165.165 56.7734H165.259C165.54 56.3776 165.965 56.0495 166.532 55.7891C167.1 55.5286 167.735 55.3984 168.438 55.3984C169.402 55.3984 170.261 55.625 171.017 56.0781C171.772 56.5312 172.368 57.1536 172.806 57.9453C173.243 58.7318 173.459 59.638 173.454 60.6641C173.459 61.7422 173.209 62.7005 172.704 63.5391C172.204 64.3724 171.504 65.0286 170.603 65.5078C169.707 65.9818 168.665 66.2187 167.478 66.2187ZM181.587 66.3516C180.243 66.3464 179.087 66.0156 178.118 65.3594C177.155 64.7031 176.412 63.7526 175.892 62.5078C175.376 61.263 175.121 59.7656 175.126 58.0156C175.126 56.2708 175.384 54.7839 175.899 53.5547C176.42 52.3255 177.162 51.3906 178.126 50.75C179.095 50.1042 180.248 49.7812 181.587 49.7812C182.925 49.7812 184.076 50.1042 185.04 50.75C186.009 51.3958 186.754 52.3333 187.274 53.5625C187.795 54.7865 188.053 56.2708 188.048 58.0156C188.048 59.7708 187.787 61.2708 187.267 62.5156C186.751 63.7604 186.011 64.7109 185.048 65.3672C184.084 66.0234 182.931 66.3516 181.587 66.3516ZM181.587 63.5469C182.504 63.5469 183.235 63.0859 183.782 62.1641C184.329 61.2422 184.6 59.8594 184.595 58.0156C184.595 56.8021 184.47 55.7917 184.22 54.9844C183.975 54.1771 183.626 53.5703 183.173 53.1641C182.725 52.7578 182.196 52.5547 181.587 52.5547C180.675 52.5547 179.946 53.0104 179.399 53.9219C178.853 54.8333 178.576 56.1979 178.571 58.0156C178.571 59.2448 178.694 60.2708 178.938 61.0937C179.188 61.9115 179.54 62.526 179.993 62.9375C180.446 63.3437 180.978 63.5469 181.587 63.5469ZM198.013 47.41L200.763 47.894C199.905 51.81 198.409 55.484 196.605 57.816C196.055 57.398 194.801 56.694 194.097 56.386C195.989 54.34 197.331 50.908 198.013 47.41ZM202.083 53.592H203.447V56.012C203.447 58.41 204.767 63.206 210.201 65.582C209.695 66.22 208.903 67.32 208.485 67.98C204.547 66.176 202.479 62.282 202.061 60.302C201.533 62.282 199.289 66.044 194.823 67.98C194.515 67.364 193.679 66.242 193.217 65.758C199.179 63.382 200.653 58.52 200.653 56.012V53.592H202.083ZM189.257 62.612C190.489 61.424 192.469 59.4 194.295 57.398L195.791 59.664C194.273 61.446 192.469 63.382 190.951 64.878L189.257 62.612ZM189.895 50.622L191.765 48.686C193.085 49.544 194.867 50.864 195.725 51.81L193.723 53.988C192.953 53.02 191.237 51.59 189.895 50.622ZM198.959 51.128H207.979V53.746H197.661L198.959 51.128ZM207.099 51.128H207.495L208.001 50.974L209.959 52.118C209.321 54.34 208.265 56.628 207.407 58.19C206.857 57.904 205.801 57.354 205.163 57.112C205.867 55.77 206.769 53.438 207.099 51.7V51.128ZM212.825 50.38H229.633V52.998H212.825V50.38ZM211.241 55.528H231.085V58.19H211.241V55.528ZM219.887 47.344H222.681V66.088H219.887V47.344ZM226.531 59.444H229.281V67.98H226.531V59.444ZM213.067 59.488H215.883V64.394H228.445V66.968H213.067V59.488ZM232.851 48.4H244.797V51.15H232.851V48.4ZM243.873 48.4H246.579C246.491 58.388 247.349 64.812 250.297 64.79C250.803 64.768 251.001 63.382 251.067 61.028C251.683 61.644 252.431 62.348 253.047 62.678C252.761 66.374 252.013 67.562 250.209 67.562C244.819 67.562 243.917 59.972 243.873 48.4ZM250.231 49.764L252.607 51.04C250.803 53.02 248.493 55.132 246.667 56.474L244.731 55.264C246.535 53.878 248.845 51.59 250.231 49.764ZM245.083 56.518L246.337 54.648C248.427 55.594 251.397 57.134 252.827 58.234L251.485 60.368C250.121 59.224 247.239 57.574 245.083 56.518Z" fill="#D9D9D9"/>
</svg>
