<svg width="371" height="47" viewBox="0 0 371 47" fill="none" xmlns="http://www.w3.org/2000/svg">
<path d="M23 0H46.375H92.75H185.5H371V23.5L347.812 47H324.625H278.25H185.5H0V23.5L23 0Z" fill="url(#paint0_linear_3999_752)"/>
<path d="M53.982 14.29H70.922V16.688H53.982V14.29ZM52.442 14.29H55.038V20.846C55.038 24.608 54.73 30.306 52.794 33.936C52.288 33.518 51.122 32.88 50.462 32.638C52.288 29.25 52.442 24.3 52.442 20.846V14.29ZM59.086 23.288V24.564H66.588V23.288H59.086ZM59.086 20.208V21.44H66.588V20.208H59.086ZM56.49 18.228H69.294V26.544H56.49V18.228ZM61.55 25.422H64.124V31.428C64.124 32.616 63.904 33.254 63.068 33.606C62.232 33.98 61.088 34.002 59.526 34.002C59.438 33.298 59.108 32.33 58.8 31.67C59.768 31.692 60.846 31.692 61.154 31.692C61.462 31.692 61.55 31.604 61.55 31.362V25.422ZM61.11 16.49L64.278 16.71C63.97 17.81 63.64 18.8 63.42 19.482L60.714 19.196C60.868 18.382 61.066 17.282 61.11 16.49ZM65.202 28.37L67.204 27.138C68.678 28.392 70.482 30.174 71.318 31.45L69.14 32.858C68.392 31.604 66.676 29.712 65.202 28.37ZM57.854 27.248L60.406 27.93C59.35 29.888 57.7 31.802 56.138 32.99C55.632 32.55 54.576 31.824 53.96 31.472C55.544 30.482 57.018 28.854 57.854 27.248ZM82.516 21.352H91.624V23.596H82.516V21.352ZM82.494 25.554H92.042V27.908H82.494V25.554ZM85.684 13.366H88.214V33.958H85.684V13.366ZM81.196 17.084H92.878V28.678H90.37V19.438H83.594V28.788H81.196V17.084ZM73.078 17.392H79.656V19.768H73.078V17.392ZM75.718 13.344H78.292V18.514H75.718V13.344ZM78.534 22.54C79.15 22.936 81.064 24.63 81.526 25.07L79.986 27.182C79.304 26.236 77.808 24.586 77.06 23.794L78.534 22.54ZM78.688 17.392H79.216L79.656 17.304L81.108 18.228C79.59 22.496 76.532 26.39 73.496 28.48C73.276 27.776 72.638 26.456 72.242 25.972C74.992 24.322 77.61 21.088 78.688 17.876V17.392ZM75.718 24.916L78.292 21.814V33.98H75.718V24.916ZM98.246 35.036L97.542 33.276C99.39 32.682 100.402 31.604 100.402 30.35L100.248 28.172L101.458 30.152C101.106 30.482 100.644 30.636 100.16 30.636C99.06 30.636 98.048 29.932 98.048 28.656C98.048 27.424 99.038 26.676 100.226 26.676C101.766 26.676 102.602 27.864 102.602 29.712C102.602 32.198 100.974 34.222 98.246 35.036ZM133.028 13.366L135.052 15.324C130.806 16.402 124.932 17.062 119.894 17.37C119.828 16.798 119.498 15.808 119.256 15.302C124.184 14.95 129.75 14.268 133.028 13.366ZM118.794 14.994L122.05 15.896C122.028 16.138 121.874 16.248 121.456 16.314V21.902C121.456 25.246 121.126 30.46 118.728 33.892C118.354 33.32 117.276 32.396 116.616 32.088C118.618 29.074 118.794 24.96 118.794 21.858V14.994ZM123.26 30.878H134.282V33.1H123.26V30.878ZM121.852 26.016H135.756V33.958H133.094V28.238H124.382V33.958H121.852V26.016ZM120.312 17.986H135.536V24.388H120.312V22.166H132.918V20.208H120.312V17.986ZM149.066 18.096H157.712V20.626H149.066V18.096ZM156.348 18.096H158.944C158.944 18.096 158.922 18.976 158.922 19.284C158.68 28.216 158.46 31.45 157.712 32.484C157.184 33.232 156.678 33.474 155.886 33.606C155.182 33.738 154.06 33.738 152.938 33.694C152.872 32.946 152.586 31.824 152.124 31.098C153.18 31.208 154.126 31.208 154.61 31.208C154.962 31.208 155.182 31.12 155.424 30.834C155.952 30.174 156.172 27.028 156.348 18.668V18.096ZM151.574 13.718H154.17C154.148 22.276 154.06 29.646 149.704 33.958C149.264 33.298 148.406 32.374 147.724 31.934C151.684 28.15 151.552 21.616 151.574 13.718ZM139.76 15.016H148.428V17.348H139.76V15.016ZM139.034 20.142H148.802V22.518H139.034V20.142ZM145.37 24.52L147.482 23.926C148.296 25.774 149.22 28.238 149.572 29.756L147.284 30.482C146.976 28.964 146.14 26.434 145.37 24.52ZM140.002 31.582L139.738 29.36L140.86 28.524L147.966 26.852C148.032 27.556 148.208 28.546 148.34 29.096C141.696 30.812 140.662 31.164 140.002 31.582ZM139.98 31.582C139.848 31.076 139.43 29.866 139.144 29.228C139.562 29.074 139.87 28.568 140.244 27.754C140.574 26.984 141.586 23.926 142.048 21.154L144.644 21.902C143.984 24.784 142.796 27.974 141.696 30.174V30.218C141.696 30.218 139.98 31.098 139.98 31.582ZM169.856 26.346L169.284 18.822L169.174 15.544H172.804L172.694 18.822L172.122 26.346H169.856ZM171 32.22C169.856 32.22 169.042 31.406 169.042 30.262C169.042 29.118 169.878 28.326 171 28.326C172.1 28.326 172.936 29.118 172.936 30.262C172.936 31.406 172.1 32.22 171 32.22ZM193 20.67C191.834 20.67 190.888 19.79 190.888 18.602C190.888 17.392 191.834 16.512 193 16.512C194.144 16.512 195.09 17.392 195.09 18.602C195.09 19.79 194.144 20.67 193 20.67ZM193 31.164C191.834 31.164 190.888 30.284 190.888 29.096C190.888 27.886 191.834 27.006 193 27.006C194.144 27.006 195.09 27.886 195.09 29.096C195.09 30.284 194.144 31.164 193 31.164ZM209.346 23.706H220.61V25.73H209.346V23.706ZM209.346 27.16H220.61V29.162H209.346V27.16ZM209.346 30.658H220.632V32.946H209.346V30.658ZM205.056 16.27H225.01V18.712H205.056V16.27ZM207.212 20.076H222.656V33.98H219.906V22.364H209.852V33.98H207.212V20.076ZM213.636 17.722L216.98 17.81C216.474 19.218 215.77 20.538 215.264 21.484L212.69 21.176C213.086 20.164 213.46 18.756 213.636 17.722ZM218.784 13.256L221.82 13.916C220.962 15.192 219.994 16.402 219.246 17.216L216.892 16.556C217.574 15.632 218.344 14.268 218.784 13.256ZM208.488 14.202L210.842 13.168C211.678 13.938 212.558 15.016 213.02 15.764L210.556 17.04C210.182 16.27 209.28 15.06 208.488 14.202ZM235.35 13.41L238.1 13.894C237.242 17.81 235.746 21.484 233.942 23.816C233.392 23.398 232.138 22.694 231.434 22.386C233.326 20.34 234.668 16.908 235.35 13.41ZM239.42 19.592H240.784V22.012C240.784 24.41 242.104 29.206 247.538 31.582C247.032 32.22 246.24 33.32 245.822 33.98C241.884 32.176 239.816 28.282 239.398 26.302C238.87 28.282 236.626 32.044 232.16 33.98C231.852 33.364 231.016 32.242 230.554 31.758C236.516 29.382 237.99 24.52 237.99 22.012V19.592H239.42ZM226.594 28.612C227.826 27.424 229.806 25.4 231.632 23.398L233.128 25.664C231.61 27.446 229.806 29.382 228.288 30.878L226.594 28.612ZM227.232 16.622L229.102 14.686C230.422 15.544 232.204 16.864 233.062 17.81L231.06 19.988C230.29 19.02 228.574 17.59 227.232 16.622ZM236.296 17.128H245.316V19.746H234.998L236.296 17.128ZM244.436 17.128H244.832L245.338 16.974L247.296 18.118C246.658 20.34 245.602 22.628 244.744 24.19C244.194 23.904 243.138 23.354 242.5 23.112C243.204 21.77 244.106 19.438 244.436 17.7V17.128ZM254.952 19.196H263.092V21.396H254.952V19.196ZM249.54 31.384H268.548V33.54H249.54V31.384ZM250.816 14.136H256.976V16.27H250.816V14.136ZM256.14 14.136H256.58L257.042 14.026L258.758 14.884C257.13 19.196 253.654 22.342 249.958 24.124C249.606 23.574 248.902 22.672 248.374 22.21C251.652 20.824 254.93 17.832 256.14 14.576V14.136ZM261.156 13.388C262.674 16.974 265.754 20.164 269.582 21.616C268.966 22.144 268.196 23.134 267.8 23.816C263.752 21.968 260.738 18.448 258.912 14.092L261.156 13.388ZM249.76 18.096L251.168 16.644C252.158 17.194 253.368 18.052 253.94 18.712L252.466 20.318C251.894 19.658 250.706 18.712 249.76 18.096ZM264.544 13.52L266.524 14.928C265.314 15.962 263.884 17.04 262.784 17.744L261.2 16.512C262.256 15.764 263.708 14.488 264.544 13.52ZM267.03 16.094L268.966 17.458C267.712 18.558 266.194 19.702 265.028 20.428L263.444 19.196C264.588 18.404 266.128 17.106 267.03 16.094ZM255.15 24.762V26.698H262.674V24.762H255.15ZM252.576 22.65H265.402V28.788H252.576V22.65ZM253.852 29.074L256.272 28.458C256.844 29.25 257.328 30.372 257.526 31.12L254.996 31.846C254.842 31.098 254.358 29.932 253.852 29.074ZM261.706 28.436L264.258 28.986C263.708 30.064 263.202 31.054 262.762 31.758L260.452 31.23C260.892 30.46 261.442 29.272 261.706 28.436ZM271.342 21.506H290.746V23.816H271.342V21.506ZM279.548 22.804H282.254V31.494C282.254 32.77 281.968 33.342 281.066 33.694C280.186 34.046 278.976 34.068 277.304 34.068C277.15 33.386 276.776 32.44 276.424 31.802C277.458 31.868 278.734 31.868 279.086 31.846C279.438 31.824 279.548 31.736 279.548 31.428V22.804ZM281.88 23.508C283.464 27.006 286.654 29.712 291.01 30.856C290.438 31.406 289.646 32.462 289.272 33.188C284.718 31.67 281.638 28.502 279.768 24.146L281.88 23.508ZM287.446 23.728L289.712 25.4C288.128 26.654 286.258 27.974 284.828 28.788L283.024 27.336C284.432 26.434 286.324 24.916 287.446 23.728ZM272.552 25.532L274.312 23.904C275.654 24.608 277.48 25.708 278.382 26.544L276.512 28.37C275.698 27.512 273.938 26.302 272.552 25.532ZM271.144 30.416C273.41 29.646 277.062 28.26 280.406 26.94L280.934 29.206C278.074 30.482 274.972 31.802 272.574 32.792L271.144 30.416ZM273.388 17.964H286.258V20.34H273.388V17.964ZM285.554 14.4H285.862L286.324 14.29L288.458 14.422C288.414 17.128 288.194 20.186 287.93 22.716L285.158 22.584C285.4 19.966 285.532 16.556 285.554 14.708V14.4ZM272.662 14.4H286.324V16.798H272.662V14.4ZM293.386 15.434L294.86 13.52C296.07 14.026 297.61 14.884 298.358 15.588L296.796 17.678C296.114 16.974 294.574 16.006 293.386 15.434ZM292.594 21.33L294.046 19.372C295.278 19.834 296.84 20.648 297.588 21.308L296.07 23.442C295.344 22.76 293.826 21.858 292.594 21.33ZM292.836 32.44C293.628 30.658 294.706 27.842 295.498 25.224L297.654 26.544C296.95 28.942 296.07 31.538 295.234 33.716L292.836 32.44ZM306.784 15.918H313.318V18.426H306.784V15.918ZM306.454 20.076H311.888V22.364H306.454V20.076ZM305.53 25.312H313.362V27.688H305.53V25.312ZM306.696 13.344L309.204 13.784C308.72 16.688 307.774 19.548 306.586 21.352C306.102 20.978 304.958 20.34 304.342 20.054C305.552 18.47 306.3 15.896 306.696 13.344ZM308.258 23.464H310.7V31.362C310.7 32.55 310.502 33.21 309.71 33.606C308.918 33.98 307.84 34.024 306.366 34.024C306.3 33.32 305.97 32.308 305.684 31.604C306.586 31.648 307.576 31.648 307.884 31.648C308.17 31.648 308.258 31.582 308.258 31.318V23.464ZM310.854 20.076H311.404L311.866 19.922L313.406 21.022C312.526 22.54 311.272 24.256 310.15 25.378C309.82 24.894 309.116 24.168 308.72 23.816C309.534 22.958 310.436 21.484 310.854 20.516V20.076ZM297.676 16.49H305.464V18.998H297.676V16.49ZM300.14 21.418H303.88V23.816H300.14V21.418ZM300.426 13.366H302.956V18.25H300.426V13.366ZM302.912 21.418H305.288C305.288 21.418 305.288 22.144 305.266 22.452C305.046 29.492 304.826 32.132 304.232 32.946C303.792 33.54 303.374 33.76 302.78 33.87C302.274 33.98 301.482 33.98 300.624 33.958C300.58 33.232 300.36 32.242 299.986 31.604C300.646 31.648 301.196 31.67 301.504 31.67C301.79 31.67 301.966 31.604 302.142 31.34C302.516 30.812 302.736 28.524 302.912 21.88V21.418ZM299.282 18.338H301.702C301.57 24.278 301.24 30.262 298.072 33.936C297.676 33.364 296.928 32.616 296.29 32.22C299.084 29.03 299.194 23.596 299.282 18.338ZM314.946 15.676H321.59V18.008H314.946V15.676ZM320.996 15.676H321.458L321.898 15.588L323.592 16.16C322.668 23.508 320.204 29.184 316.332 32.484C315.914 31.824 315.056 30.812 314.418 30.35C317.872 27.754 320.27 22.144 320.996 16.248V15.676ZM314.858 20.45L316.662 18.932C319.148 22.078 322.514 26.324 323.988 29.008L321.942 30.878C320.556 28.128 317.344 23.706 314.858 20.45ZM323.372 19.46L334.724 18.118L335.032 20.494L323.702 21.88L323.372 19.46ZM329.4 14.796L331.27 13.41C332.216 14.312 333.558 15.588 334.196 16.424L332.194 17.986C331.622 17.128 330.324 15.764 329.4 14.796ZM325.528 13.454H328.278C328.366 22.958 329.466 30.24 332.15 30.68C332.656 30.724 332.898 29.646 333.052 27.314C333.558 27.886 334.768 28.634 335.274 28.898C334.702 33.078 333.492 34.046 332.282 33.958C326.98 33.386 325.836 25.664 325.528 13.454ZM332.238 21.22L334.35 22.474C332.546 26.83 328.96 31.098 325 33.21C324.494 32.572 323.658 31.758 322.91 31.252C327.046 29.426 330.566 25.356 332.238 21.22Z" fill="white"/>
<path d="M53.982 14.29V13.29H52.982V14.29H53.982ZM70.922 14.29H71.922V13.29H70.922V14.29ZM70.922 16.688V17.688H71.922V16.688H70.922ZM53.982 16.688H52.982V17.688H53.982V16.688ZM52.442 14.29V13.29H51.442V14.29H52.442ZM55.038 14.29H56.038V13.29H55.038V14.29ZM52.794 33.936L52.1571 34.707L53.1005 35.4863L53.6764 34.4066L52.794 33.936ZM50.462 32.638L49.5817 32.1636L49.0341 33.1796L50.1177 33.5769L50.462 32.638ZM59.086 23.288V22.288H58.086V23.288H59.086ZM59.086 24.564H58.086V25.564H59.086V24.564ZM66.588 24.564V25.564H67.588V24.564H66.588ZM66.588 23.288H67.588V22.288H66.588V23.288ZM59.086 20.208V19.208H58.086V20.208H59.086ZM59.086 21.44H58.086V22.44H59.086V21.44ZM66.588 21.44V22.44H67.588V21.44H66.588ZM66.588 20.208H67.588V19.208H66.588V20.208ZM56.49 18.228V17.228H55.49V18.228H56.49ZM69.294 18.228H70.294V17.228H69.294V18.228ZM69.294 26.544V27.544H70.294V26.544H69.294ZM56.49 26.544H55.49V27.544H56.49V26.544ZM61.55 25.422V24.422H60.55V25.422H61.55ZM64.124 25.422H65.124V24.422H64.124V25.422ZM63.068 33.606L62.6799 32.6844L62.6697 32.6887L62.6596 32.6932L63.068 33.606ZM59.526 34.002L58.5337 34.126L58.6432 35.002H59.526V34.002ZM58.8 31.67L58.8227 30.6703L57.2128 30.6337L57.8938 32.0929L58.8 31.67ZM61.11 16.49L61.1793 15.4924L60.1678 15.4222L60.1115 16.4345L61.11 16.49ZM64.278 16.71L65.241 16.9796L65.572 15.7974L64.3473 15.7124L64.278 16.71ZM63.42 19.482L63.3149 20.4765L64.1224 20.5618L64.3717 19.789L63.42 19.482ZM60.714 19.196L59.7314 19.0101L59.5297 20.0764L60.6089 20.1905L60.714 19.196ZM65.202 28.37L64.6779 27.5183L63.5461 28.2148L64.5288 29.1094L65.202 28.37ZM67.204 27.138L67.852 26.3763L67.2986 25.9056L66.6799 26.2863L67.204 27.138ZM71.318 31.45L71.8609 32.2898L72.7059 31.7436L72.1545 30.902L71.318 31.45ZM69.14 32.858L68.2812 33.3703L68.8123 34.2606L69.6829 33.6978L69.14 32.858ZM57.854 27.248L58.1122 26.2819L57.3373 26.0748L56.967 26.7863L57.854 27.248ZM60.406 27.93L61.2862 28.4047L61.887 27.2907L60.6642 26.9639L60.406 27.93ZM56.138 32.99L55.4818 33.7446L56.0958 34.2785L56.7434 33.7859L56.138 32.99ZM53.96 31.472L53.43 30.624L52.0117 31.5104L53.4639 32.3402L53.96 31.472ZM53.982 15.29H70.922V13.29H53.982V15.29ZM69.922 14.29V16.688H71.922V14.29H69.922ZM70.922 15.688H53.982V17.688H70.922V15.688ZM54.982 16.688V14.29H52.982V16.688H54.982ZM52.442 15.29H55.038V13.29H52.442V15.29ZM54.038 14.29V20.846H56.038V14.29H54.038ZM54.038 20.846C54.038 22.7039 53.9617 25.0194 53.6511 27.3059C53.3386 29.6066 52.7982 31.8031 51.9116 33.4654L53.6764 34.4066C54.7258 32.4389 55.3074 29.9714 55.6329 27.5751C55.9603 25.1646 56.038 22.7501 56.038 20.846H54.038ZM53.4309 33.165C53.106 32.8967 52.624 32.5974 52.17 32.3461C51.7104 32.0917 51.2038 31.8449 50.8063 31.6991L50.1177 33.5769C50.3802 33.6731 50.7866 33.8663 51.2015 34.0959C51.622 34.3286 51.976 34.5573 52.1571 34.707L53.4309 33.165ZM51.3423 33.1124C52.3387 31.2637 52.8549 29.0411 53.1287 26.8932C53.4037 24.7357 53.442 22.5834 53.442 20.846H51.442C51.442 22.5626 51.4033 24.6123 51.1448 26.6403C50.8851 28.6779 50.4113 30.6243 49.5817 32.1636L51.3423 33.1124ZM53.442 20.846V14.29H51.442V20.846H53.442ZM58.086 23.288V24.564H60.086V23.288H58.086ZM59.086 25.564H66.588V23.564H59.086V25.564ZM67.588 24.564V23.288H65.588V24.564H67.588ZM66.588 22.288H59.086V24.288H66.588V22.288ZM58.086 20.208V21.44H60.086V20.208H58.086ZM59.086 22.44H66.588V20.44H59.086V22.44ZM67.588 21.44V20.208H65.588V21.44H67.588ZM66.588 19.208H59.086V21.208H66.588V19.208ZM56.49 19.228H69.294V17.228H56.49V19.228ZM68.294 18.228V26.544H70.294V18.228H68.294ZM69.294 25.544H56.49V27.544H69.294V25.544ZM57.49 26.544V18.228H55.49V26.544H57.49ZM61.55 26.422H64.124V24.422H61.55V26.422ZM63.124 25.422V31.428H65.124V25.422H63.124ZM63.124 31.428C63.124 31.9883 63.0669 32.2672 62.9986 32.4178C62.9576 32.5084 62.9002 32.5916 62.6799 32.6844L63.4561 34.5276C64.0718 34.2684 64.5424 33.8566 64.8204 33.2432C65.0711 32.6898 65.124 32.0557 65.124 31.428H63.124ZM62.6596 32.6932C62.3852 32.8159 62.0143 32.9006 61.4804 32.9482C60.9457 32.9959 60.3124 33.002 59.526 33.002V35.002C60.3016 35.002 61.0213 34.9971 61.6581 34.9403C62.2957 34.8834 62.9148 34.7701 63.4764 34.5188L62.6596 32.6932ZM60.5183 33.878C60.4129 33.035 60.0401 31.9626 59.7062 31.2471L57.8938 32.0929C58.1759 32.6974 58.4631 33.561 58.5337 34.126L60.5183 33.878ZM58.7773 32.6697C59.758 32.692 60.8465 32.692 61.154 32.692V30.692C60.8455 30.692 59.778 30.692 58.8227 30.6703L58.7773 32.6697ZM61.154 32.692C61.3371 32.692 61.766 32.6813 62.1211 32.3746C62.5246 32.0261 62.55 31.5573 62.55 31.362H60.55C60.55 31.362 60.55 31.3618 60.55 31.3615C60.55 31.3612 60.55 31.3607 60.55 31.36C60.5501 31.3587 60.5501 31.3567 60.5503 31.354C60.5505 31.3487 60.5511 31.3402 60.5525 31.3288C60.555 31.3069 60.5611 31.2688 60.576 31.2205C60.6089 31.1139 60.68 30.9766 60.8139 30.8609C60.9397 30.7523 61.0623 30.7138 61.1186 30.7006C61.1702 30.6886 61.191 30.692 61.154 30.692V32.692ZM62.55 31.362V25.422H60.55V31.362H62.55ZM61.0407 17.4876L64.2087 17.7076L64.3473 15.7124L61.1793 15.4924L61.0407 17.4876ZM63.315 16.4404C63.0137 17.5166 62.6916 18.4826 62.4683 19.175L64.3717 19.789C64.5884 19.1174 64.9263 18.1034 65.241 16.9796L63.315 16.4404ZM63.5251 18.4875L60.8191 18.2015L60.6089 20.1905L63.3149 20.4765L63.5251 18.4875ZM61.6966 19.3819C61.8483 18.5801 62.0602 17.4146 62.1085 16.5455L60.1115 16.4345C60.0718 17.1494 59.8877 18.1839 59.7314 19.0101L61.6966 19.3819ZM65.7261 29.2217L67.7281 27.9897L66.6799 26.2863L64.6779 27.5183L65.7261 29.2217ZM66.556 27.8997C68.0145 29.1405 69.7273 30.8468 70.4815 31.998L72.1545 30.902C71.2367 29.5012 69.3415 27.6435 67.852 26.3763L66.556 27.8997ZM70.7751 30.6102L68.5971 32.0182L69.6829 33.6978L71.8609 32.2898L70.7751 30.6102ZM69.9988 32.3457C69.1765 30.9672 67.3766 28.9974 65.8752 27.6306L64.5288 29.1094C65.9754 30.4266 67.6075 32.2408 68.2812 33.3703L69.9988 32.3457ZM57.5958 28.2141L60.1478 28.8961L60.6642 26.9639L58.1122 26.2819L57.5958 28.2141ZM59.5258 27.4553C58.5349 29.2926 56.977 31.0955 55.5326 32.1941L56.7434 33.7859C58.423 32.5085 60.1651 30.4834 61.2862 28.4047L59.5258 27.4553ZM56.7942 32.2354C56.2283 31.7434 55.1158 30.9807 54.4561 30.6038L53.4639 32.3402C54.0362 32.6673 55.0357 33.3566 55.4818 33.7446L56.7942 32.2354ZM54.49 32.32C56.2297 31.2327 57.825 29.4694 58.741 27.7097L56.967 26.7863C56.211 28.2386 54.8583 29.7313 53.43 30.624L54.49 32.32ZM82.516 21.352V20.352H81.516V21.352H82.516ZM91.624 21.352H92.624V20.352H91.624V21.352ZM91.624 23.596V24.596H92.624V23.596H91.624ZM82.516 23.596H81.516V24.596H82.516V23.596ZM82.494 25.554V24.554H81.494V25.554H82.494ZM92.042 25.554H93.042V24.554H92.042V25.554ZM92.042 27.908V28.908H93.042V27.908H92.042ZM82.494 27.908H81.494V28.908H82.494V27.908ZM85.684 13.366V12.366H84.684V13.366H85.684ZM88.214 13.366H89.214V12.366H88.214V13.366ZM88.214 33.958V34.958H89.214V33.958H88.214ZM85.684 33.958H84.684V34.958H85.684V33.958ZM81.196 17.084V16.084H80.196V17.084H81.196ZM92.878 17.084H93.878V16.084H92.878V17.084ZM92.878 28.678V29.678H93.878V28.678H92.878ZM90.37 28.678H89.37V29.678H90.37V28.678ZM90.37 19.438H91.37V18.438H90.37V19.438ZM83.594 19.438V18.438H82.594V19.438H83.594ZM83.594 28.788V29.788H84.594V28.788H83.594ZM81.196 28.788H80.196V29.788H81.196V28.788ZM73.078 17.392V16.392H72.078V17.392H73.078ZM79.656 17.392H80.656V16.392H79.656V17.392ZM79.656 19.768V20.768H80.656V19.768H79.656ZM73.078 19.768H72.078V20.768H73.078V19.768ZM75.718 13.344V12.344H74.718V13.344H75.718ZM78.292 13.344H79.292V12.344H78.292V13.344ZM78.292 18.514V19.514H79.292V18.514H78.292ZM75.718 18.514H74.718V19.514H75.718V18.514ZM78.534 22.54L79.0748 21.6988L78.4509 21.2978L77.886 21.7783L78.534 22.54ZM81.526 25.07L82.334 25.6592L82.8507 24.9506L82.2157 24.3459L81.526 25.07ZM79.986 27.182L79.1748 27.7668L79.9814 28.8856L80.794 27.7712L79.986 27.182ZM77.06 23.794L76.412 23.0323L75.6098 23.7149L76.333 24.4806L77.06 23.794ZM78.688 17.392V16.392H77.688V17.392H78.688ZM79.216 17.392V18.392H79.315L79.4121 18.3726L79.216 17.392ZM79.656 17.304L80.1929 16.4603L79.8539 16.2446L79.4599 16.3234L79.656 17.304ZM81.108 18.228L82.0502 18.5631L82.3173 17.8122L81.6449 17.3843L81.108 18.228ZM73.496 28.48L72.5415 28.7783L72.946 30.0727L74.063 29.3037L73.496 28.48ZM72.242 25.972L71.7275 25.1145L70.7354 25.7098L71.468 26.6052L72.242 25.972ZM78.688 17.876L79.636 18.1942L79.688 18.0393V17.876H78.688ZM75.718 24.916L74.9484 24.2774L74.718 24.5551V24.916H75.718ZM78.292 21.814H79.292V19.0429L77.5224 21.1754L78.292 21.814ZM78.292 33.98V34.98H79.292V33.98H78.292ZM75.718 33.98H74.718V34.98H75.718V33.98ZM82.516 22.352H91.624V20.352H82.516V22.352ZM90.624 21.352V23.596H92.624V21.352H90.624ZM91.624 22.596H82.516V24.596H91.624V22.596ZM83.516 23.596V21.352H81.516V23.596H83.516ZM82.494 26.554H92.042V24.554H82.494V26.554ZM91.042 25.554V27.908H93.042V25.554H91.042ZM92.042 26.908H82.494V28.908H92.042V26.908ZM83.494 27.908V25.554H81.494V27.908H83.494ZM85.684 14.366H88.214V12.366H85.684V14.366ZM87.214 13.366V33.958H89.214V13.366H87.214ZM88.214 32.958H85.684V34.958H88.214V32.958ZM86.684 33.958V13.366H84.684V33.958H86.684ZM81.196 18.084H92.878V16.084H81.196V18.084ZM91.878 17.084V28.678H93.878V17.084H91.878ZM92.878 27.678H90.37V29.678H92.878V27.678ZM91.37 28.678V19.438H89.37V28.678H91.37ZM90.37 18.438H83.594V20.438H90.37V18.438ZM82.594 19.438V28.788H84.594V19.438H82.594ZM83.594 27.788H81.196V29.788H83.594V27.788ZM82.196 28.788V17.084H80.196V28.788H82.196ZM73.078 18.392H79.656V16.392H73.078V18.392ZM78.656 17.392V19.768H80.656V17.392H78.656ZM79.656 18.768H73.078V20.768H79.656V18.768ZM74.078 19.768V17.392H72.078V19.768H74.078ZM75.718 14.344H78.292V12.344H75.718V14.344ZM77.292 13.344V18.514H79.292V13.344H77.292ZM78.292 17.514H75.718V19.514H78.292V17.514ZM76.718 18.514V13.344H74.718V18.514H76.718ZM77.9932 23.3812C78.2301 23.5335 78.8056 24.0041 79.4353 24.5463C80.0438 25.0703 80.6232 25.5912 80.8363 25.7941L82.2157 24.3459C81.9668 24.1088 81.3582 23.5627 80.7402 23.0307C80.1434 22.5169 79.4539 21.9425 79.0748 21.6988L77.9932 23.3812ZM80.718 24.4808L79.178 26.5928L80.794 27.7712L82.334 25.6592L80.718 24.4808ZM80.7972 26.5972C80.0714 25.5905 78.532 23.8962 77.787 23.1074L76.333 24.4806C77.084 25.2758 78.5366 26.8815 79.1748 27.7668L80.7972 26.5972ZM77.708 24.5557L79.182 23.3017L77.886 21.7783L76.412 23.0323L77.708 24.5557ZM78.688 18.392H79.216V16.392H78.688V18.392ZM79.4121 18.3726L79.8521 18.2846L79.4599 16.3234L79.0199 16.4114L79.4121 18.3726ZM79.1191 18.1477L80.5711 19.0717L81.6449 17.3843L80.1929 16.4603L79.1191 18.1477ZM80.1658 17.8929C78.7143 21.9741 75.7819 25.6924 72.929 27.6563L74.063 29.3037C77.2821 27.0876 80.4657 23.0179 82.0502 18.5631L80.1658 17.8929ZM74.4505 28.1817C74.3188 27.7603 74.0796 27.2024 73.8315 26.7004C73.591 26.2139 73.291 25.6749 73.016 25.3388L71.468 26.6052C71.589 26.7531 71.806 27.1161 72.0385 27.5866C72.2634 28.0416 72.4532 28.4957 72.5415 28.7783L74.4505 28.1817ZM72.7565 26.8295C75.7134 25.0553 78.4834 21.6286 79.636 18.1942L77.74 17.5578C76.7366 20.5474 74.2706 23.5887 71.7275 25.1145L72.7565 26.8295ZM79.688 17.876V17.392H77.688V17.876H79.688ZM76.4876 25.5546L79.0616 22.4526L77.5224 21.1754L74.9484 24.2774L76.4876 25.5546ZM77.292 21.814V33.98H79.292V21.814H77.292ZM78.292 32.98H75.718V34.98H78.292V32.98ZM76.718 33.98V24.916H74.718V33.98H76.718ZM98.246 35.036L97.3175 35.4074L97.6567 36.2554L98.5319 35.9943L98.246 35.036ZM97.542 33.276L97.236 32.324L96.2154 32.652L96.6135 33.6474L97.542 33.276ZM100.402 30.35H101.402V30.3147L101.4 30.2795L100.402 30.35ZM100.248 28.172L101.101 27.6505L99.2505 28.2425L100.248 28.172ZM101.458 30.152L102.142 30.8815L102.736 30.3249L102.311 29.6305L101.458 30.152ZM99.1745 34.6646L98.4705 32.9046L96.6135 33.6474L97.3175 35.4074L99.1745 34.6646ZM97.848 34.228C99.8716 33.5776 101.402 32.2448 101.402 30.35H99.402C99.402 30.9632 98.9084 31.7864 97.236 32.324L97.848 34.228ZM101.4 30.2795L101.246 28.1015L99.2505 28.2425L99.4045 30.4205L101.4 30.2795ZM99.3947 28.6934L100.605 30.6734L102.311 29.6305L101.101 27.6505L99.3947 28.6934ZM100.774 29.4225C100.636 29.5515 100.433 29.636 100.16 29.636V31.636C100.855 31.636 101.576 31.4125 102.142 30.8815L100.774 29.4225ZM100.16 29.636C99.815 29.636 99.528 29.5248 99.3432 29.366C99.1762 29.2226 99.048 29.0057 99.048 28.656H97.048C97.048 29.5823 97.4258 30.3554 98.0398 30.883C98.636 31.3952 99.405 31.636 100.16 31.636V29.636ZM99.048 28.656C99.048 28.33 99.1695 28.1121 99.344 27.9618C99.5333 27.7988 99.8359 27.676 100.226 27.676V25.676C99.4281 25.676 98.6417 25.9272 98.039 26.4462C97.4215 26.9779 97.048 27.75 97.048 28.656H99.048ZM100.226 27.676C100.708 27.676 100.998 27.8462 101.195 28.1063C101.421 28.4029 101.602 28.9216 101.602 29.712H103.602C103.602 28.6544 103.365 27.6551 102.788 26.8957C102.182 26.0998 101.284 25.676 100.226 25.676V27.676ZM101.602 29.712C101.602 31.6864 100.335 33.3691 97.9601 34.0777L98.5319 35.9943C101.613 35.0749 103.602 32.7096 103.602 29.712H101.602ZM133.028 13.366L133.723 12.6473L133.313 12.2504L132.763 12.4018L133.028 13.366ZM135.052 15.324L135.298 16.2932L137.036 15.852L135.747 14.6053L135.052 15.324ZM119.894 17.37L118.901 17.4846L119.009 18.426L119.955 18.3681L119.894 17.37ZM119.256 15.302L119.185 14.3045L117.72 14.4091L118.354 15.7335L119.256 15.302ZM118.794 14.994L119.061 14.0303L117.794 13.6793V14.994H118.794ZM122.05 15.896L123.046 15.9865L123.121 15.1552L122.317 14.9323L122.05 15.896ZM121.456 16.314L121.3 15.3262L120.456 15.4595V16.314H121.456ZM118.728 33.892L117.891 34.4392L118.701 35.6773L119.548 34.4648L118.728 33.892ZM116.616 32.088L115.783 31.5347L115.14 32.5027L116.193 32.9942L116.616 32.088ZM123.26 30.878V29.878H122.26V30.878H123.26ZM134.282 30.878H135.282V29.878H134.282V30.878ZM134.282 33.1V34.1H135.282V33.1H134.282ZM123.26 33.1H122.26V34.1H123.26V33.1ZM121.852 26.016V25.016H120.852V26.016H121.852ZM135.756 26.016H136.756V25.016H135.756V26.016ZM135.756 33.958V34.958H136.756V33.958H135.756ZM133.094 33.958H132.094V34.958H133.094V33.958ZM133.094 28.238H134.094V27.238H133.094V28.238ZM124.382 28.238V27.238H123.382V28.238H124.382ZM124.382 33.958V34.958H125.382V33.958H124.382ZM121.852 33.958H120.852V34.958H121.852V33.958ZM120.312 17.986V16.986H119.312V17.986H120.312ZM135.536 17.986H136.536V16.986H135.536V17.986ZM135.536 24.388V25.388H136.536V24.388H135.536ZM120.312 24.388H119.312V25.388H120.312V24.388ZM120.312 22.166V21.166H119.312V22.166H120.312ZM132.918 22.166V23.166H133.918V22.166H132.918ZM132.918 20.208H133.918V19.208H132.918V20.208ZM120.312 20.208H119.312V21.208H120.312V20.208ZM132.333 14.0847L134.357 16.0427L135.747 14.6053L133.723 12.6473L132.333 14.0847ZM134.806 14.3547C130.65 15.4098 124.85 16.0652 119.833 16.3719L119.955 18.3681C125.014 18.0588 130.962 17.3942 135.298 16.2932L134.806 14.3547ZM120.887 17.2554C120.805 16.5412 120.431 15.4421 120.158 14.8705L118.354 15.7335C118.565 16.1739 118.851 17.0548 118.901 17.4846L120.887 17.2554ZM119.327 16.2995C124.265 15.9467 129.914 15.2599 133.293 14.3302L132.763 12.4018C129.586 13.2761 124.103 13.9533 119.185 14.3045L119.327 16.2995ZM118.527 15.9577L121.783 16.8597L122.317 14.9323L119.061 14.0303L118.527 15.9577ZM121.054 15.8055C121.057 15.7686 121.071 15.6849 121.123 15.5856C121.179 15.4806 121.255 15.4035 121.325 15.354C121.387 15.3104 121.429 15.2988 121.419 15.3018C121.41 15.3047 121.375 15.3143 121.3 15.3262L121.612 17.3018C121.849 17.2643 122.187 17.1936 122.478 16.988C122.852 16.7238 123.013 16.345 123.046 15.9865L121.054 15.8055ZM120.456 16.314V21.902H122.456V16.314H120.456ZM120.456 21.902C120.456 23.546 120.374 25.6201 120.007 27.689C119.637 29.7675 118.991 31.7698 117.908 33.3192L119.548 34.4648C120.863 32.5822 121.581 30.2615 121.976 28.039C122.373 25.8069 122.456 23.602 122.456 21.902H120.456ZM119.565 33.3448C119.3 32.94 118.853 32.493 118.429 32.131C118.003 31.7664 117.489 31.3916 117.039 31.1818L116.193 32.9942C116.403 33.0924 116.758 33.3336 117.129 33.651C117.503 33.971 117.782 34.272 117.891 34.4392L119.565 33.3448ZM117.449 32.6413C119.638 29.345 119.794 24.9364 119.794 21.858H117.794C117.794 24.9836 117.598 28.803 115.783 31.5347L117.449 32.6413ZM119.794 21.858V14.994H117.794V21.858H119.794ZM123.26 31.878H134.282V29.878H123.26V31.878ZM133.282 30.878V33.1H135.282V30.878H133.282ZM134.282 32.1H123.26V34.1H134.282V32.1ZM124.26 33.1V30.878H122.26V33.1H124.26ZM121.852 27.016H135.756V25.016H121.852V27.016ZM134.756 26.016V33.958H136.756V26.016H134.756ZM135.756 32.958H133.094V34.958H135.756V32.958ZM134.094 33.958V28.238H132.094V33.958H134.094ZM133.094 27.238H124.382V29.238H133.094V27.238ZM123.382 28.238V33.958H125.382V28.238H123.382ZM124.382 32.958H121.852V34.958H124.382V32.958ZM122.852 33.958V26.016H120.852V33.958H122.852ZM120.312 18.986H135.536V16.986H120.312V18.986ZM134.536 17.986V24.388H136.536V17.986H134.536ZM135.536 23.388H120.312V25.388H135.536V23.388ZM121.312 24.388V22.166H119.312V24.388H121.312ZM120.312 23.166H132.918V21.166H120.312V23.166ZM133.918 22.166V20.208H131.918V22.166H133.918ZM132.918 19.208H120.312V21.208H132.918V19.208ZM121.312 20.208V17.986H119.312V20.208H121.312ZM149.066 18.096V17.096H148.066V18.096H149.066ZM157.712 18.096H158.712V17.096H157.712V18.096ZM157.712 20.626V21.626H158.712V20.626H157.712ZM149.066 20.626H148.066V21.626H149.066V20.626ZM156.348 18.096V17.096H155.348V18.096H156.348ZM158.944 18.096L159.944 18.121L159.969 17.096H158.944V18.096ZM158.922 19.284L159.922 19.3111L159.922 19.2975V19.284H158.922ZM157.712 32.484L156.902 31.8978L156.895 31.9073L157.712 32.484ZM155.886 33.606L155.722 32.6196L155.712 32.6213L155.702 32.6231L155.886 33.606ZM152.938 33.694L151.942 33.7819L152.019 34.6587L152.899 34.6932L152.938 33.694ZM152.124 31.098L152.228 30.1034L150.169 29.889L151.28 31.6349L152.124 31.098ZM155.424 30.834L156.187 31.4799L156.196 31.4694L156.205 31.4587L155.424 30.834ZM156.348 18.668L157.348 18.689L157.348 18.6785V18.668H156.348ZM151.574 13.718V12.718H150.577L150.574 13.7152L151.574 13.718ZM154.17 13.718L155.17 13.7206L155.173 12.718H154.17V13.718ZM149.704 33.958L148.872 34.5127L149.545 35.5224L150.408 34.6687L149.704 33.958ZM147.724 31.934L147.033 31.211L146.116 32.0869L147.182 32.7743L147.724 31.934ZM139.76 15.016V14.016H138.76V15.016H139.76ZM148.428 15.016H149.428V14.016H148.428V15.016ZM148.428 17.348V18.348H149.428V17.348H148.428ZM139.76 17.348H138.76V18.348H139.76V17.348ZM139.034 20.142V19.142H138.034V20.142H139.034ZM148.802 20.142H149.802V19.142H148.802V20.142ZM148.802 22.518V23.518H149.802V22.518H148.802ZM139.034 22.518H138.034V23.518H139.034V22.518ZM145.37 24.52L145.099 23.5573L144.026 23.8591L144.442 24.8932L145.37 24.52ZM147.482 23.926L148.397 23.5229L148.047 22.7283L147.211 22.9633L147.482 23.926ZM149.572 29.756L149.874 30.7092L150.755 30.4298L150.546 29.5301L149.572 29.756ZM147.284 30.482L146.304 30.6808L146.525 31.7719L147.586 31.4352L147.284 30.482ZM140.002 31.582L139.009 31.7L139.196 33.276L140.537 32.4268L140.002 31.582ZM139.738 29.36L139.141 28.5581L138.677 28.9037L138.745 29.478L139.738 29.36ZM140.86 28.524L140.631 27.5506L140.429 27.5981L140.263 27.7221L140.86 28.524ZM147.966 26.852L148.962 26.7587L148.854 25.6156L147.737 25.8786L147.966 26.852ZM148.34 29.096L148.59 30.0642L149.542 29.8184L149.312 28.8626L148.34 29.096ZM139.98 31.582L139.012 31.8344L140.98 31.582H139.98ZM139.144 29.228L138.798 28.2897L137.793 28.6599L138.231 29.6371L139.144 29.228ZM140.244 27.754L141.153 28.1715L141.158 28.1598L141.163 28.1479L140.244 27.754ZM142.048 21.154L142.325 20.1931L141.246 19.8823L141.062 20.9896L142.048 21.154ZM144.644 21.902L145.619 22.1252L145.83 21.203L144.921 20.9411L144.644 21.902ZM141.696 30.174L140.802 29.7268L140.696 29.9379V30.174H141.696ZM141.696 30.218L142.152 31.1078L142.696 30.829V30.218H141.696ZM149.066 19.096H157.712V17.096H149.066V19.096ZM156.712 18.096V20.626H158.712V18.096H156.712ZM157.712 19.626H149.066V21.626H157.712V19.626ZM150.066 20.626V18.096H148.066V20.626H150.066ZM156.348 19.096H158.944V17.096H156.348V19.096ZM158.944 18.096C157.944 18.071 157.944 18.071 157.944 18.071C157.944 18.071 157.944 18.071 157.944 18.0711C157.944 18.0711 157.944 18.0711 157.944 18.0712C157.944 18.0713 157.944 18.0715 157.944 18.0717C157.944 18.0722 157.944 18.0728 157.944 18.0737C157.944 18.0754 157.944 18.0779 157.944 18.0813C157.944 18.0879 157.944 18.0976 157.943 18.11C157.943 18.1349 157.942 18.1708 157.941 18.2147C157.939 18.3025 157.936 18.423 157.933 18.5532C157.928 18.8091 157.922 19.1173 157.922 19.284H159.922C159.922 19.1427 159.927 18.8569 159.933 18.5958C159.936 18.4675 159.938 18.3487 159.94 18.2619C159.941 18.2186 159.942 18.1832 159.943 18.1588C159.943 18.1466 159.943 18.1371 159.943 18.1307C159.944 18.1275 159.944 18.125 159.944 18.1234C159.944 18.1226 159.944 18.122 159.944 18.1216C159.944 18.1214 159.944 18.1212 159.944 18.1211C159.944 18.1211 159.944 18.121 159.944 18.121C159.944 18.121 159.944 18.121 159.944 18.121C159.944 18.121 159.944 18.121 158.944 18.096ZM157.922 19.2569C157.801 23.7278 157.686 26.7395 157.511 28.7591C157.423 29.7693 157.322 30.5001 157.206 31.0262C157.087 31.5674 156.969 31.8049 156.902 31.8979L158.522 33.0701C158.829 32.6461 159.019 32.0916 159.159 31.4565C159.302 30.8063 159.412 29.9764 159.503 28.9324C159.685 26.8435 159.801 23.7722 159.922 19.3111L157.922 19.2569ZM156.895 31.9073C156.691 32.1967 156.531 32.3319 156.393 32.4128C156.249 32.4973 156.057 32.5636 155.722 32.6196L156.05 34.5924C156.507 34.5164 156.964 34.3957 157.403 34.1392C157.848 33.8791 158.205 33.5193 158.529 33.0607L156.895 31.9073ZM155.702 32.6231C155.124 32.7315 154.109 32.7392 152.977 32.6948L152.899 34.6932C154.011 34.7368 155.24 34.7445 156.07 34.5889L155.702 32.6231ZM153.934 33.6061C153.859 32.7571 153.543 31.4646 152.968 30.5611L151.28 31.6349C151.629 32.1834 151.885 33.1349 151.942 33.7819L153.934 33.6061ZM152.02 32.0926C153.132 32.2084 154.123 32.208 154.61 32.208V30.208C154.129 30.208 153.228 30.2076 152.228 30.1034L152.02 32.0926ZM154.61 32.208C154.867 32.208 155.164 32.1764 155.466 32.0413C155.772 31.9048 156.002 31.6996 156.187 31.4799L154.661 30.1881C154.631 30.2225 154.617 30.2342 154.617 30.2344C154.617 30.2344 154.617 30.2342 154.617 30.2339C154.618 30.2336 154.619 30.2331 154.619 30.2325C154.621 30.2313 154.624 30.2296 154.627 30.2277C154.633 30.2237 154.641 30.2193 154.65 30.2152C154.67 30.2064 154.683 30.2041 154.682 30.2043C154.678 30.2049 154.658 30.208 154.61 30.208V32.208ZM156.205 31.4587C156.507 31.0807 156.651 30.5338 156.749 30.0153C156.857 29.4424 156.943 28.6828 157.015 27.713C157.16 25.7691 157.26 22.868 157.348 18.689L155.348 18.647C155.26 22.828 155.162 25.6799 155.021 27.564C154.95 28.5082 154.871 29.1813 154.784 29.6452C154.686 30.1634 154.605 30.2573 154.643 30.2093L156.205 31.4587ZM157.348 18.668V18.096H155.348V18.668H157.348ZM151.574 14.718H154.17V12.718H151.574V14.718ZM153.17 13.7154C153.159 18.0127 153.129 21.9105 152.576 25.2675C152.024 28.6137 150.969 31.2991 149 33.2473L150.408 34.6687C152.795 32.3049 153.962 29.1493 154.549 25.593C155.134 22.0475 155.159 17.9813 155.17 13.7206L153.17 13.7154ZM150.536 33.4033C150.041 32.6612 149.092 31.6264 148.266 31.0937L147.182 32.7743C147.72 33.1216 148.487 33.9348 148.872 34.5127L150.536 33.4033ZM148.415 32.657C150.621 30.5486 151.634 27.7181 152.115 24.5173C152.593 21.3334 152.563 17.6368 152.574 13.7208L150.574 13.7152C150.563 17.6972 150.588 21.2166 150.137 24.2202C149.688 27.2069 148.787 29.5354 147.033 31.211L148.415 32.657ZM139.76 16.016H148.428V14.016H139.76V16.016ZM147.428 15.016V17.348H149.428V15.016H147.428ZM148.428 16.348H139.76V18.348H148.428V16.348ZM140.76 17.348V15.016H138.76V17.348H140.76ZM139.034 21.142H148.802V19.142H139.034V21.142ZM147.802 20.142V22.518H149.802V20.142H147.802ZM148.802 21.518H139.034V23.518H148.802V21.518ZM140.034 22.518V20.142H138.034V22.518H140.034ZM145.641 25.4827L147.753 24.8887L147.211 22.9633L145.099 23.5573L145.641 25.4827ZM146.567 24.3291C147.372 26.1581 148.267 28.555 148.598 29.9819L150.546 29.5301C150.173 27.921 149.22 25.3899 148.397 23.5229L146.567 24.3291ZM149.27 28.8028L146.982 29.5288L147.586 31.4352L149.874 30.7092L149.27 28.8028ZM148.264 30.2832C147.939 28.6803 147.078 26.0868 146.298 24.1468L144.442 24.8932C145.202 26.7812 146.013 29.2477 146.304 30.6808L148.264 30.2832ZM140.995 31.464L140.731 29.242L138.745 29.478L139.009 31.7L140.995 31.464ZM140.335 30.1619L141.457 29.3259L140.263 27.7221L139.141 28.5581L140.335 30.1619ZM141.089 29.4974L148.195 27.8254L147.737 25.8786L140.631 27.5506L141.089 29.4974ZM146.97 26.9453C147.041 27.7016 147.226 28.7386 147.368 29.3294L149.312 28.8626C149.19 28.3534 149.023 27.4104 148.962 26.7587L146.97 26.9453ZM148.09 28.1278C144.771 28.9851 142.832 29.507 141.637 29.8687C140.447 30.229 139.916 30.4526 139.467 30.7372L140.537 32.4268C140.748 32.2934 141.064 32.132 142.217 31.7828C143.365 31.435 145.265 30.9229 148.59 30.0642L148.09 28.1278ZM140.948 31.3296C140.802 30.7699 140.365 29.5075 140.057 28.8189L138.231 29.6371C138.495 30.2245 138.894 31.3821 139.012 31.8344L140.948 31.3296ZM139.49 30.1663C139.965 29.9913 140.292 29.6466 140.525 29.318C140.759 28.9901 140.961 28.5886 141.153 28.1715L139.335 27.3365C139.153 27.7334 139.014 27.9919 138.896 28.159C138.777 28.3254 138.741 28.3107 138.798 28.2897L139.49 30.1663ZM141.163 28.1479C141.525 27.3028 142.56 24.1676 143.034 21.3184L141.062 20.9896C140.612 23.6844 139.623 26.6652 139.325 27.3601L141.163 28.1479ZM141.771 22.1149L144.367 22.8629L144.921 20.9411L142.325 20.1931L141.771 22.1149ZM143.669 21.6788C143.028 24.4807 141.867 27.5957 140.802 29.7268L142.59 30.6212C143.725 28.3523 144.94 25.0873 145.619 22.1252L143.669 21.6788ZM140.696 30.174V30.218H142.696V30.174H140.696ZM141.696 30.218C141.24 29.3282 141.24 29.3282 141.239 29.3283C141.239 29.3283 141.239 29.3284 141.239 29.3284C141.239 29.3285 141.239 29.3286 141.239 29.3287C141.238 29.329 141.238 29.3293 141.237 29.3296C141.236 29.3303 141.234 29.3312 141.232 29.3324C141.227 29.3346 141.221 29.3377 141.214 29.3416C141.199 29.3494 141.178 29.3604 141.152 29.3743C141.1 29.402 141.027 29.4416 140.939 29.4905C140.766 29.5874 140.531 29.7246 140.291 29.8815C140.058 30.0338 139.788 30.2259 139.565 30.4346C139.454 30.5383 139.327 30.6714 139.222 30.8297C139.125 30.9745 138.98 31.2384 138.98 31.582H140.98C140.98 31.8046 140.888 31.9351 140.886 31.9391C140.874 31.9566 140.881 31.9417 140.931 31.8948C141.03 31.8023 141.189 31.6837 141.385 31.5555C141.574 31.4319 141.768 31.3189 141.916 31.2356C141.99 31.1944 142.051 31.1615 142.093 31.1392C142.113 31.1281 142.129 31.1198 142.14 31.1144C142.145 31.1117 142.148 31.1098 142.151 31.1087C142.152 31.1082 142.152 31.1078 142.153 31.1076C142.153 31.1076 142.153 31.1075 142.153 31.1076C142.153 31.1076 142.153 31.1076 142.153 31.1077C142.153 31.1077 142.153 31.1077 142.152 31.1077C142.152 31.1078 142.152 31.1078 141.696 30.218ZM169.856 26.346L168.859 26.4218L168.929 27.346H169.856V26.346ZM169.284 18.822L168.285 18.8555L168.285 18.8767L168.287 18.8978L169.284 18.822ZM169.174 15.544V14.544H168.14L168.175 15.5775L169.174 15.544ZM172.804 15.544L173.803 15.5775L173.838 14.544H172.804V15.544ZM172.694 18.822L173.691 18.8978L173.693 18.8767L173.693 18.8555L172.694 18.822ZM172.122 26.346V27.346H173.049L173.119 26.4218L172.122 26.346ZM170.853 26.2702L170.281 18.7462L168.287 18.8978L168.859 26.4218L170.853 26.2702ZM170.283 18.7885L170.173 15.5105L168.175 15.5775L168.285 18.8555L170.283 18.7885ZM169.174 16.544H172.804V14.544H169.174V16.544ZM171.805 15.5105L171.695 18.7885L173.693 18.8555L173.803 15.5775L171.805 15.5105ZM171.697 18.7462L171.125 26.2702L173.119 26.4218L173.691 18.8978L171.697 18.7462ZM172.122 25.346H169.856V27.346H172.122V25.346ZM171 31.22C170.408 31.22 170.042 30.8537 170.042 30.262H168.042C168.042 31.9583 169.304 33.22 171 33.22V31.22ZM170.042 30.262C170.042 29.6927 170.408 29.326 171 29.326V27.326C169.348 27.326 168.042 28.5433 168.042 30.262H170.042ZM171 29.326C171.563 29.326 171.936 29.6853 171.936 30.262H173.936C173.936 28.5507 172.637 27.326 171 27.326V29.326ZM171.936 30.262C171.936 30.8537 171.548 31.22 171 31.22V33.22C172.652 33.22 173.936 31.9583 173.936 30.262H171.936ZM193 19.67C192.351 19.67 191.888 19.2035 191.888 18.602H189.888C189.888 20.3765 191.317 21.67 193 21.67V19.67ZM191.888 18.602C191.888 17.9716 192.359 17.512 193 17.512V15.512C191.309 15.512 189.888 16.8124 189.888 18.602H191.888ZM193 17.512C193.613 17.512 194.09 17.9649 194.09 18.602H196.09C196.09 16.8191 194.675 15.512 193 15.512V17.512ZM194.09 18.602C194.09 19.2102 193.62 19.67 193 19.67V21.67C194.668 21.67 196.09 20.3698 196.09 18.602H194.09ZM193 30.164C192.351 30.164 191.888 29.6975 191.888 29.096H189.888C189.888 30.8705 191.317 32.164 193 32.164V30.164ZM191.888 29.096C191.888 28.4656 192.359 28.006 193 28.006V26.006C191.309 26.006 189.888 27.3064 189.888 29.096H191.888ZM193 28.006C193.613 28.006 194.09 28.4589 194.09 29.096H196.09C196.09 27.3131 194.675 26.006 193 26.006V28.006ZM194.09 29.096C194.09 29.7042 193.62 30.164 193 30.164V32.164C194.668 32.164 196.09 30.8638 196.09 29.096H194.09ZM209.346 23.706V22.706H208.346V23.706H209.346ZM220.61 23.706H221.61V22.706H220.61V23.706ZM220.61 25.73V26.73H221.61V25.73H220.61ZM209.346 25.73H208.346V26.73H209.346V25.73ZM209.346 27.16V26.16H208.346V27.16H209.346ZM220.61 27.16H221.61V26.16H220.61V27.16ZM220.61 29.162V30.162H221.61V29.162H220.61ZM209.346 29.162H208.346V30.162H209.346V29.162ZM209.346 30.658V29.658H208.346V30.658H209.346ZM220.632 30.658H221.632V29.658H220.632V30.658ZM220.632 32.946V33.946H221.632V32.946H220.632ZM209.346 32.946H208.346V33.946H209.346V32.946ZM205.056 16.27V15.27H204.056V16.27H205.056ZM225.01 16.27H226.01V15.27H225.01V16.27ZM225.01 18.712V19.712H226.01V18.712H225.01ZM205.056 18.712H204.056V19.712H205.056V18.712ZM207.212 20.076V19.076H206.212V20.076H207.212ZM222.656 20.076H223.656V19.076H222.656V20.076ZM222.656 33.98V34.98H223.656V33.98H222.656ZM219.906 33.98H218.906V34.98H219.906V33.98ZM219.906 22.364H220.906V21.364H219.906V22.364ZM209.852 22.364V21.364H208.852V22.364H209.852ZM209.852 33.98V34.98H210.852V33.98H209.852ZM207.212 33.98H206.212V34.98H207.212V33.98ZM213.636 17.722L213.662 16.7223L212.796 16.6995L212.65 17.5542L213.636 17.722ZM216.98 17.81L217.921 18.1482L218.389 16.8467L217.006 16.8103L216.98 17.81ZM215.264 21.484L215.145 22.4769L215.824 22.5581L216.146 21.9557L215.264 21.484ZM212.69 21.176L211.759 20.8116L211.288 22.0153L212.571 22.1689L212.69 21.176ZM218.784 13.256L218.996 12.2788L218.194 12.1044L217.867 12.8573L218.784 13.256ZM221.82 13.916L222.65 14.474L223.472 13.2517L222.032 12.9388L221.82 13.916ZM219.246 17.216L218.976 18.1789L219.567 18.3446L219.982 17.8926L219.246 17.216ZM216.892 16.556L216.087 15.9621L215.227 17.1278L216.622 17.5189L216.892 16.556ZM208.488 14.202L208.086 13.2864L206.802 13.8502L207.753 14.8803L208.488 14.202ZM210.842 13.168L211.519 12.4325L211.039 11.9895L210.44 12.2524L210.842 13.168ZM213.02 15.764L213.48 16.652L214.438 16.1561L213.871 15.2385L213.02 15.764ZM210.556 17.04L209.656 17.4769L210.105 18.3998L211.016 17.928L210.556 17.04ZM209.346 24.706H220.61V22.706H209.346V24.706ZM219.61 23.706V25.73H221.61V23.706H219.61ZM220.61 24.73H209.346V26.73H220.61V24.73ZM210.346 25.73V23.706H208.346V25.73H210.346ZM209.346 28.16H220.61V26.16H209.346V28.16ZM219.61 27.16V29.162H221.61V27.16H219.61ZM220.61 28.162H209.346V30.162H220.61V28.162ZM210.346 29.162V27.16H208.346V29.162H210.346ZM209.346 31.658H220.632V29.658H209.346V31.658ZM219.632 30.658V32.946H221.632V30.658H219.632ZM220.632 31.946H209.346V33.946H220.632V31.946ZM210.346 32.946V30.658H208.346V32.946H210.346ZM205.056 17.27H225.01V15.27H205.056V17.27ZM224.01 16.27V18.712H226.01V16.27H224.01ZM225.01 17.712H205.056V19.712H225.01V17.712ZM206.056 18.712V16.27H204.056V18.712H206.056ZM207.212 21.076H222.656V19.076H207.212V21.076ZM221.656 20.076V33.98H223.656V20.076H221.656ZM222.656 32.98H219.906V34.98H222.656V32.98ZM220.906 33.98V22.364H218.906V33.98H220.906ZM219.906 21.364H209.852V23.364H219.906V21.364ZM208.852 22.364V33.98H210.852V22.364H208.852ZM209.852 32.98H207.212V34.98H209.852V32.98ZM208.212 33.98V20.076H206.212V33.98H208.212ZM213.61 18.7217L216.954 18.8097L217.006 16.8103L213.662 16.7223L213.61 18.7217ZM216.039 17.4718C215.561 18.8017 214.891 20.0614 214.382 21.0123L216.146 21.9557C216.649 21.0146 217.387 19.6343 217.921 18.1482L216.039 17.4718ZM215.383 20.4911L212.809 20.1831L212.571 22.1689L215.145 22.4769L215.383 20.4911ZM213.621 21.5404C214.045 20.458 214.436 18.9833 214.622 17.8898L212.65 17.5542C212.484 18.5287 212.127 19.87 211.759 20.8116L213.621 21.5404ZM218.572 14.2332L221.608 14.8932L222.032 12.9388L218.996 12.2788L218.572 14.2332ZM220.99 13.358C220.159 14.5942 219.222 15.7643 218.51 16.5394L219.982 17.8926C220.766 17.0397 221.765 15.7898 222.65 14.474L220.99 13.358ZM219.516 16.2531L217.162 15.5931L216.622 17.5189L218.976 18.1789L219.516 16.2531ZM217.697 17.1499C218.427 16.1607 219.233 14.7303 219.701 13.6547L217.867 12.8573C217.455 13.8057 216.721 15.1033 216.087 15.9621L217.697 17.1499ZM208.89 15.1176L211.244 14.0836L210.44 12.2524L208.086 13.2864L208.89 15.1176ZM210.165 13.9035C210.938 14.6157 211.758 15.6239 212.169 16.2895L213.871 15.2385C213.358 14.4081 212.418 13.2603 211.519 12.4325L210.165 13.9035ZM212.56 14.876L210.096 16.152L211.016 17.928L213.48 16.652L212.56 14.876ZM211.456 16.6031C211.021 15.7084 210.046 14.4159 209.223 13.5237L207.753 14.8803C208.514 15.7041 209.343 16.8316 209.656 17.4769L211.456 16.6031ZM235.35 13.41L235.523 12.4251L234.556 12.255L234.368 13.2186L235.35 13.41ZM238.1 13.894L239.077 14.108L239.3 13.0898L238.273 12.9091L238.1 13.894ZM233.942 23.816L233.337 24.6122L234.126 25.2121L234.733 24.4279L233.942 23.816ZM231.434 22.386L230.7 21.7071L229.746 22.7389L231.033 23.3022L231.434 22.386ZM240.784 19.592H241.784V18.592H240.784V19.592ZM247.538 31.582L248.321 32.2034L249.128 31.186L247.939 30.6658L247.538 31.582ZM245.822 33.98L245.406 34.8891L246.2 35.2529L246.667 34.5151L245.822 33.98ZM239.398 26.302L240.376 26.0954L238.432 26.0443L239.398 26.302ZM232.16 33.98L231.266 34.4272L231.689 35.2741L232.558 34.8975L232.16 33.98ZM230.554 31.758L230.184 30.8291L228.808 31.3773L229.831 32.4485L230.554 31.758ZM237.99 19.592V18.592H236.99V19.592H237.99ZM226.594 28.612L225.9 27.8922L225.265 28.5044L225.793 29.2108L226.594 28.612ZM231.632 23.398L232.467 22.847L231.759 21.775L230.893 22.7241L231.632 23.398ZM233.128 25.664L233.889 26.3125L234.377 25.7403L233.963 25.113L233.128 25.664ZM228.288 30.878L227.487 31.4768L228.173 32.3949L228.99 31.5902L228.288 30.878ZM227.232 16.622L226.513 15.9273L225.711 16.7576L226.647 17.433L227.232 16.622ZM229.102 14.686L229.647 13.8476L228.956 13.3982L228.383 13.9913L229.102 14.686ZM233.062 17.81L233.798 18.4867L234.416 17.8145L233.803 17.1382L233.062 17.81ZM231.06 19.988L230.277 20.6105L231.005 21.5254L231.796 20.6647L231.06 19.988ZM236.296 17.128V16.128H235.676L235.4 16.6838L236.296 17.128ZM245.316 17.128H246.316V16.128H245.316V17.128ZM245.316 19.746V20.746H246.316V19.746H245.316ZM234.998 19.746L234.102 19.3018L233.386 20.746H234.998V19.746ZM244.436 17.128V16.128H243.436V17.128H244.436ZM244.832 17.128V18.128H244.981L245.123 18.0847L244.832 17.128ZM245.338 16.974L245.842 16.1106L245.465 15.89L245.047 16.0173L245.338 16.974ZM247.296 18.118L248.257 18.394L248.472 17.6468L247.8 17.2546L247.296 18.118ZM244.744 24.19L244.283 25.0772L245.15 25.5282L245.62 24.6714L244.744 24.19ZM242.5 23.112L241.614 22.6475L241.09 23.6468L242.145 24.047L242.5 23.112ZM244.436 17.7L245.418 17.8865L245.436 17.7941V17.7H244.436ZM235.177 14.3949L237.927 14.8789L238.273 12.9091L235.523 12.4251L235.177 14.3949ZM237.123 13.68C236.283 17.514 234.832 21.0313 233.151 23.2041L234.733 24.4279C236.66 21.9367 238.201 18.106 239.077 14.108L237.123 13.68ZM234.547 23.0198C233.919 22.5424 232.592 21.8009 231.835 21.4698L231.033 23.3022C231.684 23.5871 232.865 24.2536 233.337 24.6122L234.547 23.0198ZM232.168 23.0649C234.243 20.8212 235.634 17.1772 236.332 13.6014L234.368 13.2186C233.702 16.6388 232.409 19.8588 230.7 21.7071L232.168 23.0649ZM239.42 20.592H240.784V18.592H239.42V20.592ZM239.784 19.592V22.012H241.784V19.592H239.784ZM239.784 22.012C239.784 24.6948 241.246 29.9223 247.137 32.4982L247.939 30.6658C242.962 28.4897 241.784 24.1252 241.784 22.012H239.784ZM246.755 30.9606C246.23 31.6214 245.417 32.7503 244.977 33.4449L246.667 34.5151C247.063 33.8897 247.834 32.8186 248.321 32.2034L246.755 30.9606ZM246.238 33.0709C244.457 32.2547 243.081 30.9567 242.096 29.6154C241.105 28.2641 240.551 26.9246 240.376 26.0954L238.42 26.5086C238.663 27.6594 239.352 29.2569 240.484 30.7986C241.622 32.3503 243.249 33.9013 245.406 34.8891L246.238 33.0709ZM238.432 26.0443C237.975 27.7569 235.922 31.2591 231.762 33.0625L232.558 34.8975C237.33 32.8289 239.765 28.8071 240.364 26.5597L238.432 26.0443ZM233.054 33.5328C232.692 32.8074 231.791 31.6052 231.277 31.0675L229.831 32.4485C230.241 32.8788 231.012 33.9206 231.266 34.4272L233.054 33.5328ZM230.924 32.6869C237.336 30.1317 238.99 24.8492 238.99 22.012H236.99C236.99 24.1908 235.696 28.6323 230.184 30.8291L230.924 32.6869ZM238.99 22.012V19.592H236.99V22.012H238.99ZM237.99 20.592H239.42V18.592H237.99V20.592ZM227.288 29.3318C228.537 28.1276 230.532 26.0881 232.371 24.0719L230.893 22.7241C229.08 24.7119 227.115 26.7204 225.9 27.8922L227.288 29.3318ZM230.797 23.949L232.293 26.215L233.963 25.113L232.467 22.847L230.797 23.949ZM232.367 25.0155C230.867 26.7758 229.083 28.6905 227.586 30.1658L228.99 31.5902C230.529 30.0735 232.353 28.1162 233.889 26.3125L232.367 25.0155ZM229.089 30.2792L227.395 28.0132L225.793 29.2108L227.487 31.4768L229.089 30.2792ZM227.951 17.3167L229.821 15.3807L228.383 13.9913L226.513 15.9273L227.951 17.3167ZM228.557 15.5244C229.867 16.3758 231.556 17.6376 232.321 18.4818L233.803 17.1382C232.852 16.0904 230.977 14.7122 229.647 13.8476L228.557 15.5244ZM232.326 17.1333L230.324 19.3113L231.796 20.6647L233.798 18.4867L232.326 17.1333ZM231.843 19.3655C230.982 18.2837 229.171 16.7874 227.817 15.811L226.647 17.433C227.977 18.3926 229.598 19.7563 230.277 20.6105L231.843 19.3655ZM236.296 18.128H245.316V16.128H236.296V18.128ZM244.316 17.128V19.746H246.316V17.128H244.316ZM245.316 18.746H234.998V20.746H245.316V18.746ZM235.894 20.1902L237.192 17.5722L235.4 16.6838L234.102 19.3018L235.894 20.1902ZM244.436 18.128H244.832V16.128H244.436V18.128ZM245.123 18.0847L245.629 17.9307L245.047 16.0173L244.541 16.1713L245.123 18.0847ZM244.834 17.8374L246.792 18.9814L247.8 17.2546L245.842 16.1106L244.834 17.8374ZM246.335 17.842C245.723 19.9729 244.701 22.1909 243.868 23.7086L245.62 24.6714C246.503 23.0651 247.593 20.7071 248.257 18.394L246.335 17.842ZM245.205 23.3028C244.679 23.0291 243.561 22.4449 242.855 22.177L242.145 24.047C242.715 24.2631 243.709 24.7789 244.283 25.0772L245.205 23.3028ZM243.386 23.5765C244.125 22.1672 245.066 19.7414 245.418 17.8865L243.454 17.5135C243.146 19.1346 242.283 21.3728 241.614 22.6475L243.386 23.5765ZM245.436 17.7V17.128H243.436V17.7H245.436ZM254.952 19.196V18.196H253.952V19.196H254.952ZM263.092 19.196H264.092V18.196H263.092V19.196ZM263.092 21.396V22.396H264.092V21.396H263.092ZM254.952 21.396H253.952V22.396H254.952V21.396ZM249.54 31.384V30.384H248.54V31.384H249.54ZM268.548 31.384H269.548V30.384H268.548V31.384ZM268.548 33.54V34.54H269.548V33.54H268.548ZM249.54 33.54H248.54V34.54H249.54V33.54ZM250.816 14.136V13.136H249.816V14.136H250.816ZM256.976 14.136H257.976V13.136H256.976V14.136ZM256.976 16.27V17.27H257.976V16.27H256.976ZM250.816 16.27H249.816V17.27H250.816V16.27ZM256.14 14.136V13.136H255.14V14.136H256.14ZM256.58 14.136V15.136H256.697L256.812 15.1088L256.58 14.136ZM257.042 14.026L257.489 13.1316L257.164 12.969L256.81 13.0532L257.042 14.026ZM258.758 14.884L259.694 15.2372L260.012 14.3931L259.205 13.9896L258.758 14.884ZM249.958 24.124L249.116 24.6631L249.594 25.4098L250.392 25.0248L249.958 24.124ZM248.374 22.21L247.985 21.2889L246.514 21.9109L247.715 22.9626L248.374 22.21ZM256.14 14.576L257.077 14.9243L257.14 14.7558V14.576H256.14ZM261.156 13.388L262.077 12.9982L261.723 12.1621L260.857 12.4339L261.156 13.388ZM269.582 21.616L270.233 22.3753L271.512 21.2786L269.937 20.681L269.582 21.616ZM267.8 23.816L267.385 24.7257L268.21 25.1022L268.665 24.3181L267.8 23.816ZM258.912 14.092L258.613 13.1379L257.565 13.4664L257.99 14.4786L258.912 14.092ZM249.76 18.096L249.042 17.3999L248.197 18.2715L249.214 18.934L249.76 18.096ZM251.168 16.644L251.654 15.7698L250.984 15.3976L250.45 15.9479L251.168 16.644ZM253.94 18.712L254.677 19.3882L255.28 18.7311L254.696 18.0571L253.94 18.712ZM252.466 20.318L251.71 20.9729L252.445 21.8202L253.203 20.9942L252.466 20.318ZM264.544 13.52L265.124 12.705L264.382 12.1777L263.787 12.8664L264.544 13.52ZM266.524 14.928L267.174 15.6882L268.148 14.8557L267.104 14.113L266.524 14.928ZM262.784 17.744L262.17 18.5334L262.728 18.9672L263.323 18.5863L262.784 17.744ZM261.2 16.512L260.622 15.696L259.523 16.4745L260.586 17.3014L261.2 16.512ZM267.03 16.094L267.606 15.2765L266.877 14.7629L266.283 15.4286L267.03 16.094ZM268.966 17.458L269.625 18.2098L270.58 17.3721L269.542 16.6405L268.966 17.458ZM265.028 20.428L264.414 21.2174L264.965 21.6455L265.557 21.2769L265.028 20.428ZM263.444 19.196L262.875 18.3738L261.755 19.1491L262.83 19.9854L263.444 19.196ZM255.15 24.762V23.762H254.15V24.762H255.15ZM255.15 26.698H254.15V27.698H255.15V26.698ZM262.674 26.698V27.698H263.674V26.698H262.674ZM262.674 24.762H263.674V23.762H262.674V24.762ZM252.576 22.65V21.65H251.576V22.65H252.576ZM265.402 22.65H266.402V21.65H265.402V22.65ZM265.402 28.788V29.788H266.402V28.788H265.402ZM252.576 28.788H251.576V29.788H252.576V28.788ZM253.852 29.074L253.605 28.1049L252.313 28.4337L252.991 29.582L253.852 29.074ZM256.272 28.458L257.083 27.8725L256.684 27.3211L256.025 27.4889L256.272 28.458ZM257.526 31.12L257.802 32.0812L258.743 31.811L258.493 30.8641L257.526 31.12ZM254.996 31.846L254.017 32.0477L254.234 33.105L255.272 32.8072L254.996 31.846ZM261.706 28.436L261.917 27.4584L261.027 27.2666L260.752 28.1349L261.706 28.436ZM264.258 28.986L265.149 29.4405L265.74 28.2824L264.469 28.0084L264.258 28.986ZM262.762 31.758L262.539 32.7329L263.233 32.8914L263.61 32.288L262.762 31.758ZM260.452 31.23L259.584 30.7339L258.915 31.9044L260.229 32.2049L260.452 31.23ZM254.952 20.196H263.092V18.196H254.952V20.196ZM262.092 19.196V21.396H264.092V19.196H262.092ZM263.092 20.396H254.952V22.396H263.092V20.396ZM255.952 21.396V19.196H253.952V21.396H255.952ZM249.54 32.384H268.548V30.384H249.54V32.384ZM267.548 31.384V33.54H269.548V31.384H267.548ZM268.548 32.54H249.54V34.54H268.548V32.54ZM250.54 33.54V31.384H248.54V33.54H250.54ZM250.816 15.136H256.976V13.136H250.816V15.136ZM255.976 14.136V16.27H257.976V14.136H255.976ZM256.976 15.27H250.816V17.27H256.976V15.27ZM251.816 16.27V14.136H249.816V16.27H251.816ZM256.14 15.136H256.58V13.136H256.14V15.136ZM256.812 15.1088L257.274 14.9988L256.81 13.0532L256.348 13.1632L256.812 15.1088ZM256.595 14.9204L258.311 15.7784L259.205 13.9896L257.489 13.1316L256.595 14.9204ZM257.822 14.5308C256.304 18.5521 253.042 21.5267 249.524 23.2232L250.392 25.0248C254.266 23.1573 257.956 19.8399 259.694 15.2372L257.822 14.5308ZM250.8 23.5849C250.42 22.9908 249.657 22.0042 249.033 21.4574L247.715 22.9626C248.147 23.3398 248.792 24.1572 249.116 24.6631L250.8 23.5849ZM248.763 23.1311C252.237 21.6623 255.751 18.4922 257.077 14.9243L255.203 14.2277C254.109 17.1718 251.067 19.9857 247.985 21.2889L248.763 23.1311ZM257.14 14.576V14.136H255.14V14.576H257.14ZM260.235 13.7778C261.851 17.5947 265.124 20.9945 269.227 22.551L269.937 20.681C266.384 19.3335 263.497 16.3533 262.077 12.9982L260.235 13.7778ZM268.931 20.8567C268.211 21.4739 267.374 22.5587 266.935 23.3139L268.665 24.3181C269.018 23.7093 269.721 22.8141 270.233 22.3753L268.931 20.8567ZM268.215 22.9063C264.443 21.184 261.585 17.8816 259.834 13.7054L257.99 14.4786C259.891 19.0144 263.061 22.752 267.385 24.7257L268.215 22.9063ZM259.211 15.0461L261.455 14.3421L260.857 12.4339L258.613 13.1379L259.211 15.0461ZM250.478 18.7921L251.886 17.3401L250.45 15.9479L249.042 17.3999L250.478 18.7921ZM250.682 17.5182C251.635 18.0474 252.726 18.8378 253.184 19.3669L254.696 18.0571C254.01 17.2662 252.681 16.3406 251.654 15.7698L250.682 17.5182ZM253.203 18.0358L251.729 19.6418L253.203 20.9942L254.677 19.3882L253.203 18.0358ZM253.222 19.6631C252.562 18.9021 251.287 17.8969 250.306 17.258L249.214 18.934C250.125 19.5271 251.226 20.4139 251.71 20.9729L253.222 19.6631ZM263.964 14.335L265.944 15.743L267.104 14.113L265.124 12.705L263.964 14.335ZM265.874 14.1678C264.691 15.1786 263.298 16.2275 262.245 16.9017L263.323 18.5863C264.47 17.8525 265.937 16.7454 267.174 15.6882L265.874 14.1678ZM263.398 16.9546L261.814 15.7226L260.586 17.3014L262.17 18.5334L263.398 16.9546ZM261.778 17.328C262.888 16.5415 264.403 15.2127 265.301 14.1736L263.787 12.8664C263.013 13.7633 261.624 14.9865 260.622 15.696L261.778 17.328ZM266.454 16.9115L268.39 18.2755L269.542 16.6405L267.606 15.2765L266.454 16.9115ZM268.307 16.7062C267.085 17.7774 265.611 18.887 264.499 19.5791L265.557 21.2769C266.777 20.517 268.339 19.3386 269.625 18.2098L268.307 16.7062ZM265.642 19.6386L264.058 18.4066L262.83 19.9854L264.414 21.2174L265.642 19.6386ZM264.013 20.0182C265.205 19.1932 266.809 17.8444 267.777 16.7594L266.283 15.4286C265.447 16.3676 263.971 17.6148 262.875 18.3738L264.013 20.0182ZM254.15 24.762V26.698H256.15V24.762H254.15ZM255.15 27.698H262.674V25.698H255.15V27.698ZM263.674 26.698V24.762H261.674V26.698H263.674ZM262.674 23.762H255.15V25.762H262.674V23.762ZM252.576 23.65H265.402V21.65H252.576V23.65ZM264.402 22.65V28.788H266.402V22.65H264.402ZM265.402 27.788H252.576V29.788H265.402V27.788ZM253.576 28.788V22.65H251.576V28.788H253.576ZM254.099 30.0431L256.519 29.4271L256.025 27.4889L253.605 28.1049L254.099 30.0431ZM255.461 29.0435C255.953 29.7238 256.389 30.7308 256.559 31.3759L258.493 30.8641C258.267 30.0132 257.735 28.7762 257.083 27.8725L255.461 29.0435ZM257.25 30.1588L254.72 30.8848L255.272 32.8072L257.802 32.0812L257.25 30.1588ZM255.975 31.6443C255.793 30.7589 255.258 29.4889 254.713 28.566L252.991 29.582C253.458 30.3751 253.891 31.4371 254.017 32.0477L255.975 31.6443ZM261.495 29.4136L264.047 29.9636L264.469 28.0084L261.917 27.4584L261.495 29.4136ZM263.367 28.5315C262.81 29.6242 262.326 30.5692 261.914 31.228L263.61 32.288C264.078 31.5388 264.606 30.5038 265.149 29.4405L263.367 28.5315ZM262.985 30.7831L260.675 30.2551L260.229 32.2049L262.539 32.7329L262.985 30.7831ZM261.32 31.7261C261.786 30.9102 262.369 29.6564 262.66 28.7371L260.752 28.1349C260.515 28.8876 259.998 30.0098 259.584 30.7339L261.32 31.7261ZM271.342 21.506V20.506H270.342V21.506H271.342ZM290.746 21.506H291.746V20.506H290.746V21.506ZM290.746 23.816V24.816H291.746V23.816H290.746ZM271.342 23.816H270.342V24.816H271.342V23.816ZM279.548 22.804V21.804H278.548V22.804H279.548ZM282.254 22.804H283.254V21.804H282.254V22.804ZM281.066 33.694L280.702 32.7624L280.695 32.7655L281.066 33.694ZM277.304 34.068L276.329 34.2883L276.505 35.068H277.304V34.068ZM276.424 31.802L276.488 30.804L274.667 30.6878L275.548 32.2851L276.424 31.802ZM281.88 23.508L282.791 23.0955L282.43 22.2974L281.591 22.5507L281.88 23.508ZM291.01 30.856L291.703 31.5768L292.988 30.3415L291.264 29.8888L291.01 30.856ZM289.272 33.188L288.956 34.1367L289.769 34.4076L290.161 33.646L289.272 33.188ZM279.768 24.146L279.479 23.1887L278.408 23.5123L278.849 24.5405L279.768 24.146ZM287.446 23.728L288.04 22.9233L287.327 22.3975L286.719 23.0414L287.446 23.728ZM289.712 25.4L290.333 26.184L291.358 25.372L290.306 24.5953L289.712 25.4ZM284.828 28.788L284.201 29.567L284.731 29.9938L285.323 29.6571L284.828 28.788ZM283.024 27.336L282.485 26.494L281.314 27.2436L282.397 28.115L283.024 27.336ZM272.552 25.532L271.873 24.7979L270.859 25.7356L272.066 26.4062L272.552 25.532ZM274.312 23.904L274.777 23.0185L274.151 22.6904L273.633 23.1699L274.312 23.904ZM278.382 26.544L279.081 27.2595L279.833 26.5251L279.062 25.8106L278.382 26.544ZM276.512 28.37L275.787 29.0583L276.485 29.7943L277.211 29.0855L276.512 28.37ZM271.144 30.416L270.822 29.4692L269.647 29.8684L270.287 30.9317L271.144 30.416ZM280.406 26.94L281.38 26.7131L281.117 25.5843L280.039 26.0098L280.406 26.94ZM280.934 29.206L281.341 30.1192L282.095 29.7829L281.908 28.9791L280.934 29.206ZM272.574 32.792L271.717 33.3077L272.161 34.0445L272.956 33.7163L272.574 32.792ZM273.388 17.964V16.964H272.388V17.964H273.388ZM286.258 17.964H287.258V16.964H286.258V17.964ZM286.258 20.34V21.34H287.258V20.34H286.258ZM273.388 20.34H272.388V21.34H273.388V20.34ZM285.554 14.4V13.4H284.554V14.4H285.554ZM285.862 14.4V15.4H285.979L286.094 15.3728L285.862 14.4ZM286.324 14.29L286.386 13.2919L286.237 13.2827L286.092 13.3172L286.324 14.29ZM288.458 14.422L289.458 14.4383L289.473 13.4829L288.52 13.4239L288.458 14.422ZM287.93 22.716L287.882 23.7149L288.827 23.7598L288.925 22.8198L287.93 22.716ZM285.158 22.584L284.162 22.492L284.066 23.5331L285.11 23.5829L285.158 22.584ZM285.554 14.708L286.554 14.7199V14.708H285.554ZM272.662 14.4V13.4H271.662V14.4H272.662ZM286.324 14.4H287.324V13.4H286.324V14.4ZM286.324 16.798V17.798H287.324V16.798H286.324ZM272.662 16.798H271.662V17.798H272.662V16.798ZM271.342 22.506H290.746V20.506H271.342V22.506ZM289.746 21.506V23.816H291.746V21.506H289.746ZM290.746 22.816H271.342V24.816H290.746V22.816ZM272.342 23.816V21.506H270.342V23.816H272.342ZM279.548 23.804H282.254V21.804H279.548V23.804ZM281.254 22.804V31.494H283.254V22.804H281.254ZM281.254 31.494C281.254 32.0859 281.182 32.3459 281.115 32.471C281.076 32.5459 281.004 32.6447 280.702 32.7624L281.43 34.6256C282.03 34.3913 282.552 34.0281 282.881 33.41C283.183 32.8421 283.254 32.1781 283.254 31.494H281.254ZM280.695 32.7655C280.032 33.0306 279.042 33.068 277.304 33.068V35.068C278.91 35.068 280.34 35.0614 281.437 34.6225L280.695 32.7655ZM278.279 33.8477C278.102 33.0623 277.691 32.0283 277.3 31.3189L275.548 32.2851C275.861 32.8517 276.198 33.7097 276.329 34.2883L278.279 33.8477ZM276.36 32.8C277.421 32.8677 278.742 32.8695 279.148 32.8441L279.024 30.8479C278.726 30.8665 277.495 30.8683 276.488 30.804L276.36 32.8ZM279.148 32.8441C279.331 32.8327 279.763 32.8019 280.112 32.4932C280.517 32.1344 280.548 31.656 280.548 31.428H278.548C278.548 31.508 278.524 31.2276 278.786 30.9953C278.9 30.8944 279.008 30.8594 279.046 30.8493C279.079 30.8404 279.082 30.8443 279.024 30.8479L279.148 32.8441ZM280.548 31.428V22.804H278.548V31.428H280.548ZM280.969 23.9205C282.687 27.715 286.133 30.6091 290.756 31.8232L291.264 29.8888C287.175 28.8149 284.241 26.297 282.791 23.0955L280.969 23.9205ZM290.317 30.1352C289.667 30.7604 288.808 31.905 288.383 32.73L290.161 33.646C290.484 33.019 291.209 32.0516 291.703 31.5768L290.317 30.1352ZM289.588 32.2393C285.341 30.8236 282.46 27.8823 280.687 23.7515L278.849 24.5405C280.816 29.1217 284.095 32.5164 288.956 34.1367L289.588 32.2393ZM280.057 25.1033L282.169 24.4653L281.591 22.5507L279.479 23.1887L280.057 25.1033ZM286.852 24.5327L289.118 26.2047L290.306 24.5953L288.04 22.9233L286.852 24.5327ZM289.091 24.616C287.53 25.8523 285.703 27.1391 284.333 27.9189L285.323 29.6571C286.813 28.8089 288.726 27.4557 290.333 26.184L289.091 24.616ZM285.455 28.009L283.651 26.557L282.397 28.115L284.201 29.567L285.455 28.009ZM283.563 28.178C285.028 27.2396 286.986 25.6712 288.173 24.4146L286.719 23.0414C285.662 24.1608 283.836 25.6284 282.485 26.494L283.563 28.178ZM273.231 26.2661L274.991 24.6381L273.633 23.1699L271.873 24.7979L273.231 26.2661ZM273.847 24.7895C275.182 25.4897 276.905 26.5385 277.702 27.2774L279.062 25.8106C278.055 24.8775 276.126 23.7263 274.777 23.0185L273.847 24.7895ZM277.683 25.8285L275.813 27.6545L277.211 29.0855L279.081 27.2595L277.683 25.8285ZM277.237 27.6817C276.319 26.7134 274.454 25.4447 273.038 24.6578L272.066 26.4062C273.422 27.1593 275.077 28.3106 275.787 29.0583L277.237 27.6817ZM271.466 31.3628C273.756 30.5847 277.426 29.1913 280.773 27.8702L280.039 26.0098C276.698 27.3287 273.064 28.7073 270.822 29.4692L271.466 31.3628ZM279.432 27.1669L279.96 29.4329L281.908 28.9791L281.38 26.7131L279.432 27.1669ZM280.527 28.2928C277.676 29.5643 274.583 30.8806 272.192 31.8677L272.956 33.7163C275.361 32.7234 278.472 31.3997 281.341 30.1192L280.527 28.2928ZM273.431 32.2763L272.001 29.9003L270.287 30.9317L271.717 33.3077L273.431 32.2763ZM273.388 18.964H286.258V16.964H273.388V18.964ZM285.258 17.964V20.34H287.258V17.964H285.258ZM286.258 19.34H273.388V21.34H286.258V19.34ZM274.388 20.34V17.964H272.388V20.34H274.388ZM285.554 15.4H285.862V13.4H285.554V15.4ZM286.094 15.3728L286.556 15.2628L286.092 13.3172L285.63 13.4272L286.094 15.3728ZM286.262 15.2881L288.396 15.4201L288.52 13.4239L286.386 13.2919L286.262 15.2881ZM287.458 14.4057C287.415 17.0754 287.197 20.1033 286.935 22.6122L288.925 22.8198C289.191 20.2687 289.413 17.1806 289.458 14.4383L287.458 14.4057ZM287.978 21.7171L285.206 21.5851L285.11 23.5829L287.882 23.7149L287.978 21.7171ZM286.154 22.676C286.399 20.0248 286.532 16.5871 286.554 14.7199L284.554 14.6961C284.532 16.5249 284.401 19.9072 284.162 22.492L286.154 22.676ZM286.554 14.708V14.4H284.554V14.708H286.554ZM272.662 15.4H286.324V13.4H272.662V15.4ZM285.324 14.4V16.798H287.324V14.4H285.324ZM286.324 15.798H272.662V17.798H286.324V15.798ZM273.662 16.798V14.4H271.662V16.798H273.662ZM293.386 15.434L292.594 14.8238L291.842 15.8003L292.952 16.335L293.386 15.434ZM294.86 13.52L295.246 12.5974L294.537 12.3009L294.068 12.9098L294.86 13.52ZM298.358 15.588L299.159 16.1866L299.693 15.4716L299.043 14.8598L298.358 15.588ZM296.796 17.678L296.078 18.3738L296.894 19.2168L297.597 18.2766L296.796 17.678ZM292.594 21.33L291.791 20.7343L291.037 21.7507L292.2 22.2491L292.594 21.33ZM294.046 19.372L294.397 18.4357L293.692 18.1711L293.243 18.7763L294.046 19.372ZM297.588 21.308L298.403 21.8876L298.925 21.1539L298.25 20.5582L297.588 21.308ZM296.07 23.442L295.385 24.1708L296.221 24.9555L296.885 24.0216L296.07 23.442ZM292.836 32.44L291.922 32.0339L291.544 32.8852L292.366 33.3228L292.836 32.44ZM295.498 25.224L296.02 24.3711L294.916 23.695L294.541 24.9344L295.498 25.224ZM297.654 26.544L298.614 26.8257L298.829 26.091L298.176 25.6911L297.654 26.544ZM295.234 33.716L294.764 34.5988L295.762 35.1299L296.168 34.0743L295.234 33.716ZM306.784 15.918V14.918H305.784V15.918H306.784ZM313.318 15.918H314.318V14.918H313.318V15.918ZM313.318 18.426V19.426H314.318V18.426H313.318ZM306.784 18.426H305.784V19.426H306.784V18.426ZM306.454 20.076V19.076H305.454V20.076H306.454ZM311.888 20.076H312.888V19.076H311.888V20.076ZM311.888 22.364V23.364H312.888V22.364H311.888ZM306.454 22.364H305.454V23.364H306.454V22.364ZM305.53 25.312V24.312H304.53V25.312H305.53ZM313.362 25.312H314.362V24.312H313.362V25.312ZM313.362 27.688V28.688H314.362V27.688H313.362ZM305.53 27.688H304.53V28.688H305.53V27.688ZM306.696 13.344L306.869 12.359L305.864 12.1828L305.708 13.1907L306.696 13.344ZM309.204 13.784L310.19 13.9484L310.353 12.9704L309.377 12.799L309.204 13.784ZM306.586 21.352L305.975 22.1433L306.828 22.8028L307.421 21.902L306.586 21.352ZM304.342 20.054L303.547 19.447L302.791 20.4366L303.921 20.961L304.342 20.054ZM308.258 23.464V22.464H307.258V23.464H308.258ZM310.7 23.464H311.7V22.464H310.7V23.464ZM309.71 33.606L310.137 34.5102L310.147 34.5055L310.157 34.5004L309.71 33.606ZM306.366 34.024L305.37 34.1173L305.455 35.024H306.366V34.024ZM305.684 31.604L305.733 30.6052L304.168 30.5289L304.758 31.9804L305.684 31.604ZM310.854 20.076V19.076H309.854V20.076H310.854ZM311.404 20.076V21.076H311.566L311.72 21.0247L311.404 20.076ZM311.866 19.922L312.447 19.1083L312.033 18.8123L311.55 18.9733L311.866 19.922ZM313.406 21.022L314.271 21.5235L314.727 20.7368L313.987 20.2083L313.406 21.022ZM310.15 25.378L309.324 25.9413L310.004 26.9385L310.857 26.0851L310.15 25.378ZM308.72 23.816L307.995 23.1277L307.284 23.8771L308.056 24.5634L308.72 23.816ZM310.854 20.516L311.772 20.9124L311.854 20.7227V20.516H310.854ZM297.676 16.49V15.49H296.676V16.49H297.676ZM305.464 16.49H306.464V15.49H305.464V16.49ZM305.464 18.998V19.998H306.464V18.998H305.464ZM297.676 18.998H296.676V19.998H297.676V18.998ZM300.14 21.418V20.418H299.14V21.418H300.14ZM303.88 21.418H304.88V20.418H303.88V21.418ZM303.88 23.816V24.816H304.88V23.816H303.88ZM300.14 23.816H299.14V24.816H300.14V23.816ZM300.426 13.366V12.366H299.426V13.366H300.426ZM302.956 13.366H303.956V12.366H302.956V13.366ZM302.956 18.25V19.25H303.956V18.25H302.956ZM300.426 18.25H299.426V19.25H300.426V18.25ZM302.912 21.418V20.418H301.912V21.418H302.912ZM305.288 21.418H306.288V20.418H305.288V21.418ZM305.266 22.452L304.269 22.3808L304.267 22.4007L304.266 22.4208L305.266 22.452ZM304.232 32.946L305.036 33.5412L305.04 33.5355L304.232 32.946ZM302.78 33.87L302.598 32.8867L302.583 32.8895L302.568 32.8928L302.78 33.87ZM300.624 33.958L299.626 34.0185L299.681 34.9342L300.598 34.9577L300.624 33.958ZM299.986 31.604L300.053 30.6062L298.168 30.4806L299.123 32.1097L299.986 31.604ZM302.142 31.34L301.326 30.762L301.318 30.7735L301.31 30.7853L302.142 31.34ZM302.912 21.88L303.912 21.9065L303.912 21.8932V21.88H302.912ZM299.282 18.338V17.338H298.299L298.282 18.3213L299.282 18.338ZM301.702 18.338L302.702 18.3602L302.724 17.338H301.702V18.338ZM298.072 33.936L297.25 34.5052L297.985 35.5677L298.829 34.589L298.072 33.936ZM296.29 32.22L295.538 31.5611L294.761 32.4479L295.763 33.0696L296.29 32.22ZM294.178 16.0442L295.652 14.1302L294.068 12.9098L292.594 14.8238L294.178 16.0442ZM294.474 14.4426C295.644 14.9316 297.054 15.7341 297.673 16.3162L299.043 14.8598C298.166 14.0339 296.496 13.1204 295.246 12.5974L294.474 14.4426ZM297.557 14.9893L295.995 17.0793L297.597 18.2766L299.159 16.1866L297.557 14.9893ZM297.514 16.9822C296.71 16.1522 295.045 15.1231 293.82 14.533L292.952 16.335C294.103 16.8889 295.518 17.7958 296.078 18.3738L297.514 16.9822ZM293.397 21.9257L294.849 19.9677L293.243 18.7763L291.791 20.7343L293.397 21.9257ZM293.695 20.3083C294.88 20.7526 296.311 21.5149 296.926 22.0578L298.25 20.5582C297.369 19.7811 295.676 18.9154 294.397 18.4357L293.695 20.3083ZM296.773 20.7284L295.255 22.8624L296.885 24.0216L298.403 21.8876L296.773 20.7284ZM296.755 22.7132C295.911 21.9209 294.277 20.9633 292.988 20.4109L292.2 22.2491C293.375 22.7527 294.777 23.5991 295.385 24.1708L296.755 22.7132ZM293.75 32.8461C294.558 31.0273 295.651 28.1724 296.455 25.5136L294.541 24.9344C293.761 27.5116 292.698 30.2887 291.922 32.0339L293.75 32.8461ZM294.976 26.0769L297.132 27.3969L298.176 25.6911L296.02 24.3711L294.976 26.0769ZM296.694 26.2623C295.998 28.6347 295.127 31.2051 294.3 33.3577L296.168 34.0743C297.013 31.8709 297.902 29.2493 298.614 26.8257L296.694 26.2623ZM295.704 32.8332L293.306 31.5572L292.366 33.3228L294.764 34.5988L295.704 32.8332ZM306.784 16.918H313.318V14.918H306.784V16.918ZM312.318 15.918V18.426H314.318V15.918H312.318ZM313.318 17.426H306.784V19.426H313.318V17.426ZM307.784 18.426V15.918H305.784V18.426H307.784ZM306.454 21.076H311.888V19.076H306.454V21.076ZM310.888 20.076V22.364H312.888V20.076H310.888ZM311.888 21.364H306.454V23.364H311.888V21.364ZM307.454 22.364V20.076H305.454V22.364H307.454ZM305.53 26.312H313.362V24.312H305.53V26.312ZM312.362 25.312V27.688H314.362V25.312H312.362ZM313.362 26.688H305.53V28.688H313.362V26.688ZM306.53 27.688V25.312H304.53V27.688H306.53ZM306.523 14.329L309.031 14.769L309.377 12.799L306.869 12.359L306.523 14.329ZM308.218 13.6196C307.746 16.4519 306.832 19.1598 305.751 20.802L307.421 21.902C308.716 19.9362 309.694 16.9241 310.19 13.9484L308.218 13.6196ZM307.197 20.5607C306.629 20.1216 305.41 19.4472 304.763 19.147L303.921 20.961C304.506 21.2328 305.575 21.8344 305.975 22.1433L307.197 20.5607ZM305.137 20.661C306.505 18.8702 307.282 16.0874 307.684 13.4973L305.708 13.1907C305.318 15.7046 304.599 18.0698 303.547 19.447L305.137 20.661ZM308.258 24.464H310.7V22.464H308.258V24.464ZM309.7 23.464V31.362H311.7V23.464H309.7ZM309.7 31.362C309.7 31.926 309.648 32.2263 309.576 32.4024C309.527 32.5225 309.461 32.6125 309.263 32.7116L310.157 34.5004C310.751 34.2035 311.18 33.7655 311.428 33.1596C311.653 32.6097 311.7 31.986 311.7 31.362H309.7ZM309.283 32.7018C308.731 32.9625 307.892 33.024 306.366 33.024V35.024C307.788 35.024 309.105 34.9975 310.137 34.5102L309.283 32.7018ZM307.362 33.9307C307.282 33.0764 306.906 31.954 306.61 31.2276L304.758 31.9804C305.034 32.662 305.318 33.5636 305.37 34.1173L307.362 33.9307ZM305.635 32.6028C306.565 32.6481 307.577 32.648 307.884 32.648V30.648C307.575 30.648 306.607 30.6479 305.733 30.6052L305.635 32.6028ZM307.884 32.648C308.021 32.648 308.465 32.6534 308.829 32.3413C309.244 31.9853 309.258 31.4955 309.258 31.318H307.258C307.258 31.3394 307.255 31.2858 307.28 31.1992C307.311 31.0957 307.381 30.9479 307.527 30.8227C307.664 30.7053 307.799 30.6674 307.855 30.6555C307.906 30.6446 307.926 30.648 307.884 30.648V32.648ZM309.258 31.318V23.464H307.258V31.318H309.258ZM310.854 21.076H311.404V19.076H310.854V21.076ZM311.72 21.0247L312.182 20.8707L311.55 18.9733L311.088 19.1273L311.72 21.0247ZM311.285 20.7357L312.825 21.8357L313.987 20.2083L312.447 19.1083L311.285 20.7357ZM312.541 20.5205C311.693 21.9838 310.489 23.625 309.443 24.6709L310.857 26.0851C312.055 24.887 313.359 23.0962 314.271 21.5235L312.541 20.5205ZM310.976 24.8147C310.58 24.2342 309.809 23.4458 309.384 23.0686L308.056 24.5634C308.423 24.8902 309.06 25.5538 309.324 25.9413L310.976 24.8147ZM309.445 24.5043C310.355 23.5452 311.317 21.9662 311.772 20.9124L309.936 20.1196C309.555 21.0018 308.713 22.3708 307.995 23.1277L309.445 24.5043ZM311.854 20.516V20.076H309.854V20.516H311.854ZM297.676 17.49H305.464V15.49H297.676V17.49ZM304.464 16.49V18.998H306.464V16.49H304.464ZM305.464 17.998H297.676V19.998H305.464V17.998ZM298.676 18.998V16.49H296.676V18.998H298.676ZM300.14 22.418H303.88V20.418H300.14V22.418ZM302.88 21.418V23.816H304.88V21.418H302.88ZM303.88 22.816H300.14V24.816H303.88V22.816ZM301.14 23.816V21.418H299.14V23.816H301.14ZM300.426 14.366H302.956V12.366H300.426V14.366ZM301.956 13.366V18.25H303.956V13.366H301.956ZM302.956 17.25H300.426V19.25H302.956V17.25ZM301.426 18.25V13.366H299.426V18.25H301.426ZM302.912 22.418H305.288V20.418H302.912V22.418ZM305.288 21.418C304.288 21.418 304.288 21.418 304.288 21.418C304.288 21.418 304.288 21.418 304.288 21.418C304.288 21.418 304.288 21.418 304.288 21.418C304.288 21.4181 304.288 21.4182 304.288 21.4183C304.288 21.4186 304.288 21.419 304.288 21.4196C304.288 21.4208 304.288 21.4227 304.288 21.4252C304.288 21.4303 304.288 21.4379 304.288 21.4477C304.288 21.4674 304.288 21.4961 304.288 21.5315C304.287 21.6026 304.287 21.7003 304.285 21.807C304.283 22.0308 304.277 22.2606 304.269 22.3808L306.263 22.5232C306.277 22.3354 306.282 22.0482 306.285 21.832C306.287 21.7187 306.287 21.6157 306.288 21.541C306.288 21.5036 306.288 21.4731 306.288 21.4519C306.288 21.4413 306.288 21.433 306.288 21.4272C306.288 21.4244 306.288 21.4221 306.288 21.4206C306.288 21.4198 306.288 21.4192 306.288 21.4188C306.288 21.4186 306.288 21.4184 306.288 21.4183C306.288 21.4182 306.288 21.4181 306.288 21.4181C306.288 21.4181 306.288 21.418 306.288 21.418C306.288 21.418 306.288 21.418 305.288 21.418ZM304.266 22.4208C304.156 25.9433 304.047 28.3331 303.894 29.9387C303.817 30.7421 303.732 31.3197 303.638 31.7306C303.541 32.1589 303.452 32.3181 303.424 32.3565L305.04 33.5355C305.309 33.1669 305.471 32.6908 305.588 32.1752C305.71 31.6422 305.805 30.9672 305.885 30.1288C306.045 28.4509 306.156 26.0007 306.266 22.4832L304.266 22.4208ZM303.428 32.3508C303.265 32.5719 303.14 32.6762 303.042 32.7365C302.944 32.7966 302.817 32.8462 302.598 32.8867L302.962 34.8533C303.337 34.7838 303.716 34.6684 304.086 34.4425C304.455 34.2168 304.759 33.9141 305.036 33.5412L303.428 32.3508ZM302.568 32.8928C302.202 32.9724 301.537 32.9811 300.65 32.9583L300.598 34.9577C301.427 34.9789 302.346 34.9876 302.992 34.8472L302.568 32.8928ZM301.622 33.8975C301.573 33.0806 301.33 31.9194 300.849 31.0983L299.123 32.1097C299.39 32.5646 299.587 33.3834 299.626 34.0185L301.622 33.8975ZM299.919 32.6018C300.588 32.6463 301.163 32.67 301.504 32.67V30.67C301.229 30.67 300.704 30.6497 300.053 30.6062L299.919 32.6018ZM301.504 32.67C301.715 32.67 302.004 32.6479 302.302 32.5032C302.61 32.3533 302.821 32.1244 302.974 31.8947L301.31 30.7853C301.297 30.8044 301.3 30.7965 301.321 30.777C301.344 30.7551 301.38 30.7277 301.427 30.7048C301.521 30.6591 301.579 30.67 301.504 30.67V32.67ZM302.958 31.918C303.186 31.5967 303.299 31.1668 303.377 30.7634C303.463 30.3194 303.535 29.7355 303.598 28.9875C303.724 27.488 303.824 25.2301 303.912 21.9065L301.912 21.8535C301.824 25.1739 301.726 27.382 301.605 28.8195C301.544 29.54 301.48 30.0423 301.414 30.3834C301.34 30.7652 301.285 30.8193 301.326 30.762L302.958 31.918ZM303.912 21.88V21.418H301.912V21.88H303.912ZM299.282 19.338H301.702V17.338H299.282V19.338ZM300.702 18.3158C300.636 21.2875 300.521 24.1958 300.042 26.8063C299.563 29.4171 298.736 31.6351 297.315 33.283L298.829 34.589C300.576 32.5629 301.498 29.9519 302.009 27.1672C302.52 24.3822 302.636 21.3285 302.702 18.3602L300.702 18.3158ZM298.894 33.3668C298.43 32.6957 297.585 31.8469 296.817 31.3704L295.763 33.0696C296.271 33.3851 296.922 34.0323 297.25 34.5052L298.894 33.3668ZM297.042 32.8789C298.618 31.0797 299.387 28.7085 299.788 26.2131C300.189 23.7155 300.238 20.9691 300.282 18.3547L298.282 18.3213C298.238 20.9649 298.188 23.5645 297.813 25.8959C297.439 28.2295 296.756 30.1703 295.538 31.5611L297.042 32.8789ZM314.946 15.676V14.676H313.946V15.676H314.946ZM321.59 15.676H322.59V14.676H321.59V15.676ZM321.59 18.008V19.008H322.59V18.008H321.59ZM314.946 18.008H313.946V19.008H314.946V18.008ZM320.996 15.676V14.676H319.996V15.676H320.996ZM321.458 15.676V16.676H321.557L321.654 16.6566L321.458 15.676ZM321.898 15.588L322.218 14.6406L321.964 14.5549L321.702 14.6074L321.898 15.588ZM323.592 16.16L324.584 16.2848L324.686 15.474L323.912 15.2126L323.592 16.16ZM316.332 32.484L315.487 33.0191L316.104 33.9925L316.981 33.2451L316.332 32.484ZM314.418 30.35L313.817 29.5506L312.734 30.365L313.831 31.1599L314.418 30.35ZM320.996 16.248L321.989 16.3702L321.996 16.3093V16.248H320.996ZM314.858 20.45L314.214 19.6848L313.484 20.2989L314.063 21.0569L314.858 20.45ZM316.662 18.932L317.447 18.312L316.807 17.5029L316.018 18.1668L316.662 18.932ZM323.988 29.008L324.663 29.7461L325.243 29.2157L324.865 28.5266L323.988 29.008ZM321.942 30.878L321.049 31.3281L321.643 32.5062L322.617 31.6161L321.942 30.878ZM323.372 19.46L323.255 18.4669L322.244 18.5864L322.381 19.5951L323.372 19.46ZM334.724 18.118L335.716 17.9894L335.589 17.0088L334.607 17.1249L334.724 18.118ZM335.032 20.494L335.153 21.4866L336.153 21.3643L336.024 20.3654L335.032 20.494ZM323.702 21.88L322.711 22.0151L322.844 22.9924L323.823 22.8726L323.702 21.88ZM329.4 14.796L328.805 13.9926L327.895 14.6671L328.677 15.4865L329.4 14.796ZM331.27 13.41L331.96 12.6863L331.351 12.1054L330.675 12.6066L331.27 13.41ZM334.196 16.424L334.811 17.2124L335.591 16.6038L334.991 15.8173L334.196 16.424ZM332.194 17.986L331.362 18.5407L331.96 19.4372L332.809 18.7744L332.194 17.986ZM325.528 13.454V12.454H324.502L324.528 13.4792L325.528 13.454ZM328.278 13.454L329.278 13.4447L329.269 12.454H328.278V13.454ZM332.15 30.68L331.988 31.6668L332.026 31.673L332.063 31.6762L332.15 30.68ZM333.052 27.314L333.801 26.6514L332.212 24.8554L332.054 27.2481L333.052 27.314ZM335.274 28.898L336.265 29.0336L336.36 28.3367L335.737 28.0114L335.274 28.898ZM332.282 33.958L332.175 34.9522L332.192 34.9541L332.209 34.9554L332.282 33.958ZM332.238 21.22L332.749 20.3601L331.747 19.7657L331.311 20.8452L332.238 21.22ZM334.35 22.474L335.274 22.8566L335.605 22.0564L334.861 21.6141L334.35 22.474ZM325 33.21L324.217 33.8314L324.735 34.4848L325.471 34.0924L325 33.21ZM322.91 31.252L322.506 30.3372L320.852 31.0673L322.35 32.0803L322.91 31.252ZM314.946 16.676H321.59V14.676H314.946V16.676ZM320.59 15.676V18.008H322.59V15.676H320.59ZM321.59 17.008H314.946V19.008H321.59V17.008ZM315.946 18.008V15.676H313.946V18.008H315.946ZM320.996 16.676H321.458V14.676H320.996V16.676ZM321.654 16.6566L322.094 16.5686L321.702 14.6074L321.262 14.6954L321.654 16.6566ZM321.578 16.5354L323.272 17.1074L323.912 15.2126L322.218 14.6406L321.578 16.5354ZM322.6 16.0352C321.691 23.2588 319.288 28.6504 315.683 31.7229L316.981 33.2451C321.12 29.7176 323.645 23.7572 324.584 16.2848L322.6 16.0352ZM317.177 31.9489C316.716 31.2216 315.778 30.0998 315.005 29.5401L313.831 31.1599C314.334 31.5242 315.112 32.4264 315.487 33.0191L317.177 31.9489ZM315.019 31.1494C318.789 28.3155 321.248 22.3804 321.989 16.3702L320.003 16.1258C319.292 21.9076 316.955 27.1925 313.817 29.5506L315.019 31.1494ZM321.996 16.248V15.676H319.996V16.248H321.996ZM315.502 21.2152L317.306 19.6972L316.018 18.1668L314.214 19.6848L315.502 21.2152ZM315.877 19.552C318.391 22.7326 321.688 26.8976 323.111 29.4894L324.865 28.5266C323.34 25.7504 319.905 21.4234 317.447 18.312L315.877 19.552ZM323.313 28.2699L321.267 30.1399L322.617 31.6161L324.663 29.7461L323.313 28.2699ZM322.835 30.4279C321.4 27.5809 318.129 23.086 315.653 19.8431L314.063 21.0569C316.559 24.326 319.712 28.6751 321.049 31.3281L322.835 30.4279ZM323.489 20.4531L334.841 19.1111L334.607 17.1249L323.255 18.4669L323.489 20.4531ZM333.732 18.2466L334.04 20.6226L336.024 20.3654L335.716 17.9894L333.732 18.2466ZM334.911 19.5014L323.581 20.8874L323.823 22.8726L335.153 21.4866L334.911 19.5014ZM324.693 21.7449L324.363 19.3249L322.381 19.5951L322.711 22.0151L324.693 21.7449ZM329.995 15.5994L331.865 14.2134L330.675 12.6066L328.805 13.9926L329.995 15.5994ZM330.58 14.1337C331.555 15.0638 332.823 16.2735 333.401 17.0307L334.991 15.8173C334.293 14.9025 332.877 13.5602 331.96 12.6863L330.58 14.1337ZM333.581 15.6356L331.579 17.1976L332.809 18.7744L334.811 17.2124L333.581 15.6356ZM333.026 17.4313C332.393 16.4823 331.018 15.0425 330.123 14.1055L328.677 15.4865C329.63 16.4855 330.851 17.7737 331.362 18.5407L333.026 17.4313ZM325.528 14.454H328.278V12.454H325.528V14.454ZM327.278 13.4633C327.322 18.2374 327.62 22.5083 328.26 25.6648C328.579 27.2372 328.995 28.5957 329.545 29.6142C330.083 30.6104 330.862 31.4821 331.988 31.6668L332.312 29.6932C332.096 29.6579 331.731 29.4544 331.305 28.6644C330.891 27.8968 330.523 26.7583 330.221 25.2672C329.618 22.2967 329.322 18.1746 329.278 13.4447L327.278 13.4633ZM332.063 31.6762C332.636 31.726 333.052 31.4153 333.289 31.0917C333.499 30.8061 333.62 30.4555 333.701 30.1373C333.87 29.4828 333.973 28.5475 334.05 27.3799L332.054 27.2481C331.977 28.4125 331.882 29.1822 331.765 29.6387C331.703 29.876 331.659 29.9324 331.676 29.9094C331.721 29.8485 331.917 29.656 332.237 29.6838L332.063 31.6762ZM332.303 27.9766C332.644 28.362 333.162 28.7501 333.601 29.0486C334.057 29.3586 334.519 29.6322 334.811 29.7846L335.737 28.0114C335.523 27.8998 335.127 27.6674 334.725 27.3944C334.306 27.1099 333.966 26.838 333.801 26.6514L332.303 27.9766ZM334.283 28.7624C334.004 30.8008 333.586 31.8986 333.197 32.4566C333.012 32.7216 332.852 32.8391 332.739 32.8947C332.628 32.949 332.507 32.9717 332.355 32.9606L332.209 34.9554C332.662 34.9883 333.146 34.923 333.62 34.6899C334.092 34.4582 334.497 34.0889 334.838 33.6004C335.499 32.6514 335.972 31.1752 336.265 29.0336L334.283 28.7624ZM332.389 32.9638C330.366 32.7455 328.948 31.2054 327.995 27.8008C327.046 24.4068 326.682 19.5395 326.528 13.4288L324.528 13.4792C324.682 19.5785 325.044 24.6772 326.069 28.3397C327.091 31.9916 328.896 34.5985 332.175 34.9522L332.389 32.9638ZM331.727 22.0799L333.839 23.3339L334.861 21.6141L332.749 20.3601L331.727 22.0799ZM333.426 22.0914C331.697 26.2675 328.255 30.3409 324.529 32.3276L325.471 34.0924C329.665 31.8551 333.395 27.3925 335.274 22.8566L333.426 22.0914ZM325.783 32.5886C325.224 31.8825 324.315 30.9948 323.47 30.4237L322.35 32.0803C323.001 32.5212 323.764 33.2615 324.217 33.8314L325.783 32.5886ZM323.314 32.1668C327.727 30.2186 331.413 25.9295 333.165 21.5948L331.311 20.8452C329.719 24.7825 326.365 28.6334 322.506 30.3372L323.314 32.1668Z" fill="black"/>
<defs>
<linearGradient id="paint0_linear_3999_752" x1="185.5" y1="0" x2="185.5" y2="47" gradientUnits="userSpaceOnUse">
<stop offset="0.9999" stop-color="#FCECDD"/>
<stop offset="1" stop-color="#078AD4"/>
</linearGradient>
</defs>
</svg>
