<svg width="57" height="57" viewBox="0 0 57 57" fill="none" xmlns="http://www.w3.org/2000/svg">
<g clip-path="url(#clip0_4554_636)">
<path d="M53.5801 49.9933L40.5128 57.0015L20.9362 20.493L34.0034 13.4862L53.5801 49.9933Z" fill="#528BF2"/>
<path d="M36.0654 20.493L16.4902 57.0015L3.4201 49.9919L22.9953 13.4834L36.0654 20.493Z" fill="#528BF2"/>
<path d="M49.228 20.5186C49.228 17.8238 48.6919 15.1555 47.6503 12.6659C46.6087 10.1763 45.082 7.9142 43.1573 6.00874C41.2327 4.10328 38.9478 2.59179 36.4331 1.56057C33.9185 0.529341 31.2233 -0.00142741 28.5014 -0.00142741C25.7795 -0.00142741 23.0843 0.529341 20.5697 1.56057C18.055 2.59179 15.7701 4.10328 13.8455 6.00874C11.9208 7.9142 10.3941 10.1763 9.3525 12.6659C8.31089 15.1555 7.77478 17.8238 7.77478 20.5186C7.77478 23.2133 8.31089 25.8816 9.3525 28.3712C10.3941 30.8608 11.9208 33.1229 13.8455 35.0284C15.7701 36.9339 18.055 38.4454 20.5697 39.4766C23.0843 40.5078 25.7795 41.0386 28.5014 41.0386C31.2233 41.0386 33.9185 40.5078 36.4331 39.4766C38.9478 38.4454 41.2327 36.9339 43.1573 35.0284C45.082 33.1229 46.6087 30.8608 47.6503 28.3712C48.6919 25.8816 49.228 23.2133 49.228 20.5186Z" fill="#FFC730"/>
<path d="M28.6425 10.1974V26.2999L32.3674 23.031V26.0591L28.6425 29.2725H25.9108V10.1974H28.6425Z" fill="white"/>
</g>
<defs>
<clipPath id="clip0_4554_636">
<rect width="57" height="57" fill="white" transform="matrix(-1 0 0 -1 57 57)"/>
</clipPath>
</defs>
</svg>
