<?xml version="1.0" standalone="no"?><!DOCTYPE svg PUBLIC "-//W3C//DTD SVG 1.1//EN" "http://www.w3.org/Graphics/SVG/1.1/DTD/svg11.dtd"><svg t="1697070437288" class="icon" viewBox="0 0 1330 1024" version="1.1" xmlns="http://www.w3.org/2000/svg" p-id="8576" xmlns:xlink="http://www.w3.org/1999/xlink" width="259.765625" height="200"><path d="M842.057425 0.948441v321.995678l178.781105-148.430998V0.948441H842.057425zM305.397962 174.513121l178.781106 148.589071V0.948441h-178.623032l-0.158074 173.56468z m255.446743 211.976536l76.665638 63.861686c14.06854 13.752393 36.514974 13.752393 50.741587 0l76.665637-63.861686V0.948441H560.528558v385.541216h0.316147z m0 0" fill="#F2816B" p-id="8577"></path><path d="M1054.666255 525.278172c-55.167644-36.989194-82.67243-103.380056-69.868478-168.664402 10.748997-70.500772-19.126891-100.060513-89.469589-89.46959-65.284347 12.803952-131.833282-14.858907-168.822476-70.026551-42.205619-57.2226-84.411238-57.2226-126.616857 0-36.989194 55.167644-103.538129 82.67243-168.664403 69.868478-70.342698-10.748997-100.218586 19.126891-89.469589 89.469589 12.962025 65.126274-14.700834 131.675208-69.868478 168.506329-57.2226 42.047546-57.2226 84.411238 0 126.616857 55.325718 37.147268 82.830503 103.538129 70.026551 168.664403-10.748997 70.500772 19.126891 100.060513 89.469589 89.469589 65.126274-12.803952 131.675208 14.858907 168.664403 69.868478 42.205619 57.2226 84.411238 57.2226 126.616857 0 36.989194-55.167644 103.538129-82.514356 168.664403-69.868478 70.342698 10.748997 100.060513-19.126891 89.469589-89.469589-12.962025-65.126274 14.700834-131.675208 69.868478-168.664403 57.2226-41.889472 57.2226-83.937018 0-126.30071z m0 0" fill="#FC9E81" p-id="8578"></path><path d="M382.379747 588.349491c0 155.228157 125.82649 281.054646 281.054646 281.054646 155.228157 0 281.054646-125.82649 281.054647-281.054646 0-155.228157-125.82649-281.054646-281.054647-281.054647-155.228157 0.158073-281.054646 125.984563-281.054646 281.054647z m0 0" fill="#FFB799" p-id="8579"></path><path d="M634.981167 691.729546h130.884841v53.58691H560.686632v-22.920655c0-16.123495 2.845323-30.666255 8.852115-43.944427 6.006792-13.278172 14.06854-25.607904 24.343315-37.147268 10.43285-11.539364 26.398271-24.97561 48.212412-40.308737 19.917258-14.858907 33.827725-28.137079 41.889472-39.51837 7.903674-11.539364 12.013584-23.711022 12.013584-36.514974 0-27.820932-15.175054-41.573325-45.367089-41.573325-26.556345 0-52.006175 10.590923-76.191417 31.930843V457.93887c26.872492-17.388083 57.2226-26.082124 90.734178-26.082124 30.824328 0 55.167644 7.903674 73.029947 23.711022 18.020377 15.649274 26.872492 37.463415 26.872492 64.9682 0 15.491201-2.529176 29.401667-7.745601 41.731398-5.216425 12.329731-12.645878 24.027169-22.446434 35.092313-9.800556 10.90707-25.607904 24.027169-47.105897 39.202223-20.865699 14.858907-34.934239 26.398271-42.047545 34.460018-7.113307 7.587527-10.748997 14.700834-10.748997 20.707626z m0 0" fill="#FFFFFF" p-id="8580"></path></svg>