<?xml version="1.0" standalone="no"?><!DOCTYPE svg PUBLIC "-//W3C//DTD SVG 1.1//EN" "http://www.w3.org/Graphics/SVG/1.1/DTD/svg11.dtd"><svg t="1697070481352" class="icon" viewBox="0 0 1024 1024" version="1.1" xmlns="http://www.w3.org/2000/svg" p-id="9826" xmlns:xlink="http://www.w3.org/1999/xlink" width="200" height="200"><path d="M511.296 266.592c-191.488 0-346.816 155.296-346.816 346.816s155.296 346.784 346.816 346.784c191.584 0 346.816-155.296 346.816-346.784S702.912 266.592 511.296 266.592z m93.408 180.896c22.208 18.4 33.312 43.296 33.312 74.912 0 40.896-20.512 68.096-61.408 81.696 21.504 6.592 38.112 16.8 49.888 30.688 12.512 13.888 18.688 31.904 18.688 54.112 0 34.304-11.808 62.4-35.392 84.288-25.312 22.208-57.696 33.312-97.312 33.312-37.792 0-68.288-9.696-91.616-29.088-26.016-21.792-40.608-53.6-43.712-95.2h57.184c0.992 25.312 9.184 44.608 24.384 57.696 13.504 12.512 31.2 18.688 53.088 18.688 23.616 0 42.784-6.912 57.696-20.8 12.8-12.8 19.2-28.288 19.2-46.304 0-21.792-6.784-38.016-20.288-48.384-12.512-10.4-31.008-15.616-55.712-15.616h-27.104v-42.688h26.496c22.496 0 39.712-4.992 51.488-15.104s17.696-24.384 17.696-43.2c0-18.4-5.408-32.608-16.096-42.688-11.104-10.112-27.904-15.104-50.496-15.104s-40.096 5.696-52.512 17.184c-12.8 11.808-20.288 28.992-22.4 51.488h-55.712c3.104-36.704 16.8-65.504 41.088-86.304 22.496-20.512 52.192-30.688 88.992-30.688 37.888 0 67.904 9.088 90.4 27.104zM833.6 64.192h-212a24.128 24.128 0 0 0-23.296 18.912l-65.408 130.912s139.904 8.608 222.592 89.408l97.6-200.096a24.416 24.416 0 0 0 4.992-14.304 24.736 24.736 0 0 0-24.512-24.8zM489.696 214.112l-65.312-131.008a24.256 24.256 0 0 0-23.296-18.912H188.992a24.704 24.704 0 0 0-24.512 24.896c0 5.408 2.112 10.208 4.992 14.304l97.6 200.096c82.688-80.896 222.592-89.408 222.592-89.408z" p-id="9827"></path></svg>