<svg width="51" height="54" viewBox="0 0 51 54" fill="none" xmlns="http://www.w3.org/2000/svg">
<g filter="url(#filter0_d_864_910)">
<path d="M38.0204 3.00006C40.2183 3.00006 42 4.91884 42 7.28578V40.7143C42 43.0813 40.2183 45.0001 38.0204 45.0001H6.97959C4.78172 45.0001 3 43.0813 3 40.7143V7.28578C3 4.91884 4.78172 3.00006 6.97959 3.00006L38.0204 3.00006Z" fill="#F93838"/>
<path d="M38.0204 3.00006C40.2183 3.00006 42 4.91884 42 7.28578V40.7143C42 43.0813 40.2183 45.0001 38.0204 45.0001H6.97959C4.78172 45.0001 3 43.0813 3 40.7143V7.28578C3 4.91884 4.78172 3.00006 6.97959 3.00006L38.0204 3.00006Z" fill="#F93838"/>
<path d="M44.6689 7.28578C44.6689 3.63454 41.8751 0.331119 38.0204 0.331119L6.97959 0.331119C3.12489 0.331119 0.331059 3.63454 0.331059 7.28578V40.7143C0.331059 44.3656 3.12489 47.669 6.97959 47.669H38.0204C41.8751 47.669 44.6689 44.3656 44.6689 40.7143V7.28578Z" stroke="white" stroke-width="5.33788"/>
</g>
<path d="M34.682 6.00001C37.2679 6.00001 39.3641 8.25746 39.3641 11.0422C39.3641 13.8269 37.2679 16.0844 34.682 16.0844C32.0962 16.0844 30 13.8269 30 11.0422C30 8.25746 32.0962 6.00001 34.682 6.00001Z" fill="white"/>
<path d="M10.682 32C13.2679 32 15.3641 34.2574 15.3641 37.0422C15.3641 39.8269 13.2679 42.0844 10.682 42.0844C8.09622 42.0844 6 39.8269 6 37.0422C6 34.2574 8.09622 32 10.682 32Z" fill="white"/>
<path d="M22.682 19C25.2679 19 27.3641 21.2575 27.3641 24.0422C27.3641 26.8269 25.2679 29.0844 22.682 29.0844C20.0962 29.0844 18 26.8269 18 24.0422C18 21.2575 20.0962 19 22.682 19Z" fill="white"/>
<path d="M34.682 32C37.2679 32 39.3641 34.2574 39.3641 37.0422C39.3641 39.8269 37.2679 42.0844 34.682 42.0844C32.0962 42.0844 30 39.8269 30 37.0422C30 34.2574 32.0962 32 34.682 32Z" fill="white"/>
<path d="M22.682 19.0001C25.2679 19.0001 27.3641 21.2575 27.3641 24.0423C27.3641 26.827 25.2679 29.0845 22.682 29.0845C20.0962 29.0845 18 26.827 18 24.0423C18 21.2575 20.0962 19.0001 22.682 19.0001Z" fill="white"/>
<path d="M10.682 6.00001C13.2679 6.00001 15.3641 8.25746 15.3641 11.0422C15.3641 13.8269 13.2679 16.0844 10.682 16.0844C8.09622 16.0844 6 13.8269 6 11.0422C6 8.25746 8.09622 6.00001 10.682 6.00001Z" fill="white"/>
<defs>
<filter id="filter0_d_864_910" x="0.331055" y="0.331116" width="49.6758" height="52.6758" filterUnits="userSpaceOnUse" color-interpolation-filters="sRGB">
<feFlood flood-opacity="0" result="BackgroundImageFix"/>
<feColorMatrix in="SourceAlpha" type="matrix" values="0 0 0 0 0 0 0 0 0 0 0 0 0 0 0 0 0 0 127 0" result="hardAlpha"/>
<feOffset dx="5.33788" dy="5.33788"/>
<feColorMatrix type="matrix" values="0 0 0 0 0 0 0 0 0 0 0 0 0 0 0 0 0 0 1 0"/>
<feBlend mode="normal" in2="BackgroundImageFix" result="effect1_dropShadow_864_910"/>
<feBlend mode="normal" in="SourceGraphic" in2="effect1_dropShadow_864_910" result="shape"/>
</filter>
</defs>
</svg>
