<svg width="51" height="54" viewBox="0 0 51 54" fill="none" xmlns="http://www.w3.org/2000/svg">
<g filter="url(#filter0_d_864_911)">
<path d="M38.0204 3C40.2183 3 42 4.91878 42 7.28571V40.7143C42 43.0812 40.2183 45 38.0204 45H6.97959C4.78173 45 3 43.0812 3 40.7143V7.28571C3 4.91878 4.78173 3 6.97959 3L38.0204 3Z" fill="#F93838"/>
<path d="M38.0204 3C40.2183 3 42 4.91878 42 7.28571V40.7143C42 43.0812 40.2183 45 38.0204 45H6.97959C4.78173 45 3 43.0812 3 40.7143V7.28571C3 4.91878 4.78173 3 6.97959 3L38.0204 3Z" fill="#F93838"/>
<path d="M44.6689 7.28571C44.6689 3.63448 41.8751 0.331058 38.0204 0.331058L6.97959 0.331058C3.12489 0.331058 0.331059 3.63448 0.331059 7.28571V40.7143C0.331059 44.3655 3.12489 47.6689 6.97959 47.6689H38.0204C41.8751 47.6689 44.6689 44.3655 44.6689 40.7143V7.28571Z" stroke="white" stroke-width="5.33788"/>
</g>
<path d="M33.682 32C36.2679 32 38.3641 34.2574 38.3641 37.0422C38.3641 39.8269 36.2679 42.0844 33.682 42.0844C31.0962 42.0844 29 39.8269 29 37.0422C29 34.2574 31.0962 32 33.682 32Z" fill="white"/>
<path d="M33.682 6.00001C36.2679 6.00001 38.3641 8.25746 38.3641 11.0422C38.3641 13.8269 36.2679 16.0844 33.682 16.0844C31.0962 16.0844 29 13.8269 29 11.0422C29 8.25746 31.0962 6.00001 33.682 6.00001Z" fill="white"/>
<path d="M10.682 6.00001C13.2679 6.00001 15.3641 8.25746 15.3641 11.0422C15.3641 13.8269 13.2679 16.0844 10.682 16.0844C8.09622 16.0844 6 13.8269 6 11.0422C6 8.25746 8.09622 6.00001 10.682 6.00001Z" fill="white"/>
<path d="M10.682 32C13.2679 32 15.3641 34.2574 15.3641 37.0422C15.3641 39.8269 13.2679 42.0844 10.682 42.0844C8.09622 42.0844 6 39.8269 6 37.0422C6 34.2574 8.09622 32 10.682 32Z" fill="white"/>
<defs>
<filter id="filter0_d_864_911" x="0.331055" y="0.331055" width="49.6758" height="52.6758" filterUnits="userSpaceOnUse" color-interpolation-filters="sRGB">
<feFlood flood-opacity="0" result="BackgroundImageFix"/>
<feColorMatrix in="SourceAlpha" type="matrix" values="0 0 0 0 0 0 0 0 0 0 0 0 0 0 0 0 0 0 127 0" result="hardAlpha"/>
<feOffset dx="5.33788" dy="5.33788"/>
<feColorMatrix type="matrix" values="0 0 0 0 0 0 0 0 0 0 0 0 0 0 0 0 0 0 1 0"/>
<feBlend mode="normal" in2="BackgroundImageFix" result="effect1_dropShadow_864_911"/>
<feBlend mode="normal" in="SourceGraphic" in2="effect1_dropShadow_864_911" result="shape"/>
</filter>
</defs>
</svg>
