<svg width="51" height="54" viewBox="0 0 51 54" fill="none" xmlns="http://www.w3.org/2000/svg">
<g filter="url(#filter0_d_2130_1056)">
<path d="M38.0204 3C40.2183 3 42 4.91878 42 7.28571V40.7143C42 43.0812 40.2183 45 38.0204 45H6.97959C4.78173 45 3 43.0812 3 40.7143V7.28571C3 4.91878 4.78173 3 6.97959 3H38.0204Z" fill="#F93838"/>
<path d="M38.0204 3C40.2183 3 42 4.91878 42 7.28571V40.7143C42 43.0812 40.2183 45 38.0204 45H6.97959C4.78173 45 3 43.0812 3 40.7143V7.28571C3 4.91878 4.78173 3 6.97959 3H38.0204Z" fill="#F93838"/>
<path d="M3 7.28571V40.7143C3 43.0812 4.78173 45 6.97959 45H38.0204C40.2183 45 42 43.0812 42 40.7143V7.28571C42 4.91878 40.2183 3 38.0204 3H6.97959C4.78173 3 3 4.91878 3 7.28571Z" stroke="white" stroke-width="2.34"/>
</g>
<path d="M34.682 32C37.2679 32 39.3641 34.2575 39.3641 37.0422C39.3641 39.8269 37.2679 42.0844 34.682 42.0844C32.0962 42.0844 30 39.8269 30 37.0422C30 34.2575 32.0962 32 34.682 32Z" fill="white"/>
<path d="M10.682 6C13.2679 6 15.3641 8.25745 15.3641 11.0422C15.3641 13.8269 13.2679 16.0844 10.682 16.0844C8.09622 16.0844 6 13.8269 6 11.0422C6 8.25745 8.09622 6 10.682 6Z" fill="white"/>
<defs>
<filter id="filter0_d_2130_1056" x="1.83008" y="1.82999" width="46.6777" height="49.6779" filterUnits="userSpaceOnUse" color-interpolation-filters="sRGB">
<feFlood flood-opacity="0" result="BackgroundImageFix"/>
<feColorMatrix in="SourceAlpha" type="matrix" values="0 0 0 0 0 0 0 0 0 0 0 0 0 0 0 0 0 0 127 0" result="hardAlpha"/>
<feOffset dx="5.33788" dy="5.33788"/>
<feColorMatrix type="matrix" values="0 0 0 0 0 0 0 0 0 0 0 0 0 0 0 0 0 0 1 0"/>
<feBlend mode="normal" in2="BackgroundImageFix" result="effect1_dropShadow_2130_1056"/>
<feBlend mode="normal" in="SourceGraphic" in2="effect1_dropShadow_2130_1056" result="shape"/>
</filter>
</defs>
</svg>
